<svg width="350" height="352" viewBox="0 0 350 352" fill="none" xmlns="http://www.w3.org/2000/svg">
<rect width="350" height="350" rx="10" fill="#56607F"/>
<mask id="mask0_409_4" style="mask-type:luminance" maskUnits="userSpaceOnUse" x="24" y="50" width="302" height="302">
<path d="M26.6812 343.982C26.6833 343.982 26.6851 343.984 26.6851 343.986C26.6968 344.786 26.8656 345.575 27.1819 346.309C27.4988 347.045 27.9574 347.711 28.5316 348.269C29.1057 348.827 29.7843 349.267 30.5284 349.563C31.2725 349.859 32.0677 350.005 32.8684 349.994H317.467C318.268 350.006 319.064 349.861 319.809 349.565C320.554 349.27 321.233 348.83 321.808 348.272C322.384 347.713 322.843 347.047 323.16 346.311C323.477 345.575 323.647 344.784 323.658 343.982V336.806C323.798 334.641 324.088 323.853 316.974 311.917C312.487 304.389 305.975 297.893 297.619 292.593C287.511 286.183 274.652 281.547 259.096 278.756C251.199 277.645 243.366 276.121 235.629 274.191C215.054 268.938 213.256 264.287 213.241 264.24V264.24C213.005 263.327 212.623 262.45 212.551 261.51C212.415 259.731 212.368 256.28 212.936 250.044C214.953 227.82 226.874 214.687 236.45 204.134C239.467 200.812 242.321 197.661 244.517 194.582C253.999 181.292 254.875 166.166 254.914 165.228C254.95 163.566 254.72 161.909 254.234 160.319C253.296 157.427 251.553 155.629 250.271 154.3C249.967 153.996 249.673 153.683 249.387 153.362C249.293 153.252 249.043 152.955 249.27 151.462C250.036 146.652 250.566 141.808 250.857 136.946C251.295 129.113 251.631 117.403 249.606 105.998C249.309 103.819 248.86 101.664 248.262 99.5487C246.127 91.7003 242.704 84.9932 237.943 79.4587C237.122 78.5597 217.204 57.5707 159.381 53.2713C151.384 52.6772 143.481 52.9977 135.695 53.3964C133.392 53.4476 131.101 53.7304 128.855 54.2406C122.883 55.7806 121.288 59.5641 120.874 61.6825C120.178 65.2002 121.397 67.9206 122.203 69.7342C122.213 69.7577 122.224 69.7817 122.235 69.8066C122.602 70.6474 121.974 71.5604 121.403 72.2784C120.097 73.9193 118.362 75.437 116.605 76.8868C115.98 77.4106 101.487 89.918 100.69 106.248C98.5401 118.669 98.6964 138.017 101.237 151.392C101.275 151.571 101.316 151.772 101.351 151.982C101.573 153.298 100.723 154.411 99.7653 155.339C97.5058 157.529 95.4225 160.329 95.4289 165.525C95.4601 166.166 96.3435 181.285 105.826 194.582C108.013 197.659 110.864 200.8 113.871 204.12C113.875 204.124 113.88 204.128 113.885 204.13V204.13C113.89 204.133 113.895 204.136 113.899 204.14C123.474 214.692 135.39 227.824 137.407 250.036C137.97 256.278 137.921 259.726 137.787 261.506C137.716 262.448 137.334 263.327 137.094 264.24V264.24C137.086 264.287 135.296 268.922 114.815 274.168C102.996 277.193 91.364 278.741 91.0122 278.78C75.8939 281.336 63.1129 285.862 53.021 292.233C44.6957 297.494 38.1684 304.013 33.6345 311.596C26.3802 323.713 26.5756 334.75 26.6772 336.767V343.979C26.6772 343.981 26.679 343.982 26.6812 343.982V343.982Z" fill="white" stroke="white" stroke-width="4" stroke-linejoin="round"/>
</mask>
<g mask="url(#mask0_409_4)">
<path d="M-12.4316 23.8584C-12.4316 18.3355 -7.95449 13.8584 -2.43164 13.8584H352.791C358.313 13.8584 362.791 18.3356 362.791 23.8584V379.081C362.791 384.603 358.313 389.081 352.791 389.081H-2.43165C-7.9545 389.081 -12.4316 384.603 -12.4316 379.081V23.8584Z" fill="white"/>
</g>
</svg>
