<svg xmlns="http://www.w3.org/2000/svg" width="448" height="112" viewBox="0 0 448 112">
  <g fill="#FFF">
    <g transform="translate(129 34)">
      <path d="M15.194,18.867 C10.473,18.867 7.288,22.467 7.288,27.01 C7.288,31.554 10.533,35.212 15.136,35.212 C18.027,35.212 20.328,34.209 22.098,32.439 L25.757,37.75 C23.515,40.229 19.443,41.999 14.958,41.999 C6.58,41.999 0.089,35.272 0.089,27.07 C0.089,18.809 6.58,12.083 14.841,12.083 C19.679,12.083 23.515,13.735 25.992,16.331 L21.862,21.465 C20.092,19.753 17.968,18.867 15.194,18.867 Z"/>
      <polygon points="31.182 .575 38.381 .575 38.381 41.172 31.182 41.172"/>
      <path d="M44.929,27.069 C44.929,18.808 51.066,12.082 59.208,12.082 C67.292,12.082 73.429,18.336 73.429,26.479 C73.429,27.364 73.369,28.367 73.252,28.839 L52.305,28.839 C53.013,32.792 56.022,35.624 60.389,35.624 C63.221,35.624 65.64,34.385 67.292,32.674 L71.01,37.571 C68.885,40.05 64.873,41.997 60.094,41.997 C51.302,41.998 44.929,35.271 44.929,27.069 Z M52.423,24.296 L66.053,24.296 C65.227,20.283 62.69,18.219 59.326,18.219 C55.727,18.219 53.249,20.696 52.423,24.296 Z"/>
      <polygon points="104.817 12.908 94.609 41.172 85.286 41.172 75.018 12.908 82.925 12.908 90.123 34.74 97.44 12.908"/>
      <path d="M106.82 27.069C106.82 18.808 112.957 12.082 121.099 12.082 129.183 12.082 135.32 18.336 135.32 26.479 135.32 27.364 135.26 28.367 135.143 28.839L114.196 28.839C114.904 32.792 117.913 35.624 122.28 35.624 125.112 35.624 127.531 34.385 129.183 32.674L132.901 37.571C130.776 40.05 126.764 41.997 121.985 41.997 113.193 41.998 106.82 35.271 106.82 27.069zM114.314 24.296L127.944 24.296C127.118 20.283 124.581 18.219 121.217 18.219 117.618 18.219 115.141 20.696 114.314 24.296zM148.711 41.172L141.513 41.172 141.513 12.908 148.711 12.908 148.711 15.976C150.304 13.616 152.664 12.081 155.614 12.081 157.503 12.081 159.037 12.612 160.158 13.497L157.148 20.342C156.205 19.574 154.789 19.103 153.431 19.103 150.539 19.103 148.71 21.522 148.71 25.358L148.71 41.172 148.711 41.172zM191.368 18.867C186.647 18.867 183.461 22.467 183.461 27.01 183.461 31.554 186.706 35.212 191.309 35.212 194.201 35.212 196.501 34.209 198.272 32.439L201.93 37.75C199.688 40.229 195.617 41.999 191.132 41.999 182.753 41.999 176.263 35.272 176.263 27.07 176.263 18.809 182.753 12.083 191.014 12.083 195.853 12.083 199.688 13.735 202.166 16.331L198.035 21.465C196.266 19.753 194.141 18.867 191.368 18.867z"/>
      <polygon points="207.355 .575 214.554 .575 214.554 41.172 207.355 41.172"/>
      <path d="M221.103 27.069C221.103 18.808 227.593 12.082 235.795 12.082 243.996 12.082 250.546 18.809 250.546 27.069 250.546 35.271 243.996 41.998 235.795 41.998 227.593 41.998 221.103 35.271 221.103 27.069zM243.288 27.01C243.288 22.467 240.161 18.867 235.853 18.867 231.487 18.867 228.3 22.467 228.3 27.01 228.3 31.554 231.487 35.212 235.853 35.212 240.161 35.212 243.288 31.554 243.288 27.01zM263.877 28.19C263.877 32.32 266.296 35.093 269.896 35.093 273.496 35.093 275.915 32.32 275.915 28.19L275.915 12.908 283.114 12.908 283.114 28.721C283.114 36.627 277.862 41.879 269.896 41.879 261.93 41.879 256.679 36.627 256.679 28.721L256.679 12.908 263.877 12.908 263.877 28.19zM318.749.575L318.749 41.172 311.491 41.172 311.491 38.104C309.426 40.523 306.534 41.999 302.876 41.999 295.383 41.999 289.305 35.862 289.305 27.07 289.305 18.514 295.029 12.083 302.876 12.083 306.594 12.083 309.484 13.439 311.491 15.741L311.491.576 318.749.576 318.749.575zM311.491 27.01C311.491 22.467 308.363 18.867 304.056 18.867 299.689 18.867 296.503 22.467 296.503 27.01 296.503 31.554 299.689 35.212 304.056 35.212 308.363 35.212 311.491 31.554 311.491 27.01z"/>
    </g>
    <polygon points="2.114 26.17 17.048 52.036 46.913 .305"/>
    <polygon points="14.738 56.037 .382 31.171 .382 80.904"/>
    <polygon points="20.511 58.035 50.379 109.769 80.247 58.035"/>
    <polygon points="80.245 54.035 50.379 2.303 20.513 54.035"/>
    <polygon points="86.02 56.037 100.376 80.904 100.376 31.171"/>
    <polygon points="98.644 85.904 83.71 60.038 53.843 111.77 100.38 84.905 100.379 84.903"/>
    <polygon points="83.71 52.036 98.644 26.17 100.379 27.172 100.38 27.171 53.843 .302"/>
    <polygon points="17.048 60.038 2.114 85.904 .382 84.904 .382 84.905 46.915 111.77"/>
  </g>
</svg>
