<svg width="150" height="39" viewBox="0 0 150 39" fill="none" xmlns="http://www.w3.org/2000/svg">
<path d="M48.2652 18.0367C46.6845 18.0367 45.6177 19.2421 45.6177 20.7632C45.6177 22.2843 46.7042 23.5094 48.2454 23.5094C49.2134 23.5094 49.9838 23.1736 50.5765 22.5809L51.8016 24.3592C51.0509 25.1885 49.6875 25.7812 48.1862 25.7812C45.381 25.7812 43.2077 23.5288 43.2077 20.7826C43.2077 18.0167 45.381 15.7646 48.1467 15.7646C49.7665 15.7646 51.0509 16.3178 51.8806 17.1873L50.4978 18.9059C49.9051 18.3331 49.1936 18.0367 48.2652 18.0367Z" fill="#39396D"/>
<path d="M53.6183 11.9124H56.0287V25.5048H53.6183V11.9124Z" fill="#39396D"/>
<path fill-rule="evenodd" clip-rule="evenodd" d="M63.0017 15.7651C60.2752 15.7651 58.2208 18.0171 58.2208 20.7831C58.2208 23.5293 60.3546 25.7813 63.298 25.7813C64.8981 25.7813 66.2414 25.1294 66.9529 24.2997L65.7084 22.6601C65.1549 23.233 64.345 23.6478 63.3968 23.6478C61.9346 23.6478 60.9271 22.6993 60.6901 21.3757H67.7036C67.7431 21.2177 67.7628 20.8819 67.7628 20.5856C67.7628 17.8591 65.7084 15.7651 63.0017 15.7651ZM65.2935 19.8546H60.7299C61.0065 18.6493 61.8362 17.8196 63.0412 17.8196C64.1675 17.8196 65.017 18.511 65.2935 19.8546Z" fill="#39396D"/>
<path d="M78.2729 16.0417L74.855 25.5051H71.7335L68.2959 16.0417H70.9433L73.3533 23.3516L75.8032 16.0417H78.2729Z" fill="#39396D"/>
<path fill-rule="evenodd" clip-rule="evenodd" d="M92.9695 25.5047H90.5592V16.0413H92.9695V17.0685C93.5029 16.2784 94.2931 15.7644 95.2808 15.7644C95.9129 15.7644 96.4266 15.9422 96.8019 16.2385L95.7944 18.5304C95.4783 18.2736 95.0042 18.1155 94.5499 18.1155C93.5819 18.1155 92.9695 18.9255 92.9695 20.2098V25.5047ZM83.7244 15.7651C80.998 15.7651 78.9435 18.0171 78.9435 20.783C78.9435 23.5292 81.077 25.7813 84.0208 25.7813C85.6209 25.7813 86.9642 25.1294 87.6757 24.2997L86.4311 22.6601C85.8777 23.2329 85.0677 23.6478 84.1195 23.6478C82.6574 23.6478 81.6499 22.6992 81.4128 21.3757H88.4263C88.4658 21.2176 88.4856 20.8818 88.4856 20.5855C88.4856 17.859 86.4311 15.7651 83.7244 15.7651ZM86.016 19.8546H81.4523C81.7292 18.6492 82.5589 17.8195 83.7636 17.8195C84.89 17.8195 85.7394 18.5109 86.016 19.8546ZM104.605 20.7633C104.605 19.2422 105.671 18.0368 107.252 18.0368C108.18 18.0368 108.892 18.3332 109.485 18.9067L110.867 17.1881C110.038 16.3185 108.753 15.7654 107.133 15.7654C104.368 15.7654 102.195 18.0174 102.195 20.7834C102.195 23.5296 104.368 25.7819 107.173 25.7819C108.675 25.7819 110.038 25.1893 110.788 24.3593L109.563 22.581C108.971 23.1737 108.2 23.5095 107.232 23.5095C105.691 23.5095 104.605 22.2844 104.605 20.7633Z" fill="#39396D"/>
<path d="M112.605 11.9124H115.015V25.5048H112.605V11.9124Z" fill="#39396D"/>
<path fill-rule="evenodd" clip-rule="evenodd" d="M149.902 11.9124V25.5048H147.471V24.4775C146.78 25.2875 145.812 25.7817 144.587 25.7817C142.078 25.7817 140.043 23.7269 140.043 20.7831C140.043 17.9184 141.96 15.7651 144.587 15.7651C145.831 15.7651 146.799 16.2195 147.471 16.9899V11.9124H149.902ZM117.208 20.7831C117.208 18.0172 119.381 15.7651 122.127 15.7651C124.873 15.7651 127.066 18.0175 127.066 20.7831C127.066 23.5293 124.873 25.7817 122.127 25.7817C119.381 25.7817 117.208 23.5293 117.208 20.7831ZM124.636 20.7634C124.636 19.2423 123.589 18.0369 122.147 18.0369C120.684 18.0369 119.618 19.2423 119.618 20.7634C119.618 22.2845 120.684 23.5096 122.147 23.5096C123.589 23.5096 124.636 22.2845 124.636 20.7634ZM133.545 23.4701C132.339 23.4701 131.529 22.5413 131.529 21.1584H131.53V16.0417H129.12V21.3362C129.12 23.9837 130.878 25.7418 133.545 25.7418C136.212 25.7418 137.97 23.9837 137.97 21.3362V16.0417H135.56V21.1584C135.56 22.5416 134.75 23.4701 133.545 23.4701ZM144.982 18.0369C146.424 18.0369 147.471 19.2423 147.471 20.7634C147.471 22.2845 146.424 23.5096 144.982 23.5096C143.52 23.5096 142.453 22.2845 142.453 20.7634C142.453 19.2423 143.52 18.0369 144.982 18.0369Z" fill="#39396D"/>
<path d="M33.594 9.75464V29.0852L30.0107 24.4627L28.0148 19.4206H28.0135L29.9093 14.3072L33.594 9.75464Z" fill="#AB2B4A"/>
<path d="M0.113838 9.75464V29.0852L3.28125 24.603L5.69297 19.4206H5.69431L3.24241 14.5041L0.113838 9.75464Z" fill="#E87A68"/>
<path d="M28.0135 19.4207L17.4616 20.0903L5.69297 19.4207L10.6041 9.75471L16.8539 0.0900879L23.6494 10.7012L28.0135 19.4207Z" fill="#D74D4E"/>
<path d="M33.594 9.75471L28.0135 19.4207L16.8539 0.0900879L33.594 9.75471Z" fill="#BD3246"/>
<path d="M16.8539 0.0900879L5.69297 19.4207L0.112503 9.75471L16.8539 0.0900879Z" fill="#F19175"/>
<path d="M28.0135 19.4207L24.1996 27.7671L16.8539 38.7512L9.29464 27.3984L5.69297 19.4207H28.0135Z" fill="#CF3942"/>
<path d="M16.8539 38.7512L0.112503 29.0853L5.69297 19.4207L16.8539 38.7512Z" fill="#E0625B"/>
<path d="M16.8526 38.7512L33.594 29.0853L28.0135 19.4207L16.8526 38.7512Z" fill="#9A244F"/>
</svg>
