<svg width="256" height="59" viewBox="0 0 256 59" fill="none" xmlns="http://www.w3.org/2000/svg">
<path d="M127.713 14.7496C117.761 14.7496 110.586 21.285 110.586 31.0881C110.586 40.8912 118.663 47.4266 128.614 47.4266C134.627 47.4266 139.927 45.0303 143.208 40.991L136.312 36.979C134.491 38.985 131.724 40.1559 128.614 40.1559C124.296 40.1559 120.628 37.8867 119.267 34.2559H144.524C144.722 33.2393 144.84 32.1864 144.84 31.079C144.84 21.285 137.664 14.7496 127.713 14.7496ZM119.185 27.9112C120.312 24.2895 123.395 22.0112 127.704 22.0112C132.022 22.0112 135.104 24.2895 136.222 27.9112H119.185ZM224.776 14.7496C214.825 14.7496 207.65 21.285 207.65 31.0881C207.65 40.8912 215.726 47.4266 225.678 47.4266C231.69 47.4266 236.991 45.0303 240.272 40.991L233.376 36.979C231.555 38.985 228.788 40.1559 225.678 40.1559C221.36 40.1559 217.691 37.8867 216.33 34.2559H241.588C241.786 33.2393 241.903 32.1864 241.903 31.079C241.903 21.285 234.728 14.7496 224.776 14.7496ZM216.258 27.9112C217.385 24.2895 220.468 22.0112 224.776 22.0112C229.094 22.0112 232.177 24.2895 233.295 27.9112H216.258ZM181.076 31.0881C181.076 36.5343 184.61 40.165 190.09 40.165C193.804 40.165 196.589 38.4676 198.023 35.6992L204.945 39.7203C202.079 44.531 196.707 47.4266 190.09 47.4266C180.13 47.4266 172.963 40.8912 172.963 31.0881C172.963 21.285 180.139 14.7496 190.09 14.7496C196.707 14.7496 202.07 17.6452 204.945 22.4559L198.023 26.477C196.589 23.7086 193.804 22.0112 190.09 22.0112C184.619 22.0112 181.076 25.6419 181.076 31.0881ZM255.424 4.76502V46.5189H247.312V4.76502H255.424ZM33.8852 0.226562L67.1922 58.3189H0.578125L33.8852 0.226562ZM117.157 4.76502L92.1793 48.3343L67.2012 4.76502H76.5669L92.1793 31.9958L107.792 4.76502H117.157ZM170.259 15.6573V24.4529C169.358 24.1896 168.402 24.0081 167.375 24.0081C162.138 24.0081 158.361 27.6389 158.361 33.085V46.5189H150.248V15.6573H158.361V24.0081C158.361 19.397 163.688 15.6573 170.259 15.6573Z" fill="black"/>
</svg>
