<svg width="2063.373" height="1056.327" xmlns="http://www.w3.org/2000/svg">
    <defs>
        <clipPath clipPathUnits="userSpaceOnUse" id="a">
            <path d="M0 792.245h1547.525V0H0Z"/>
        </clipPath>
    </defs>
    <g clip-path="url(#a)" transform="matrix(1.33333 0 0 -1.33333 0 1056.327)">
        <path d="M0 0c-1.781.358-3.643.502-5.331 1.119-3.855 1.406-6.476 1.282-8.939-2.985-1.963-3.407-6.441-3.332-10.012-1.971-3.13 1.192-5.956 3.181-9.067 4.903.318-8.217.207-8.278-7.367-4.69-1.608.762-3.05 2.093-5.06 1.572-1.478.346-2.615 1.491-4.067 1.84-14.128 3.399-24.384 12.904-35.124 21.818-7.03 5.835-15.507 9.563-23.369 14.177-2.435 1.428-4.905 2.798-7.276 4.326-1.88 1.212-3.396 2.719-3.024 5.27.924 2.922 2.856 5.27 4.588 7.687 1.946 2.717 1.745 4.638-1.025 6.677-18.69 13.758-39.222 23.17-62.269 26.776-19.607 3.067-39.173 3.503-58.439-1.953-20.468-5.795-37.16-16.875-47.977-35.762-8.023-14.01-9.825-29.154-8.413-44.911 1.031-11.514 4.513-22.12 11.411-31.54 7.751-10.586 18.51-17.131 30.149-22.353 14.794-6.641 30.365-10.964 46.129-14.632 11.851-2.757 23.669-5.736 34.809-10.716 8.267-3.697 16.255-8.074 20.234-16.912 7.518-16.699-.08-35.272-17.035-42.838-12.974-5.79-26.52-6.06-40.206-4.745-24.206 2.327-44.88 12.95-63.62 27.873-1.043.83-2.132 1.606-3.13 2.485-2.19 1.929-4.089 1.787-5.951-.497-6.73-8.263-13.583-16.426-20.452-24.573-2.784-3.303-.854-5.291 1.723-7.393 16.323-13.321 34.406-23.451 54.59-29.529 26.796-8.069 53.941-10.098 81.328-3.157 19.729 4.999 36.825 14.672 47.572 32.332 14.396 23.66 15.972 48.763 3.784 73.928-5.939 12.264-16.649 20.163-28.401 26.529-14.772 8.002-30.788 12.542-46.96 16.662-15.647 3.988-31.475 7.506-45.844 15.319-10.175 5.533-16.83 13.523-17.149 25.643-.403 15.401 9.12 27.374 25.564 32.096 12.456 3.576 24.991 3.183 37.565.522 17.25-3.652 32.695-11.262 46.915-21.451 3.312-2.373 5.229-2.291 7.625 1.194 2.423 3.522 4.289 7.562 7.874 10.212 2.374.55 3.69-1.154 5.07-2.521 8.732-8.656 17.454-17.325 26.077-26.089 3.405-3.46 5.73-7.739 8.355-11.768 6.985-10.718 14.159-21.288 21.772-31.586 3.585-4.852 7.229-9.978 8.268-16.265 3.45-5.125 6.221-10.454 5.127-16.952-.99-1.596.004-3.483-.75-5.114-.329-5.707-.661-11.414-.991-17.121.787-1.977-.301-4.178.737-6.124-.028-.991-.157-1.991-.066-2.971.396-4.247.205-7.43-5.638-5.037-3.347 1.37-4.015-1.838-4.064-3.937-.114-4.963-.91-9.859-1.104-14.789-.343-8.748-2.624-17.233-3.165-25.942-.158-2.541-1.944-2.389-3.591-1.735-1.806.719-3.458 1.814-5.228 2.639-2.719 1.268-2.008-.713-1.903-2.087.773-1.643-.204-3.543.752-5.16.747-6.28-.933-12.128-3.169-17.883-.899-2.313-2.395-4.108-4.748-2.122-2.624 2.215-3.033.504-3.416-1.43-1.69-8.558-5.732-16.611-5.566-25.553.042-2.258-.949-2.947-3-2.8-1.161.083-2.332.011-3.499.011l-804.293-.001h-13.604c1.99 7.791 3.659 15.233 5.886 22.506.712 2.33-.008 2.545-1.701 2.8-.001 2.928 2.385 1.783 3.688 1.935 11.132 1.304 22.077 3.495 32.451 7.758 45.321 18.621 71.619 52.818 80.594 100.435 5.651 29.975 1.621 59.057-11.633 86.605-6.017 12.505-13.772 23.928-23.842 33.664-1.777 1.719-4.541 3.077-3.937 6.37 3.687 7.608 5.909 15.791 7.787 23.9 2.057 8.878 6.521 15.575 13.089 21.537 6.653 6.041 6.428 6.294-1.051 11.005-.696.439-1.418.855-2.172 1.177-3.745 1.6-4.616 3.355-3.037 7.876 5.512 15.777 13.87 29.781 24.132 42.785 2.001 2.535 2.788 4.903.725 7.943-2.765 4.076-2.441 8.09.355 12.367 2.238 3.424 3.773 7.384 5.162 11.27 3.263 9.134 9.82 15.093 17.631 20.415 16.265 11.085 30.593 24.457 44.144 39.09-6.603 2.742-13.548.571-20.277 2.547 13.431 12.941 27.854 24.169 42.367 35.631-3.841 2.931-8.783 3.352-12.564 6.636 6.194 5.285 12.33 10.397 18.325 15.669 7.251 6.377 10.518 15.442 15.477 23.366.871 1.393 1.717 2.865 2.86 4.017 14.196 14.305 27.889 29.173 45.495 40.277-5.746 4.646-10.856 9.115-16.476 13.006-2.657 1.839-5.218 3.828-1.405 7.74 3.837 3.935 6.17 9.331 9.986 13.291 3.787 3.929 9.567 4.885 14.485 7.079 14.25 6.357 27.433 14.581 41.527 22.686-4.607 1.957-6.625 5.831-10.52 8.574 19.738 5.332 39.02 10.681 60.036 11.864-3.593 6.411-6.803 12.25-10.131 18.019-1.297 2.247-2.238 3.161 1.621 4.247 20.059 5.642 40.619 8.736 60.986 12.823 4.482.899 9.226.895 13.356 3.279 1.163 3.989.16 8.072.54 12.092.144 1.532-.724 3.258.76 4.571 14.316 10.716 30.509 17.718 47.166 23.784 5.968 2.175 12.375 1.957 18.532 3.159 4.711.92 9.51 1.384 14.794 2.125-4.448 4.01-8.897 7.168-13.383 10.301-2.677 1.87-4.146 3.76.144 5.892 3.322 1.65 6.564 3.723 9.308 6.199 3.121 2.815 6.38 3.239 10.214 2.51 9.909-1.886 19.801-3.904 29.767-5.431 7.673-1.174 15.446-1.708 23.181-2.455.893-.086 2.139-.466 2.642.702.494 1.143-.586 1.805-1.239 2.476-4.123 4.246-8.923 7.9-12.029 14.101 15.486-4.201 30.978-6.094 44.56-14.404 11.151-6.824 22.751-12.933 33.759-19.971 16.671-10.658 32.25-22.6 44.597-38.467 7.941-10.205 17.545-19.129 25.339-29.432 10.876-14.377 21.009-29.34 30.989-44.365 8.946-13.468 20.99-23.353 34.671-31.348 8.099-4.732 15.154-10.615 22.188-16.691 9.881-8.53 20.662-16.122 27.74-27.45a1134.069 1134.069 0 0 0 13.666-22.464c1.204-2.031 2.652-3.769 4.266-5.46 17.513-18.357 37.913-33.076 58.677-47.448 9.485-6.566 19.319-12.349 30.067-16.134 10.234-3.605 16.34-11.158 22.763-19.055 9.468-11.641 16.371-24.85 24.276-37.449-2.284-3.126-5.279-2.318-8.086-1.202a179.604 179.604 0 0 0-13.658 6.097c-2.915 1.453-5.637 1.463-8.624.302-5.909-2.295-11.599-4.918-16.831-8.585-6.367-4.463-10.417-4.159-16.537.859-2.549 2.088-4.804 5.182-8.546 2.321-2.345-1.793-1.564-5.541 1.302-9.893 4.877-7.404 11.612-12.701 18.898-17.453 9.829-6.41 16.906-14.728 19.391-26.618.715-3.42.099-6.582.053-9.869-.025-3.517.006-7.029.003-10.539.018-.665.017-1.334-.096-1.99-3.021-17.608-.793-13.182-14.005-21.838-1.951-1.28-3.996-2.455-5.706-4.026-15.375-14.107-34.173-22.485-52.962-30.427-17.245-7.289-35.431-8.275-53.653-2.521-9.648 3.047-19.715 2.339-29.639 2.773-1.361.059-3.523.108-3.562-1.806-.035-1.612 1.973-2.195 3.357-2.537 7.59-1.869 15.208-3.626 22.76-5.654 3.549-.325 7.115.07 10.658-.301 14.576-5.72 28.804-5.347 43.55.437 12.343 4.842 25.477 7.649 37.85 12.579 7.249 2.888 14.052 1.211 20.688-1.703 4.052-1.78 5.158-1.434 6.199 2.897.946 3.934-.103 7.576-1.359 11.217-2.671 7.746-1.615 12.42 4.898 16.96 7.754 5.406 11.725 12.401 11.383 21.899-.107 2.975 1.106 5.881.875 8.908.079 3.268-.12 6.539.16 9.802 1.033 4.613 1.805 9.35 5.775 12.626 1.235 1.018 2.266 2.429 4.175 2.102l1.467-17.003c.43-1.628.454-3.255-.018-4.881l-.263-11.817c-.934-1.628.021-3.529-.745-5.183-2.46-12.29-7.656-23.485-14.028-34.142-4.584-7.669-9.562-15.103-14.382-22.629-.806-1.26-1.793-2.485-1.744-4.037.284-9.125-.875-18.286.68-27.381.699-4.092-.278-8.316.962-12.387.151-.493-.211-1.431-.644-1.77-5.024-3.934-4.474-9.297-3.623-14.594.39-2.426-1.121-1.852-2.299-2.062-2.067 1.053-2.501-.049-2.628-1.862-.12-1.722.568-3.541-.523-5.166-3.934-.35-7.64 1.858-11.62 1.027-2.191-.457-4.895-.297-4.387-3.831C-.078 3.606 1.281 1.547 0 0" style="fill:#efda4e;fill-opacity:1;fill-rule:evenodd;stroke:none" transform="translate(1467.816 204.014)"/>
        <path d="M0 0c-7.33 38.64-.37 74.13 24.88 105.04 40.52 49.6 121.97 51.45 163.91 3.88.43-.49.77-1.06 1.16-1.59v-.01c-1.03-2.21-2-4.44-3.09-6.62-1.13-2.29-1.01-3.46 2.05-3.67 3.56-.25 7.08-1.12 10.61-1.73l2.37-3.84v-.01c-12.39-7.64-16.67-21.16-23.63-32.73-.47-.77-.29-1.95-.37-2.94-1.28-16.44-4.4-32.53-9.43-48.24-.56-1.75-1.06-3.46-2.58-4.71-8.53-7.02-14.26-16.15-19.32-25.76-9.64-18.29-21.9-35.41-25.27-56.51-.6-3.76-1.5-7.48-2.26-11.21C61.38-95.35 10.82-56.97 0 0m229.31 83.68c-7.48 17.03-18.29 31.57-31.37 44.59-3.38 2.59-6.72 5.22-10.12 7.77-18.4 13.85-39.38 21.14-61.95 24.38-1.18.47-2.49.06-3.72.23-.45.06-.89.2-1.31.49-7.87-.03-15.74-.05-23.61-.08-.31-.16-.63-.26-.96-.32-1.43-.28-2.96.19-4.34-.4-4.16-.74-8.34-1.39-12.48-2.24-38.06-7.87-66.06-29.82-85.27-62.88-9.25-15.9-14.94-33.47-16.49-52.08-.51-1.22-.09-2.57-.27-3.84 0-.02 0-.03-.01-.05a2.92 2.92 0 0 0-.44-1.2c.01-8.22.01-16.45.02-24.67.17-.3.28-.61.35-.92 0-.01 0-.01.01-.02.31-1.38-.19-2.87.34-4.23 1.89-17.09 6.84-33.26 14.76-48.51C1.1-56.98 12.6-71.47 27.61-82.74c19.02-14.3 40.4-23.22 64.34-25.33 1.18-.47 2.49-.06 3.72-.23.45-.06.89-.2 1.31-.48 7.88.09 15.76.19 23.63.28h.01c.78.18 1.56.44 2.36.52 29.96 2.73 55.89 14.52 77.34 35.51 40.63 39.76 52.19 103.39 28.99 156.15" style="fill:#fff;fill-opacity:1;fill-rule:evenodd;stroke:none" transform="translate(436.102 133.833)"/>
        <path d="M0 0c-4.665.006-9.354.299-13.989-.07-4.051-.323-5.261.738-5.23 5.039.217 30.157.011 60.316.214 90.473.035 5.214-1.328 9.355-4.36 13.585-19.479 27.175-38.699 54.535-58.048 81.804-16.705 23.545-33.468 47.049-50.616 71.148 8.109 0 15.684-.117 23.251.072 2.225.055 2.816-1.454 3.685-2.697a41955.387 41955.387 0 0 0 48.866-70.088c15.514-22.29 31.007-44.592 46.775-67.273 3.105 4.109 6.347 8.058 9.221 12.258 23.55 34.429 47.354 68.681 71.708 102.548 5.285 7.349 10.153 14.999 15.3 22.45.947 1.37 1.724 2.891 4.099 2.812 6.972-.228 13.957-.082 21.671-.082-7.027-9.993-13.671-19.516-20.394-28.984-16.124-22.704-32.28-45.386-48.432-68.069-13.658-19.185-27.336-38.357-40.977-57.554-.744-1.046-1.228-2.276-1.834-3.421-1.007-1.705-.505-3.576-.507-5.361C.368 67.534.385 36.478.36 5.422.358 3.615.71 1.766 0 0" style="fill:#fff;fill-opacity:1;fill-rule:evenodd;stroke:none" transform="translate(298.148 29.01)"/>
        <path d="M0 0c-.004 85.767.015 171.534-.09 257.301-.005 3.555.572 5.077 4.523 4.707 4.786-.449 11.267 1.606 14.023-.82 3.164-2.787 1.002-9.392 1.005-14.324.063-74.443.084-148.885-.057-223.327-.008-4.467 1.013-5.719 5.632-5.701 49.295.182 98.59.107 147.885.103 1.149-5.257.231-10.584.531-15.87.11-1.939-.799-2.722-2.688-2.605-.994.061-1.998.005-2.997.005-54.297 0-108.593-.004-162.89.022C3.251-.508 1.54-.969 0 0" style="fill:#fff;fill-opacity:1;fill-rule:evenodd;stroke:none" transform="translate(.09 29.071)"/>
        <path d="M0 0c-.652-6.572-.68-13.291-2.176-19.666-.999-4.26-4.691-7.53-8.354-10.237-8.69-6.422-9.46-8.351-6.146-18.153 1.418-4.192 1.84-8.277.858-12.587-.888-3.894-3.965-4.974-7.236-2.848-5.553 3.611-11.914 5.23-18.166 3.001-19.051-6.791-38.378-12.644-57.794-18.258-2.46-.712-4.767-1.027-7.247-.333-6.194 1.733-12.686 2.366-18.627 5.044-3.949.841-7.906.646-11.867.101-6.708 1.791-13.349 3.796-20.232 4.956-3.333.561-8.24 2.004-7.951 5.216.237 2.65 5.362 2.761 8.774 2.724 12.958-.141 25.769-1.668 38.175-5.3 9.544-2.795 18.649-.238 27.938.709 13.643 1.392 24.568 9.572 36.776 14.559 16.894 6.897 29.005 20.985 44.91 29.317 1.167.611 2.176 1.521 2.403 3.01.704 4.575 1.445 9.144 2.172 13.716.781 3.942.624 7.89.083 11.841 1.537 13.962-4.876 24.331-15.536 32.162-8.707 6.397-17.777 12.141-23.765 21.556-3.635 5.716-2.541 10.492 3.189 11.976 1.749.453 2.862.055 3.984-1.102 1.044-1.075 2.066-2.181 3.195-3.161 4.666-4.053 9.131-4.355 14.138-1.103 3.056 1.985 5.992 4.278 9.287 5.749C3.95 78.762 3.979 78.63 17.52 72.227c3.977-1.882 7.881-4.626 12.638-2.195 3.777-2.605 4.269-5.839 2.969-10.228-3.307-11.162-11.585-18.886-18.305-27.698-1.896-2.485-3.965-4.84-5.955-7.254C3.818 21.516 1.42 16.517.076 10.855-.706 7.242-.552 3.623 0 0" style="fill:#b5a53c;fill-opacity:1;fill-rule:evenodd;stroke:none" transform="translate(1513.75 352.073)"/>
        <path d="M0 0c.106-2.383 1.897-3.302 3.657-4.312 8.933-5.129 18.012-10.032 26.702-15.543 5.008-3.177 9.834-6.92 13.93-11.188 6.663-6.94 15.318-9.656 23.842-12.844 1.712-.639 3.609-.947 4.03-3.18.01-1.999.021-3.999.03-6 .794-2.035-.199-4.274.719-6.294.103-12.643-2.542-24.584-9.078-35.531-10.15 18.924-24.306 35.21-35.286 53.594-3.544 5.934-9.098 10.131-13.865 14.987C8.272-19.785 1.643-13.476-4.894-7.073-4.911-3.574-3.404-1.131 0 0" style="fill:#b5a53c;fill-opacity:1;fill-rule:evenodd;stroke:none" transform="translate(1349.879 249.029)"/>
        <path d="M0 0c1.325-.068 2.65-.196 3.975-.196 54.742-.01 109.485.024 164.227-.083 3.674-.007 5.428.584 5.008 4.767-.446 4.448-.221 8.965-.289 13.451 2.302-5.593.598-11.416.928-17.124.083-1.439-1.206-1.817-2.476-1.838a214.108 214.108 0 0 0-3.494-.029c-54.079-.002-108.158-.01-162.237.035C3.749-1.015 1.607-1.816 0 0" style="fill:#fff;fill-opacity:1;fill-rule:evenodd;stroke:none" transform="translate(.09 29.071)"/>
        <path d="M0 0c.122 1.81.352 3.619.353 5.429.021 31.06.004 62.122.044 93.183.001 1.776-.546 3.648.513 5.339C.909 71.208.921 38.466.875 5.724.872 3.807 1.574 1.706 0 0" style="fill:#fff;fill-opacity:1;fill-rule:evenodd;stroke:none" transform="translate(298.148 29.01)"/>
        <path d="M0 0c-1.035-3.994-.23-8.066-.535-12.087-.117-1.536.681-3.257-.766-4.577-.001 4.093-.053 8.187.025 12.279C-1.248-2.85-1.911-1.023 0 0" style="fill:#fcfcfc;fill-opacity:1;fill-rule:evenodd;stroke:none" transform="translate(997.252 728.881)"/>
        <path d="M0 0c.059 1.995.068 3.992.187 5.981.154 2.597 1.482 2.091 2.964 1.046C-1.057 6.102 2.716 1.597 0 0" style="fill:#fcfcfc;fill-opacity:1;fill-rule:evenodd;stroke:none" transform="translate(1484.83 212.01)"/>
        <path d="M0 0c-1.092 2.001-.78 4.162-.719 6.295C.816 4.344-.11 2.113 0 0" style="fill:#fcfcfc;fill-opacity:1;fill-rule:evenodd;stroke:none" transform="translate(1422.79 189.668)"/>
        <path d="M0 0c-1.178 1.929-.787 4.047-.736 6.124C.753 4.232-.169 2.05 0 0" style="fill:#fcfcfc;fill-opacity:1;fill-rule:evenodd;stroke:none" transform="translate(1417.834 108.826)"/>
        <path d="M0 0c-1.721-.08-3.431-.086-5.027.711C-3.338.57-1.529 1.27 0 0" style="fill:#fcfcfc;fill-opacity:1;fill-rule:evenodd;stroke:none" transform="translate(561.969 294.257)"/>
        <path d="M0 0c-1.708-.671-3.479-.878-5.299-.719C-3.691.685-1.79-.064 0 0" style="fill:#fcfcfc;fill-opacity:1;fill-rule:evenodd;stroke:none" transform="translate(533.335 294.896)"/>
        <path d="M0 0c-.086 1.774-.359 3.576.746 5.181C.644 3.434 1.431 1.558 0 0" style="fill:#fcfcfc;fill-opacity:1;fill-rule:evenodd;stroke:none" transform="translate(1523.059 338.04)"/>
        <path d="M0 0c.437 1.709-.16 3.619 1.006 5.189C.846 3.427 1.818 1.443 0 0" style="fill:#fcfcfc;fill-opacity:1;fill-rule:evenodd;stroke:none" transform="translate(1467.816 204.014)"/>
        <path d="M0 0c.102-1.746.055-3.471-.72-5.093C-.602-3.378-1.317-1.546 0 0" style="fill:#fff;fill-opacity:1;fill-rule:evenodd;stroke:none" transform="translate(413.79 176.974)"/>
        <path d="M0 0c.736-1.654.849-3.395.695-5.169C-.626-3.593.088-1.742 0 0" style="fill:#fff;fill-opacity:1;fill-rule:evenodd;stroke:none" transform="translate(413.095 147.213)"/>
        <path d="M0 0c-.09 1.754-.33 3.53.751 5.113C.627 3.391 1.4 1.536 0 0" style="fill:#fcfcfc;fill-opacity:1;fill-rule:evenodd;stroke:none" transform="translate(1418.089 132.071)"/>
        <path d="m0 0 .018 4.881C1.214 3.249 1.224 1.623 0 0" style="fill:#fcfcfc;fill-opacity:1;fill-rule:evenodd;stroke:none" transform="translate(1524.066 355.04)"/>
        <path d="M0 0c-1.092 1.598-.826 3.394-.752 5.16C.678 3.611-.107 1.741 0 0" style="fill:#fcfcfc;fill-opacity:1;fill-rule:evenodd;stroke:none" transform="translate(1393.827 49.807)"/>
        <path d="M0 0c1.721.08 3.431.086 5.027-.711C3.338-.57 1.529-1.271 0 0" style="fill:#fcfcfc;fill-opacity:1;fill-rule:evenodd;stroke:none" transform="translate(528.05 25.76)"/>
        <path d="m0 0-4.894-7.073c-3.125-4.305-6.441-8.488-9.305-12.96-1.705-2.666-2.965-2.627-5.35-.867C-32.358-11.447-46.171-3.87-61.606.385c-15.339 4.23-30.798 5.713-46.195.418-16.863-5.799-24.848-19.678-21.25-36.204 1.812-8.316 7.247-13.643 14.277-17.667 11.088-6.346 23.28-9.747 35.517-12.91 17.708-4.579 35.575-8.627 52.243-16.46 14.886-6.996 28.119-16.04 35.926-31.138 19.027-36.801 2.4-83.706-35.796-101.376-19.9-9.207-40.986-11.307-62.471-9.764-34.739 2.494-65.561 15.092-92.411 37.326-5.007 4.146-5.016 4.123-.897 9.029 7.174 8.546 14.431 17.025 21.451 25.696 1.973 2.437 3.102 2.328 5.406.364 17.626-15.015 37.108-26.481 60.368-30.242 13.753-2.223 27.528-2.795 41.014 1.61 18.535 6.053 27.486 20.587 23.622 37.781-1.509 6.713-5.229 11.774-10.809 15.584-12.359 8.436-26.622 11.959-40.818 15.501-18.407 4.592-36.842 9.052-54.054 17.311-18.719 8.984-32.855 22.067-37.475 43.237-9.803 44.921 13.958 83.338 59.25 93.157 44.075 9.553 84.501-.127 120.562-27.479 2.142-1.625 2.275-2.705.695-4.741C4.208 6.402 2.168 3.151 0 0" style="fill:#323330;fill-opacity:1;fill-rule:evenodd;stroke:none" transform="translate(1349.879 249.029)"/>
        <path d="M0 0c0-28.162.154-56.326-.059-84.486-.123-16.323-3.21-32.128-10.814-46.742-11.869-22.809-31.203-35.425-56.115-39.668-28.071-4.782-54.721-1.188-78.869 15.029-9.214 6.187-16.931 13.95-23.788 22.639-1.569 1.989-1.974 3.249.135 5.338 8.639 8.556 17.106 17.288 25.491 26.093 2.114 2.22 3.223 2.424 5.276-.188 5.467-6.958 11.687-13.225 19.038-18.257 11.799-8.078 24.893-11.285 38.929-8.988 18.519 3.029 29.926 16.37 32.75 37.131.765 5.624 1.042 11.265 1.041 16.934-.012 54.325.06 108.649-.127 162.974-.017 4.723 1.382 5.706 5.782 5.602 12.325-.291 24.663-.234 36.99-.017 3.505.062 4.439-.89 4.422-4.409C-.062 59.324 0 29.661 0 0" style="fill:#323330;fill-opacity:1;fill-rule:evenodd;stroke:none" transform="translate(1129.936 196.681)"/>
        <path d="M0 0v-6.455c0-73.304-.039-146.606.095-219.908.009-4.42-.892-6.385-5.645-5.749-4.238.565-9.846-1.769-12.479.903-2.624 2.662-.778 8.226-.781 12.508-.045 80.799.007 161.599-.134 242.399-.009 4.72.897 5.86 6.003 6.528C-2.327 31.614 3.02 26.092 8.885 18.647c56.059-71.153 112.423-142.069 168.702-213.05.575-.726 1.196-1.414 2.545-3.003v6.412c0 71.804.053 143.607-.118 215.41-.012 4.728 1.385 6.09 5.785 5.538 4.233-.531 9.724 1.804 12.444-1.015 2.478-2.57.699-7.941.701-12.069.041-80.966-.007-161.932.131-242.898.008-4.551-.734-6.083-5.797-6.263-6.657-.235-10.764 1.879-14.935 7.174C120.743-151.993 62.881-79.075 5.076-6.112 3.675-4.345 2.195-2.639 0 0" style="fill:#323330;fill-opacity:1;fill-rule:evenodd;stroke:none" transform="translate(723.833 261.078)"/>
        <path d="M0 0c-.742-3.89-.95-6.39-1.706-8.711-4.16-12.783.32-24.324 4.473-36.135 3.38-9.618 9.306-17.52 15.033-25.628 2.385-3.375 6.326-4.916 9.818-6.648 3.436-1.704 5.04-4.106 5.436-7.558 1.206-10.547 5.49-19.662 12.349-27.696 1.631-1.909 4.331-4.786 1.571-6.696-2.876-1.99-6.533-5.322-10.745-2.004-10.031 7.91-21.127 13.733-33.416 17.247-3.327.952-5.63 3.461-8.307 5.379-1.733 1.241-1.632 3.329-.912 5.043 1.731 4.118 1.171 7.156-2.38 10.379-4.687 4.256-4.485 10.733.304 14.814 3.827 3.259 4.133 6.249 1.462 10.178-1.207 1.775-1.536 4.376-3.055 5.671-10.389 8.846-5.15 19.68-3.91 29.87C-12.898-13.555-7.601-6.86 0 0" style="fill:#b5a53c;fill-opacity:1;fill-rule:evenodd;stroke:none" transform="translate(972.675 615.736)"/>
        <path d="M0 0c.068-.538.163-.744.099-.863-4.801-8.828-4.663-8.546 4.914-13.269 6.039-2.977 8.906-9.06 12.353-15.24-3.819.148-6.935.673-9.503 2.83-2.57 2.159-5.467 3.743-8.336 5.431-3.635 2.142-7.311 3.138-11.339 1.41-4.989-2.141-9.763-.591-13.777 1.897-6.884 4.269-13.761 7.908-22.307 7.147 3.066 6.776 3.599 6.446 9.737 4.538 9.342-2.903 18.941-2.419 28.358.41 2.333.701 2.663 3.44 4.449 4.505C-3.906-.343-2.183.631 0 0" style="fill:#b5a53c;fill-opacity:1;fill-rule:evenodd;stroke:none" transform="translate(1336.486 529.605)"/>
        <path d="M0 0c1.295-3.957 1.465-7.907-.084-11.843L0 0" style="fill:#b98f34;fill-opacity:1;fill-rule:evenodd;stroke:none" transform="translate(1510.043 358.885)"/>
        <path d="M0 0c3.968 1.295 7.926 1.493 11.868-.102L0 0" style="fill:#ba8c33;fill-opacity:1;fill-rule:evenodd;stroke:none" transform="translate(1376.995 278.137)"/>
        <path d="M0 0c-1.339 3.628-1.472 7.248.076 10.856L0 0" style="fill:#ba8b32;fill-opacity:1;fill-rule:evenodd;stroke:none" transform="translate(1513.75 352.073)"/>
        <path d="M0 0c1.09 2.18 2.06 4.41 3.09 6.62.9-3.01-3.16-5.79-.99-8.38 1.79-2.15 5.36-1.14 7.98-2.17.91-.36 1.76-.91 2.58-1.47-3.53.61-7.05 1.48-10.61 1.73C-1.01-3.46-1.13-2.29 0 0" style="fill:#fefefe;fill-opacity:1;fill-rule:evenodd;stroke:none" transform="translate(622.962 234.533)"/>
        <path d="M0 0c-.09-1.26-.79-2.19-1.75-2.9-10.04-7.32-14.43-18.62-19.76-29.05-3.08-6.02-2.43-13.36-3.06-20.13-1.08-11.75-5.38-22.65-8.25-33.92-.59-2.33-2.39-4.02-4.14-5.55-6.74-5.92-11.44-13.29-15.89-20.99-7.34-12.71-14.12-25.69-20.8-38.75-3.97-7.78-4.58-16.3-6.62-24.5-.55-2.23-.5-4.71-2.59-6.31.76 3.73 1.66 7.45 2.26 11.21 3.37 21.1 15.63 38.22 25.27 56.51 5.06 9.61 10.79 18.74 19.32 25.76 1.52 1.25 2.02 2.96 2.58 4.71 5.03 15.71 8.15 31.8 9.43 48.24.08.99-.1 2.17.37 2.94C-16.67-21.16-12.39-7.64 0 0" style="fill:#fefefe;fill-opacity:1;fill-rule:evenodd;stroke:none" transform="translate(637.992 225.283)"/>
        <path d="M0 0c-17.86-16.62-39.4-25.5-63.74-27.45.76 3.73 1.66 7.45 2.26 11.21 3.37 21.1 15.63 38.22 25.27 56.51 5.06 9.61 10.79 18.74 19.32 25.76 1.52 1.25 2.02 2.96 2.58 4.71 5.03 15.71 8.15 31.8 9.43 48.24.08.99-.1 2.17.37 2.94 6.96 11.57 11.24 25.09 23.63 32.73 11.46-17.33 17.09-36.56 18.26-57.14C39.52 59.44 28.26 26.3 0 0" style="fill:#efda4f;fill-opacity:1;fill-rule:evenodd;stroke:none" transform="translate(618.872 70.633)"/>
        <path d="M0 0c-3.53.61-7.05 1.48-10.61 1.73-3.06.21-3.18 1.38-2.05 3.67 1.09 2.18 2.06 4.41 3.09 6.62C-5.7 8.56-2.76 4.35 0 0" style="fill:#edd952;fill-opacity:1;fill-rule:evenodd;stroke:none" transform="translate(635.622 229.133)"/>
        <path d="m0 0-7.99-20.95S9.885-43.208 14.189-56.418c4.305-13.209 10.668-43.61 7.509-61.365-3.159-17.755-6.498-37.425-22.052-57.271-15.555-19.846-41.67-37.127-61.999-41.36-20.328-4.234-16.557-2.506-16.557-2.506l1.59-17.85s44.171-1.459 82.995 39.374c38.823 40.833 37.367 78.605 37.529 96.854.162 18.25-5.348 45.332-16.777 65.995C11.677-7.881 0 0 0 0" style="fill:#323330;fill-opacity:1;fill-rule:evenodd;stroke:none" transform="translate(634.042 262.103)"/>
    </g>
</svg>
