<svg width="226" height="248" viewBox="0 0 226 248" fill="none" xmlns="http://www.w3.org/2000/svg">
<path d="M10.1592 143.261L30.6376 133.99L54.5934 136.694L56.5253 78.3605H95.9365L112.937 89.5636H167.418L197.942 91.1089L191.374 139.784H215.716L218.034 205.844L115.642 200.822L34.5014 210.866L10.1592 201.981V143.261Z" fill="#F1DDB6"/>
<path d="M86.5806 95.1931V129.189C86.5806 130.543 85.8106 131.22 84.2707 131.22H78.0813V93.1619H84.2707C85.8106 93.1619 86.5806 93.8372 86.5806 95.1931Z" fill="#290056"/>
<path d="M132.529 114.409H123.844V108.588C123.844 107.235 124.614 106.557 126.154 106.557H130.22C131.759 106.557 132.529 107.232 132.529 108.588V114.409Z" fill="#290056"/>
<path d="M28.7825 185.802V153.653C28.7825 152.3 29.5525 151.622 31.0924 151.622H34.9719C36.5118 151.622 37.2817 152.297 37.2817 153.653V185.802C37.2817 187.155 36.5118 187.833 34.9719 187.833H31.0924C29.5525 187.833 28.7825 187.158 28.7825 185.802Z" fill="#290056"/>
<path d="M127.923 171.942H119.238V166.121C119.238 164.768 120.007 164.09 121.547 164.09H125.613C127.153 164.09 127.923 164.766 127.923 166.121V171.942Z" fill="#290056"/>
<path fill-rule="evenodd" clip-rule="evenodd" d="M163.876 63.7955L184.9 69.0383L191.468 65.092L187.521 58.5256L158.611 51.3191L165.821 22.4172L175.671 16.4991L165.805 0.0844727L149.39 9.94621L155.307 19.7944L148.099 48.699L119.189 41.4924L112.624 45.4388L116.568 52.0024L137.595 57.2453L131.022 83.5946H122.601C119.624 83.5946 116.453 83.8971 113.354 84.7696C112.152 81.5985 110.198 78.6056 107.245 76.1125C101.888 71.5936 95.1639 70.3835 89.2204 70.3835H49.8067V129.281C46.5081 128.265 43.1013 127.92 39.9189 127.92H26.2434C11.8276 127.55 0.307976 136.612 0.502492 151.527V187.925C0.305275 202.854 11.8411 211.903 26.2407 211.535H29.153L34.9749 217.818H86.7727L80.8697 211.535H129.261C134.483 211.535 140.308 210.601 145.279 207.311C150.25 210.601 156.074 211.535 161.296 211.535H170.352C176.112 211.535 182.604 210.398 187.875 206.217C193.146 210.398 199.638 211.535 205.397 211.535H225.408L225.5 141.128H219.681V132.074H195.377L207.815 83.5946H158.938L163.876 63.7955ZM89.1687 82.5385H61.9122V141.847H89.1687C98.2218 141.847 102.75 138.027 102.75 130.391V93.9938C102.75 86.3578 98.2245 82.5385 89.1687 82.5385ZM133.821 95.7496H122.55V95.7469C113.497 95.7469 108.969 99.5662 108.969 107.202V130.389C108.969 138.025 113.494 141.844 122.55 141.844H133.821C142.874 141.844 147.402 138.025 147.402 130.389V126.232H132.527V128.819C132.527 130.297 131.757 131.037 130.217 131.037H126.151C124.611 131.037 123.841 130.362 123.841 129.006V122.909H147.402V107.205C147.402 99.5689 142.877 95.7496 133.821 95.7496ZM170.938 125.31L165.303 95.7496H149.685L161.512 141.847H180.269L192.097 95.7496H176.482L170.938 125.31ZM12.6134 187.925C12.6134 195.561 17.1386 199.38 26.1944 199.38H34.418L40.24 205.663H58.6271L50.0333 196.517C52.3108 194.607 53.4508 191.744 53.4508 187.925V151.527C53.4508 143.891 48.9256 140.072 39.8699 140.072H26.1944C17.1413 140.072 12.6134 143.891 12.6134 151.527V187.925ZM97.8598 153.283H82.1527L82.1499 153.28V185.059C82.1499 186.907 81.3205 187.83 79.6564 187.83H78.0867C76.5468 187.83 75.7769 187.155 75.7769 185.799V153.283H60.0698V187.925C60.0698 195.561 64.1681 199.38 72.3593 199.38H74.0235C78.7648 199.38 81.5691 197.408 82.4309 193.467V199.38H97.8598V153.283ZM129.215 153.283H117.943V153.28C108.89 153.28 104.363 157.1 104.363 164.736V187.922C104.363 195.558 108.888 199.378 117.943 199.378H129.215C138.268 199.378 142.795 195.558 142.795 187.922V183.765H127.92V186.353C127.92 187.83 127.151 188.57 125.611 188.57H121.545C120.005 188.57 119.235 187.895 119.235 186.539V180.443H142.795V164.739C142.795 157.102 138.27 153.283 129.215 153.283ZM168.642 183.49V187.182C168.642 188.535 167.872 189.213 166.332 189.213H165.224C163.684 189.213 162.914 188.538 162.914 187.182V184.132H147.669V187.919C147.669 195.555 152.194 199.375 161.25 199.375H170.306C179.359 199.375 183.887 195.555 183.887 187.919V182.839C183.887 179.206 182.839 176.434 180.745 174.525C178.713 172.556 175.325 171.57 170.581 171.57H164.946C163.406 171.57 162.636 170.894 162.636 169.538V165.473C162.636 164.12 163.406 163.442 164.946 163.442H165.87C167.41 163.442 168.18 164.117 168.18 165.473V168.615H183.147V164.736C183.147 157.1 178.621 153.28 169.566 153.28H160.972C151.919 153.28 147.391 157.1 147.391 164.736V170.095C147.391 177.671 151.827 181.458 160.696 181.458H166.332C167.872 181.458 168.642 182.134 168.642 183.49ZM207.475 164.83H213.296V153.28H207.475V144.226H191.767V153.28H186.686V164.828H191.767V187.922C191.767 195.558 196.293 199.378 205.348 199.378H213.202V187.83H209.784C208.244 187.83 207.475 187.155 207.475 185.799V164.83Z" fill="#290056"/>
<path d="M97.5572 217.794H117.098L117.098 217.794L117.098 217.794H125.473L120.629 237.22L120.629 237.22L120.629 237.22L104.211 247.084L94.3477 230.67L97.5572 217.794Z" fill="#360362"/>
</svg>
