<?xml version="1.0" encoding="UTF-8"?>
<svg id="Layer_2" data-name="Layer 2" xmlns="http://www.w3.org/2000/svg" viewBox="0 0 321.38 77.22">
  <defs>
    <style>
      .cls-1 {
        fill: #fff;
      }

      .cls-2 {
        fill: #f7f0fc;
        opacity: .26;
      }

      .cls-3 {
        fill: #f1dcff;
        opacity: .62;
      }

      .cls-4 {
        fill: #56277d;
      }

      .cls-5 {
        fill: #f2f2f2;
      }
    </style>
  </defs>
  <g id="Layer_1-2" data-name="Layer 1">
    <g>
      <g>
        <path class="cls-2" d="m16.49,68.79l-1.48-3.13-4.11-8.77L2.25,38.48h0l-1.38-2.93c-2.15-4.57-.18-10.02,4.39-12.17l21.4-10.05c1.53-.72,3.22-1,4.9-.81l3.57.4c3.4.38,6.77-1.15,8.63-4.03,1.37-2.12,3.16-3.94,5.34-5.41,3.41-2.3,7.22-3.47,11.3-3.47.93,0,1.86.06,2.78.19,5,.66,9.4,3.03,12.69,6.83,3.7,4.27,5.24,9.63,4.46,15.5-.12.91-.3,1.81-.52,2.67-.11.43-.21.86-.26,1.29l-5.32,41.25c-.65,5.02-5.25,8.56-10.28,7.9l-22.49-2.98c-1.74-.23-3.5.04-5.09.79l-6.21,2.92c-4.57,2.15-10.03.18-12.17-4.4l-1.48-3.17Z"/>
        <path class="cls-3" d="m74.77,24.99c-.33,2.53-3.49,27.04-5.08,39.34-.5,3.85-4.03,6.57-7.88,6.06l-23.13-3.07c-.45-.06-.91.01-1.32.2l-6.8,3.19c-3.51,1.65-7.69.14-9.33-3.37l-11.25-23.96-3.49-7.41c-1.65-3.51-.14-7.69,3.37-9.34l13.71-6.44c2.15-1.01,4.7-.09,5.71,2.06h0c.76,1.63,3.18,1.25,3.41-.53h0c.31-2.35,2.47-4,4.82-3.69l5.62.75c1.25.17,2.41-.69,2.64-1.93,1.87-10.1,11.34-12.52,16.73-11.8,14.99,1.99,13.18,16.65,12.34,19.58-.03.12-.06.24-.07.36Z"/>
        <path class="cls-4" d="m71.43,21.32c-.23,1.74-3.99,29.56-5.5,40.73-.34,2.54-2.67,4.31-5.21,3.98l-21.93-2.91c-.88-.12-1.78.02-2.58.4l-5.68,2.67c-2.32,1.09-5.09.09-6.18-2.23l-13.22-28.14c-1.09-2.32-.09-5.09,2.23-6.18l8-3.76c2.32-1.09,5.09-.09,6.18,2.23l3.53,7.52c.94,1.99,3.89,1.54,4.18-.65l1.09-8.23c.34-2.54,2.67-4.33,5.21-3.99l3.05.41c2.62.35,4.95-1.58,5.19-4.22.02-.16.03-.33.06-.49.43-3.22,1.96-5.8,4.42-7.47,1.89-1.27,3.98-1.92,6.22-1.92.51,0,1.04.04,1.57.11,2.82.37,5.19,1.65,7.04,3.78,1.95,2.25,2.75,5.14,2.32,8.36Z"/>
        <g>
          <path class="cls-1" d="m39.72,33.21l-.64,4.84,8.95,6.6.64-4.84-8.95-6.6Zm.85-6.35l-.31,2.34,8.95,6.6,1.02-7.65-9.66-1.28Zm-2.02,15.2l-.64,4.84,8.95,6.6.64-4.84-8.95-6.6Zm-2.19,16.51l9.66,1.28.31-2.34-8.95-6.6-1.02,7.65Z"/>
          <path class="cls-1" d="m19.75,44.29l2.08,4.42,6.53-9-2.07-4.42-6.54,9Zm-5.01-10.66l3.29,6.99,6.53-8.99-1-2.14-8.82,4.14Zm8.8,18.74l2.07,4.42,6.54-9-2.08-4.42-6.53,9Zm10.33-.91l-6.53,8.99,1,2.14,8.82-4.14-3.29-6.99Z"/>
          <g>
            <path class="cls-1" d="m67.28,20.77c-.27,2.04-1.14,3.55-2.61,4.54-1.47.99-3.1,1.37-4.89,1.13-1.79-.24-3.26-1.03-4.43-2.37-1.16-1.34-1.61-3.03-1.34-5.07s1.14-3.55,2.61-4.54c1.47-.99,3.1-1.37,4.89-1.13s3.26,1.03,4.42,2.37c1.16,1.34,1.61,3.03,1.34,5.07Z"/>
            <polygon class="cls-1" points="65.79 30.21 61.69 61.93 48.44 60.18 52.64 28.47 65.79 30.21"/>
          </g>
        </g>
      </g>
      <g>
        <path class="cls-2" d="m319.88,34.98c-1.04-2.8-2.56-5.26-4.51-7.33-1.98-2.1-4.37-3.75-7.1-4.9-2.67-1.12-5.57-1.69-8.63-1.69-1.16,0-2.3.11-3.41.28-.65-2.7-2.06-5.11-4.15-6.97-2.65-2.35-5.92-3.58-9.47-3.58-2.97,0-5.74.88-8.12,2.53-.2-.21-.41-.41-.63-.6-2.23-1.9-5.18-2.73-8.07-2.26l-6.77,1.09c-3.09.5-5.66,2.39-7.12,4.96-.19-.24-.36-.49-.57-.73-2.4-2.77-5.6-4.49-9.24-4.97-.67-.09-1.35-.14-2.02-.14-2.97,0-5.74.85-8.22,2.53-1.59,1.07-2.89,2.4-3.89,3.94-1.35,2.09-3.8,3.21-6.28,2.93l-2.6-.29c-1.22-.14-2.45.07-3.57.59l-5.6,2.63c-1.06-.6-2.24-1.02-3.49-1.21-.55-1.84-1.61-3.5-3.1-4.76-2.23-1.9-5.18-2.72-8.07-2.26l-6.77,1.09c-3.25.52-5.92,2.58-7.33,5.36-2.25.08-4.39.33-6.37.79-1.95.45-3.64.92-5.17,1.45-.49-.25-.97-.5-1.48-.71-2.67-1.12-5.57-1.69-8.63-1.69s-5.92.57-8.59,1.69c-1.14.48-2.2,1.06-3.22,1.71-1.01-.68-2.08-1.29-3.26-1.77-.79-.33-1.61-.6-2.47-.82v-1.55c0-2.93-1.29-5.71-3.52-7.61-2.23-1.9-5.18-2.73-8.07-2.26l-6.77,1.09c-1.9.31-3.59,1.14-4.96,2.32-1.77-.32-3.66-.5-5.74-.5-2.78,0-5.39.37-7.77,1.1-2.66.82-5.03,2.07-7.02,3.7-2.16,1.77-3.86,3.95-5.05,6.48-1.17,2.5-1.76,5.25-1.76,8.17s.62,5.81,1.85,8.23c.33.65.7,1.28,1.09,1.88-.37.6-.68,1.24-.92,1.91l-2,5.64c-1.62,4.55.26,9.61,4.45,12.02.74.42,1.56.83,2.52,1.25,1.06.47,2.23.88,3.56,1.25,1.28.36,2.65.64,4.21.88,1.6.24,3.37.36,5.24.36,3.67,0,6.94-.52,9.79-1.52,1.25.56,2.63.88,4.09.88h6.77c1.25,0,2.44-.23,3.55-.65,1.1.42,2.3.65,3.55.65h6.77c1.71,0,3.32-.43,4.72-1.19.09.04.18.09.27.13,2.67,1.12,5.59,1.69,8.67,1.69s6.05-.57,8.72-1.69c0,0,.01,0,.02-.01,1.35.68,2.86,1.07,4.48,1.07h6.77c2.98,0,5.64-1.31,7.47-3.37,1.24.96,2.62,1.78,4.15,2.41,2.46,1.01,5.21,1.51,8.41,1.51,2.28,0,4.25-.21,6.03-.64,1.48-.36,2.88-.8,4.16-1.33.04-.02.08-.04.13-.06,1.84,2.54,5.28,3.5,8.22,2.12l4.52-2.12c1.15-.54,2.44-.74,3.71-.57l16.37,2.17c1.91.25,3.74-.34,5.12-1.48.36.15.7.33,1.07.46,2.66.99,5.61,1.49,8.76,1.49,1.08,0,2.23-.05,3.42-.15,1.07-.09,2.14-.21,3.18-.36,1.09-.15,2.15-.34,3.15-.55.06-.01.11-.03.17-.04,1.73.71,3.59,1.1,5.52,1.1,1.58,0,3.11-.26,4.56-.74.54.09,1.08.15,1.64.15h6.77c1.7,0,3.3-.43,4.7-1.18.09.04.16.09.25.12,2.67,1.12,5.59,1.69,8.67,1.69s6.05-.57,8.73-1.69c2.74-1.16,5.14-2.83,7.14-4.97,1.97-2.12,3.48-4.65,4.48-7.51.91-2.62,1.38-5.46,1.38-8.46s-.5-5.96-1.49-8.63Zm-158.91,10.49c-.08.23-.17.41-.24.48-.03.04-.09.09-.27.17-.07.03-.35.13-.96.13-.54,0-.81-.08-.91-.12-.19-.08-.24-.13-.27-.17-.11-.12-.23-.35-.35-.65-.16-.44-.24-1.01-.24-1.69,0-.64.08-1.18.23-1.56.11-.28.23-.5.33-.61.07-.08.17-.16.39-.25.2-.08.48-.13.83-.13.26,0,.62.02.87.12.22.09.28.16.32.2.1.1.21.32.31.57.16.42.24.98.24,1.65,0,.74-.09,1.37-.26,1.86Zm117.84-25.23c1.02-.91,2.44-1.45,3.8-1.45s2.77.54,3.79,1.45c.56.49.99,1.04,1.32,1.61-.55-.09-1.12-.14-1.7-.14h-6.77c-.6,0-1.18.05-1.75.15.33-.56.76-1.11,1.32-1.61Zm22.31,25.23c-.08.23-.17.41-.24.48-.03.04-.09.09-.27.17-.07.03-.35.13-.97.13-.39,0-.73-.05-.92-.12-.19-.08-.23-.13-.27-.17-.11-.12-.24-.35-.35-.65-.16-.44-.25-1.01-.25-1.7,0-.64.08-1.18.23-1.56.11-.28.23-.5.33-.61.07-.08.17-.16.39-.25.2-.08.48-.13.83-.13.26,0,.62.02.87.12.22.09.29.17.32.2.1.1.21.32.31.58.15.42.24.99.24,1.65,0,.74-.09,1.37-.26,1.86Z"/>
        <path class="cls-3" d="m316.13,36.38c-.86-2.29-2.09-4.31-3.67-5.98-1.6-1.69-3.53-3.02-5.74-3.96-2.17-.91-4.56-1.38-7.08-1.38s-4.86.46-7.03,1.38c-.04.02-.07.04-.11.05.09-.56.15-1.12.15-1.7,0-2.94-1.15-5.58-3.23-7.42-1.9-1.69-4.26-2.58-6.82-2.58s-4.92.89-6.82,2.58c-1.05.93-1.86,2.07-2.41,3.34v-.37c0-1.76-.77-3.43-2.11-4.57-1.34-1.14-3.11-1.63-4.84-1.36l-6.77,1.09c-2.91.47-5.05,2.98-5.05,5.92v3.81c-1.27.08-2.47.29-3.63.61.16-3.96-1.07-10.39-9.36-11.49-3.92-.52-10.82,1.24-12.18,8.59-.17.91-1.01,1.53-1.92,1.41l-4.09-.54c-1.71-.23-3.28.98-3.51,2.69h0c-.17,1.3-1.93,1.57-2.48.39-.73-1.56-2.6-2.23-4.16-1.5l-4.18,1.96c-1.08-1.02-2.52-1.65-4.12-1.65h-2.14v-1.05c0-1.76-.77-3.43-2.11-4.57-1.34-1.14-3.11-1.63-4.84-1.36l-6.77,1.09c-2.75.44-4.79,2.72-5,5.45-.58-.04-1.1-.07-1.57-.07-2.47,0-4.78.24-6.87.72-1.86.43-3.52.89-4.94,1.39-.48.17-.91.4-1.32.67-.89-.59-1.84-1.11-2.85-1.54-2.17-.92-4.56-1.38-7.08-1.38s-4.86.46-7.03,1.38c-1.82.77-3.45,1.82-4.87,3.12-1.29-1.33-2.84-2.4-4.68-3.16-1.48-.61-3.11-.99-4.94-1.15v-4.91c0-1.76-.77-3.43-2.11-4.57-1.34-1.14-3.11-1.63-4.84-1.36l-6.77,1.09c-1.78.29-3.27,1.35-4.16,2.8-2.08-.61-4.5-.92-7.17-.92-2.38,0-4.6.31-6.59.93-2.17.67-4.07,1.67-5.67,2.98-1.7,1.39-3.03,3.1-3.95,5.08-.92,1.96-1.38,4.14-1.38,6.47s.48,4.56,1.42,6.42c.74,1.47,1.7,2.77,2.83,3.87-1.13.71-2,1.79-2.46,3.07l-2,5.64c-.97,2.73.15,5.77,2.67,7.21.61.35,1.31.7,2.14,1.06.89.39,1.88.74,3.03,1.06,1.11.31,2.33.56,3.72.77,1.41.21,2.98.31,4.65.31,4.05,0,7.39-.65,10.14-1.95,1.03.82,2.32,1.31,3.74,1.31h6.77c1.33,0,2.55-.43,3.55-1.16.99.73,2.22,1.16,3.55,1.16h6.77c1.72,0,3.26-.72,4.35-1.88.7.42,1.42.81,2.19,1.14,2.17.92,4.57,1.38,7.12,1.38s4.99-.46,7.17-1.38c.65-.28,1.28-.6,1.88-.95,1.08,1.04,2.55,1.69,4.17,1.69h6.77c3.31,0,6-2.69,6-6v-1.65c.49,1.14,1.1,2.2,1.87,3.14,1.36,1.67,3.14,2.97,5.28,3.85,1.96.81,4.21,1.2,6.88,1.2,1.95,0,3.62-.17,5.09-.53,1.29-.31,2.49-.69,3.59-1.14,1.14-.46,2.05-1.26,2.7-2.22l.68,1.44c1.2,2.55,4.24,3.65,6.79,2.45l4.95-2.32c.3-.14.63-.19.96-.15l16.84,2.23c2.29.3,4.4-.97,5.3-2.97,1.16.81,2.43,1.49,3.83,2.01,2.21.82,4.69,1.24,7.37,1.24.97,0,2-.05,3.08-.14,1-.08,1.99-.2,2.96-.33,1-.14,1.97-.31,2.88-.5.5-.11.98-.22,1.44-.34,1.55.85,3.27,1.31,5.07,1.31,1.5,0,2.95-.31,4.28-.91.6.2,1.25.32,1.92.32h6.77c1.71,0,3.25-.72,4.34-1.86.69.42,1.41.8,2.17,1.12,2.17.92,4.57,1.38,7.12,1.38s4.99-.46,7.17-1.38c2.22-.94,4.16-2.28,5.77-4.01,1.6-1.71,2.82-3.77,3.64-6.11.77-2.19,1.15-4.59,1.15-7.14s-.42-5.02-1.24-7.23Zm-34.67-13.14c.29-.26.76-.44,1.14-.44s.85.18,1.14.44c.62.55.82,1.29.82,1.56,0,.17-.08.53-.29.91h-3.32c-.2-.35-.29-.7-.29-.91,0-.35.25-1.06.81-1.56Z"/>
        <path class="cls-4" d="m313.32,37.43c-.72-1.92-1.74-3.59-3.04-4.97-1.31-1.39-2.9-2.48-4.72-3.25-1.8-.76-3.79-1.14-5.91-1.14s-4.07.38-5.87,1.14c-1.81.76-3.4,1.85-4.73,3.23-.01.01-.02.02-.03.03v-.78c0-.91-.4-1.72-1.04-2.27.85-.96,1.68-2.45,1.68-4.64,0-2.66-1.2-4.28-2.22-5.18-1.35-1.19-3.02-1.82-4.83-1.82s-3.49.63-4.83,1.82c-1.01.9-2.21,2.52-2.21,5.18,0,2.21.83,3.71,1.7,4.66-.62.55-1.01,1.35-1.01,2.25v13.85c-1-.47-2.08-.71-3.2-.71-.92,0-1.82.17-2.66.49v-24.99c0-.88-.39-1.71-1.05-2.28-.67-.57-1.55-.82-2.42-.68l-6.77,1.09c-1.45.23-2.52,1.49-2.52,2.96v6.87c-.56-.07-1.16-.1-1.77-.1-2.1,0-4.03.38-5.72,1.11-.96.42-1.83.95-2.63,1.58.35-2.56.59-4.35.63-4.69.31-2.34-.27-4.45-1.69-6.09-1.35-1.55-3.07-2.48-5.13-2.75-.38-.05-.77-.08-1.14-.08-1.63,0-3.15.47-4.53,1.4-1.79,1.21-2.91,3.09-3.22,5.44-.02.12-.03.24-.04.36-.18,1.92-1.87,3.32-3.78,3.07l-2.22-.29c-1.85-.25-3.55,1.06-3.79,2.91l-.79,5.99c-.21,1.59-2.36,1.92-3.05.47l-2.57-5.47c-.79-1.69-2.81-2.42-4.5-1.62l-3.73,1.75c-.21-1.46-1.45-2.58-2.96-2.58h-5.14v-4.05c0-.88-.39-1.71-1.05-2.28-.67-.57-1.55-.82-2.42-.68l-6.77,1.09c-1.45.23-2.52,1.49-2.52,2.96v2.95c-.41-.08-.82-.16-1.22-.22-.57-.08-1.15-.15-1.72-.2-.61-.05-1.12-.08-1.58-.08-2.25,0-4.33.22-6.19.64-1.75.4-3.31.84-4.62,1.3-.94.33-1.64,1.1-1.89,2.03-1.26-1.25-2.73-2.25-4.42-2.97-1.8-.76-3.79-1.14-5.91-1.14s-4.06.38-5.87,1.14c-1.81.76-3.4,1.85-4.73,3.23-.57.59-1.08,1.25-1.54,1.95-.36-.74-.79-1.43-1.29-2.07-1.09-1.37-2.54-2.43-4.3-3.15-1.67-.69-3.63-1.02-5.98-1.02-.27,0-.54,0-.82.03v-7.85c0-.88-.39-1.71-1.05-2.28-.67-.57-1.55-.82-2.42-.68l-6.77,1.09c-1.45.23-2.52,1.49-2.52,2.96v.8c-.87-.37-1.83-.72-2.94-1.05-1.81-.53-3.95-.8-6.35-.8-2.08,0-4,.27-5.7.79-1.79.55-3.36,1.37-4.65,2.43-1.35,1.1-2.4,2.46-3.14,4.03-.73,1.56-1.1,3.31-1.1,5.2s.37,3.63,1.1,5.06c.69,1.36,1.6,2.54,2.7,3.5,1.03.9,2.21,1.65,3.5,2.24,1.1.5,2.22.96,3.39,1.37,2.72.91,3.82,1.53,4.22,1.81.08.06.14.11.16.13-.08.03-.19.07-.34.1-.28.07-.8.16-1.73.16-1.7,0-3.12-.17-4.22-.49-1.17-.35-2.14-.73-2.89-1.14-.77-.42-1.69-.49-2.51-.17-.82.31-1.47.97-1.76,1.8l-2,5.64c-.48,1.37.08,2.88,1.33,3.61.52.3,1.12.6,1.85.92.75.33,1.63.64,2.63.92.98.27,2.1.51,3.35.69,1.26.19,2.68.28,4.21.28,4.77,0,8.36-.96,10.97-2.93.32,1.31,1.5,2.29,2.91,2.29h6.77c1.66,0,3-1.34,3-3v-15.68c.36,0,.63.03.75.06.11.28.34,1.08.34,2.94v12.68c0,1.66,1.34,3,3,3h6.77c1.66,0,3-1.34,3-3v-.77c1.31,1.4,2.89,2.5,4.71,3.26,1.8.76,3.81,1.14,5.96,1.14s4.2-.38,6.01-1.14c1.6-.67,3-1.62,4.21-2.79v.29c0,1.66,1.34,3,3,3h6.77c1.66,0,3-1.34,3-3v-15.64c.68,0,1.32.07,1.9.19.77.16,1.44.31,2.01.45.22.05.44.08.66.08v5.14c0,1.76.17,3.41.51,4.89.39,1.72,1.1,3.23,2.12,4.48,1.04,1.28,2.42,2.28,4.09,2.97,1.59.66,3.47.98,5.74.98,1.71,0,3.15-.15,4.39-.45,1.14-.27,2.2-.61,3.16-1,1.31-.54,2.07-1.92,1.82-3.31l-.96-5.27c-.16-.88-.7-1.64-1.48-2.08-.78-.44-1.71-.51-2.54-.19-.45.17-.98.31-1.56.42-.6.11-1.18.16-1.73.16-.26,0-.43-.02-.55-.04-.1-.29-.22-.79-.22-1.64v-5.41h5.14c.3,0,.58-.06.86-.14l8.01,17.04c.79,1.69,2.81,2.42,4.5,1.62l4.13-1.94c.59-.28,1.24-.38,1.88-.29l15.96,2.12c1.85.24,3.54-1.05,3.79-2.9.12-.9.26-1.95.42-3.1.51.81,1.1,1.55,1.76,2.22,1.37,1.39,3.05,2.46,5,3.18,1.88.7,4,1.05,6.32,1.05.89,0,1.83-.04,2.82-.12.95-.08,1.89-.19,2.8-.31.93-.13,1.83-.29,2.68-.47.86-.18,1.64-.38,2.33-.58.07-.02.14-.05.2-.08,1.34,1.02,2.92,1.57,4.6,1.57,1.54,0,3-.46,4.26-1.32.52.45,1.2.73,1.94.73h6.77c1.66,0,3-1.34,3-3v-.73c1.3,1.38,2.87,2.47,4.67,3.22,1.8.76,3.81,1.14,5.96,1.14s4.2-.38,6.01-1.14c1.83-.77,3.42-1.88,4.74-3.29,1.31-1.41,2.32-3.11,3-5.05.65-1.87.99-3.94.99-6.15s-.35-4.31-1.05-6.19Zm-154.97,2.99c.24-.34.5-.53,1.14-.53s.87.17,1.11.51c.47.67.71,1.78.71,3.22s-.25,2.59-.73,3.29c-.24.35-.47.53-1.09.53s-.87-.18-1.12-.55c-.48-.7-.74-1.83-.74-3.27s.25-2.53.72-3.2Zm-36.16-3.27c-.77-.58-1.61-1.11-2.56-1.57-1.3-.63-2.83-1.28-4.61-1.93-.74-.26-1.42-.5-2.04-.75-.31-.12-.6-.26-.86-.4.31-.04.71-.06,1.24-.06,1.19,0,2.19.13,2.96.38.92.3,1.76.64,2.48,1.02.77.4,1.66.45,2.47.13.35-.14.65-.34.92-.59v3.78Zm176.31,3.27c.24-.34.5-.53,1.14-.53.7,0,.91.22,1.11.51.47.67.71,1.78.71,3.22s-.25,2.59-.73,3.29c-.24.35-.47.53-1.09.53s-.87-.18-1.12-.55c-.48-.7-.74-1.83-.74-3.27s.25-2.53.72-3.2Zm-40.9-.43v7.45c-1.22-.01-1.56-.47-1.72-.69-.55-.74-.82-1.84-.82-3.26,0-3.55,1.05-3.55,1.82-3.55.25,0,.49.02.73.05Z"/>
        <g>
          <g>
            <path class="cls-5" d="m111.31,50.2c1,0,1.83-.08,2.48-.25.65-.17,1.17-.39,1.57-.68.39-.29.67-.63.82-1.02.15-.39.23-.83.23-1.32,0-1.03-.49-1.89-1.45-2.57-.97-.68-2.64-1.42-5-2.2-1.03-.36-2.06-.78-3.09-1.25-1.03-.47-1.96-1.06-2.77-1.77-.82-.71-1.49-1.58-2-2.59-.52-1.02-.77-2.25-.77-3.71s.27-2.77.82-3.93c.55-1.17,1.32-2.16,2.32-2.98,1-.82,2.21-1.45,3.64-1.89,1.42-.44,3.03-.66,4.82-.66,2.12,0,3.96.23,5.5.68,1.55.45,2.82.96,3.82,1.5l-2.05,5.59c-.88-.45-1.86-.86-2.93-1.2-1.08-.35-2.37-.52-3.89-.52-1.7,0-2.92.23-3.66.7-.74.47-1.11,1.19-1.11,2.16,0,.58.14,1.06.41,1.45.27.39.66.75,1.16,1.07.5.32,1.08.61,1.73.86.65.26,1.37.52,2.16.8,1.64.61,3.06,1.2,4.27,1.8,1.21.59,2.22,1.28,3.02,2.07.8.79,1.4,1.71,1.8,2.77.39,1.06.59,2.35.59,3.86,0,2.94-1.03,5.22-3.09,6.84-2.06,1.62-5.17,2.43-9.32,2.43-1.39,0-2.65-.08-3.77-.25-1.12-.17-2.11-.37-2.98-.61-.86-.24-1.61-.5-2.23-.77-.62-.27-1.14-.53-1.57-.77l2-5.64c.94.52,2.1.98,3.48,1.39,1.38.41,3.07.61,5.07.61Z"/>
            <path class="cls-5" d="m125.19,55.61V21.42l6.77-1.09v11.46c.45-.15,1.04-.3,1.75-.43.71-.14,1.4-.2,2.07-.2,1.94,0,3.55.27,4.84.8,1.29.53,2.32,1.28,3.09,2.25.77.97,1.32,2.12,1.64,3.45.32,1.33.48,2.82.48,4.46v13.5h-6.77v-12.68c0-2.18-.28-3.73-.84-4.64-.56-.91-1.6-1.36-3.11-1.36-.61,0-1.18.05-1.71.16-.53.11-1.01.22-1.43.34v18.19h-6.77Z"/>
            <path class="cls-5" d="m171.23,43.61c0,1.88-.27,3.6-.82,5.16-.55,1.56-1.33,2.89-2.36,4-1.03,1.11-2.27,1.96-3.71,2.57-1.44.61-3.05.91-4.84.91s-3.36-.3-4.8-.91c-1.44-.61-2.67-1.46-3.71-2.57-1.03-1.11-1.83-2.44-2.41-4-.58-1.56-.86-3.28-.86-5.16s.3-3.59.89-5.14c.59-1.55,1.41-2.86,2.46-3.96,1.05-1.09,2.29-1.94,3.73-2.55,1.44-.61,3.01-.91,4.71-.91s3.31.3,4.75.91c1.44.61,2.67,1.45,3.71,2.55,1.03,1.09,1.83,2.41,2.41,3.96.58,1.55.86,3.26.86,5.14Zm-6.91,0c0-2.09-.42-3.74-1.25-4.93-.83-1.2-2.02-1.8-3.57-1.8s-2.74.6-3.59,1.8c-.85,1.2-1.27,2.84-1.27,4.93s.42,3.75,1.27,4.98c.85,1.23,2.05,1.84,3.59,1.84s2.73-.61,3.57-1.84c.83-1.23,1.25-2.89,1.25-4.98Z"/>
            <path class="cls-5" d="m187.13,37.7c-.61-.15-1.32-.31-2.14-.48-.82-.17-1.7-.25-2.64-.25-.42,0-.93.04-1.52.11-.59.08-1.04.16-1.34.25v18.28h-6.77v-22.64c1.21-.42,2.64-.83,4.3-1.2,1.65-.38,3.49-.57,5.52-.57.36,0,.8.02,1.32.07.52.05,1.03.11,1.55.18.52.08,1.03.17,1.55.27.52.11.96.24,1.32.39l-1.14,5.59Z"/>
            <path class="cls-5" d="m190.06,25.74l6.77-1.09v7.05h8.14v5.64h-8.14v8.41c0,1.42.25,2.56.75,3.41.5.85,1.51,1.27,3.02,1.27.73,0,1.48-.07,2.25-.2.77-.14,1.48-.33,2.11-.57l.96,5.27c-.82.33-1.73.62-2.73.86-1,.24-2.23.36-3.68.36-1.85,0-3.38-.25-4.59-.75-1.21-.5-2.18-1.2-2.91-2.09-.73-.89-1.24-1.98-1.52-3.25-.29-1.27-.43-2.68-.43-4.23v-20.09Z"/>
            <path class="cls-5" d="m267.38,54.84c-.61.18-1.3.36-2.09.52-.79.17-1.61.31-2.48.43-.86.12-1.74.22-2.64.3-.89.08-1.75.11-2.57.11-1.97,0-3.73-.29-5.27-.86-1.55-.58-2.85-1.4-3.91-2.48-1.06-1.08-1.87-2.38-2.43-3.91-.56-1.53-.84-3.25-.84-5.16s.24-3.69.73-5.25c.48-1.56,1.18-2.89,2.09-3.98.91-1.09,2.02-1.92,3.34-2.5,1.32-.58,2.83-.86,4.52-.86.94,0,1.78.09,2.52.27.74.18,1.49.44,2.25.77v-10.82l6.77-1.09v34.51Zm-15.32-11.37c0,2.09.47,3.77,1.41,5.05.94,1.27,2.33,1.91,4.18,1.91.61,0,1.17-.02,1.68-.07.52-.05.94-.1,1.27-.16v-12.32c-.43-.27-.98-.5-1.66-.68-.68-.18-1.37-.27-2.07-.27-3.21,0-4.82,2.18-4.82,6.55Z"/>
            <path class="cls-5" d="m277.27,52.02c0,1.36-.43,2.4-1.3,3.11-.86.71-1.84,1.07-2.93,1.07s-2.07-.36-2.93-1.07c-.86-.71-1.3-1.75-1.3-3.11s.43-2.4,1.3-3.11c.86-.71,1.84-1.07,2.93-1.07s2.07.36,2.93,1.07c.86.71,1.3,1.75,1.3,3.11Z"/>
            <path class="cls-5" d="m286.65,24.79c0,1.24-.4,2.22-1.2,2.93-.8.71-1.75,1.07-2.84,1.07s-2.04-.36-2.84-1.07c-.8-.71-1.2-1.69-1.2-2.93s.4-2.22,1.2-2.93c.8-.71,1.75-1.07,2.84-1.07s2.04.36,2.84,1.07c.8.71,1.2,1.69,1.2,2.93Zm-.64,30.82h-6.77v-23.91h6.77v23.91Z"/>
            <path class="cls-5" d="m311.38,43.61c0,1.88-.27,3.6-.82,5.16-.55,1.56-1.33,2.89-2.36,4-1.03,1.11-2.27,1.96-3.71,2.57-1.44.61-3.05.91-4.84.91s-3.36-.3-4.8-.91c-1.44-.61-2.67-1.46-3.71-2.57-1.03-1.11-1.83-2.44-2.41-4-.58-1.56-.86-3.28-.86-5.16s.3-3.59.89-5.14c.59-1.55,1.41-2.86,2.46-3.96,1.05-1.09,2.29-1.94,3.73-2.55,1.44-.61,3.01-.91,4.71-.91s3.31.3,4.75.91c1.44.61,2.67,1.45,3.71,2.55,1.03,1.09,1.83,2.41,2.41,3.96.58,1.55.86,3.26.86,5.14Zm-6.91,0c0-2.09-.42-3.74-1.25-4.93-.83-1.2-2.02-1.8-3.57-1.8s-2.74.6-3.59,1.8c-.85,1.2-1.27,2.84-1.27,4.93s.42,3.75,1.27,4.98c.85,1.23,2.05,1.84,3.59,1.84s2.73-.61,3.57-1.84c.83-1.23,1.25-2.89,1.25-4.98Z"/>
          </g>
          <g>
            <path class="cls-5" d="m111.31,50.2c1,0,1.83-.08,2.48-.25.65-.17,1.17-.39,1.57-.68.39-.29.67-.63.82-1.02.15-.39.23-.83.23-1.32,0-1.03-.49-1.89-1.45-2.57-.97-.68-2.64-1.42-5-2.2-1.03-.36-2.06-.78-3.09-1.25-1.03-.47-1.96-1.06-2.77-1.77-.82-.71-1.49-1.58-2-2.59-.52-1.02-.77-2.25-.77-3.71s.27-2.77.82-3.93c.55-1.17,1.32-2.16,2.32-2.98,1-.82,2.21-1.45,3.64-1.89,1.42-.44,3.03-.66,4.82-.66,2.12,0,3.96.23,5.5.68,1.55.45,2.82.96,3.82,1.5l-2.05,5.59c-.88-.45-1.86-.86-2.93-1.2-1.08-.35-2.37-.52-3.89-.52-1.7,0-2.92.23-3.66.7-.74.47-1.11,1.19-1.11,2.16,0,.58.14,1.06.41,1.45.27.39.66.75,1.16,1.07.5.32,1.08.61,1.73.86.65.26,1.37.52,2.16.8,1.64.61,3.06,1.2,4.27,1.8,1.21.59,2.22,1.28,3.02,2.07.8.79,1.4,1.71,1.8,2.77.39,1.06.59,2.35.59,3.86,0,2.94-1.03,5.22-3.09,6.84-2.06,1.62-5.17,2.43-9.32,2.43-1.39,0-2.65-.08-3.77-.25-1.12-.17-2.11-.37-2.98-.61-.86-.24-1.61-.5-2.23-.77-.62-.27-1.14-.53-1.57-.77l2-5.64c.94.52,2.1.98,3.48,1.39,1.38.41,3.07.61,5.07.61Z"/>
            <path class="cls-5" d="m125.19,55.61V21.42l6.77-1.09v11.46c.45-.15,1.04-.3,1.75-.43.71-.14,1.4-.2,2.07-.2,1.94,0,3.55.27,4.84.8,1.29.53,2.32,1.28,3.09,2.25.77.97,1.32,2.12,1.64,3.45.32,1.33.48,2.82.48,4.46v13.5h-6.77v-12.68c0-2.18-.28-3.73-.84-4.64-.56-.91-1.6-1.36-3.11-1.36-.61,0-1.18.05-1.71.16-.53.11-1.01.22-1.43.34v18.19h-6.77Z"/>
            <path class="cls-5" d="m171.23,43.61c0,1.88-.27,3.6-.82,5.16-.55,1.56-1.33,2.89-2.36,4-1.03,1.11-2.27,1.96-3.71,2.57-1.44.61-3.05.91-4.84.91s-3.36-.3-4.8-.91c-1.44-.61-2.67-1.46-3.71-2.57-1.03-1.11-1.83-2.44-2.41-4-.58-1.56-.86-3.28-.86-5.16s.3-3.59.89-5.14c.59-1.55,1.41-2.86,2.46-3.96,1.05-1.09,2.29-1.94,3.73-2.55,1.44-.61,3.01-.91,4.71-.91s3.31.3,4.75.91c1.44.61,2.67,1.45,3.71,2.55,1.03,1.09,1.83,2.41,2.41,3.96.58,1.55.86,3.26.86,5.14Zm-6.91,0c0-2.09-.42-3.74-1.25-4.93-.83-1.2-2.02-1.8-3.57-1.8s-2.74.6-3.59,1.8c-.85,1.2-1.27,2.84-1.27,4.93s.42,3.75,1.27,4.98c.85,1.23,2.05,1.84,3.59,1.84s2.73-.61,3.57-1.84c.83-1.23,1.25-2.89,1.25-4.98Z"/>
            <path class="cls-5" d="m187.13,37.7c-.61-.15-1.32-.31-2.14-.48-.82-.17-1.7-.25-2.64-.25-.42,0-.93.04-1.52.11-.59.08-1.04.16-1.34.25v18.28h-6.77v-22.64c1.21-.42,2.64-.83,4.3-1.2,1.65-.38,3.49-.57,5.52-.57.36,0,.8.02,1.32.07.52.05,1.03.11,1.55.18.52.08,1.03.17,1.55.27.52.11.96.24,1.32.39l-1.14,5.59Z"/>
            <path class="cls-5" d="m190.06,25.74l6.77-1.09v7.05h8.14v5.64h-8.14v8.41c0,1.42.25,2.56.75,3.41.5.85,1.51,1.27,3.02,1.27.73,0,1.48-.07,2.25-.2.77-.14,1.48-.33,2.11-.57l.96,5.27c-.82.33-1.73.62-2.73.86-1,.24-2.23.36-3.68.36-1.85,0-3.38-.25-4.59-.75-1.21-.5-2.18-1.2-2.91-2.09-.73-.89-1.24-1.98-1.52-3.25-.29-1.27-.43-2.68-.43-4.23v-20.09Z"/>
            <path class="cls-5" d="m267.38,54.84c-.61.18-1.3.36-2.09.52-.79.17-1.61.31-2.48.43-.86.12-1.74.22-2.64.3-.89.08-1.75.11-2.57.11-1.97,0-3.73-.29-5.27-.86-1.55-.58-2.85-1.4-3.91-2.48-1.06-1.08-1.87-2.38-2.43-3.91-.56-1.53-.84-3.25-.84-5.16s.24-3.69.73-5.25c.48-1.56,1.18-2.89,2.09-3.98.91-1.09,2.02-1.92,3.34-2.5,1.32-.58,2.83-.86,4.52-.86.94,0,1.78.09,2.52.27.74.18,1.49.44,2.25.77v-10.82l6.77-1.09v34.51Zm-15.32-11.37c0,2.09.47,3.77,1.41,5.05.94,1.27,2.33,1.91,4.18,1.91.61,0,1.17-.02,1.68-.07.52-.05.94-.1,1.27-.16v-12.32c-.43-.27-.98-.5-1.66-.68-.68-.18-1.37-.27-2.07-.27-3.21,0-4.82,2.18-4.82,6.55Z"/>
            <path class="cls-5" d="m277.27,52.02c0,1.36-.43,2.4-1.3,3.11-.86.71-1.84,1.07-2.93,1.07s-2.07-.36-2.93-1.07c-.86-.71-1.3-1.75-1.3-3.11s.43-2.4,1.3-3.11c.86-.71,1.84-1.07,2.93-1.07s2.07.36,2.93,1.07c.86.71,1.3,1.75,1.3,3.11Z"/>
            <path class="cls-5" d="m286.65,24.79c0,1.24-.4,2.22-1.2,2.93-.8.71-1.75,1.07-2.84,1.07s-2.04-.36-2.84-1.07c-.8-.71-1.2-1.69-1.2-2.93s.4-2.22,1.2-2.93c.8-.71,1.75-1.07,2.84-1.07s2.04.36,2.84,1.07c.8.71,1.2,1.69,1.2,2.93Zm-.64,30.82h-6.77v-23.91h6.77v23.91Z"/>
            <path class="cls-5" d="m311.38,43.61c0,1.88-.27,3.6-.82,5.16-.55,1.56-1.33,2.89-2.36,4-1.03,1.11-2.27,1.96-3.71,2.57-1.44.61-3.05.91-4.84.91s-3.36-.3-4.8-.91c-1.44-.61-2.67-1.46-3.71-2.57-1.03-1.11-1.83-2.44-2.41-4-.58-1.56-.86-3.28-.86-5.16s.3-3.59.89-5.14c.59-1.55,1.41-2.86,2.46-3.96,1.05-1.09,2.29-1.94,3.73-2.55,1.44-.61,3.01-.91,4.71-.91s3.31.3,4.75.91c1.44.61,2.67,1.45,3.71,2.55,1.03,1.09,1.83,2.41,2.41,3.96.58,1.55.86,3.26.86,5.14Zm-6.91,0c0-2.09-.42-3.74-1.25-4.93-.83-1.2-2.02-1.8-3.57-1.8s-2.74.6-3.59,1.8c-.85,1.2-1.27,2.84-1.27,4.93s.42,3.75,1.27,4.98c.85,1.23,2.05,1.84,3.59,1.84s2.73-.61,3.57-1.84c.83-1.23,1.25-2.89,1.25-4.98Z"/>
          </g>
          <g>
            <path class="cls-5" d="m111.31,50.2c1,0,1.83-.08,2.48-.25.65-.17,1.17-.39,1.57-.68.39-.29.67-.63.82-1.02.15-.39.23-.83.23-1.32,0-1.03-.49-1.89-1.45-2.57-.97-.68-2.64-1.42-5-2.2-1.03-.36-2.06-.78-3.09-1.25-1.03-.47-1.96-1.06-2.77-1.77-.82-.71-1.49-1.58-2-2.59-.52-1.02-.77-2.25-.77-3.71s.27-2.77.82-3.93c.55-1.17,1.32-2.16,2.32-2.98,1-.82,2.21-1.45,3.64-1.89,1.42-.44,3.03-.66,4.82-.66,2.12,0,3.96.23,5.5.68,1.55.45,2.82.96,3.82,1.5l-2.05,5.59c-.88-.45-1.86-.86-2.93-1.2-1.08-.35-2.37-.52-3.89-.52-1.7,0-2.92.23-3.66.7-.74.47-1.11,1.19-1.11,2.16,0,.58.14,1.06.41,1.45.27.39.66.75,1.16,1.07.5.32,1.08.61,1.73.86.65.26,1.37.52,2.16.8,1.64.61,3.06,1.2,4.27,1.8,1.21.59,2.22,1.28,3.02,2.07.8.79,1.4,1.71,1.8,2.77.39,1.06.59,2.35.59,3.86,0,2.94-1.03,5.22-3.09,6.84-2.06,1.62-5.17,2.43-9.32,2.43-1.39,0-2.65-.08-3.77-.25-1.12-.17-2.11-.37-2.98-.61-.86-.24-1.61-.5-2.23-.77-.62-.27-1.14-.53-1.57-.77l2-5.64c.94.52,2.1.98,3.48,1.39,1.38.41,3.07.61,5.07.61Z"/>
            <path class="cls-5" d="m125.19,55.61V21.42l6.77-1.09v11.46c.45-.15,1.04-.3,1.75-.43.71-.14,1.4-.2,2.07-.2,1.94,0,3.55.27,4.84.8,1.29.53,2.32,1.28,3.09,2.25.77.97,1.32,2.12,1.64,3.45.32,1.33.48,2.82.48,4.46v13.5h-6.77v-12.68c0-2.18-.28-3.73-.84-4.64-.56-.91-1.6-1.36-3.11-1.36-.61,0-1.18.05-1.71.16-.53.11-1.01.22-1.43.34v18.19h-6.77Z"/>
            <path class="cls-5" d="m171.23,43.61c0,1.88-.27,3.6-.82,5.16-.55,1.56-1.33,2.89-2.36,4-1.03,1.11-2.27,1.96-3.71,2.57-1.44.61-3.05.91-4.84.91s-3.36-.3-4.8-.91c-1.44-.61-2.67-1.46-3.71-2.57-1.03-1.11-1.83-2.44-2.41-4-.58-1.56-.86-3.28-.86-5.16s.3-3.59.89-5.14c.59-1.55,1.41-2.86,2.46-3.96,1.05-1.09,2.29-1.94,3.73-2.55,1.44-.61,3.01-.91,4.71-.91s3.31.3,4.75.91c1.44.61,2.67,1.45,3.71,2.55,1.03,1.09,1.83,2.41,2.41,3.96.58,1.55.86,3.26.86,5.14Zm-6.91,0c0-2.09-.42-3.74-1.25-4.93-.83-1.2-2.02-1.8-3.57-1.8s-2.74.6-3.59,1.8c-.85,1.2-1.27,2.84-1.27,4.93s.42,3.75,1.27,4.98c.85,1.23,2.05,1.84,3.59,1.84s2.73-.61,3.57-1.84c.83-1.23,1.25-2.89,1.25-4.98Z"/>
            <path class="cls-5" d="m187.13,37.7c-.61-.15-1.32-.31-2.14-.48-.82-.17-1.7-.25-2.64-.25-.42,0-.93.04-1.52.11-.59.08-1.04.16-1.34.25v18.28h-6.77v-22.64c1.21-.42,2.64-.83,4.3-1.2,1.65-.38,3.49-.57,5.52-.57.36,0,.8.02,1.32.07.52.05,1.03.11,1.55.18.52.08,1.03.17,1.55.27.52.11.96.24,1.32.39l-1.14,5.59Z"/>
            <path class="cls-5" d="m190.06,25.74l6.77-1.09v7.05h8.14v5.64h-8.14v8.41c0,1.42.25,2.56.75,3.41.5.85,1.51,1.27,3.02,1.27.73,0,1.48-.07,2.25-.2.77-.14,1.48-.33,2.11-.57l.96,5.27c-.82.33-1.73.62-2.73.86-1,.24-2.23.36-3.68.36-1.85,0-3.38-.25-4.59-.75-1.21-.5-2.18-1.2-2.91-2.09-.73-.89-1.24-1.98-1.52-3.25-.29-1.27-.43-2.68-.43-4.23v-20.09Z"/>
            <path class="cls-5" d="m267.38,54.84c-.61.18-1.3.36-2.09.52-.79.17-1.61.31-2.48.43-.86.12-1.74.22-2.64.3-.89.08-1.75.11-2.57.11-1.97,0-3.73-.29-5.27-.86-1.55-.58-2.85-1.4-3.91-2.48-1.06-1.08-1.87-2.38-2.43-3.91-.56-1.53-.84-3.25-.84-5.16s.24-3.69.73-5.25c.48-1.56,1.18-2.89,2.09-3.98.91-1.09,2.02-1.92,3.34-2.5,1.32-.58,2.83-.86,4.52-.86.94,0,1.78.09,2.52.27.74.18,1.49.44,2.25.77v-10.82l6.77-1.09v34.51Zm-15.32-11.37c0,2.09.47,3.77,1.41,5.05.94,1.27,2.33,1.91,4.18,1.91.61,0,1.17-.02,1.68-.07.52-.05.94-.1,1.27-.16v-12.32c-.43-.27-.98-.5-1.66-.68-.68-.18-1.37-.27-2.07-.27-3.21,0-4.82,2.18-4.82,6.55Z"/>
            <path class="cls-5" d="m277.27,52.02c0,1.36-.43,2.4-1.3,3.11-.86.71-1.84,1.07-2.93,1.07s-2.07-.36-2.93-1.07c-.86-.71-1.3-1.75-1.3-3.11s.43-2.4,1.3-3.11c.86-.71,1.84-1.07,2.93-1.07s2.07.36,2.93,1.07c.86.71,1.3,1.75,1.3,3.11Z"/>
            <path class="cls-5" d="m286.65,24.79c0,1.24-.4,2.22-1.2,2.93-.8.71-1.75,1.07-2.84,1.07s-2.04-.36-2.84-1.07c-.8-.71-1.2-1.69-1.2-2.93s.4-2.22,1.2-2.93c.8-.71,1.75-1.07,2.84-1.07s2.04.36,2.84,1.07c.8.71,1.2,1.69,1.2,2.93Zm-.64,30.82h-6.77v-23.91h6.77v23.91Z"/>
            <path class="cls-5" d="m311.38,43.61c0,1.88-.27,3.6-.82,5.16-.55,1.56-1.33,2.89-2.36,4-1.03,1.11-2.27,1.96-3.71,2.57-1.44.61-3.05.91-4.84.91s-3.36-.3-4.8-.91c-1.44-.61-2.67-1.46-3.71-2.57-1.03-1.11-1.83-2.44-2.41-4-.58-1.56-.86-3.28-.86-5.16s.3-3.59.89-5.14c.59-1.55,1.41-2.86,2.46-3.96,1.05-1.09,2.29-1.94,3.73-2.55,1.44-.61,3.01-.91,4.71-.91s3.31.3,4.75.91c1.44.61,2.67,1.45,3.71,2.55,1.03,1.09,1.83,2.41,2.41,3.96.58,1.55.86,3.26.86,5.14Zm-6.91,0c0-2.09-.42-3.74-1.25-4.93-.83-1.2-2.02-1.8-3.57-1.8s-2.74.6-3.59,1.8c-.85,1.2-1.27,2.84-1.27,4.93s.42,3.75,1.27,4.98c.85,1.23,2.05,1.84,3.59,1.84s2.73-.61,3.57-1.84c.83-1.23,1.25-2.89,1.25-4.98Z"/>
          </g>
        </g>
        <g>
          <path class="cls-1" d="m225.02,34.85l-.46,3.52,6.51,4.8.47-3.52-6.52-4.8Zm.62-4.62l-.22,1.7,6.51,4.8.74-5.57-7.03-.93Zm-1.47,11.07l-.47,3.52,6.52,4.8.46-3.52-6.51-4.8Zm-1.6,12.02l7.03.93.22-1.7-6.51-4.8-.74,5.57Z"/>
          <path class="cls-1" d="m210.49,42.92l1.51,3.21,4.75-6.55-1.51-3.22-4.76,6.55Zm-3.64-7.76l2.39,5.09,4.75-6.55-.73-1.56-6.42,3.01Zm6.41,13.64l1.51,3.22,4.76-6.55-1.51-3.21-4.75,6.55Zm7.52-.66l-4.75,6.55.73,1.56,6.42-3.01-2.39-5.09Z"/>
          <g>
            <path class="cls-1" d="m245.09,25.8c-.2,1.48-.83,2.59-1.9,3.31-1.07.72-2.26,1-3.56.83s-2.38-.75-3.22-1.72c-.85-.98-1.17-2.21-.97-3.69s.83-2.59,1.9-3.31c1.07-.72,2.26-1,3.56-.82,1.3.17,2.38.75,3.22,1.72.85.98,1.17,2.21.97,3.69Z"/>
            <polygon class="cls-1" points="244 32.67 241.02 55.76 231.37 54.48 234.43 31.4 244 32.67"/>
          </g>
        </g>
      </g>
    </g>
  </g>
</svg>