<?xml version="1.0" encoding="UTF-8"?>
<svg id="Layer_2" data-name="Layer 2" xmlns="http://www.w3.org/2000/svg" viewBox="0 0 489.49 120.04">
  <defs>
    <style>
      .cls-1 {
        fill: #fff;
      }

      .cls-2 {
        fill: #f7f0fc;
        opacity: .26;
      }

      .cls-3 {
        fill: #f1dcff;
        opacity: .62;
      }

      .cls-4 {
        fill: #56277d;
      }

      .cls-5 {
        fill: #f2f2f2;
      }
    </style>
  </defs>
  <g id="Layer_1-2" data-name="Layer 1">
    <g>
      <path class="cls-2" d="m486.32,52.31c-2.22-5.94-5.44-11.17-9.57-15.56-4.21-4.46-9.28-7.95-15.07-10.39-5.66-2.38-11.82-3.59-18.31-3.59-2.47,0-4.87.23-7.24.59-1.38-5.74-4.37-10.85-8.82-14.79-5.62-4.98-12.57-7.61-20.11-7.61-6.3,0-12.18,1.86-17.23,5.37-.43-.44-.86-.87-1.33-1.27-4.73-4.03-11-5.79-17.14-4.8l-14.38,2.32c-6.57,1.06-12.02,5.07-15.1,10.54-.39-.52-.77-1.05-1.2-1.55-5.09-5.88-11.88-9.53-19.61-10.56-1.41-.19-2.86-.29-4.29-.29-6.31,0-12.18,1.8-17.45,5.36-3.37,2.27-6.13,5.09-8.25,8.36-2.87,4.44-8.07,6.81-13.33,6.22l-5.52-.61c-2.59-.29-5.21.15-7.57,1.26l-11.89,5.58c-2.25-1.28-4.75-2.17-7.42-2.56-1.16-3.9-3.42-7.42-6.58-10.11-4.73-4.03-11-5.78-17.14-4.8l-14.38,2.32c-6.9,1.11-12.57,5.48-15.56,11.39-4.78.17-9.33.71-13.51,1.67-4.14.95-7.73,1.96-10.98,3.07-1.03-.53-2.06-1.06-3.15-1.52-5.66-2.38-11.83-3.59-18.31-3.59s-12.56,1.21-18.23,3.59c-2.41,1.02-4.68,2.26-6.84,3.64-2.14-1.44-4.42-2.73-6.92-3.76-1.68-.69-3.42-1.27-5.23-1.74v-3.29c0-6.22-2.73-12.13-7.46-16.16-4.73-4.03-11-5.79-17.14-4.8l-14.38,2.32c-4.03.65-7.62,2.41-10.53,4.93-3.77-.68-7.78-1.05-12.18-1.05-5.9,0-11.45.79-16.48,2.34-5.65,1.74-10.67,4.39-14.9,7.86-4.59,3.76-8.2,8.38-10.71,13.76-2.48,5.3-3.74,11.14-3.74,17.34s1.33,12.33,3.94,17.47c.7,1.39,1.48,2.72,2.32,4-.78,1.27-1.44,2.63-1.95,4.06l-4.25,11.97c-3.43,9.67.54,20.4,9.44,25.51,1.56.9,3.32,1.77,5.34,2.66,2.26.99,4.73,1.86,7.55,2.65,2.71.76,5.63,1.37,8.94,1.86,3.4.51,7.14.76,11.12.76,7.8,0,14.73-1.1,20.78-3.22,2.65,1.19,5.58,1.87,8.67,1.87h14.38c2.65,0,5.19-.49,7.53-1.37,2.34.89,4.88,1.37,7.53,1.37h14.38c3.63,0,7.04-.91,10.02-2.52.2.09.38.19.57.28,5.66,2.38,11.86,3.59,18.41,3.59s12.84-1.21,18.52-3.59c.02,0,.03-.02.05-.02,2.86,1.44,6.08,2.26,9.5,2.26h14.38c6.32,0,11.98-2.78,15.87-7.16,2.63,2.04,5.55,3.78,8.8,5.12,5.21,2.15,11.05,3.2,17.84,3.2,4.83,0,9.03-.45,12.79-1.36,3.14-.76,6.11-1.7,8.83-2.81.09-.04.18-.09.27-.12,3.9,5.39,11.2,7.43,17.45,4.5l9.59-4.5c2.45-1.15,5.18-1.57,7.87-1.22l34.75,4.61c4.06.54,7.94-.72,10.86-3.14.76.33,1.49.69,2.28.98,5.65,2.1,11.9,3.17,18.6,3.17,2.29,0,4.73-.11,7.26-.32,2.27-.19,4.54-.45,6.74-.76,2.32-.33,4.57-.72,6.69-1.17.13-.03.24-.06.36-.08,3.68,1.52,7.62,2.33,11.72,2.33,3.35,0,6.6-.55,9.68-1.57,1.14.19,2.29.31,3.48.31h14.38c3.61,0,7.01-.91,9.98-2.5.18.08.35.18.53.26,5.66,2.38,11.86,3.59,18.41,3.59s12.84-1.21,18.52-3.6c5.82-2.45,10.92-6,15.16-10.55,4.19-4.5,7.39-9.87,9.52-15.95,1.94-5.55,2.93-11.6,2.93-17.95s-1.07-12.66-3.17-18.32Zm-337.31,22.27c-.17.48-.36.86-.51,1.02-.07.08-.18.2-.57.36-.15.06-.74.27-2.05.27-1.14,0-1.71-.17-1.94-.27-.39-.17-.5-.28-.57-.36-.24-.26-.5-.74-.73-1.38-.34-.93-.52-2.14-.52-3.6,0-1.35.17-2.5.48-3.32.23-.59.48-1.05.71-1.29.15-.16.36-.33.82-.53.42-.18,1.01-.27,1.75-.27.55,0,1.33.05,1.84.27.46.19.6.34.67.42.21.22.45.67.65,1.22.33.9.5,2.08.5,3.51,0,1.58-.18,2.91-.55,3.95Zm250.13-53.56c2.18-1.93,5.19-3.08,8.06-3.08s5.88,1.15,8.05,3.07c1.19,1.05,2.1,2.22,2.8,3.41-1.17-.2-2.38-.3-3.6-.3h-14.38c-1.27,0-2.51.11-3.71.32.69-1.19,1.61-2.37,2.8-3.42Zm47.35,53.56c-.17.48-.36.86-.51,1.02-.07.07-.18.2-.56.36-.15.06-.75.27-2.05.27-.83,0-1.54-.1-1.94-.27-.39-.17-.5-.28-.57-.36-.24-.26-.5-.74-.73-1.38-.35-.93-.52-2.15-.52-3.6,0-1.35.17-2.5.48-3.32.23-.59.48-1.05.71-1.29.15-.16.36-.33.83-.53.42-.18,1.01-.27,1.75-.27.55,0,1.33.05,1.84.26.47.2.61.35.68.42.21.22.45.67.65,1.22.33.88.5,2.09.5,3.5,0,1.58-.18,2.91-.55,3.95Z"/>
      <path class="cls-3" d="m478.36,55.28c-1.82-4.87-4.44-9.14-7.79-12.69-3.4-3.6-7.49-6.42-12.18-8.4-4.62-1.94-9.67-2.92-15.02-2.92s-10.31.98-14.93,2.93c-.08.03-.15.08-.23.11.19-1.18.32-2.38.32-3.62,0-6.25-2.43-11.84-6.85-15.76-4.04-3.58-9.04-5.47-14.48-5.47s-10.44,1.89-14.48,5.47c-2.23,1.98-3.95,4.39-5.11,7.09v-.79c0-3.73-1.64-7.28-4.48-9.69-2.84-2.42-6.59-3.47-10.28-2.88l-14.38,2.32c-6.17.99-10.71,6.32-10.71,12.57v8.09c-2.69.17-5.25.62-7.7,1.3.34-8.4-2.26-22.06-19.88-24.39-8.32-1.1-22.96,2.64-25.84,18.24-.36,1.92-2.14,3.24-4.08,2.98l-8.68-1.15c-3.63-.48-6.97,2.07-7.45,5.7h0c-.37,2.75-4.09,3.33-5.27.82-1.56-3.32-5.51-4.74-8.83-3.18l-8.86,4.16c-2.28-2.16-5.35-3.49-8.74-3.49h-4.54v-2.22c0-3.73-1.64-7.28-4.48-9.69-2.84-2.42-6.6-3.47-10.28-2.88l-14.38,2.32c-5.84.94-10.16,5.77-10.62,11.57-1.22-.09-2.34-.15-3.33-.15-5.25,0-10.15.51-14.57,1.53-3.95.91-7.47,1.9-10.48,2.95-1.01.35-1.93.85-2.79,1.42-1.89-1.25-3.9-2.36-6.04-3.26-4.62-1.94-9.67-2.93-15.02-2.93s-10.31.98-14.93,2.93c-3.87,1.63-7.32,3.87-10.35,6.62-2.73-2.83-6.04-5.1-9.94-6.7-3.14-1.29-6.6-2.1-10.49-2.45v-10.43c0-3.73-1.64-7.28-4.48-9.69-2.84-2.42-6.59-3.47-10.28-2.88l-14.38,2.32c-3.78.61-6.94,2.86-8.83,5.94-4.42-1.29-9.54-1.95-15.22-1.95-5.05,0-9.76.66-13.98,1.97-4.6,1.42-8.65,3.54-12.03,6.32-3.6,2.94-6.42,6.57-8.39,10.78-1.95,4.16-2.94,8.79-2.94,13.74s1.02,9.69,3.02,13.62c1.58,3.11,3.6,5.87,6.02,8.22-2.4,1.51-4.25,3.8-5.21,6.51l-4.25,11.97c-2.06,5.8.33,12.24,5.67,15.31,1.3.74,2.79,1.48,4.54,2.25,1.89.83,3.99,1.56,6.42,2.25,2.37.66,4.94,1.2,7.89,1.64,2.99.44,6.32.67,9.88.67,8.59,0,15.69-1.37,21.52-4.14,2.18,1.74,4.93,2.78,7.94,2.78h14.38c2.82,0,5.42-.91,7.53-2.46,2.11,1.55,4.71,2.46,7.53,2.46h14.38c3.64,0,6.92-1.54,9.24-3.99,1.48.89,3.02,1.72,4.65,2.41,4.62,1.94,9.7,2.93,15.12,2.93s10.6-.98,15.22-2.93c1.39-.59,2.71-1.27,4-2.01,2.29,2.22,5.41,3.59,8.85,3.59h14.38c7.03,0,12.74-5.7,12.74-12.74v-3.51c1.04,2.43,2.34,4.67,3.97,6.67,2.89,3.55,6.66,6.31,11.2,8.18,4.17,1.72,8.94,2.55,14.6,2.55,4.15,0,7.69-.37,10.8-1.13,2.73-.66,5.29-1.47,7.61-2.42,2.42-.99,4.35-2.67,5.72-4.71l1.44,3.06c2.55,5.42,9,7.75,14.42,5.2l10.5-4.93c.63-.3,1.34-.41,2.03-.32l35.74,4.74c4.85.64,9.34-2.06,11.26-6.29,2.47,1.72,5.16,3.17,8.12,4.27,4.7,1.75,9.96,2.63,15.63,2.63,2.06,0,4.25-.1,6.53-.29,2.12-.18,4.23-.42,6.28-.7,2.12-.3,4.18-.66,6.12-1.07,1.07-.22,2.09-.46,3.06-.71,3.29,1.81,6.94,2.77,10.77,2.77,3.19,0,6.26-.67,9.09-1.93,1.28.43,2.65.68,4.07.68h14.38c3.63,0,6.89-1.52,9.21-3.96,1.47.88,2.99,1.7,4.6,2.38,4.62,1.94,9.7,2.93,15.12,2.93s10.6-.98,15.22-2.93c4.71-1.99,8.83-4.85,12.24-8.51,3.39-3.64,5.98-8,7.72-12.97,1.63-4.65,2.45-9.75,2.45-15.15s-.89-10.65-2.64-15.36Zm-73.59-27.9c.63-.56,1.62-.94,2.42-.94s1.8.39,2.42.94c1.31,1.16,1.73,2.73,1.73,3.31,0,.36-.17,1.13-.62,1.93h-7.04c-.43-.75-.62-1.48-.62-1.93,0-.74.54-2.25,1.72-3.3Z"/>
      <path class="cls-4" d="m472.4,57.51c-1.52-4.07-3.69-7.62-6.45-10.54-2.79-2.95-6.16-5.27-10.03-6.9-3.83-1.61-8.05-2.43-12.55-2.43s-8.63.82-12.46,2.43c-3.85,1.62-7.22,3.93-10.04,6.87-.02.02-.04.05-.06.07v-1.65c0-1.93-.86-3.65-2.21-4.82,1.81-2.03,3.56-5.19,3.56-9.85,0-5.64-2.56-9.09-4.7-10.99-2.86-2.53-6.4-3.87-10.25-3.87s-7.4,1.34-10.26,3.87c-2.14,1.9-4.7,5.35-4.7,10.99,0,4.69,1.77,7.87,3.6,9.9-1.32,1.17-2.15,2.87-2.15,4.77v29.41c-2.12-1-4.42-1.52-6.8-1.52-1.96,0-3.86.36-5.65,1.03V21.23c0-1.87-.82-3.64-2.24-4.85-1.42-1.21-3.29-1.73-5.14-1.44l-14.38,2.32c-3.09.5-5.36,3.16-5.36,6.29v14.59c-1.2-.14-2.46-.21-3.76-.21-4.47,0-8.55.8-12.15,2.37-2.03.89-3.88,2.02-5.58,3.35.73-5.44,1.24-9.23,1.34-9.96.66-4.98-.58-9.44-3.59-12.92-2.86-3.29-6.52-5.26-10.88-5.84-.81-.11-1.63-.16-2.42-.16-3.46,0-6.69,1-9.61,2.96-3.81,2.57-6.17,6.56-6.83,11.54-.03.25-.06.51-.09.76-.38,4.07-3.97,7.05-8.02,6.51l-4.71-.63c-3.93-.52-7.53,2.24-8.05,6.17l-1.68,12.72c-.45,3.37-5.02,4.08-6.46,1l-5.45-11.61c-1.68-3.59-5.96-5.13-9.54-3.44l-7.92,3.72c-.44-3.09-3.07-5.47-6.28-5.47h-10.91v-8.59c0-1.87-.82-3.64-2.24-4.85-1.42-1.21-3.29-1.73-5.14-1.44l-14.38,2.32c-3.09.5-5.36,3.16-5.36,6.29v6.27c-.87-.16-1.74-.33-2.59-.46-1.22-.18-2.43-.32-3.66-.43-1.29-.11-2.39-.17-3.35-.17-4.77,0-9.19.46-13.15,1.37-3.72.85-7.02,1.78-9.8,2.75-2,.7-3.47,2.34-4.02,4.31-2.67-2.65-5.8-4.78-9.39-6.29-3.83-1.61-8.05-2.43-12.55-2.43s-8.63.82-12.46,2.43c-3.85,1.62-7.22,3.93-10.04,6.87-1.21,1.26-2.29,2.66-3.27,4.15-.77-1.57-1.68-3.04-2.75-4.39-2.31-2.9-5.38-5.16-9.12-6.7-3.55-1.46-7.7-2.17-12.7-2.17-.57,0-1.15.02-1.74.06v-16.66c0-1.87-.82-3.64-2.24-4.85-1.42-1.21-3.29-1.73-5.14-1.44l-14.38,2.32c-3.09.5-5.36,3.16-5.36,6.29v1.71c-1.85-.79-3.89-1.53-6.24-2.22-3.85-1.13-8.38-1.7-13.47-1.7-4.42,0-8.49.57-12.1,1.68-3.8,1.17-7.13,2.91-9.88,5.16-2.86,2.34-5.1,5.21-6.66,8.55-1.55,3.32-2.34,7.03-2.34,11.05s.78,7.7,2.33,10.75c1.46,2.88,3.4,5.38,5.74,7.42,2.19,1.91,4.69,3.51,7.42,4.76,2.33,1.07,4.72,2.03,7.19,2.9,5.78,1.93,8.1,3.24,8.96,3.85.18.12.29.22.35.27-.18.07-.41.14-.72.22-.59.15-1.71.33-3.68.33-3.62,0-6.63-.35-8.95-1.04-2.48-.74-4.54-1.55-6.13-2.42-1.64-.9-3.58-1.03-5.33-.37-1.75.67-3.11,2.06-3.74,3.82l-4.25,11.97c-1.03,2.9.16,6.12,2.83,7.65,1.1.63,2.39,1.27,3.93,1.94,1.59.7,3.46,1.35,5.58,1.94,2.08.58,4.47,1.08,7.11,1.47,2.68.4,5.69.6,8.94.6,10.12,0,17.74-2.05,23.28-6.22.68,2.79,3.17,4.87,6.17,4.87h14.38c3.52,0,6.37-2.85,6.37-6.37v-33.29c.76-.01,1.35.06,1.6.12.23.59.72,2.29.72,6.25v26.92c0,3.52,2.85,6.37,6.37,6.37h14.38c3.52,0,6.37-2.85,6.37-6.37v-1.63c2.78,2.97,6.14,5.3,9.99,6.92,3.83,1.61,8.09,2.43,12.65,2.43s8.92-.82,12.75-2.43c3.39-1.43,6.37-3.43,8.95-5.91v.62c0,3.52,2.85,6.37,6.37,6.37h14.38c3.52,0,6.37-2.85,6.37-6.37v-33.19c1.45.01,2.8.15,4.04.4,1.63.33,3.06.65,4.27.95.46.11.93.17,1.4.18v10.92c0,3.74.36,7.23,1.07,10.38.83,3.66,2.34,6.86,4.5,9.51,2.21,2.72,5.14,4.84,8.69,6.31,3.38,1.4,7.36,2.07,12.17,2.07,3.63,0,6.68-.31,9.31-.95,2.42-.58,4.67-1.3,6.7-2.13,2.79-1.14,4.4-4.07,3.86-7.03l-2.03-11.19c-.34-1.87-1.49-3.48-3.14-4.41-1.65-.93-3.63-1.07-5.4-.4-.96.37-2.08.67-3.32.88-1.27.22-2.51.34-3.68.34-.54,0-.92-.04-1.17-.08-.22-.61-.47-1.69-.47-3.49v-11.49h10.91c.64,0,1.24-.12,1.82-.3l16.99,36.17c1.68,3.59,5.96,5.13,9.54,3.44l8.77-4.12c1.24-.58,2.63-.8,3.99-.62l33.88,4.49c3.92.52,7.52-2.23,8.05-6.15.26-1.91.56-4.14.89-6.59,1.08,1.72,2.33,3.3,3.73,4.72,2.9,2.94,6.47,5.22,10.61,6.76,3.99,1.48,8.5,2.23,13.41,2.23,1.88,0,3.89-.09,5.99-.27,2.01-.17,4-.4,5.94-.67,1.98-.28,3.89-.61,5.69-.99,1.82-.38,3.49-.8,4.95-1.24.15-.05.29-.11.43-.17,2.85,2.17,6.2,3.33,9.76,3.33,3.26,0,6.36-.97,9.05-2.81,1.11.95,2.54,1.55,4.12,1.55h14.38c3.52,0,6.37-2.85,6.37-6.37v-1.55c2.77,2.93,6.09,5.24,9.91,6.85,3.83,1.61,8.09,2.43,12.65,2.43s8.91-.82,12.75-2.43c3.88-1.63,7.26-3.98,10.05-6.98,2.78-2.99,4.93-6.6,6.37-10.73,1.39-3.98,2.09-8.37,2.09-13.05s-.75-9.14-2.23-13.13Zm-328.93,6.34c.52-.73,1.06-1.13,2.43-1.13s1.85.36,2.35,1.08c.99,1.42,1.51,3.79,1.51,6.83s-.54,5.49-1.55,6.99c-.5.74-1,1.12-2.31,1.12s-1.85-.39-2.38-1.16c-1.03-1.49-1.57-3.89-1.57-6.95s.53-5.38,1.53-6.79Zm-76.76-6.95c-1.62-1.23-3.43-2.35-5.44-3.33-2.75-1.34-6-2.71-9.78-4.11-1.57-.54-3.01-1.07-4.33-1.59-.67-.26-1.28-.55-1.83-.84.65-.08,1.51-.14,2.63-.14,2.53,0,4.65.27,6.28.8,1.96.64,3.73,1.36,5.27,2.16,1.63.84,3.53.95,5.24.28.74-.29,1.39-.73,1.96-1.25v8.02Zm374.23,6.95c.52-.73,1.06-1.13,2.43-1.13,1.48,0,1.92.47,2.35,1.08.99,1.42,1.51,3.78,1.51,6.83s-.54,5.49-1.55,6.99c-.5.74-1,1.12-2.31,1.12s-1.85-.39-2.39-1.16c-1.03-1.49-1.57-3.89-1.57-6.95s.53-5.38,1.53-6.79Zm-86.81-.91v15.81c-2.6-.02-3.31-.99-3.66-1.47-1.16-1.57-1.75-3.9-1.75-6.93,0-7.53,2.23-7.53,3.86-7.53.52,0,1.03.04,1.55.11Z"/>
      <g>
        <g>
          <path class="cls-5" d="m43.62,84.63c2.12,0,3.88-.18,5.26-.53,1.38-.35,2.49-.83,3.33-1.45.83-.61,1.41-1.33,1.74-2.17.32-.84.48-1.77.48-2.8,0-2.19-1.03-4-3.09-5.45-2.06-1.45-5.6-3.01-10.61-4.68-2.19-.77-4.38-1.66-6.56-2.65-2.19-1-4.15-2.25-5.89-3.76-1.74-1.51-3.15-3.34-4.25-5.5-1.1-2.16-1.64-4.78-1.64-7.87s.58-5.87,1.74-8.35c1.16-2.48,2.8-4.58,4.92-6.32,2.12-1.74,4.7-3.07,7.72-4,3.02-.93,6.43-1.4,10.23-1.4,4.5,0,8.4.48,11.68,1.45,3.28.97,5.98,2.03,8.11,3.19l-4.34,11.87c-1.87-.97-3.94-1.82-6.22-2.56-2.28-.74-5.03-1.11-8.25-1.11-3.6,0-6.19.5-7.77,1.5-1.58,1-2.36,2.53-2.36,4.58,0,1.22.29,2.25.87,3.09.58.84,1.4,1.59,2.46,2.27,1.06.68,2.28,1.29,3.67,1.83,1.38.55,2.91,1.11,4.58,1.69,3.47,1.29,6.5,2.56,9.07,3.81,2.57,1.25,4.71,2.72,6.42,4.39,1.7,1.67,2.97,3.64,3.81,5.89.84,2.25,1.25,4.99,1.25,8.2,0,6.24-2.19,11.08-6.56,14.52-4.38,3.44-10.97,5.16-19.78,5.16-2.96,0-5.63-.18-8.01-.53-2.38-.36-4.49-.79-6.32-1.3-1.83-.51-3.41-1.06-4.73-1.64-1.32-.58-2.43-1.12-3.33-1.64l4.25-11.97c1.99,1.09,4.45,2.07,7.38,2.94,2.93.87,6.51,1.3,10.76,1.3Z"/>
          <path class="cls-5" d="m73.07,96.11V23.54l14.38-2.32v24.32c.97-.32,2.2-.63,3.72-.92,1.51-.29,2.98-.43,4.39-.43,4.12,0,7.54.56,10.28,1.69,2.73,1.13,4.92,2.72,6.56,4.78,1.64,2.06,2.8,4.5,3.47,7.33.68,2.83,1.01,5.98,1.01,9.46v28.66h-14.38v-26.92c0-4.63-.6-7.91-1.79-9.84-1.19-1.93-3.39-2.9-6.61-2.9-1.29,0-2.49.11-3.62.34-1.13.23-2.14.47-3.04.72v38.6h-14.38Z"/>
          <path class="cls-5" d="m170.79,70.64c0,3.99-.58,7.64-1.74,10.95-1.16,3.31-2.83,6.14-5.02,8.49-2.19,2.35-4.81,4.17-7.87,5.45-3.06,1.29-6.48,1.93-10.28,1.93s-7.13-.64-10.18-1.93c-3.06-1.29-5.68-3.1-7.86-5.45-2.19-2.35-3.89-5.18-5.11-8.49-1.22-3.31-1.83-6.96-1.83-10.95s.63-7.62,1.88-10.9c1.25-3.28,2.99-6.08,5.21-8.4,2.22-2.32,4.86-4.12,7.91-5.4,3.05-1.29,6.38-1.93,9.99-1.93s7.03.64,10.08,1.93c3.05,1.29,5.68,3.09,7.86,5.4,2.19,2.32,3.89,5.11,5.12,8.4,1.22,3.28,1.83,6.92,1.83,10.9Zm-14.67,0c0-4.44-.88-7.93-2.65-10.47-1.77-2.54-4.29-3.81-7.58-3.81s-5.82,1.27-7.62,3.81c-1.8,2.54-2.7,6.03-2.7,10.47s.9,7.96,2.7,10.57c1.8,2.6,4.34,3.91,7.62,3.91s5.8-1.3,7.58-3.91c1.77-2.61,2.65-6.13,2.65-10.57Z"/>
          <path class="cls-5" d="m204.54,58.09c-1.29-.32-2.8-.66-4.54-1.01-1.74-.35-3.6-.53-5.6-.53-.9,0-1.98.08-3.23.24-1.25.16-2.2.34-2.85.53v38.79h-14.38v-48.06c2.57-.9,5.61-1.75,9.12-2.56,3.51-.8,7.41-1.21,11.72-1.21.77,0,1.7.05,2.8.14,1.09.1,2.19.23,3.28.39,1.09.16,2.19.35,3.28.58,1.09.23,2.03.5,2.8.82l-2.41,11.87Z"/>
          <path class="cls-5" d="m210.77,32.71l14.38-2.32v14.96h17.27v11.97h-17.27v17.85c0,3.02.53,5.44,1.59,7.24,1.06,1.8,3.2,2.7,6.42,2.7,1.54,0,3.14-.15,4.78-.43,1.64-.29,3.14-.69,4.49-1.21l2.03,11.19c-1.74.71-3.67,1.32-5.79,1.83-2.12.51-4.73.77-7.82.77-3.93,0-7.17-.53-9.75-1.59-2.57-1.06-4.63-2.54-6.18-4.44-1.54-1.9-2.62-4.2-3.23-6.9-.61-2.7-.92-5.69-.92-8.97v-42.65Z"/>
          <path class="cls-5" d="m374.87,94.47c-1.29.39-2.77.76-4.44,1.11-1.67.35-3.43.66-5.26.92-1.83.26-3.7.47-5.6.63-1.9.16-3.72.24-5.45.24-4.18,0-7.91-.61-11.19-1.83-3.28-1.22-6.05-2.97-8.3-5.26-2.25-2.28-3.97-5.05-5.16-8.3-1.19-3.25-1.79-6.9-1.79-10.95s.51-7.83,1.54-11.15c1.03-3.31,2.51-6.13,4.44-8.44,1.93-2.32,4.29-4.08,7.09-5.31,2.8-1.22,6-1.83,9.6-1.83,1.99,0,3.78.19,5.36.58,1.58.39,3.17.93,4.78,1.64v-22.97l14.38-2.32v73.24Zm-32.52-24.12c0,4.44,1,8.01,2.99,10.71,1.99,2.7,4.95,4.05,8.88,4.05,1.29,0,2.48-.05,3.57-.15,1.09-.1,1.99-.21,2.7-.34v-26.15c-.9-.58-2.07-1.06-3.52-1.45-1.45-.39-2.91-.58-4.39-.58-6.82,0-10.23,4.63-10.23,13.9Z"/>
          <path class="cls-5" d="m395.87,88.49c0,2.9-.92,5.1-2.75,6.61-1.83,1.51-3.91,2.27-6.22,2.27s-4.39-.76-6.22-2.27c-1.83-1.51-2.75-3.72-2.75-6.61s.92-5.1,2.75-6.61c1.83-1.51,3.91-2.27,6.22-2.27s4.39.76,6.22,2.27c1.83,1.51,2.75,3.72,2.75,6.61Z"/>
          <path class="cls-5" d="m415.79,30.68c0,2.64-.85,4.71-2.56,6.22-1.71,1.51-3.72,2.27-6.03,2.27s-4.33-.76-6.03-2.27c-1.71-1.51-2.56-3.58-2.56-6.22s.85-4.71,2.56-6.22c1.7-1.51,3.72-2.27,6.03-2.27s4.33.76,6.03,2.27c1.7,1.51,2.56,3.59,2.56,6.22Zm-1.35,65.43h-14.38v-50.76h14.38v50.76Z"/>
          <path class="cls-5" d="m468.26,70.64c0,3.99-.58,7.64-1.74,10.95-1.16,3.31-2.83,6.14-5.02,8.49-2.19,2.35-4.81,4.17-7.87,5.45-3.06,1.29-6.48,1.93-10.28,1.93s-7.13-.64-10.18-1.93c-3.06-1.29-5.68-3.1-7.86-5.45-2.19-2.35-3.89-5.18-5.11-8.49-1.22-3.31-1.83-6.96-1.83-10.95s.63-7.62,1.88-10.9c1.25-3.28,2.99-6.08,5.21-8.4,2.22-2.32,4.86-4.12,7.91-5.4,3.05-1.29,6.38-1.93,9.99-1.93s7.03.64,10.08,1.93c3.05,1.29,5.68,3.09,7.86,5.4,2.19,2.32,3.89,5.11,5.12,8.4,1.22,3.28,1.83,6.92,1.83,10.9Zm-14.67,0c0-4.44-.88-7.93-2.65-10.47-1.77-2.54-4.29-3.81-7.58-3.81s-5.82,1.27-7.62,3.81c-1.8,2.54-2.7,6.03-2.7,10.47s.9,7.96,2.7,10.57c1.8,2.6,4.34,3.91,7.62,3.91s5.8-1.3,7.58-3.91c1.77-2.61,2.65-6.13,2.65-10.57Z"/>
        </g>
        <g>
          <path class="cls-5" d="m43.62,84.63c2.12,0,3.88-.18,5.26-.53,1.38-.35,2.49-.83,3.33-1.45.83-.61,1.41-1.33,1.74-2.17.32-.84.48-1.77.48-2.8,0-2.19-1.03-4-3.09-5.45-2.06-1.45-5.6-3.01-10.61-4.68-2.19-.77-4.38-1.66-6.56-2.65-2.19-1-4.15-2.25-5.89-3.76-1.74-1.51-3.15-3.34-4.25-5.5-1.1-2.16-1.64-4.78-1.64-7.87s.58-5.87,1.74-8.35c1.16-2.48,2.8-4.58,4.92-6.32,2.12-1.74,4.7-3.07,7.72-4,3.02-.93,6.43-1.4,10.23-1.4,4.5,0,8.4.48,11.68,1.45,3.28.97,5.98,2.03,8.11,3.19l-4.34,11.87c-1.87-.97-3.94-1.82-6.22-2.56-2.28-.74-5.03-1.11-8.25-1.11-3.6,0-6.19.5-7.77,1.5-1.58,1-2.36,2.53-2.36,4.58,0,1.22.29,2.25.87,3.09.58.84,1.4,1.59,2.46,2.27,1.06.68,2.28,1.29,3.67,1.83,1.38.55,2.91,1.11,4.58,1.69,3.47,1.29,6.5,2.56,9.07,3.81,2.57,1.25,4.71,2.72,6.42,4.39,1.7,1.67,2.97,3.64,3.81,5.89.84,2.25,1.25,4.99,1.25,8.2,0,6.24-2.19,11.08-6.56,14.52-4.38,3.44-10.97,5.16-19.78,5.16-2.96,0-5.63-.18-8.01-.53-2.38-.36-4.49-.79-6.32-1.3-1.83-.51-3.41-1.06-4.73-1.64-1.32-.58-2.43-1.12-3.33-1.64l4.25-11.97c1.99,1.09,4.45,2.07,7.38,2.94,2.93.87,6.51,1.3,10.76,1.3Z"/>
          <path class="cls-5" d="m73.07,96.11V23.54l14.38-2.32v24.32c.97-.32,2.2-.63,3.72-.92,1.51-.29,2.98-.43,4.39-.43,4.12,0,7.54.56,10.28,1.69,2.73,1.13,4.92,2.72,6.56,4.78,1.64,2.06,2.8,4.5,3.47,7.33.68,2.83,1.01,5.98,1.01,9.46v28.66h-14.38v-26.92c0-4.63-.6-7.91-1.79-9.84-1.19-1.93-3.39-2.9-6.61-2.9-1.29,0-2.49.11-3.62.34-1.13.23-2.14.47-3.04.72v38.6h-14.38Z"/>
          <path class="cls-5" d="m170.79,70.64c0,3.99-.58,7.64-1.74,10.95-1.16,3.31-2.83,6.14-5.02,8.49-2.19,2.35-4.81,4.17-7.87,5.45-3.06,1.29-6.48,1.93-10.28,1.93s-7.13-.64-10.18-1.93c-3.06-1.29-5.68-3.1-7.86-5.45-2.19-2.35-3.89-5.18-5.11-8.49-1.22-3.31-1.83-6.96-1.83-10.95s.63-7.62,1.88-10.9c1.25-3.28,2.99-6.08,5.21-8.4,2.22-2.32,4.86-4.12,7.91-5.4,3.05-1.29,6.38-1.93,9.99-1.93s7.03.64,10.08,1.93c3.05,1.29,5.68,3.09,7.86,5.4,2.19,2.32,3.89,5.11,5.12,8.4,1.22,3.28,1.83,6.92,1.83,10.9Zm-14.67,0c0-4.44-.88-7.93-2.65-10.47-1.77-2.54-4.29-3.81-7.58-3.81s-5.82,1.27-7.62,3.81c-1.8,2.54-2.7,6.03-2.7,10.47s.9,7.96,2.7,10.57c1.8,2.6,4.34,3.91,7.62,3.91s5.8-1.3,7.58-3.91c1.77-2.61,2.65-6.13,2.65-10.57Z"/>
          <path class="cls-5" d="m204.54,58.09c-1.29-.32-2.8-.66-4.54-1.01-1.74-.35-3.6-.53-5.6-.53-.9,0-1.98.08-3.23.24-1.25.16-2.2.34-2.85.53v38.79h-14.38v-48.06c2.57-.9,5.61-1.75,9.12-2.56,3.51-.8,7.41-1.21,11.72-1.21.77,0,1.7.05,2.8.14,1.09.1,2.19.23,3.28.39,1.09.16,2.19.35,3.28.58,1.09.23,2.03.5,2.8.82l-2.41,11.87Z"/>
          <path class="cls-5" d="m210.77,32.71l14.38-2.32v14.96h17.27v11.97h-17.27v17.85c0,3.02.53,5.44,1.59,7.24,1.06,1.8,3.2,2.7,6.42,2.7,1.54,0,3.14-.15,4.78-.43,1.64-.29,3.14-.69,4.49-1.21l2.03,11.19c-1.74.71-3.67,1.32-5.79,1.83-2.12.51-4.73.77-7.82.77-3.93,0-7.17-.53-9.75-1.59-2.57-1.06-4.63-2.54-6.18-4.44-1.54-1.9-2.62-4.2-3.23-6.9-.61-2.7-.92-5.69-.92-8.97v-42.65Z"/>
          <path class="cls-5" d="m374.87,94.47c-1.29.39-2.77.76-4.44,1.11-1.67.35-3.43.66-5.26.92-1.83.26-3.7.47-5.6.63-1.9.16-3.72.24-5.45.24-4.18,0-7.91-.61-11.19-1.83-3.28-1.22-6.05-2.97-8.3-5.26-2.25-2.28-3.97-5.05-5.16-8.3-1.19-3.25-1.79-6.9-1.79-10.95s.51-7.83,1.54-11.15c1.03-3.31,2.51-6.13,4.44-8.44,1.93-2.32,4.29-4.08,7.09-5.31,2.8-1.22,6-1.83,9.6-1.83,1.99,0,3.78.19,5.36.58,1.58.39,3.17.93,4.78,1.64v-22.97l14.38-2.32v73.24Zm-32.52-24.12c0,4.44,1,8.01,2.99,10.71,1.99,2.7,4.95,4.05,8.88,4.05,1.29,0,2.48-.05,3.57-.15,1.09-.1,1.99-.21,2.7-.34v-26.15c-.9-.58-2.07-1.06-3.52-1.45-1.45-.39-2.91-.58-4.39-.58-6.82,0-10.23,4.63-10.23,13.9Z"/>
          <path class="cls-5" d="m395.87,88.49c0,2.9-.92,5.1-2.75,6.61-1.83,1.51-3.91,2.27-6.22,2.27s-4.39-.76-6.22-2.27c-1.83-1.51-2.75-3.72-2.75-6.61s.92-5.1,2.75-6.61c1.83-1.51,3.91-2.27,6.22-2.27s4.39.76,6.22,2.27c1.83,1.51,2.75,3.72,2.75,6.61Z"/>
          <path class="cls-5" d="m415.79,30.68c0,2.64-.85,4.71-2.56,6.22-1.71,1.51-3.72,2.27-6.03,2.27s-4.33-.76-6.03-2.27c-1.71-1.51-2.56-3.58-2.56-6.22s.85-4.71,2.56-6.22c1.7-1.51,3.72-2.27,6.03-2.27s4.33.76,6.03,2.27c1.7,1.51,2.56,3.59,2.56,6.22Zm-1.35,65.43h-14.38v-50.76h14.38v50.76Z"/>
          <path class="cls-5" d="m468.26,70.64c0,3.99-.58,7.64-1.74,10.95-1.16,3.31-2.83,6.14-5.02,8.49-2.19,2.35-4.81,4.17-7.87,5.45-3.06,1.29-6.48,1.93-10.28,1.93s-7.13-.64-10.18-1.93c-3.06-1.29-5.68-3.1-7.86-5.45-2.19-2.35-3.89-5.18-5.11-8.49-1.22-3.31-1.83-6.96-1.83-10.95s.63-7.62,1.88-10.9c1.25-3.28,2.99-6.08,5.21-8.4,2.22-2.32,4.86-4.12,7.91-5.4,3.05-1.29,6.38-1.93,9.99-1.93s7.03.64,10.08,1.93c3.05,1.29,5.68,3.09,7.86,5.4,2.19,2.32,3.89,5.11,5.12,8.4,1.22,3.28,1.83,6.92,1.83,10.9Zm-14.67,0c0-4.44-.88-7.93-2.65-10.47-1.77-2.54-4.29-3.81-7.58-3.81s-5.82,1.27-7.62,3.81c-1.8,2.54-2.7,6.03-2.7,10.47s.9,7.96,2.7,10.57c1.8,2.6,4.34,3.91,7.62,3.91s5.8-1.3,7.58-3.91c1.77-2.61,2.65-6.13,2.65-10.57Z"/>
        </g>
        <g>
          <path class="cls-5" d="m43.62,84.63c2.12,0,3.88-.18,5.26-.53,1.38-.35,2.49-.83,3.33-1.45.83-.61,1.41-1.33,1.74-2.17.32-.84.48-1.77.48-2.8,0-2.19-1.03-4-3.09-5.45-2.06-1.45-5.6-3.01-10.61-4.68-2.19-.77-4.38-1.66-6.56-2.65-2.19-1-4.15-2.25-5.89-3.76-1.74-1.51-3.15-3.34-4.25-5.5-1.1-2.16-1.64-4.78-1.64-7.87s.58-5.87,1.74-8.35c1.16-2.48,2.8-4.58,4.92-6.32,2.12-1.74,4.7-3.07,7.72-4,3.02-.93,6.43-1.4,10.23-1.4,4.5,0,8.4.48,11.68,1.45,3.28.97,5.98,2.03,8.11,3.19l-4.34,11.87c-1.87-.97-3.94-1.82-6.22-2.56-2.28-.74-5.03-1.11-8.25-1.11-3.6,0-6.19.5-7.77,1.5-1.58,1-2.36,2.53-2.36,4.58,0,1.22.29,2.25.87,3.09.58.84,1.4,1.59,2.46,2.27,1.06.68,2.28,1.29,3.67,1.83,1.38.55,2.91,1.11,4.58,1.69,3.47,1.29,6.5,2.56,9.07,3.81,2.57,1.25,4.71,2.72,6.42,4.39,1.7,1.67,2.97,3.64,3.81,5.89.84,2.25,1.25,4.99,1.25,8.2,0,6.24-2.19,11.08-6.56,14.52-4.38,3.44-10.97,5.16-19.78,5.16-2.96,0-5.63-.18-8.01-.53-2.38-.36-4.49-.79-6.32-1.3-1.83-.51-3.41-1.06-4.73-1.64-1.32-.58-2.43-1.12-3.33-1.64l4.25-11.97c1.99,1.09,4.45,2.07,7.38,2.94,2.93.87,6.51,1.3,10.76,1.3Z"/>
          <path class="cls-5" d="m73.07,96.11V23.54l14.38-2.32v24.32c.97-.32,2.2-.63,3.72-.92,1.51-.29,2.98-.43,4.39-.43,4.12,0,7.54.56,10.28,1.69,2.73,1.13,4.92,2.72,6.56,4.78,1.64,2.06,2.8,4.5,3.47,7.33.68,2.83,1.01,5.98,1.01,9.46v28.66h-14.38v-26.92c0-4.63-.6-7.91-1.79-9.84-1.19-1.93-3.39-2.9-6.61-2.9-1.29,0-2.49.11-3.62.34-1.13.23-2.14.47-3.04.72v38.6h-14.38Z"/>
          <path class="cls-5" d="m170.79,70.64c0,3.99-.58,7.64-1.74,10.95-1.16,3.31-2.83,6.14-5.02,8.49-2.19,2.35-4.81,4.17-7.87,5.45-3.06,1.29-6.48,1.93-10.28,1.93s-7.13-.64-10.18-1.93c-3.06-1.29-5.68-3.1-7.86-5.45-2.19-2.35-3.89-5.18-5.11-8.49-1.22-3.31-1.83-6.96-1.83-10.95s.63-7.62,1.88-10.9c1.25-3.28,2.99-6.08,5.21-8.4,2.22-2.32,4.86-4.12,7.91-5.4,3.05-1.29,6.38-1.93,9.99-1.93s7.03.64,10.08,1.93c3.05,1.29,5.68,3.09,7.86,5.4,2.19,2.32,3.89,5.11,5.12,8.4,1.22,3.28,1.83,6.92,1.83,10.9Zm-14.67,0c0-4.44-.88-7.93-2.65-10.47-1.77-2.54-4.29-3.81-7.58-3.81s-5.82,1.27-7.62,3.81c-1.8,2.54-2.7,6.03-2.7,10.47s.9,7.96,2.7,10.57c1.8,2.6,4.34,3.91,7.62,3.91s5.8-1.3,7.58-3.91c1.77-2.61,2.65-6.13,2.65-10.57Z"/>
          <path class="cls-5" d="m204.54,58.09c-1.29-.32-2.8-.66-4.54-1.01-1.74-.35-3.6-.53-5.6-.53-.9,0-1.98.08-3.23.24-1.25.16-2.2.34-2.85.53v38.79h-14.38v-48.06c2.57-.9,5.61-1.75,9.12-2.56,3.51-.8,7.41-1.21,11.72-1.21.77,0,1.7.05,2.8.14,1.09.1,2.19.23,3.28.39,1.09.16,2.19.35,3.28.58,1.09.23,2.03.5,2.8.82l-2.41,11.87Z"/>
          <path class="cls-5" d="m210.77,32.71l14.38-2.32v14.96h17.27v11.97h-17.27v17.85c0,3.02.53,5.44,1.59,7.24,1.06,1.8,3.2,2.7,6.42,2.7,1.54,0,3.14-.15,4.78-.43,1.64-.29,3.14-.69,4.49-1.21l2.03,11.19c-1.74.71-3.67,1.32-5.79,1.83-2.12.51-4.73.77-7.82.77-3.93,0-7.17-.53-9.75-1.59-2.57-1.06-4.63-2.54-6.18-4.44-1.54-1.9-2.62-4.2-3.23-6.9-.61-2.7-.92-5.69-.92-8.97v-42.65Z"/>
          <path class="cls-5" d="m374.87,94.47c-1.29.39-2.77.76-4.44,1.11-1.67.35-3.43.66-5.26.92-1.83.26-3.7.47-5.6.63-1.9.16-3.72.24-5.45.24-4.18,0-7.91-.61-11.19-1.83-3.28-1.22-6.05-2.97-8.3-5.26-2.25-2.28-3.97-5.05-5.16-8.3-1.19-3.25-1.79-6.9-1.79-10.95s.51-7.83,1.54-11.15c1.03-3.31,2.51-6.13,4.44-8.44,1.93-2.32,4.29-4.08,7.09-5.31,2.8-1.22,6-1.83,9.6-1.83,1.99,0,3.78.19,5.36.58,1.58.39,3.17.93,4.78,1.64v-22.97l14.38-2.32v73.24Zm-32.52-24.12c0,4.44,1,8.01,2.99,10.71,1.99,2.7,4.95,4.05,8.88,4.05,1.29,0,2.48-.05,3.57-.15,1.09-.1,1.99-.21,2.7-.34v-26.15c-.9-.58-2.07-1.06-3.52-1.45-1.45-.39-2.91-.58-4.39-.58-6.82,0-10.23,4.63-10.23,13.9Z"/>
          <path class="cls-5" d="m395.87,88.49c0,2.9-.92,5.1-2.75,6.61-1.83,1.51-3.91,2.27-6.22,2.27s-4.39-.76-6.22-2.27c-1.83-1.51-2.75-3.72-2.75-6.61s.92-5.1,2.75-6.61c1.83-1.51,3.91-2.27,6.22-2.27s4.39.76,6.22,2.27c1.83,1.51,2.75,3.72,2.75,6.61Z"/>
          <path class="cls-5" d="m415.79,30.68c0,2.64-.85,4.71-2.56,6.22-1.71,1.51-3.72,2.27-6.03,2.27s-4.33-.76-6.03-2.27c-1.71-1.51-2.56-3.58-2.56-6.22s.85-4.71,2.56-6.22c1.7-1.51,3.72-2.27,6.03-2.27s4.33.76,6.03,2.27c1.7,1.51,2.56,3.59,2.56,6.22Zm-1.35,65.43h-14.38v-50.76h14.38v50.76Z"/>
          <path class="cls-5" d="m468.26,70.64c0,3.99-.58,7.64-1.74,10.95-1.16,3.31-2.83,6.14-5.02,8.49-2.19,2.35-4.81,4.17-7.87,5.45-3.06,1.29-6.48,1.93-10.28,1.93s-7.13-.64-10.18-1.93c-3.06-1.29-5.68-3.1-7.86-5.45-2.19-2.35-3.89-5.18-5.11-8.49-1.22-3.31-1.83-6.96-1.83-10.95s.63-7.62,1.88-10.9c1.25-3.28,2.99-6.08,5.21-8.4,2.22-2.32,4.86-4.12,7.91-5.4,3.05-1.29,6.38-1.93,9.99-1.93s7.03.64,10.08,1.93c3.05,1.29,5.68,3.09,7.86,5.4,2.19,2.32,3.89,5.11,5.12,8.4,1.22,3.28,1.83,6.92,1.83,10.9Zm-14.67,0c0-4.44-.88-7.93-2.65-10.47-1.77-2.54-4.29-3.81-7.58-3.81s-5.82,1.27-7.62,3.81c-1.8,2.54-2.7,6.03-2.7,10.47s.9,7.96,2.7,10.57c1.8,2.6,4.34,3.91,7.62,3.91s5.8-1.3,7.58-3.91c1.77-2.61,2.65-6.13,2.65-10.57Z"/>
        </g>
      </g>
      <g>
        <path class="cls-1" d="m284.97,52.05l-.99,7.47,13.82,10.2.99-7.47-13.83-10.2Zm1.31-9.81l-.48,3.62,13.82,10.19,1.57-11.83-14.92-1.98Zm-3.12,23.49l-.99,7.47,13.83,10.2.99-7.47-13.82-10.2Zm-3.39,25.51l14.92,1.98.48-3.62-13.82-10.19-1.57,11.83Z"/>
        <path class="cls-1" d="m254.12,69.17l3.21,6.82,10.09-13.9-3.2-6.83-10.1,13.9Zm-7.74-16.46l5.08,10.8,10.09-13.89-1.55-3.3-13.62,6.4Zm13.6,28.95l3.2,6.83,10.1-13.9-3.21-6.82-10.09,13.9Zm15.96-1.41l-10.09,13.89,1.55,3.3,13.62-6.4-5.08-10.8Z"/>
        <g>
          <path class="cls-1" d="m327.56,32.83c-.42,3.15-1.76,5.49-4.04,7.02-2.27,1.53-4.79,2.12-7.55,1.75s-5.04-1.59-6.84-3.66c-1.8-2.07-2.48-4.68-2.07-7.83.42-3.15,1.76-5.49,4.04-7.02,2.27-1.53,4.79-2.12,7.56-1.75,2.76.37,5.04,1.59,6.84,3.66,1.79,2.07,2.48,4.69,2.07,7.83Z"/>
          <polygon class="cls-1" points="325.25 47.41 318.93 96.42 298.45 93.71 304.94 44.71 325.25 47.41"/>
        </g>
      </g>
    </g>
  </g>
</svg>