<?xml version="1.0" encoding="UTF-8"?>
<svg id="Layer_2" data-name="Layer 2" xmlns="http://www.w3.org/2000/svg" viewBox="0 0 238.57 228.8">
  <defs>
    <style>
      .cls-1 {
        fill: #fff;
      }

      .cls-2 {
        fill: #f7f0fc;
        opacity: .26;
      }

      .cls-3 {
        fill: #f1dcff;
        opacity: .62;
      }

      .cls-4 {
        fill: #56277d;
      }
    </style>
  </defs>
  <g id="Layer_1-2" data-name="Layer 1">
    <g>
      <path class="cls-2" d="m48.85,203.81l-4.37-9.28-12.19-25.99L6.66,114.02h0l-4.08-8.68c-6.37-13.55-.55-29.7,13-36.07l63.41-29.79c4.52-2.13,9.55-2.96,14.51-2.41l10.59,1.17c10.08,1.12,20.05-3.41,25.56-11.93,4.06-6.28,9.36-11.68,15.82-16.04,10.12-6.83,21.38-10.29,33.47-10.29,2.75,0,5.52.19,8.23.55,14.82,1.96,27.84,8.97,37.6,20.24,10.96,12.65,15.53,28.53,13.22,45.92-.36,2.7-.88,5.36-1.56,7.92-.33,1.26-.61,2.53-.78,3.83l-15.77,122.21c-1.92,14.88-15.57,25.37-30.44,23.4l-66.65-8.84c-5.15-.68-10.38.13-15.09,2.34l-18.39,8.64c-13.56,6.37-29.7.53-36.06-13.02l-4.4-9.38Z"/>
      <path class="cls-3" d="m221.55,74.05c-.97,7.49-10.33,80.11-15.04,116.58-1.47,11.42-11.94,19.46-23.35,17.94l-68.54-9.09c-1.33-.18-2.69.03-3.9.6l-20.14,9.46c-10.39,4.88-22.78.41-27.66-9.98l-33.34-71-10.33-21.97c-4.89-10.39-.42-22.78,9.97-27.66l40.62-19.08c6.36-2.99,13.94-.25,16.93,6.11h0c2.26,4.82,9.41,3.71,10.11-1.57h0c.92-6.97,7.32-11.87,14.29-10.94l16.65,2.21c3.72.49,7.14-2.03,7.82-5.72,5.53-29.92,33.61-37.09,49.56-34.98,44.42,5.89,39.06,49.34,36.55,58.01-.1.35-.17.7-.21,1.07Z"/>
      <path class="cls-4" d="m211.66,63.18c-.68,5.16-11.83,87.6-16.3,120.69-1.02,7.51-7.92,12.78-15.44,11.79l-64.97-8.62c-2.61-.35-5.27.07-7.66,1.19l-16.83,7.9c-6.88,3.23-15.07.27-18.3-6.6l-39.17-83.38c-3.23-6.88-.27-15.07,6.6-18.3l23.71-11.14c6.88-3.23,15.07-.27,18.3,6.6l10.46,22.27c2.77,5.91,11.54,4.55,12.4-1.92l3.23-24.39c1-7.53,7.91-12.83,15.45-11.83l9.03,1.2c7.77,1.03,14.65-4.69,15.39-12.49.05-.48.1-.97.16-1.46,1.27-9.55,5.8-17.2,13.1-22.13,5.6-3.77,11.8-5.68,18.43-5.68,1.52,0,3.09.11,4.64.31,8.37,1.11,15.39,4.88,20.87,11.2,5.77,6.67,8.15,15.24,6.88,24.78Z"/>
      <g>
        <path class="cls-1" d="m117.68,98.41l-1.89,14.33,26.51,19.56,1.91-14.33-26.52-19.56Zm2.51-18.82l-.92,6.93,26.51,19.54,3.02-22.68-28.61-3.8Zm-5.97,45.04l-1.91,14.33,26.52,19.56,1.89-14.33-26.51-19.56Zm-6.5,48.92l28.61,3.8.92-6.93-26.51-19.54-3.02,22.68Z"/>
        <path class="cls-1" d="m58.51,131.24l6.15,13.09,19.35-26.66-6.14-13.09-19.36,26.66Zm-14.84-31.57l9.73,20.7,19.35-26.64-2.97-6.33-26.12,12.27Zm26.09,55.51l6.14,13.09,19.36-26.66-6.15-13.09-19.35,26.66Zm30.6-2.7l-19.35,26.64,2.97,6.33,26.12-12.27-9.73-20.7Z"/>
        <g>
          <path class="cls-1" d="m199.35,61.55c-.8,6.04-3.38,10.53-7.74,13.46-4.36,2.94-9.19,4.06-14.49,3.36-5.3-.7-9.67-3.04-13.11-7.02-3.44-3.97-4.76-8.98-3.96-15.02.8-6.03,3.38-10.52,7.74-13.47,4.36-2.94,9.19-4.06,14.49-3.36s9.67,3.05,13.11,7.02c3.44,3.98,4.76,8.98,3.96,15.02Z"/>
          <polygon class="cls-1" points="194.92 89.51 182.79 183.51 143.52 178.3 155.98 84.35 194.92 89.51"/>
        </g>
      </g>
    </g>
  </g>
</svg>