<svg width="494" height="663" viewBox="0 0 494 663" fill="none" xmlns="http://www.w3.org/2000/svg">
<mask id="mask0_1_177" style="mask-type:alpha" maskUnits="userSpaceOnUse" x="0" y="0" width="494" height="663">
<rect width="494" height="663" fill="#D9D9D9"/>
</mask>
<g mask="url(#mask0_1_177)">
<path d="M-849.614 652.469H487.616C481.57 618.198 438.664 583.926 438.664 583.926C438.664 583.926 430.746 563.803 418.488 537.224H418.448C410.275 519.504 400.143 498.9 389.119 479.463C361.622 431.112 330.208 407.624 330.208 407.624C330.208 407.624 331.444 384.41 299.817 343.408C296.453 339.012 293.304 335.303 290.453 332.144C278.535 318.82 270.829 314.905 266.148 314.287C261.339 313.738 259.635 316.554 259.635 316.554C259.635 316.554 247.59 291.417 232.225 259.892C208.727 211.679 177.442 148.699 169.866 138.534C162.757 128.919 154.072 125.347 147.902 123.974H147.772C143.218 123.081 140.113 123.356 140.113 123.356C140.113 123.356 113.253 67.9306 100.568 44.7853C87.843 21.5714 68.263 13.1922 64.5173 15.8708C64.2193 16.0768 63.9214 16.489 63.6234 17.1071L63.5809 17.1757C61.3675 21.3652 58.1325 34.3458 53.8334 54.0571C50.1302 70.8838 45.6609 92.5182 40.3828 117.655C27.9112 176.789 23.3141 185.168 7.26701 201.651C-8.73752 218.134 -24.359 253.093 -39.1291 295.057C-50.3237 278.436 -81.7795 217.585 -102.083 174.11C-110.426 156.116 -116.938 141.144 -119.322 133.452C-127.409 107.284 -127.835 60.9251 -139.285 45.8154C-148.309 33.865 -164.824 20.0602 -179.126 -4.80209C-183.042 -11.4641 -186.745 -18.9502 -190.108 -27.4666C-194.875 -39.5543 -200.153 -49.7189 -205.857 -58.4413C-206.027 -58.7847 -206.24 -59.0594 -206.453 -59.4029C-206.964 -60.227 -207.517 -60.9826 -208.028 -61.6007C-217.52 -75.4742 -228.076 -85.3642 -239.228 -92.919C-239.441 -93.0564 -239.611 -93.1937 -239.696 -93.2624H-239.739V-93.3311C-243.315 -95.7349 -246.975 -97.9327 -250.678 -99.9931C-257.531 -129.594 -283.794 -191.063 -291.073 -210.225C-298.351 -229.318 -301.671 -228.7 -322.103 -243.466C-342.492 -258.233 -345.429 -275.059 -353.729 -275.678C-362.072 -276.364 -371.436 -226.021 -377.693 -206.86C-379.779 -205.28 -381.822 -203.426 -383.865 -201.297V-201.228C-400.125 -184.333 -415.406 -151.16 -423.919 -124.855C-433.496 -95.3227 -442.222 -83.8531 -455.97 -69.7737C-469.719 -55.6942 -507.176 80.0183 -513.859 102.889C-520.499 125.759 -555.062 213.739 -597.117 239.975C-639.171 266.142 -660.837 351.512 -665.817 368.957C-670.84 386.401 -719.96 441.552 -748.266 467.032C-766.186 483.172 -800.792 528.433 -824.543 575.135L-824.585 575.204C-838.377 602.264 -848.507 629.805 -849.614 652.469Z" fill="#2D2929"/>
<path d="M-92.8464 390.454C-79.5235 414.63 -32.9146 434.341 -32.9146 434.341C-68.7971 384.342 -129.708 315.73 -132.219 312.914C-130.687 316.073 -105.744 367.034 -92.8464 390.454ZM-679.566 479.121C-667.477 455.014 -658.113 409.547 -657.56 406.731C-658.453 408.242 -688.419 460.508 -720.386 474.45C-752.352 488.324 -822.372 572.526 -824.543 575.136C-800.792 528.433 -766.186 483.173 -748.266 467.033C-719.96 441.552 -670.84 386.402 -665.817 368.957C-660.837 351.512 -639.171 266.143 -597.117 239.975C-555.062 213.739 -520.499 125.76 -513.859 102.889C-507.176 80.0188 -469.719 -55.6937 -455.971 -69.7731C-442.222 -83.8526 -433.496 -95.3222 -423.919 -124.855C-415.406 -151.159 -400.125 -184.332 -383.865 -201.227C-381.822 -181.104 -389.441 -153.083 -390.25 -149.992C-389.186 -152.945 -380.077 -177.807 -372.458 -201.433C-364.37 -226.639 -358.326 -267.641 -358.326 -267.641C-358.326 -267.641 -352.494 -269.29 -343.556 -243.122C-334.574 -216.886 -310.653 -169.566 -310.653 -169.566L-325.636 -226.639C-310.653 -210.843 -298.99 -212.56 -298.99 -212.56C-298.99 -212.56 -271.918 -143.673 -261.49 -112.767C-251.104 -81.861 -237.781 -1.23008 -228.63 8.86594C-219.436 18.8933 -211.135 26.9975 -196.535 62.5739C-201.941 21.5717 -221.096 1.44851 -225.693 -18.7435C-230.204 -38.5235 -239.441 -91.6135 -239.697 -93.2619C-239.611 -93.1932 -239.441 -93.0559 -239.228 -92.9185C-236.036 -90.1026 -218.754 -74.9242 -208.028 -61.6002C-207.858 -61.4628 -207.73 -61.2567 -207.602 -61.1193C-207.219 -60.6386 -206.836 -60.0891 -206.453 -59.4023C-206.24 -59.0589 -206.027 -58.7842 -205.857 -58.4408C-193.428 -35.9823 -169.89 66.6261 -169.89 66.6261L-179.126 -4.80158C-164.824 20.0607 -148.309 33.8655 -139.285 45.8159C-127.835 60.9256 -127.409 107.285 -119.322 133.452C-116.938 141.144 -110.426 156.117 -102.083 174.111C-102.934 175.553 -103.913 176.034 -104.935 175.484C-117.066 168.96 -165.505 101.31 -168.527 97.0516C-113.235 199.042 -70.3294 266.211 -21.2517 328.642C27.8686 391.072 17.057 367.034 38.212 419.849C36.5945 417.377 10.2891 376.924 -10.3976 359.548C-31.8079 341.622 -84.5462 286.06 -84.5462 286.06C-84.5462 286.06 -65.0939 322.804 -42.9174 359.548C-20.6984 396.292 32.04 462.156 53.8334 475.137C75.6268 488.118 128.363 545.878 143.944 572.32C158.076 596.358 193.404 623.006 199.619 627.676C190.422 621.701 114.276 571.908 81.4582 538.735C47.023 503.914 -18.7403 456.799 -20.7835 455.357C-18.6552 458.242 49.0235 550.273 109.295 607.484C67.8799 592.718 -37.8947 494.917 -66.2006 465.041C-48.3232 503.639 -30.4033 519.779 -18.1019 533.241C-5.84311 546.702 10.7999 582.622 36.637 603.089C20.5899 602.127 -32.4889 555.424 -60.582 522.801C-55.7721 538.735 -31.9781 574.449 -30.4884 576.715C-32.1058 575.548 -58.5389 556.798 -87.015 532.417C-116.47 507.348 -138.945 470.192 -190.023 434.341C-158.652 458.104 -111.745 544.573 -111.745 544.573C-111.745 544.573 -202.537 492.101 -223.607 493.475C-244.719 494.848 -321.039 468.406 -321.039 468.406L-226.374 467.514L-248.039 397.185C-248.039 397.185 -218.329 398.49 -198.919 403.915C-179.765 409.204 -85.8657 494.78 -82.9713 497.458C-85.9083 493.749 -180.02 375.894 -195.556 364.905C-211.391 353.71 -285.539 345.194 -325.21 344.782C-364.923 344.301 -393.229 377.474 -402.679 385.99C-412.086 394.506 -411.277 423.146 -417.917 445.536C-424.387 467.239 -449.075 493.2 -450.607 494.78C-449.288 492.17 -427.665 451.099 -427.111 441.964C-426.558 432.555 -426.005 417.789 -417.109 388.668C-468.187 392.927 -517.477 488.804 -521.989 497.733C-518.158 489.216 -479.083 404.259 -454.566 385.509C-428.771 365.798 -353.729 301.444 -336.235 291.348C-318.783 281.252 -260.256 292.035 -260.256 292.035C-260.256 292.035 -291.711 261.816 -327.721 256.733C-363.732 251.72 -384.333 264.151 -384.333 264.151C-384.333 264.151 -366.03 240.319 -351.43 234.55C-336.873 228.849 -306.481 234.893 -281.496 229.193C-309.376 221.5 -310.653 219.097 -308.78 210.718C-306.907 202.339 -291.286 165.045 -288.349 160.993C-285.454 157.009 -275.026 157.971 -265.874 160.65C-256.723 163.397 -206.538 222.805 -179.467 248.698C-202.792 211.404 -245.485 162.71 -255.488 152.957C-265.449 143.205 -272.557 140.87 -290.434 134.826C-308.354 128.782 -326.061 180.842 -326.061 180.842C-326.061 180.842 -322.699 114.977 -307.716 89.4281C-365.562 103.439 -402.126 188.396 -402.126 188.396C-402.126 188.396 -382.418 110.513 -374.628 101.997C-366.839 93.4802 -321.337 40.1842 -301.884 37.9178C-282.475 35.72 -272.472 69.3046 -253.871 74.2496C-235.27 79.1259 -224.458 94.3731 -174.189 153.507C-199.472 110.925 -232.758 72.464 -245.273 64.3597C-257.744 56.3241 -253.871 50.4862 -285.241 13.7422C-316.612 -23.0018 -322.699 -24.3067 -337.171 -18.0568C-351.132 -11.9442 -393.527 33.6595 -396.166 36.4754C-393.74 32.6293 -354.325 -27.8781 -344.662 -41.3395C-334.66 -55.2129 -329.637 -47.3833 -326.742 -62.6303C-323.848 -77.8087 -313.845 -101.778 -308.993 -105.144C-304.098 -108.509 -284.007 -71.7649 -265.789 -40.6527C-275.366 -75.611 -318.57 -153.563 -324.231 -154.181C-329.935 -154.868 -334.787 -153.082 -334.66 -157.135C-334.532 -161.118 -330.488 -170.321 -331.595 -179.044C-332.702 -187.835 -339.81 -195.664 -341.172 -210.431C-342.577 -225.197 -347.855 -235.705 -350.622 -233.919C-353.388 -232.134 -349.941 -222.312 -353.942 -217.161C-357.985 -212.01 -361.859 -191.749 -364.753 -176.914C-367.69 -162.148 -372.67 -128.907 -389.058 -124.649C-389.058 -130.899 -393.485 -139.896 -399.316 -139.003C-405.148 -138.11 -410.724 -87.9047 -421.535 -69.5671C-432.389 -51.1607 -439.881 -51.6416 -449.586 -30.5567C-459.291 -9.54052 -480.743 55.4998 -480.743 55.4998C-480.743 55.4998 -464.696 44.7858 -451.246 53.1648C-485.17 64.085 -509.049 128.644 -510.071 131.46C-509.432 130.842 -503.729 125.348 -499.557 126.653C-510.667 142.312 -519.265 203.643 -523.436 231.871C-527.565 260.099 -556.467 314.768 -556.467 314.768C-556.467 314.768 -542.037 258.794 -537.313 230.085C-549.784 250.277 -611.972 311.197 -619.464 343.408C-626.955 375.688 -638.575 422.734 -656.879 463.324C-675.182 503.983 -702.466 544.642 -711.405 565.177C-720.386 585.644 -725.366 620.877 -725.366 620.877C-725.366 620.877 -725.792 569.847 -722.897 560.438C-719.96 551.029 -692.08 503.983 -679.566 479.121Z" fill="white"/>
<path d="M44.0008 173.424C68.6887 113.191 66.3476 42.6561 77.0314 41.9693C87.2897 41.2825 96.5684 67.7932 97.2059 69.8536C96.356 68.4113 88.4815 55.6368 86.864 59.2082C85.204 63.0543 88.9497 72.4635 93.4186 86.337C97.8449 100.21 101.889 99.1115 108.955 106.941C116.02 114.771 127.257 159.55 127.257 159.55C127.257 159.55 104.782 114.565 99.249 113.191C93.6716 111.886 88.6943 137.16 88.6943 137.16C88.6943 137.16 96.9931 127.064 99.9306 127.064C102.824 127.064 105.336 151.24 106.997 161.679C108.656 172.119 119.512 175.759 135.727 189.976C151.391 203.643 180.166 237.708 182.251 240.181C180.847 239.082 169.055 229.604 150.327 214.769C130.321 198.973 98.6948 182.489 83.2885 193.616C67.8799 204.673 52.0456 214.769 48.2999 227.544C44.6818 239.906 36.1263 275.277 35.6155 277.474C36.5093 275.139 48.1297 244.92 54.1314 234.893C60.3885 224.522 83.4588 212.091 95.7592 207.695C108.062 203.368 118.448 210.03 118.448 210.03C118.448 210.03 103.463 225.827 110.315 227.544C117.212 229.192 160.926 249.041 201.108 303.436C166.969 272.186 123.853 246.362 113.253 243.684C102.611 240.936 73.7113 281.595 71.4128 324.933C79.1171 299.727 96.9931 280.29 97.8449 280.29C98.6947 280.29 110.147 283.656 113.04 289.013C115.978 294.37 124.703 331.663 128.448 335.372C132.195 339.081 137.175 333.38 148.624 335.372C159.735 337.295 182.551 377.13 183.955 379.671C182.251 378.022 152.668 349.932 149.053 353.847C145.306 357.899 128.023 361.883 117.424 342.103C123.469 371.979 135.132 405.563 135.132 405.563C135.132 405.563 139.048 400.206 153.093 397.596C139.474 411.539 123.681 463.049 123.681 463.049C123.681 463.049 153.35 413.736 158.63 412.843C163.906 411.951 184.467 414.217 244.396 476.922C205.834 444.23 181.401 439.285 171.695 440.59C162.29 441.895 137.216 495.329 135.686 498.694C137.6 496.427 168.205 459.89 181.952 459.89C196.128 459.89 239.716 522.114 253.593 532.416C267.467 542.718 279.385 528.433 298.541 536.468C317.695 544.572 364.347 600.066 364.347 600.066C364.347 600.066 323.823 564.696 304.371 567.374C331.572 584.407 350.724 619.777 363.793 623.83C376.817 627.882 398.227 652.469 398.227 652.469H418.191C418.191 652.469 382.097 606.797 372.688 579.943C394.056 611.261 435.939 639.97 435.939 639.97C435.939 639.97 389.886 585.781 382.097 572.319C374.606 559.27 339.148 510.988 336.977 507.966C338.891 509.889 362.047 533.309 384.606 562.017C408.187 592.031 428.747 605.904 443.475 611.261C457.479 616.412 475.782 632.071 477.485 633.514C475.951 631.11 455.011 599.448 440.665 594.709C425.81 589.764 396.823 562.91 383.5 543.611C370.178 524.38 339.36 480.906 312.162 473.351C284.962 465.727 252.186 432.555 213.623 361.814C280.238 439.698 290.793 434.34 311.056 437.5C331.315 440.59 377.074 495.672 418.448 537.224C410.275 519.504 400.143 498.9 389.119 479.463C361.622 431.112 330.208 407.624 330.208 407.624C330.208 407.624 331.444 384.41 299.817 343.408C296.453 339.012 293.304 335.303 290.453 332.144C290.453 332.144 306.882 368.613 306.882 389.767C295.646 359.547 266.148 314.287 266.148 314.287C266.999 333.792 289.047 378.16 290.41 380.907C288.919 378.778 269.895 351.237 254.402 322.391C249.081 312.501 240.864 288.12 232.225 259.892C208.727 211.679 177.442 148.699 169.866 138.534C162.757 128.919 154.072 125.347 147.902 123.974H147.772C147.519 123.974 147.392 123.974 147.392 123.974C147.392 123.974 152.243 145.471 167.523 176.377C144.752 153.094 141.986 137.367 118.958 89.4276C95.8869 41.5574 72.2216 10.8572 63.6234 17.1072L63.5808 17.1757C61.0269 19.1675 57.7068 33.8651 53.8334 54.0572C44.5968 101.996 32.1677 180.566 19.2704 190.388C0.967343 204.398 -13.7602 251.582 -19.0383 289.219C3.18074 227.887 23.4418 228.78 44.5542 197.393C65.624 166.075 69.1143 130.773 69.1143 130.773C69.1143 130.773 54.9401 166.693 44.0008 173.424Z" fill="white"/>
<path d="M264.189 323.773C264.163 323.819 264.141 323.857 264.121 323.887C264.143 323.857 264.163 323.819 264.189 323.773ZM477.071 642.175H-841.957C-839.02 625.471 -831.434 604.851 -819.657 581.752C-797.244 537.689 -763.547 492.597 -745.154 476.03C-722.732 455.853 -666.72 396.544 -660.028 373.299L-658.983 369.583C-641.106 305.328 -619.516 264.96 -594.818 249.583C-552.49 223.179 -516.423 136.024 -508.08 107.254C-507.318 104.66 -506.15 100.562 -504.656 95.342C-470.343 -24.9784 -457.385 -56.1213 -452.551 -61.0739C-437.185 -76.8094 -428.128 -89.6524 -418.262 -120.078C-410.804 -143.124 -396.412 -175.938 -380.408 -192.566C-380.228 -192.757 -380.053 -192.955 -379.887 -193.177C-378.209 -194.878 -376.6 -196.305 -374.988 -197.526C-373.73 -198.48 -372.694 -200.068 -372.046 -202.052C-370.102 -207.997 -367.974 -216.375 -365.723 -225.235C-362.781 -236.796 -356.808 -260.285 -353.303 -265.184C-351.889 -264.52 -350.262 -262.262 -347.443 -258.248C-342.79 -251.608 -336.409 -242.535 -324.718 -234.064C-321.166 -231.5 -318.13 -229.394 -315.496 -227.563C-303.346 -219.146 -301.478 -217.856 -296.512 -204.822C-294.837 -200.419 -292.16 -193.772 -288.944 -185.797C-278.757 -160.5 -261.707 -118.178 -256.661 -96.3833C-255.994 -93.5063 -254.561 -91.2551 -252.755 -90.2554C-249.132 -88.2332 -245.854 -86.2566 -242.775 -84.2114C-242.548 -84.0054 -242.317 -83.8299 -242.08 -83.6773C-241.952 -83.5857 -241.811 -83.4942 -241.664 -83.395C-230.124 -75.5807 -220.514 -65.9425 -212.318 -53.9693C-212.171 -53.748 -212.015 -53.5495 -211.854 -53.3511C-211.566 -53.0001 -211.258 -52.5804 -210.97 -52.1149C-210.913 -52.0234 -210.629 -51.5883 -210.568 -51.4968C-210.388 -51.1381 -210.459 -51.2831 -210.251 -50.9626C-204.637 -42.3776 -199.808 -32.8844 -195.5 -21.9337C-192.094 -13.3105 -188.145 -5.16042 -183.761 2.28758C-173.607 19.9537 -162.488 32.1483 -153.554 41.9543C-149.505 46.4033 -146.01 50.2417 -143.338 53.7826C-138.193 60.5667 -135.468 79.3317 -132.834 97.4862C-130.777 111.688 -128.644 126.37 -125.035 138.054C-122.68 145.654 -116.848 159.466 -107.196 180.284C-87.6724 222.095 -55.5829 284.633 -43.4518 302.642C-42.0188 304.764 -40.075 305.718 -38.1406 305.244C-36.2205 304.748 -34.5415 302.879 -33.5767 300.147C-17.1559 253.49 -2.67433 224.118 10.7053 210.336C28.1618 192.403 33.5534 182.009 46.4271 120.975L50.1539 103.187C53.8334 85.5969 57.0589 70.182 59.8493 57.5067C64.2099 37.5283 66.4894 29.218 67.6718 25.7839C72.7229 26.7378 86.2208 34.1706 95.7833 51.6155C108.2 74.2571 134.814 129.155 135.081 129.705C136.37 132.368 138.391 133.818 140.46 133.65C140.473 133.65 143.15 133.444 147.006 134.207C147.124 134.223 147.235 134.246 147.353 134.261C152.618 135.49 159.975 138.603 165.763 146.433C171.27 153.82 194.232 198.607 227.209 266.265C242.546 297.743 254.577 322.842 254.583 322.865C255.715 325.215 257.424 326.673 259.27 326.841C260.787 327.001 262.283 326.238 263.478 324.78C263.742 324.658 264.439 324.414 265.695 324.567C268.518 324.94 275.115 327.527 286.817 340.615C290.004 344.148 292.934 347.666 295.797 351.413C323.258 387.012 323.829 407.082 323.832 407.281C323.6 411.592 325.087 415.141 327.518 416.972C327.823 417.194 358.175 440.293 384.412 486.431C393.823 503.021 403.55 522.183 413.329 543.375C413.454 543.657 413.592 543.924 413.739 544.184C425.487 569.717 433.199 589.253 433.276 589.452C433.904 591.039 434.789 592.328 435.832 593.153C445.097 600.57 467.194 621.38 477.071 642.175ZM-849.614 662.772H487.616C489.621 662.772 491.503 661.261 492.712 658.681C493.918 656.102 494.304 652.76 493.756 649.654C487.62 614.856 452.014 583.408 443.093 575.998C440.619 569.855 433.567 552.669 423.611 531.073C423.482 530.799 423.342 530.516 423.196 530.257C413.288 508.836 403.409 489.407 393.827 472.512C370.639 431.739 345.052 408.326 336.127 400.87C334.568 389.5 328.187 366.98 303.817 335.387C300.712 331.32 297.516 327.474 294.066 323.658C283.294 311.609 274.068 305 266.667 304.024C264.814 303.802 263.209 303.955 261.834 304.313C257.381 295.057 248.144 275.903 237.242 253.536C212.843 203.46 182.048 141.48 173.947 130.621C167.449 121.822 158.737 115.992 148.774 113.771C148.591 113.725 148.408 113.702 148.221 113.687C146.278 113.328 144.58 113.145 143.224 113.069C136.812 99.8978 116.192 57.7432 105.353 37.9632C91.7505 13.1543 69.3366 1.14288 61.9303 6.45416C60.7006 7.30885 59.5561 8.76651 58.5912 10.7582L58.596 10.7659C55.8434 16.3214 52.9064 27.2721 47.808 50.6387C45.0082 63.3751 41.7638 78.8815 38.0559 96.6011L34.3338 114.351C22.0702 172.501 18.211 178.201 3.83344 192.96C-10.1138 207.329 -24.6474 235.297 -40.4722 278.276C-53.885 255.276 -79.0505 206.322 -96.9799 167.914C-108.255 143.594 -112.247 133.246 -113.609 128.85C-116.555 119.334 -118.508 105.842 -120.4 92.7931C-123.668 70.2965 -126.747 49.0437 -135.246 37.8412C-138.349 33.728 -142.071 29.653 -146.375 24.9217C-154.774 15.7033 -165.226 4.22592 -174.449 -11.8071C-178.317 -18.3928 -181.76 -25.4974 -184.726 -32.9989C-189.555 -45.2469 -194.97 -55.9305 -201.27 -65.622C-201.468 -65.9578 -201.676 -66.2935 -201.899 -66.6292C-202.584 -67.7281 -203.284 -68.7126 -203.951 -69.5367C-213.15 -82.9142 -223.843 -93.6435 -236.622 -102.32C-236.83 -102.511 -237.057 -102.687 -237.284 -102.847C-239.99 -104.655 -242.804 -106.411 -245.831 -108.158C-252.272 -132.555 -267.766 -171.031 -278.242 -197.023C-281.382 -204.807 -283.988 -211.301 -285.629 -215.612C-292.723 -234.217 -297.552 -237.56 -310.459 -246.503C-313.041 -248.289 -316.016 -250.349 -319.492 -252.868C-329.415 -260.048 -334.721 -267.611 -338.987 -273.693C-343.258 -279.767 -347.292 -285.514 -353.436 -285.964C-363.183 -286.979 -369.029 -266.512 -377.537 -233.057C-379.296 -226.12 -380.98 -219.504 -382.441 -214.552C-384.064 -213.193 -385.672 -211.675 -387.327 -209.95C-387.526 -209.744 -387.71 -209.53 -387.89 -209.294C-405.762 -190.323 -421.488 -154.624 -429.58 -129.624C-438.15 -103.198 -445.708 -92.4836 -459.395 -78.4652C-469.047 -68.5828 -486.055 -19.1787 -516.257 86.7264C-517.723 91.8698 -518.877 95.9066 -519.634 98.5012C-527.097 124.203 -561.211 206.528 -599.42 230.36C-627.362 247.759 -651.326 291.76 -670.636 361.15L-671.615 364.645C-675.3 377.435 -720.026 429.823 -751.378 458.043C-770.788 475.511 -806.164 522.755 -829.481 568.603C-845.963 600.929 -854.868 628.851 -855.98 651.661C-856.122 654.522 -855.512 657.361 -854.301 659.467C-853.09 661.574 -851.392 662.772 -849.614 662.772Z" fill="#2D2929"/>
<path d="M63.978 265.936C59.8113 289.227 55.3704 297.293 54.2637 308.488C53.1522 319.683 54.538 359.556 54.538 359.556C54.538 359.556 66.4752 310.731 63.978 265.936Z" fill="white"/>
</g>
</svg>
