<svg width="511" height="759" viewBox="0 0 511 759" fill="none" xmlns="http://www.w3.org/2000/svg">
<mask id="mask0_1_167" style="mask-type:alpha" maskUnits="userSpaceOnUse" x="0" y="0" width="511" height="759">
<rect width="511" height="759" fill="#D9D9D9"/>
</mask>
<g mask="url(#mask0_1_167)">
<path d="M9.72193 748.904H2108.9C2108.9 748.904 2099.75 736.182 2087.63 718.749C2074.44 699.7 2057.75 674.998 2045.7 655.074C2022.68 616.842 1976.24 592.543 1963.05 580.36C1954.5 572.418 1938.47 559.158 1923.33 547.85C1915.26 541.792 1907.52 536.34 1901.18 532.571C1894.79 528.734 1884.63 519.849 1873.93 509.416C1873.86 509.349 1873.86 509.349 1873.86 509.349C1853.94 489.896 1832.06 465.059 1829.1 457.184C1824.45 445.001 1821.16 433.828 1810.65 425.952C1806.48 422.789 1802.51 419.019 1798 415.183C1791.27 409.529 1783.19 403.807 1771.14 400.24C1751.02 394.317 1746.11 403.538 1730.29 422.923C1714.54 442.376 1658.2 455.905 1658.2 455.905L1550.24 310.988L1376.37 210.629C1376.37 210.629 1311.22 102.261 1272.38 79.2408C1233.48 56.2209 1219.01 36.7687 1204.87 10.4506C1180.5 7.15246 1129.15 27.8835 1101.82 51.5765C1074.49 75.2695 1048.17 109.53 1026.1 129.589C1004.02 149.714 939.469 179.33 939.469 179.33C939.469 179.33 873.976 125.684 858.495 126.021C843.014 126.297 826.658 130.396 802.561 143.124C778.397 155.839 787.618 155.839 747.636 193.607C733.501 206.927 716.943 218.572 700.385 229.005C670.096 248.188 639.807 263.4 624.729 277.871C583.334 339.729 543.15 369.682 514.88 372.845C508.014 373.586 501.889 372.778 496.572 370.489C469.379 358.643 397.358 316.036 397.358 316.036C397.358 316.036 326.279 397.682 315.24 406.904C304.268 416.125 289.797 410.875 288.047 428.914C286.297 446.886 254.258 497.772 254.258 497.772C254.258 497.772 245.238 501.608 232.113 506.387C215.218 512.58 191.525 520.455 171.265 524.157C168.64 544.35 151.947 559.696 134.85 586.89C117.754 614.15 95.3397 621.621 66.8005 665.507C66.4639 665.978 66.1273 666.517 65.858 666.988C37.588 710.268 9.72193 748.904 9.72193 748.904Z" fill="#2D2929"/>
<path d="M65.8578 666.988L71.4445 684.825C71.4445 684.825 111.157 653.66 116.003 650.362C120.782 647.064 121.456 638.717 136.6 628.419C150.937 618.592 166.62 602.976 168.303 601.361C167.226 603.313 157.87 619.4 145.148 635.891C131.552 653.391 128.052 683.276 131.148 683.68C134.177 684.151 148.918 679.978 155.514 674.257C162.043 668.536 186.005 625.996 196.506 620.275C207.073 614.554 212.996 608.832 232.314 581.841C220.872 611.255 201.554 626.4 199.804 631.246C198.054 636.093 199.804 645.516 199.804 645.516L209.631 642.083C208.554 644.035 191.054 675.536 177.457 693.373C163.389 711.816 163.187 699.969 151.072 710.268C139.023 720.566 126.706 737.393 126.706 737.393C126.706 737.393 148.245 720.566 156.12 715.316C164.062 710.066 171.736 711.143 177.188 708.046C182.707 705.018 185.534 697.344 197.65 685.7C209.698 674.055 233.93 653.391 238.036 643.025C242.209 632.66 262.604 609.64 272.296 601.899C281.989 594.159 294.508 581.505 294.508 581.505C294.508 581.505 293.364 586.553 286.768 594.159C280.239 601.697 284.479 611.457 280.373 627.275C276.537 642.016 260.786 656.891 258.834 658.641C260.921 657.026 277.479 643.429 281.046 639.727C284.816 635.823 288.922 638.92 296.191 628.217C303.393 617.515 295.181 607.823 301.576 604.39C308.037 600.89 314.768 582.985 316.72 574.235C318.74 565.485 307.028 552.157 313.49 542.936C319.884 533.715 342.433 492.454 343.577 491.915C344.721 491.444 326.144 549.734 326.144 549.734C326.144 549.734 331.259 558.283 334.356 566.831C337.519 575.379 337.654 592.341 337.654 592.341C337.654 592.341 346.539 574.908 351.654 570.264C356.77 565.687 364.847 568.312 370.433 566.158C376.02 564.004 414.185 531.292 414.185 531.292C414.185 531.292 381.607 572.889 374.876 577.87C368.145 582.783 366.933 575.581 360.876 580.629C354.75 585.745 345.394 611.592 336.375 623.304C327.288 634.948 333.077 644.035 322.509 658.372C312.009 672.709 306.086 671.834 298.48 678.767C290.941 685.7 294.037 694.584 292.22 706.229C290.47 717.47 271.96 735.913 270.546 737.326C272.633 736.384 305.21 720.97 309.989 716.797C314.97 712.489 310.999 706.229 318.538 699.7C326.144 693.104 344.587 682.2 354.279 670.69C363.972 659.18 368.616 642.218 370.568 633.669C372.587 625.121 377.972 623.64 382.28 616.707C386.521 609.774 384.434 603.515 388.27 599.409C392.174 595.303 404.627 589.043 404.627 589.043C404.627 589.043 392.982 599.274 391.838 604.524C390.694 609.774 392.444 613.746 389.482 618.659C386.52 623.64 389.684 627.275 390.963 632.525C392.309 637.775 388.54 656.083 388.54 656.083C388.54 656.083 412.098 659.314 421.589 664.093C431.147 668.872 444.003 683.882 447.772 683.546C451.542 683.209 477.254 666.247 479.744 666.92C482.167 667.593 483.042 671.699 476.783 678.767C470.523 685.834 459.013 703.604 465.407 707.912C471.802 712.152 487.485 733.422 498.658 732.749C504.245 730.662 498.793 706.094 498.524 700.844C498.322 695.527 502.697 692.027 511.918 674.728C521.139 657.362 525.784 622.227 525.784 622.227L504.918 646.862L476.177 630.371C476.177 630.371 495.225 612.601 500.745 608.226C506.197 603.784 513.668 616.977 520.938 609.303C528.005 601.899 541.804 568.043 542.611 565.956C540.996 567.706 515.149 595.976 513.668 597.457C512.12 599.005 507.543 596.784 501.62 595.236C495.697 593.687 477.927 611.928 469.58 620.746C461.234 629.496 422.195 650.093 422.195 650.093C422.195 650.093 426.973 639.391 438.214 627.073C449.051 615.159 464.398 586.62 465.34 584.803L438.618 604.928L432.493 587.764C446.089 582.716 465.205 559.898 471.734 554.446C478.061 549.129 505.726 554.379 508.081 554.783L479.475 527.657C479.475 527.657 488.898 509.012 496.572 491.646C495.495 491.646 432.493 553.302 432.493 553.302L454.84 515.339L429.599 492.319C429.599 492.319 448.714 466.876 442.791 463.982C437.07 461.222 384.232 511.906 381.001 515.003C382.953 511.637 419.973 450.049 426.772 431.943C433.368 414.442 442.859 392.365 444.003 389.672C441.984 392.365 415.396 428.106 395.607 446.414C416.204 413.971 415.598 390.009 414.454 378.432C413.377 366.787 406.108 352.921 411.829 351.171C417.55 349.421 425.022 362.143 446.763 372.239C468.504 382.336 483.379 385.836 489.571 394.182C495.697 402.528 509.091 417.471 516.966 426.019C524.909 434.568 523.765 439.01 524.034 447.087C524.236 454.962 555.333 478.925 557.285 480.405C555.737 478.723 529.755 450.991 532.582 442.712C535.409 434.164 527.063 421.644 527.063 421.644C527.063 421.644 568.593 445.539 575.795 451.732C583.064 457.857 600.632 481.55 604.334 495.819C608.036 510.089 607.834 531.628 609.853 543.475C611.805 555.321 631.123 575.514 644.047 610.649C642.095 592.409 632.2 565.418 627.354 554.648C622.575 543.879 624.325 538.83 624.123 529.205C623.854 519.512 617.729 494.742 611.604 485.05C605.411 475.424 602.113 462.03 590.266 453.011C578.42 444.059 535.207 418.144 525.313 411.548C515.418 404.952 508.553 398.288 502.293 390.345C496.033 382.47 461.772 367.662 446.964 360.056C432.156 352.517 414.723 333.738 405.838 333.738C396.953 333.738 353.673 392.432 348.827 403.403C344.048 414.375 329.509 440.491 321.634 455.03C313.759 469.502 318.134 479.127 318.134 488.819C318.134 498.175 292.96 519.041 291.412 520.32C292.422 518.772 308.711 494.002 308.24 486.396C307.836 478.453 303.393 463.578 312.413 448.164C321.432 432.818 326.009 415.923 326.009 415.923C326.009 415.923 312.413 423.193 305.413 429.116C298.345 435.039 301.037 451.26 280.575 482.425C260.18 513.589 254.661 541.253 246.786 548.927C238.911 556.6 232.718 552.898 215.218 568.244C198.188 583.12 174.967 618.458 173.553 620.611C174.899 617.515 197.044 567.706 205.121 557.071C213.4 546.1 233.593 533.782 235.411 520.657C235.814 517.426 234.468 512.31 232.112 506.387C215.218 512.579 191.525 520.455 171.265 524.157C168.64 544.35 151.947 559.696 134.85 586.889C117.753 614.15 95.3395 621.621 66.8002 665.507C66.4637 665.978 66.127 666.516 65.8578 666.988Z" fill="white"/>
<path d="M2089.35 738.807H29.2683C40.0782 723.434 57.1883 698.724 74.3118 672.514C74.7359 671.8 74.884 671.558 75.0321 671.343C90.3719 647.778 103.753 635.137 115.559 623.977C125.595 614.5 135.065 605.548 143.398 592.254C148.648 583.914 153.784 576.82 158.752 569.961C168.02 557.159 176.225 545.831 179.806 532.746C199.225 528.546 220.475 521.411 235.592 515.871C248.792 511.065 257.831 507.229 258.215 507.067C260.106 506.26 261.702 504.893 262.799 503.157C268.365 494.319 296.204 449.262 298.096 429.897C298.567 424.983 299.119 424.808 305.803 422.634C310.461 421.126 316.249 419.248 321.728 414.638C331.569 406.419 381.755 349.246 399.457 328.986C418.573 340.173 469.944 369.904 492.533 379.751C499.533 382.76 507.395 383.817 515.963 382.888C550.567 379.017 592.992 343.155 632.476 284.441C641.933 275.684 657.993 266.193 676.517 255.255C686.007 249.648 695.814 243.853 705.79 237.54C726.292 224.616 741.8 212.985 754.562 200.95C771.551 184.897 779.958 175.393 785.525 169.106C793.023 160.625 794.807 158.612 807.266 152.056C827.916 141.152 843.29 136.387 858.67 136.117C866.942 137.026 903.889 163.243 933.074 187.138C936.049 189.595 940.168 190.127 943.682 188.511C946.368 187.273 1009.92 157.993 1032.9 137.053C1043.17 127.724 1054.07 115.703 1065.61 102.974C1079.49 87.6748 1093.84 71.8571 1108.43 59.2096C1131.7 39.0235 1175.62 20.3788 1198.68 20.1836C1213.5 46.6026 1229.84 65.799 1267.24 87.9371C1297.28 105.741 1349.96 186.297 1367.73 215.839C1368.61 217.299 1369.85 218.525 1371.33 219.379L1543.39 318.695L1650.1 461.943C1652.52 465.18 1656.61 466.654 1660.56 465.725C1666.67 464.258 1720.73 450.776 1738.14 429.277L1742.22 424.216C1755.07 408.216 1756.84 406.567 1768.29 409.933C1778.81 413.042 1785.67 418.01 1791.5 422.917C1792.94 424.142 1794.37 425.401 1795.77 426.632C1798.75 429.264 1801.61 431.768 1804.54 433.996C1811.65 439.327 1814.56 447.121 1818.24 456.996L1819.66 460.778C1824.42 473.439 1855.31 505.351 1866.81 516.578C1875.53 525.086 1887.61 536.205 1895.99 541.233C1901.41 544.458 1908.56 549.398 1917.28 555.927C1931.17 566.306 1947.16 579.391 1956.18 587.758C1960.24 591.514 1966.29 595.741 1973.96 601.085C1992.81 614.251 2021.31 634.148 2037.05 660.284C2049.49 680.867 2066.91 706.559 2079.33 724.497C2083 729.774 2086.39 734.614 2089.35 738.807ZM9.7216 759H2108.9C2112.69 759 2116.16 756.88 2117.89 753.508C2119.62 750.142 2119.31 746.083 2117.1 743.007C2117.07 742.98 2107.97 730.326 2095.92 712.987C2083.67 695.298 2066.5 669.97 2054.33 649.851C2036.39 620.046 2005.77 598.675 1985.51 584.527C1978.76 579.815 1972.92 575.743 1969.89 572.943C1960.44 564.166 1943.76 550.509 1929.37 539.766C1919.98 532.719 1912.44 527.522 1906.35 523.901C1901.22 520.818 1891.96 512.903 1880.97 502.194C1857.87 479.625 1840.42 458.369 1838.54 453.623L1837.16 449.942C1832.9 438.526 1828.5 426.72 1816.71 417.875C1814.19 415.97 1811.72 413.776 1809.12 411.488C1807.64 410.175 1806.12 408.842 1804.54 407.496C1797.34 401.445 1788.13 394.741 1774.01 390.561C1749.23 383.271 1739.68 395.131 1726.48 411.575L1722.47 416.542C1713.53 427.588 1683.16 438.741 1662.25 444.442L1558.33 304.957C1557.51 303.853 1556.47 302.931 1555.28 302.244L1383.66 203.185C1373.76 186.95 1315.35 92.9787 1277.52 70.5579C1241.69 49.3554 1227.94 32.077 1213.76 5.67816C1212.23 2.82424 1209.43 0.885709 1206.22 0.448197C1176.63 -3.60384 1122.21 20.5336 1095.2 43.9506C1079.7 57.3923 1064.93 73.6745 1050.66 89.4115C1039.45 101.763 1028.87 113.434 1019.3 122.117C1002.3 137.618 956.908 159.891 940.922 167.497C914.847 146.416 874.017 115.359 858.273 115.931C839.561 116.254 821.475 121.72 797.849 134.192C782.886 142.068 779.117 145.877 770.4 155.725C765.083 161.742 757.033 170.842 740.697 186.263C728.917 197.376 714.392 208.246 695 220.47C685.274 226.622 675.608 232.343 666.245 237.869C646.133 249.749 628.768 260.007 617.736 270.589C617.217 271.093 616.739 271.652 616.335 272.258C580.52 325.782 542.167 359.632 513.756 362.816C508.741 363.368 504.285 362.829 500.563 361.221C474.292 349.778 403.213 307.77 402.493 307.346C398.286 304.869 392.928 305.744 389.738 309.412C361.38 341.984 316.411 392.769 308.764 399.156C306.267 401.256 303.171 402.259 299.57 403.431C291.681 405.988 279.754 409.859 277.991 427.938C276.994 438.216 260.052 469.246 247.398 489.688C243.79 491.162 237.06 493.848 228.659 496.903C212.505 502.827 189.135 510.628 169.447 514.229C165.133 515.016 161.821 518.503 161.255 522.858C159.795 534.099 152.499 544.175 142.395 558.121C137.475 564.913 131.902 572.606 126.302 581.518C119.328 592.638 111.15 600.365 101.693 609.303C89.066 621.231 74.7561 634.753 58.3325 660.001C58.0431 660.405 57.5113 661.24 57.1007 661.967C29.5913 704.042 1.80588 742.617 1.52991 743.001C-0.684571 746.07 -0.994149 750.135 0.735707 753.508C2.45883 756.88 5.92534 759 9.7216 759Z" fill="#2D2929"/>
<path d="M824.134 755.789L838.881 742.004C838.228 741.304 773.053 671.531 753.748 647.717C740.811 631.765 734.908 617.159 729.194 603.037C726.663 596.777 724.273 590.867 721.352 585.032C714.709 571.738 692.746 553.571 666.878 532.928C659.542 527.072 651.229 520.448 649.613 518.55C648.038 516.457 644.054 506.414 640.856 498.344C633.284 479.235 622.912 453.065 609.712 435.894C608.602 434.467 607.135 433.35 605.452 432.677C582.297 423.415 559.735 404.959 539.832 388.676C523.778 375.551 511.104 365.185 500.119 361.053L493.011 379.946C500.886 382.915 513.588 393.307 527.043 404.306C546.341 420.096 570.202 439.61 595.261 450.319C606.071 465.376 615.279 488.611 622.084 505.782C627.839 520.3 630.753 527.455 634.112 531.481C636.804 534.718 642.876 539.611 654.285 548.712C670.668 561.79 698.097 583.666 703.293 594.065C705.851 599.18 708.099 604.733 710.475 610.609C716.452 625.384 723.223 642.137 738.065 660.439C757.807 684.791 821.435 752.902 824.134 755.789Z" fill="#2D2929"/>
</g>
</svg>
