<?xml version="1.0" encoding="UTF-8" standalone="no"?>
<svg
   xmlns:dc="http://purl.org/dc/elements/1.1/"
   xmlns:cc="http://creativecommons.org/ns#"
   xmlns:rdf="http://www.w3.org/1999/02/22-rdf-syntax-ns#"
   xmlns:svg="http://www.w3.org/2000/svg"
   xmlns="http://www.w3.org/2000/svg"
   id="svg6693"
   version="1.1"
   xml:space="preserve"
   width="169.02827"
   height="186.31837"
   viewBox="0 0 169.02827 186.31837"><metadata
     id="metadata6699"><rdf:RDF><cc:Work
         rdf:about=""><dc:format>image/svg+xml</dc:format><dc:type
           rdf:resource="http://purl.org/dc/dcmitype/StillImage" /><dc:title></dc:title></cc:Work></rdf:RDF></metadata><defs
     id="defs6697"><clipPath
       clipPathUnits="userSpaceOnUse"
       id="clipPath6707"><path
         d="m 0,870.236 623.626,0 L 623.626,0 0,0 0,870.236 Z"
         id="path6709" /></clipPath><clipPath
       clipPathUnits="userSpaceOnUse"
       id="clipPath6719"><path
         d="m 0,870.236 623.626,0 L 623.626,0 0,0 0,870.236 Z"
         id="path6721" /></clipPath><clipPath
       clipPathUnits="userSpaceOnUse"
       id="clipPath6731"><path
         d="m 0,870.236 623.626,0 L 623.626,0 0,0 0,870.236 Z"
         id="path6733" /></clipPath><clipPath
       id="clipPath4150"
       clipPathUnits="userSpaceOnUse"><path
         id="path4152"
         d="m 0,870.236 623.626,0 L 623.626,0 0,0 0,870.236 Z" /></clipPath><clipPath
       id="clipPath4162"
       clipPathUnits="userSpaceOnUse"><path
         id="path4164"
         d="m 0,870.236 623.626,0 L 623.626,0 0,0 0,870.236 Z" /></clipPath><clipPath
       id="clipPath4390"
       clipPathUnits="userSpaceOnUse"><path
         id="path4392"
         d="m 0,870.236 623.626,0 L 623.626,0 0,0 0,870.236 Z" /></clipPath><clipPath
       id="clipPath4398"
       clipPathUnits="userSpaceOnUse"><path
         id="path4400"
         d="m -80.514,14.173 -595.276,0 0,841.89 595.276,0 0,-841.89 z" /></clipPath></defs><g
     transform="matrix(1.25,0,0,-1.25,-442.12605,636.1848)"
     id="lion"><path
       id="path5082"
       style="fill:#4c9edc;fill-opacity:1;fill-rule:nonzero;stroke:none"
       d="m 391.50664,417.21205 0,0 -27.80936,-16.0562 c 1.28678,-2.22791 3.14962,-4.12312 5.4552,-5.45391 l 22.35416,-12.90659 0,34.4167 z" /><path
       id="path5084"
       style="fill:#498cd2;fill-opacity:1;fill-rule:nonzero;stroke:none"
       d="m 361.70084,434.42041 0,-25.81188 c 0,-2.66288 0.7107,-5.22348 1.99618,-7.45139 l 27.80936,16.05491 -29.80554,17.20836 z" /><path
       style="fill:#487dc8;fill-opacity:1;fill-rule:nonzero;stroke:none"
       d="m 482.67969,218.86719 -30.55274,17.64062 37.25586,21.50977 0,-19.8125 c -2.22366,-1.85819 -4.18564,-3.62097 -5.16797,-5.08399 -1.41508,-2.10755 -1.65222,-8.42148 -1.53515,-14.2539 z"
       transform="matrix(0.8,0,0,-0.8,0,623.62597)"
       id="path5086" /><path
       style="fill:#5295d6;fill-opacity:1;fill-rule:nonzero;stroke:none"
       d="m 511.91406,288.03125 -22.53125,13.00781 27.94336,16.13282 c 2.88198,1.66348 6.09914,2.49414 9.31445,2.49414 l 0,-26.29883 c -6.4e-4,0 -10e-4,0 -0.002,0 -1.96684,0 -4.08313,-0.805 -6.2539,-1.57617 -1.36543,-0.48507 -5.0399,-2.17009 -8.47071,-3.75977 z"
       transform="matrix(0.8,0,0,-0.8,0,623.62597)"
       id="path5088" /><path
       style="fill:#476bbc;fill-opacity:1;fill-rule:nonzero;stroke:none"
       d="m 454.62109,194.92773 c -1.60846,2.78489 -2.49414,5.98553 -2.49414,9.3125 l 0,32.26758 30.55274,-17.63867 c 0.0566,-2.82261 0.19449,-5.48727 0.32617,-7.55273 l -28.38477,-16.38868 z"
       transform="matrix(0.8,0,0,-0.8,0,623.62597)"
       id="path5090" /><path
       style="fill:#7f9ad6;fill-opacity:1;fill-rule:nonzero;stroke:none"
       d="m 563.89844,258.01758 -12.10352,6.98828 c -0.006,3.91697 -0.32945,7.34224 -1.91601,8.36719 -2.80508,1.81218 -7.67922,2.15441 -10.27539,1.75195 -1.18479,-0.18367 -2.48267,-0.51449 -3.7754,-0.90039 l -0.88867,0.51172 c 2.44137,0.76137 4.76253,1.58288 8.40235,1.7207 2.94875,0.11165 4.47324,-0.53184 6.17773,-1.19922 1.53779,1.98478 0.95739,8.56317 -3.65625,10.69141 -1.06109,0.48947 -2.85923,1.32162 -4.49609,2.08008 l 22.53125,13.00976 0,-43.02148 z"
       transform="matrix(0.8,0,0,-0.8,0,623.62597)"
       id="path5092" /><path
       id="path5094"
       style="fill:#727ebd;fill-opacity:1;fill-rule:nonzero;stroke:none"
       d="m 478.92721,401.15649 c 1.28678,2.22791 1.99619,4.78981 1.99619,7.45139 l 0,25.81188 -29.80555,-17.20835 27.80936,-16.05492 z" /><path
       id="path5096"
       style="fill:#8f9fd8;fill-opacity:1;fill-rule:nonzero;stroke:none"
       d="m 451.11798,417.21205 0,-34.4167 22.35416,12.90659 c 2.30558,1.33079 4.16843,3.226 5.4552,5.4552 l -27.80936,16.05491 z" /><path
       style="fill:#425da2;fill-opacity:1;fill-rule:nonzero;stroke:none"
       d="m 570.59961,218.86523 c 0.11716,5.83297 -0.11991,12.14808 -1.53516,14.25586 -0.98215,1.46277 -2.94284,3.22616 -5.16601,5.08399 l 0,19.8125 37.25586,-21.50977 -30.55469,-17.64258 z"
       transform="matrix(0.8,0,0,-0.8,0,623.62597)"
       id="path5098" /><path
       style="fill:#6495d5;fill-opacity:1;fill-rule:nonzero;stroke:none"
       d="m 541.36523,288.0293 c -3.43125,1.58989 -7.10501,3.27655 -8.4707,3.76172 -2.17007,0.77092 -4.2876,1.57564 -6.25391,1.57617 l 0,26.29883 c 3.21533,0 6.43248,-0.83066 9.31446,-2.49414 l 27.9414,-16.13282 -22.53125,-13.00976 z"
       transform="matrix(0.8,0,0,-0.8,0,623.62597)"
       id="path5100" /><path
       style="fill:#3a64ad;fill-opacity:1;fill-rule:nonzero;stroke:none"
       d="m 489.38281,171.97656 0,25.42774 14.46485,-8.22266 8.07812,-4.19141 -22.54297,-13.01367 z"
       transform="matrix(0.8,0,0,-0.8,0,623.62597)"
       id="path5102" /><path
       style="fill:#3a61a3;fill-opacity:1;fill-rule:nonzero;stroke:none"
       d="m 563.89648,171.97656 -22.54296,13.01563 8.07617,4.18945 14.46679,8.22266 0,-25.42774 z"
       transform="matrix(0.8,0,0,-0.8,0,623.62597)"
       id="path5104" /><path
       style="fill:#32549d;fill-opacity:1;fill-rule:nonzero;stroke:none"
       d="m 489.38281,171.97656 -27.9414,16.13086 c -2.88198,1.66511 -5.21184,4.03544 -6.82032,6.82031 l 28.38477,16.38868 c 0.1451,-2.27607 0.2793,-3.81641 0.2793,-3.81641 0,-2.03614 0.54344,-3.99468 1.52734,-5.69922 0.98393,-1.70354 2.40894,-3.15235 4.17188,-4.16992 l 0.39843,-0.22656 0,-25.42774 z"
       transform="matrix(0.8,0,0,-0.8,0,623.62597)"
       id="path5106" /><path
       style="fill:#2f5296;fill-opacity:1;fill-rule:nonzero;stroke:none"
       d="m 598.6582,194.92578 -28.38476,16.38867 c 0.13165,2.06474 0.26949,4.72877 0.32617,7.55078 l 30.55469,17.64258 0,-32.26562 c 0,-3.3286 -0.88762,-6.52991 -2.4961,-9.31641 z"
       transform="matrix(0.8,0,0,-0.8,0,623.62597)"
       id="path5108" /><path
       style="fill:#325295;fill-opacity:1;fill-rule:nonzero;stroke:none"
       d="m 563.89844,171.97656 0,25.42969 0.39648,0.22461 c 1.76294,1.01757 3.18795,2.46638 4.17188,4.16992 0.9839,1.70454 1.52734,3.66308 1.52734,5.69922 0,0 0.13424,1.53937 0.2793,3.81445 l 28.38476,-16.38867 c -1.60846,-2.78489 -3.93638,-5.15292 -6.81836,-6.8164 l -27.9414,-16.13282 z"
       transform="matrix(0.8,0,0,-0.8,0,623.62597)"
       id="path5110" /><path
       style="fill:#4379c6;fill-opacity:1;fill-rule:nonzero;stroke:none"
       d="m 526.64062,153.34766 0,26.29882 c 3.15309,4e-4 6.23814,0.94851 9.13477,2.45118 l 5.57813,2.89453 22.54492,-13.01563 -27.94532,-16.13476 c -2.88197,-1.66349 -6.09717,-2.49414 -9.3125,-2.49414 z"
       transform="matrix(0.8,0,0,-0.8,0,623.62597)"
       id="path5112" /><path
       style="fill:#3f73bd;fill-opacity:1;fill-rule:nonzero;stroke:none"
       d="m 526.64062,153.34766 c -3.21531,0 -6.43213,0.83065 -9.3125,2.49414 l -27.94531,16.13476 22.54297,13.01367 5.57813,-2.89257 c 2.89721,-1.50298 5.98102,-2.45118 9.13476,-2.45118 6.5e-4,0 10e-4,0 0.002,0 l 0,-26.29882 z"
       transform="matrix(0.8,0,0,-0.8,0,623.62597)"
       id="path5114" /><path
       style="fill:#50a0dd;fill-opacity:1;fill-rule:nonzero;stroke:none"
       d="m 489.38281,258.01758 0,43.02148 22.53125,-13.00781 c -1.63828,-0.7591 -3.43615,-1.59219 -4.49804,-2.08203 -4.61364,-2.12824 -5.19403,-8.70663 -3.65625,-10.69141 1.70448,0.66738 3.22898,1.31097 6.17773,1.19922 3.6387,-0.13778 5.9618,-0.95952 8.40625,-1.7207 l -0.89453,-0.51563 c -1.29178,0.38802 -2.58756,0.72046 -3.77344,0.9043 -2.59619,0.40246 -7.47031,0.0602 -10.27539,-1.75195 -1.58683,-1.02512 -1.90994,-4.45136 -1.91601,-8.36914 l -12.10157,-6.98633 z"
       transform="matrix(0.8,0,0,-0.8,0,623.62597)"
       id="path5116" /><path
       style="fill:#425da2;fill-opacity:1;fill-rule:nonzero;stroke:none"
       d="m 489.38281,238.20508 0,19.8125 11.90235,-6.87305 c -0.16588,-1.10285 -0.39847,-1.97767 -0.72071,-2.54101 -1.68985,-2.95419 -6.94389,-6.85719 -11.18164,-10.39844 z"
       transform="matrix(0.8,0,0,-0.8,0,623.62597)"
       id="path5118" /><path
       style="fill:#487dc8;fill-opacity:1;fill-rule:nonzero;stroke:none"
       d="m 563.89648,238.20508 c -4.23775,3.54125 -9.49178,7.44425 -11.18164,10.39844 -0.32224,0.56334 -0.55483,1.43816 -0.7207,2.54101 l 11.90234,6.87305 0,-19.8125 z"
       transform="matrix(0.8,0,0,-0.8,0,623.62597)"
       id="path5120" /><path
       style="fill:#3f73bd;fill-opacity:1;fill-rule:nonzero;stroke:none"
       d="m 551.99414,251.14453 c -0.16569,1.10168 -0.2647,2.4321 -0.31836,3.91016 -0.0985,2.91678 0.12441,6.61057 0.11914,9.95117 l 12.10352,-6.98828 -11.9043,-6.87305 z m -50.70898,0.002 -11.90235,6.8711 12.10157,6.98633 c -0.005,-3.3401 0.21759,-7.03301 0.11914,-9.94922 -0.0536,-1.47727 -0.15282,-2.80687 -0.31836,-3.90821 z m 13.52343,3.0879 c -0.21902,0.0152 -0.35257,0.0529 -0.38671,0.12109 -0.23862,0.47644 9.21599,3.79295 11.72265,9.92969 0.27055,0.36931 0,6.57422 0,6.57422 0,0 -4.3322,2.05241 -8.69726,3.36328 l 0.89257,0.51562 c 2.27523,-0.70859 4.65312,-1.36523 8.30664,-1.36523 3.65014,0 6.0233,0.65545 8.29297,1.36328 l 0.88867,-0.51172 c -4.37272,-1.30535 -8.7207,-3.3457 -8.7207,-3.3457 0,0 -0.27055,-6.2049 0,-6.57422 2.50665,-6.13674 11.98863,-9.47278 11.75,-9.94922 -0.27312,-0.54535 -6.96663,0.81126 -12.22461,0.77539 -4.60073,0.0314 -10.29104,-1.00298 -11.82422,-0.89648 z"
       transform="matrix(0.8,0,0,-0.8,0,623.62597)"
       id="path5122" /><path
       style="fill:#2f5296;fill-opacity:1;fill-rule:nonzero;stroke:none"
       d="m 499.37109,211.81836 c -0.30051,-0.001 -0.57683,0.005 -0.82421,0.0176 -0.28693,0.0147 -0.52089,0.0414 -0.72071,0.0762 -0.31616,0.0551 -0.52847,0.1331 -0.57226,0.24219 -0.043,0.10699 0.009,0.21955 0.13281,0.33398 0.21277,0.19613 0.66019,0.3975 1.17969,0.5918 0.0863,0.0323 0.15311,0.0659 0.24414,0.0976 0,0 0.002,0 0.002,0 0.31932,0.11126 0.66405,0.21944 1.01172,0.32032 0,0 0.002,0 0.002,0 0.69591,0.20187 1.40289,0.37723 1.93555,0.50195 0,0 0.002,0 0.002,0 0.53133,0.12437 0.89063,0.19922 0.89063,0.19922 0,0 1.27888,3.24878 2.70898,4.84766 0.46453,0.51917 1.32163,0.90578 2.21094,1.18554 0.88949,0.27989 1.81079,0.45277 2.40625,0.54688 0.39688,0.0627 0.64844,0.0898 0.64844,0.0898 l 3.80273,7.05469 c 0,0 -0.79431,-6.66867 -1.86914,-10.73242 -0.0896,-0.33869 -0.18026,-0.65792 -0.27344,-0.95508 -0.1863,-0.59428 -0.37903,-1.09517 -0.57617,-1.45899 -0.0986,-0.1819 -0.19844,-0.3293 -0.29883,-0.4375 -0.13997,-0.15085 -0.35342,-0.29481 -0.60156,-0.43554 -0.0561,-0.0318 -0.10107,-0.0664 -0.16211,-0.0977 0,0 -0.002,0 -0.002,0 -0.33175,-0.16981 -0.73358,-0.33215 -1.18946,-0.48437 -1.36811,-0.45694 -3.21394,-0.82949 -5.05664,-1.08985 -0.614,-0.0867 -1.22696,-0.16003 -1.82226,-0.2207 -1.19063,-0.1214 -2.30743,-0.18905 -3.20899,-0.19336 z"
       transform="matrix(0.8,0,0,-0.8,0,623.62597)"
       id="path5124" /><path
       style="fill:#498cd2;fill-opacity:1;fill-rule:nonzero;stroke:none"
       d="m 553.9082,211.81836 c -3.60622,0.0173 -10.66768,1.03927 -12.04297,2.52148 -1.60623,1.73114 -3.01953,13.58399 -3.01953,13.58399 l 3.80274,-7.05469 c 0,0 4.02885,-0.43778 5.26758,-1.82226 1.4301,-1.59888 2.70703,-4.84766 2.70703,-4.84766 0,0 5.74635,-1.18895 5.40234,-2.04492 -0.0955,-0.23754 -0.91511,-0.34094 -2.11719,-0.33594 z"
       transform="matrix(0.8,0,0,-0.8,0,623.62597)"
       id="path5126" /></g></svg>