<?xml version="1.0" encoding="utf-8"?>
<!-- Generator: Adobe Illustrator 16.0.0, SVG Export Plug-In . SVG Version: 6.00 Build 0)  -->
<!DOCTYPE svg PUBLIC "-//W3C//DTD SVG 1.1//EN" "http://www.w3.org/Graphics/SVG/1.1/DTD/svg11.dtd">
<svg version="1.1" id="Calque_1" xmlns="http://www.w3.org/2000/svg" xmlns:xlink="http://www.w3.org/1999/xlink" x="0px" y="0px"
	 width="1547.525px" height="792.245px" viewBox="0 0 1547.525 792.245" enable-background="new 0 0 1547.525 792.245"
	 xml:space="preserve">
<g>
	<path fill-rule="evenodd" clip-rule="evenodd" fill="#EFDA4E" d="M1467.816,588.23c-1.781-0.358-3.643-0.502-5.331-1.119
		c-3.855-1.406-6.477-1.282-8.938,2.985c-1.964,3.407-6.441,3.332-10.013,1.971c-3.13-1.191-5.956-3.181-9.067-4.902
		c0.318,8.217,0.208,8.277-7.366,4.689c-1.608-0.762-3.05-2.093-5.061-1.572c-1.478-0.346-2.614-1.49-4.066-1.84
		c-14.128-3.398-24.384-12.904-35.124-21.817c-7.03-5.835-15.508-9.563-23.369-14.178c-2.435-1.428-4.905-2.798-7.276-4.326
		c-1.88-1.212-3.396-2.719-3.023-5.27c0.924-2.922,2.855-5.27,4.588-7.688c1.946-2.717,1.745-4.638-1.025-6.677
		c-18.689-13.758-39.222-23.17-62.269-26.775c-19.607-3.067-39.173-3.503-58.439,1.953c-20.468,5.795-37.159,16.874-47.977,35.762
		c-8.023,14.01-9.825,29.153-8.413,44.911c1.031,11.514,4.513,22.12,11.411,31.54c7.751,10.586,18.51,17.131,30.148,22.353
		c14.795,6.641,30.365,10.964,46.129,14.632c11.852,2.757,23.669,5.736,34.81,10.717c8.267,3.696,16.255,8.073,20.233,16.911
		c7.519,16.699-0.079,35.272-17.035,42.839c-12.974,5.789-26.52,6.06-40.205,4.744c-24.206-2.326-44.88-12.949-63.62-27.873
		c-1.043-0.829-2.132-1.605-3.13-2.484c-2.19-1.929-4.089-1.787-5.951,0.497c-6.73,8.263-13.583,16.426-20.452,24.573
		c-2.784,3.303-0.854,5.29,1.723,7.393c16.323,13.321,34.406,23.451,54.591,29.529c26.796,8.068,53.94,10.098,81.327,3.156
		c19.729-4.999,36.825-14.672,47.572-32.332c14.396-23.659,15.972-48.763,3.784-73.928c-5.939-12.264-16.649-20.163-28.401-26.529
		c-14.771-8.002-30.788-12.542-46.96-16.662c-15.646-3.987-31.475-7.506-45.844-15.318c-10.175-5.533-16.83-13.523-17.148-25.644
		c-0.403-15.4,9.119-27.374,25.563-32.096c12.456-3.576,24.991-3.183,37.565-0.521c17.249,3.651,32.694,11.262,46.915,21.45
		c3.312,2.373,5.229,2.291,7.625-1.193c2.423-3.522,4.288-7.562,7.873-10.212c2.374-0.551,3.69,1.153,5.07,2.521
		c8.732,8.656,17.454,17.325,26.077,26.089c3.405,3.46,5.73,7.739,8.355,11.769c6.984,10.718,14.158,21.288,21.771,31.586
		c3.585,4.852,7.229,9.978,8.268,16.265c3.45,5.125,6.222,10.454,5.128,16.952c-0.99,1.596,0.004,3.483-0.75,5.114
		c-0.33,5.707-0.661,11.414-0.991,17.121c0.786,1.977-0.301,4.178,0.736,6.124c-0.027,0.99-0.156,1.991-0.065,2.971
		c0.396,4.247,0.205,7.43-5.638,5.037c-3.348-1.37-4.016,1.838-4.064,3.937c-0.114,4.964-0.91,9.859-1.104,14.789
		c-0.343,8.748-2.624,17.233-3.164,25.942c-0.158,2.541-1.944,2.389-3.592,1.734c-1.806-0.719-3.458-1.813-5.228-2.639
		c-2.719-1.268-2.008,0.713-1.903,2.087c0.773,1.644-0.204,3.543,0.752,5.16c0.747,6.28-0.933,12.128-3.169,17.883
		c-0.898,2.313-2.395,4.108-4.748,2.122c-2.624-2.215-3.033-0.504-3.416,1.431c-1.689,8.558-5.731,16.61-5.565,25.553
		c0.042,2.258-0.949,2.947-3,2.8c-1.161-0.083-2.332-0.011-3.499-0.011c-268.098,0-536.195,0.001-804.293,0.001
		c-4.324,0-8.648,0-13.604,0c1.99-7.791,3.659-15.233,5.886-22.506c0.713-2.33-0.008-2.546-1.701-2.801
		c-0.001-2.928,2.385-1.782,3.688-1.935c11.132-1.304,22.077-3.495,32.451-7.758c45.321-18.621,71.619-52.818,80.594-100.436
		c5.651-29.975,1.621-59.057-11.633-86.604c-6.017-12.505-13.771-23.928-23.842-33.664c-1.777-1.719-4.542-3.077-3.937-6.37
		c3.687-7.608,5.909-15.791,7.787-23.9c2.057-8.878,6.521-15.574,13.088-21.536c6.653-6.042,6.429-6.295-1.051-11.006
		c-0.695-0.438-1.418-0.854-2.172-1.177c-3.745-1.6-4.616-3.354-3.037-7.876c5.511-15.777,13.87-29.781,24.132-42.785
		c2-2.535,2.788-4.902,0.725-7.942c-2.765-4.076-2.441-8.091,0.355-12.367c2.238-3.424,3.773-7.384,5.162-11.271
		c3.263-9.133,9.82-15.093,17.631-20.415c16.265-11.084,30.593-24.457,44.144-39.09c-6.604-2.742-13.548-0.57-20.277-2.547
		c13.431-12.941,27.854-24.168,42.367-35.631c-3.841-2.931-8.783-3.353-12.564-6.636c6.194-5.285,12.33-10.397,18.325-15.669
		c7.251-6.377,10.519-15.441,15.478-23.366c0.871-1.393,1.717-2.865,2.859-4.017c14.196-14.305,27.89-29.173,45.495-40.277
		c-5.746-4.646-10.855-9.114-16.476-13.005c-2.657-1.84-5.219-3.829-1.405-7.74c3.837-3.935,6.17-9.331,9.986-13.292
		c3.787-3.928,9.566-4.885,14.484-7.079c14.25-6.356,27.434-14.58,41.527-22.686c-4.607-1.957-6.625-5.831-10.521-8.574
		c19.738-5.332,39.021-10.681,60.036-11.864c-3.593-6.411-6.803-12.25-10.131-18.019c-1.297-2.247-2.238-3.161,1.621-4.247
		c20.06-5.643,40.619-8.736,60.986-12.824c4.481-0.899,9.226-0.895,13.355-3.279c1.163-3.989,0.16-8.072,0.54-12.092
		c0.145-1.532-0.724-3.257,0.761-4.571c14.315-10.715,30.509-17.717,47.165-23.784c5.969-2.174,12.375-1.957,18.532-3.159
		c4.711-0.919,9.51-1.384,14.794-2.125c-4.447-4.01-8.896-7.168-13.383-10.302c-2.677-1.87-4.146-3.76,0.145-5.892
		c3.321-1.65,6.563-3.723,9.308-6.199c3.121-2.814,6.38-3.239,10.214-2.51c9.909,1.886,19.801,3.904,29.768,5.431
		c7.673,1.174,15.445,1.708,23.181,2.455c0.893,0.086,2.139,0.466,2.642-0.702c0.494-1.143-0.586-1.804-1.238-2.476
		c-4.123-4.246-8.924-7.899-12.029-14.101c15.486,4.201,30.978,6.094,44.56,14.404c11.151,6.824,22.751,12.933,33.76,19.971
		c16.671,10.658,32.249,22.6,44.597,38.467c7.94,10.205,17.545,19.128,25.339,29.432c10.876,14.377,21.009,29.34,30.988,44.365
		c8.946,13.468,20.99,23.354,34.672,31.349c8.099,4.732,15.153,10.615,22.188,16.69c9.881,8.531,20.662,16.123,27.74,27.451
		c4.645,7.433,9.195,14.926,13.666,22.464c1.204,2.031,2.652,3.769,4.266,5.46c17.514,18.356,37.913,33.076,58.678,47.448
		c9.484,6.566,19.318,12.348,30.066,16.134c10.234,3.605,16.34,11.158,22.763,19.055c9.469,11.641,16.371,24.85,24.276,37.449
		c-2.284,3.125-5.279,2.318-8.086,1.202c-4.631-1.842-9.197-3.875-13.658-6.097c-2.915-1.453-5.637-1.463-8.624-0.302
		c-5.909,2.294-11.599,4.917-16.831,8.585c-6.366,4.462-10.417,4.159-16.537-0.859c-2.549-2.088-4.804-5.182-8.546-2.321
		c-2.345,1.792-1.563,5.541,1.303,9.893c4.877,7.404,11.611,12.701,18.897,17.453c9.829,6.41,16.906,14.728,19.392,26.618
		c0.715,3.42,0.099,6.582,0.053,9.869c-0.025,3.517,0.006,7.03,0.003,10.54c0.018,0.665,0.017,1.334-0.096,1.99
		c-3.021,17.607-0.793,13.181-14.005,21.838c-1.951,1.279-3.996,2.455-5.706,4.025c-15.375,14.107-34.174,22.485-52.963,30.428
		c-17.244,7.288-35.431,8.274-53.652,2.521c-9.648-3.047-19.715-2.339-29.64-2.772c-1.36-0.06-3.522-0.108-3.562,1.806
		c-0.035,1.612,1.973,2.195,3.357,2.537c7.59,1.869,15.207,3.626,22.76,5.653c3.549,0.325,7.115-0.069,10.658,0.302
		c14.575,5.72,28.804,5.347,43.55-0.438c12.343-4.842,25.477-7.648,37.85-12.579c7.249-2.888,14.052-1.211,20.688,1.703
		c4.052,1.78,5.157,1.435,6.198-2.896c0.946-3.935-0.103-7.576-1.358-11.218c-2.671-7.746-1.615-12.42,4.897-16.96
		c7.754-5.405,11.726-12.401,11.384-21.898c-0.107-2.976,1.105-5.881,0.875-8.908c0.078-3.268-0.12-6.539,0.159-9.802
		c1.033-4.613,1.806-9.35,5.775-12.626c1.235-1.019,2.266-2.43,4.175-2.103c0.488,5.667,0.979,11.335,1.467,17.003
		c0.431,1.628,0.454,3.255-0.018,4.881c-0.087,3.939-0.175,7.878-0.263,11.817c-0.935,1.628,0.021,3.529-0.745,5.183
		c-2.46,12.29-7.656,23.485-14.028,34.143c-4.584,7.669-9.562,15.103-14.382,22.629c-0.807,1.26-1.793,2.485-1.744,4.037
		c0.284,9.125-0.875,18.286,0.68,27.381c0.699,4.092-0.277,8.316,0.963,12.387c0.15,0.493-0.212,1.432-0.645,1.771
		c-5.024,3.934-4.474,9.297-3.623,14.594c0.39,2.426-1.121,1.852-2.299,2.062c-2.067-1.054-2.501,0.049-2.628,1.861
		c-0.12,1.723,0.567,3.541-0.523,5.166c-3.934,0.351-7.64-1.857-11.62-1.026c-2.19,0.457-4.895,0.297-4.387,3.831
		C1467.738,584.625,1469.098,586.683,1467.816,588.23z"/>
	<path fill-rule="evenodd" clip-rule="evenodd" fill="blue" d="M634.039,530.142c13.083,13.015,23.891,27.562,31.376,44.585
		c23.202,52.768,11.642,116.393-28.993,156.154c-21.45,20.989-47.375,32.781-77.338,35.515c-0.803,0.073-1.588,0.339-2.375,0.514
		c-7.872,0.095-15.752,0.19-23.632,0.286c-1.56-1.062-3.408-0.077-5.027-0.711c-23.938-2.117-45.318-11.03-64.343-25.329
		c-15.002-11.275-26.501-25.769-35.158-42.447c-7.916-15.252-12.873-31.416-14.76-48.508c-0.65-1.667,0.253-3.543-0.695-5.169
		c-0.008-8.223-0.017-16.446-0.024-24.669c1.021-1.588,0.044-3.457,0.72-5.093c1.556-18.607,7.241-36.174,16.489-52.083
		c19.215-33.056,47.212-55.002,85.276-62.873c4.138-0.855,8.319-1.503,12.48-2.247c1.701-0.717,3.619,0.157,5.299-0.719
		c7.869-0.023,15.738-0.047,23.607-0.072c1.559,1.062,3.408,0.078,5.027,0.711c22.574,3.24,43.556,10.531,61.952,24.38
		C627.319,524.924,630.667,527.549,634.039,530.142z"/>
	<path fill-rule="evenodd" clip-rule="evenodd" fill="blue" d="M298.148,763.235c-4.666-0.006-9.354-0.299-13.989,0.07
		c-4.051,0.322-5.261-0.738-5.23-5.039c0.217-30.157,0.011-60.316,0.214-90.474c0.035-5.214-1.328-9.354-4.36-13.585
		c-19.479-27.175-38.699-54.535-58.047-81.804c-16.705-23.545-33.468-47.049-50.617-71.148c8.109,0,15.685,0.117,23.251-0.071
		c2.226-0.056,2.816,1.453,3.685,2.696c16.317,23.343,32.597,46.712,48.866,70.089c15.514,22.289,31.007,44.592,46.775,67.272
		c3.105-4.109,6.347-8.058,9.22-12.258c23.551-34.429,47.354-68.681,71.708-102.548c5.286-7.35,10.154-14.999,15.301-22.45
		c0.946-1.37,1.724-2.891,4.098-2.812c6.973,0.229,13.957,0.082,21.672,0.082c-7.027,9.993-13.672,19.517-20.395,28.984
		c-16.124,22.704-32.28,45.386-48.432,68.069c-13.658,19.185-27.336,38.356-40.978,57.554c-0.744,1.046-1.228,2.276-1.833,3.421
		c-1.007,1.705-0.505,3.576-0.507,5.361c-0.035,31.056-0.019,62.112-0.043,93.168C298.506,759.62,298.858,761.469,298.148,763.235z"
		/>
	<path fill-rule="evenodd" clip-rule="evenodd" fill="blue" d="M0.09,763.173C0.086,677.407,0.104,591.639,0,505.873
		c-0.005-3.556,0.571-5.077,4.523-4.707c4.786,0.448,11.267-1.606,14.022,0.819c3.165,2.787,1.002,9.393,1.006,14.324
		c0.062,74.443,0.084,148.886-0.058,223.327c-0.008,4.467,1.013,5.719,5.632,5.701c49.295-0.182,98.59-0.107,147.886-0.104
		c1.148,5.258,0.23,10.584,0.53,15.87c0.11,1.939-0.798,2.723-2.688,2.605c-0.994-0.062-1.998-0.005-2.997-0.005
		c-54.297,0-108.593,0.004-162.89-0.022C3.341,763.681,1.629,764.142,0.09,763.173z"/>
	<path fill-rule="evenodd" clip-rule="evenodd" fill="#B5A53C" d="M1513.75,440.171c-0.652,6.572-0.68,13.291-2.176,19.666
		c-0.999,4.26-4.691,7.531-8.354,10.238c-8.689,6.422-9.46,8.351-6.146,18.152c1.418,4.192,1.84,8.277,0.857,12.587
		c-0.888,3.895-3.965,4.975-7.235,2.849c-5.554-3.611-11.914-5.23-18.166-3.001c-19.052,6.791-38.378,12.644-57.794,18.258
		c-2.461,0.712-4.768,1.027-7.247,0.333c-6.194-1.733-12.687-2.366-18.627-5.044c-3.949-0.841-7.906-0.646-11.867-0.102
		c-6.708-1.791-13.35-3.796-20.232-4.955c-3.333-0.562-8.239-2.005-7.951-5.217c0.237-2.649,5.362-2.761,8.774-2.724
		c12.958,0.141,25.769,1.668,38.175,5.3c9.544,2.795,18.649,0.238,27.938-0.709c13.643-1.392,24.567-9.572,36.775-14.559
		c16.895-6.897,29.005-20.985,44.91-29.317c1.167-0.611,2.176-1.521,2.403-3.01c0.704-4.575,1.445-9.144,2.172-13.715
		c0.781-3.942,0.624-7.891,0.083-11.842c1.537-13.961-4.876-24.33-15.536-32.161c-8.707-6.397-17.776-12.141-23.765-21.556
		c-3.635-5.716-2.541-10.493,3.188-11.976c1.749-0.453,2.862-0.055,3.984,1.102c1.044,1.075,2.066,2.182,3.195,3.162
		c4.665,4.052,9.131,4.355,14.138,1.103c3.056-1.985,5.992-4.278,9.287-5.749c13.165-5.873,13.193-5.741,26.734,0.662
		c3.978,1.882,7.881,4.625,12.639,2.194c3.776,2.605,4.269,5.839,2.969,10.228c-3.307,11.163-11.585,18.886-18.305,27.698
		c-1.896,2.486-3.965,4.84-5.955,7.255c-5.049,3.335-7.447,8.335-8.791,13.996C1513.044,432.929,1513.198,436.549,1513.75,440.171z"
		/>
	<path fill-rule="evenodd" clip-rule="evenodd" fill="#B5A53C" d="M1349.879,543.215c0.106,2.383,1.897,3.302,3.657,4.312
		c8.933,5.129,18.012,10.031,26.702,15.543c5.008,3.177,9.834,6.92,13.93,11.188c6.663,6.94,15.318,9.656,23.842,12.844
		c1.712,0.64,3.609,0.947,4.03,3.181c0.01,1.999,0.021,3.999,0.03,6c0.794,2.034-0.199,4.273,0.719,6.294
		c0.103,12.643-2.542,24.584-9.078,35.53c-10.15-18.924-24.306-35.21-35.286-53.594c-3.544-5.934-9.098-10.131-13.865-14.986
		c-6.408-6.526-13.038-12.836-19.574-19.238C1344.968,546.79,1346.475,544.346,1349.879,543.215z"/>
	<path fill-rule="evenodd" clip-rule="evenodd" fill="#FCFCFC" d="M0.09,763.173c1.325,0.068,2.65,0.196,3.975,0.196
		c54.742,0.01,109.484-0.024,164.227,0.083c3.674,0.007,5.429-0.584,5.009-4.768c-0.446-4.448-0.222-8.965-0.289-13.451
		c2.302,5.594,0.598,11.416,0.928,17.124c0.083,1.439-1.207,1.817-2.476,1.839c-1.164,0.019-2.329,0.028-3.494,0.028
		c-54.08,0.002-108.159,0.01-162.238-0.035C3.839,764.188,1.697,764.989,0.09,763.173z"/>
	<path fill-rule="evenodd" clip-rule="evenodd" fill="#FCFCFC" d="M298.148,763.235c0.122-1.81,0.352-3.619,0.353-5.429
		c0.021-31.061,0.005-62.122,0.044-93.184c0.002-1.775-0.546-3.647,0.514-5.339c-0.001,32.743,0.011,65.485-0.035,98.228
		C299.02,759.428,299.722,761.529,298.148,763.235z"/>
	<path fill-rule="evenodd" clip-rule="evenodd" fill="#FCFCFC" d="M997.252,63.363c-1.035,3.994-0.23,8.066-0.535,12.087
		c-0.117,1.536,0.682,3.256-0.766,4.577c-0.001-4.093-0.054-8.188,0.024-12.279C996.004,66.212,995.341,64.386,997.252,63.363z"/>
	<path fill-rule="evenodd" clip-rule="evenodd" fill="#FCFCFC" d="M1484.829,580.235c0.059-1.995,0.068-3.992,0.187-5.981
		c0.154-2.597,1.482-2.091,2.964-1.046C1483.771,574.133,1487.545,578.638,1484.829,580.235z"/>
	<path fill-rule="evenodd" clip-rule="evenodd" fill="#FCFCFC" d="M1422.789,602.577c-1.092-2.001-0.78-4.162-0.719-6.295
		C1423.604,598.233,1422.679,600.463,1422.789,602.577z"/>
	<path fill-rule="evenodd" clip-rule="evenodd" fill="#FCFCFC" d="M1417.834,683.418c-1.178-1.929-0.787-4.047-0.736-6.124
		C1418.587,679.186,1417.665,681.369,1417.834,683.418z"/>
	<path fill-rule="evenodd" clip-rule="evenodd" fill="#FCFCFC" d="M561.969,497.987c-1.721,0.08-3.431,0.086-5.027-0.711
		C558.631,497.417,560.439,496.716,561.969,497.987z"/>
	<path fill-rule="evenodd" clip-rule="evenodd" fill="#FCFCFC" d="M533.334,497.348c-1.708,0.671-3.479,0.878-5.299,0.719
		C529.644,496.664,531.544,497.413,533.334,497.348z"/>
	<path fill-rule="evenodd" clip-rule="evenodd" fill="#FCFCFC" d="M1523.059,454.205c-0.086-1.774-0.359-3.576,0.746-5.181
		C1523.703,450.771,1524.489,452.647,1523.059,454.205z"/>
	<path fill-rule="evenodd" clip-rule="evenodd" fill="#FCFCFC" d="M1467.816,588.23c0.438-1.709-0.16-3.619,1.006-5.188
		C1468.662,584.803,1469.634,586.787,1467.816,588.23z"/>
	<path fill-rule="evenodd" clip-rule="evenodd" fill="#FCFCFC" d="M413.79,615.27c0.103,1.746,0.055,3.471-0.72,5.093
		C413.188,618.648,412.473,616.816,413.79,615.27z"/>
	<path fill-rule="evenodd" clip-rule="evenodd" fill="#FCFCFC" d="M413.095,645.032c0.736,1.654,0.849,3.395,0.695,5.169
		C412.469,648.625,413.183,646.774,413.095,645.032z"/>
	<path fill-rule="evenodd" clip-rule="evenodd" fill="#FCFCFC" d="M1418.089,660.173c-0.09-1.754-0.33-3.53,0.751-5.113
		C1418.716,656.783,1419.489,658.637,1418.089,660.173z"/>
	<path fill-rule="evenodd" clip-rule="evenodd" fill="#FCFCFC" d="M1524.066,437.205c0.006-1.627,0.012-3.254,0.018-4.881
		C1525.28,433.955,1525.29,435.582,1524.066,437.205z"/>
	<path fill-rule="evenodd" clip-rule="evenodd" fill="#FCFCFC" d="M1393.827,742.437c-1.092-1.598-0.826-3.394-0.752-5.16
		C1394.505,738.826,1393.72,740.696,1393.827,742.437z"/>
	<path fill-rule="evenodd" clip-rule="evenodd" fill="#FCFCFC" d="M528.051,766.485c1.721-0.08,3.431-0.086,5.027,0.711
		C531.389,767.055,529.58,767.756,528.051,766.485z"/>
	<path fill-rule="evenodd" clip-rule="evenodd" fill="#323330" d="M1349.879,543.215c-1.631,2.356-3.262,4.715-4.894,7.073
		c-3.125,4.305-6.441,8.487-9.306,12.96c-1.705,2.666-2.965,2.627-5.35,0.867c-12.81-9.453-26.622-17.03-42.058-21.285
		c-15.339-4.23-30.798-5.713-46.194-0.418c-16.863,5.799-24.849,19.678-21.25,36.204c1.812,8.315,7.247,13.643,14.277,17.667
		c11.088,6.346,23.279,9.747,35.517,12.909c17.708,4.579,35.575,8.628,52.243,16.46c14.886,6.996,28.119,16.04,35.926,31.139
		c19.027,36.801,2.399,83.706-35.796,101.376c-19.9,9.207-40.986,11.307-62.472,9.764c-34.738-2.494-65.561-15.092-92.41-37.325
		c-5.007-4.146-5.017-4.123-0.897-9.029c7.174-8.546,14.431-17.025,21.451-25.696c1.973-2.437,3.102-2.328,5.406-0.364
		c17.626,15.016,37.107,26.481,60.367,30.242c13.754,2.224,27.528,2.795,41.015-1.609c18.535-6.054,27.485-20.588,23.622-37.781
		c-1.509-6.713-5.229-11.774-10.81-15.584c-12.358-8.437-26.622-11.959-40.817-15.501c-18.407-4.592-36.842-9.053-54.055-17.312
		c-18.719-8.983-32.854-22.066-37.475-43.237c-9.803-44.921,13.958-83.338,59.25-93.156c44.075-9.554,84.501,0.127,120.562,27.479
		c2.142,1.625,2.274,2.705,0.694,4.741C1354.087,536.813,1352.047,540.064,1349.879,543.215z"/>
	<path fill-rule="evenodd" clip-rule="evenodd" fill="#323330" d="M1129.936,595.563c0,28.162,0.154,56.326-0.059,84.486
		c-0.123,16.323-3.21,32.128-10.814,46.742c-11.869,22.809-31.203,35.425-56.115,39.668c-28.07,4.781-54.721,1.188-78.868-15.029
		c-9.215-6.188-16.932-13.95-23.788-22.639c-1.569-1.989-1.975-3.249,0.135-5.338c8.639-8.557,17.105-17.288,25.491-26.094
		c2.113-2.22,3.223-2.424,5.275,0.188c5.468,6.958,11.688,13.225,19.038,18.257c11.799,8.078,24.894,11.285,38.93,8.988
		c18.519-3.029,29.926-16.37,32.75-37.131c0.765-5.624,1.041-11.266,1.04-16.935c-0.012-54.325,0.061-108.649-0.127-162.974
		c-0.017-4.724,1.383-5.706,5.782-5.603c12.325,0.291,24.663,0.234,36.99,0.018c3.505-0.062,4.439,0.89,4.422,4.408
		C1129.874,536.239,1129.936,565.902,1129.936,595.563z"/>
	<path fill-rule="evenodd" clip-rule="evenodd" fill="blue" d="M723.833,531.167c0,2.932,0,4.693,0,6.455
		c0,73.304-0.039,146.606,0.095,219.908c0.009,4.42-0.892,6.385-5.645,5.749c-4.238-0.565-9.847,1.769-12.479-0.903
		c-2.624-2.662-0.778-8.226-0.781-12.508c-0.045-80.799,0.007-161.6-0.134-242.399c-0.009-4.72,0.896-5.859,6.003-6.527
		c10.614-1.389,15.96,4.134,21.826,11.578c56.06,71.153,112.423,142.069,168.702,213.051c0.575,0.726,1.196,1.414,2.545,3.003
		c0-2.903,0-4.658,0-6.412c0-71.804,0.053-143.607-0.118-215.41c-0.012-4.728,1.386-6.09,5.785-5.538
		c4.233,0.531,9.725-1.804,12.444,1.015c2.478,2.57,0.699,7.941,0.701,12.069c0.041,80.966-0.008,161.933,0.131,242.898
		c0.008,4.551-0.734,6.083-5.797,6.263c-6.657,0.235-10.765-1.879-14.936-7.174c-57.6-73.124-115.462-146.042-173.267-219.005
		C727.508,535.511,726.028,533.805,723.833,531.167z"/>
	<path fill-rule="evenodd" clip-rule="evenodd" fill="#B5A53C" d="M972.675,176.509c-0.742,3.89-0.95,6.39-1.706,8.711
		c-4.16,12.783,0.32,24.324,4.473,36.135c3.381,9.618,9.307,17.52,15.033,25.627c2.385,3.375,6.326,4.917,9.818,6.649
		c3.436,1.704,5.04,4.105,5.436,7.558c1.206,10.547,5.49,19.662,12.35,27.696c1.631,1.909,4.331,4.786,1.57,6.696
		c-2.876,1.99-6.532,5.322-10.744,2.003c-10.031-7.909-21.128-13.732-33.416-17.247c-3.327-0.952-5.631-3.461-8.308-5.379
		c-1.732-1.24-1.632-3.329-0.912-5.042c1.731-4.118,1.171-7.156-2.38-10.379c-4.687-4.255-4.485-10.733,0.304-14.813
		c3.827-3.259,4.134-6.249,1.463-10.179c-1.207-1.775-1.536-4.376-3.056-5.671c-10.389-8.846-5.149-19.68-3.91-29.87
		C959.777,190.064,965.074,183.369,972.675,176.509z"/>
	<path fill-rule="evenodd" clip-rule="evenodd" fill="#B5A53C" d="M1336.486,262.64c0.068,0.538,0.163,0.744,0.099,0.863
		c-4.801,8.828-4.663,8.546,4.914,13.269c6.039,2.977,8.906,9.06,12.354,15.239c-3.819-0.147-6.936-0.673-9.503-2.829
		c-2.57-2.16-5.468-3.744-8.336-5.432c-3.636-2.142-7.312-3.138-11.339-1.41c-4.989,2.142-9.764,0.592-13.777-1.897
		c-6.884-4.269-13.761-7.907-22.308-7.146c3.066-6.776,3.6-6.447,9.737-4.539c9.342,2.904,18.941,2.419,28.358-0.409
		c2.333-0.701,2.663-3.441,4.449-4.505C1332.58,262.982,1334.304,262.009,1336.486,262.64z"/>
	<path fill-rule="evenodd" clip-rule="evenodd" fill="#B98F34" d="M1510.043,433.359c1.295,3.957,1.465,7.907-0.084,11.843
		C1509.987,441.254,1510.016,437.306,1510.043,433.359z"/>
	<path fill-rule="evenodd" clip-rule="evenodd" fill="#BA8C33" d="M1376.995,514.107c3.968-1.295,7.926-1.493,11.868,0.102
		C1384.906,514.174,1380.951,514.141,1376.995,514.107z"/>
	<path fill-rule="evenodd" clip-rule="evenodd" fill="#BA8B32" d="M1513.75,440.171c-1.339-3.628-1.472-7.248,0.076-10.856
		C1513.801,432.935,1513.775,436.553,1513.75,440.171z"/>
	<path fill-rule="evenodd" clip-rule="evenodd" fill="red" d="M635.626,563.107c0.789,1.282,1.578,2.565,2.367,3.849
		c-0.096,1.261-0.788,2.2-1.751,2.903c-10.038,7.321-14.429,18.627-19.763,29.054c-3.078,6.016-2.432,13.359-3.055,20.125
		c-1.083,11.753-5.38,22.654-8.254,33.929c-0.592,2.321-2.387,4.011-4.138,5.549c-6.74,5.92-11.443,13.281-15.896,20.99
		c-7.339,12.708-14.12,25.687-20.791,38.746c-3.976,7.784-4.583,16.297-6.623,24.505c-0.554,2.229-0.506,4.707-2.594,6.308
		c-57.65,4.699-108.211-33.686-119.026-90.653c-7.336-38.64-0.371-74.127,24.882-105.039c40.517-49.597,121.97-51.445,163.901-3.878
		c0.432,0.49,0.776,1.06,1.162,1.592c0.911,3.006-3.154,5.791-0.988,8.389c1.794,2.151,5.363,1.142,7.977,2.167
		C633.957,562.001,634.801,562.551,635.626,563.107z"/>
	<path fill-rule="evenodd" clip-rule="evenodd" fill="#EFDA4F" d="M555.13,749.064c0.761-3.735,1.657-7.45,2.258-11.211
		c3.372-21.105,15.635-38.218,25.272-56.509c5.065-9.613,10.794-18.746,19.318-25.761c1.526-1.256,2.028-2.966,2.586-4.711
		c5.032-15.713,8.144-31.8,9.432-48.244c0.078-0.991-0.104-2.167,0.362-2.939c6.964-11.565,11.245-25.085,23.635-32.731
		c11.455,17.332,17.093,36.566,18.254,57.148c2.148,38.063-9.12,71.201-37.376,97.504
		C601.012,738.236,579.477,747.108,555.13,749.064z"/>
	<path fill-rule="evenodd" clip-rule="evenodd" fill="#EDD952" d="M635.626,563.107c-3.535-0.603-7.051-1.476-10.611-1.725
		c-3.067-0.215-3.185-1.382-2.049-3.671c1.081-2.182,2.059-4.415,3.083-6.625C629.925,554.548,632.86,558.76,635.626,563.107z"/>
</g>
</svg>
