<?xml version="1.0" encoding="UTF-8"?>
<svg width="430" height="120" version="1.1" viewBox="0 0 445 120" xmlns="http://www.w3.org/2000/svg">
    <path d="m313.36 97.246h-24.4l-12.4-18.4 12.2-18.3z" fill="#ff8d4e"/>
    <path d="m313.26 17.546h-24.3l-12 16.4 12 16.8z" fill="#92929a"/>
    <path d="m285.36 55.746-28-38.1h-24.4l28 38.1-28 41.6h24.4zm-145.7-8.8 32.5-29.6h9.5v79.9h-21.1v-41l-20.9 19-21-19v41h-21v-80h9.4zm57.4-29.6h21v79.9h-21z"
          fill="#2c233d"/>
    <path d="m328.96 17.346h20.9v79.9h-21zm33.8 0h62.9v20.8h-21.2v59.1h-21v-59h-20.7z" fill="#ff8d4e"/>
    <path d="m64.266 76.146-4 22.4h-8.2q-1.1 0-2.2-0.6-1-0.6-1.8-1.5-0.7-1-1-2.2-0.2-1.3 0-2.7l2.9-15.4h-9.4l-2.8 16.2q-0.2 1.7-1 2.9-0.8 1.1-1.8 1.8-1 0.8-2.4 1.1-1.2 0.4-2.6 0.4h-7.8l4-22.4h-5q-2.7 0-3.8-1.5-1.1-1.6-0.5-5.4l0.9-5.4h10l2.4-13.4h-11.4l1.4-7.1q0.5-2.6 2.2-3.9 1.8-1.2 5.5-1.2h3.8l3-16.6q0.5-2.7 2.5-4.2 2.1-1.5 4.9-1.5h8l-4 22.3h9.4l4-22.3h7.8q1.4 0 2.5 0.5 1.1 0.4 1.8 1.2 0.8 0.7 1.2 1.8 0.3 1 0 2.3l-2.8 16.5h11l-1.3 7.1q-0.5 2.7-2.3 4-1.7 1.1-5.4 1.1h-3.6l-2.4 13.4h6.2q2.7 0 3.8 1.6 1.1 1.5 0.5 5.2l-1 5.5zm-22.3-12.3h9.4l2.6-13.4h-9.4z"
          fill="#ff8a4b" font-size="85px" font-weight="900" letter-spacing="0" word-spacing="0"/>
</svg>