<svg width="1200" height="172" viewBox="0 0 1200 172" fill="none" xmlns="http://www.w3.org/2000/svg">
<path d="M402.5 172L490.5 70.5L591.221 19L746 55.5L877 172C877 172 877 172 591.221 172C591.221 172 428.747 172 402.5 172Z" fill="#5A1901"/>
<path d="M0.246952 172L0 127.5L121.292 0L362.452 62.7057L524 172H238.221C238.221 172 26.4935 172 0.246952 172Z" fill="#912901"/>
<path d="M1200 172L1183 40L1111.5 3L810 56L738 172C738 172 738 172 1002.07 172C1002.07 172 1175.75 172 1200 172Z" fill="#912901"/>
</svg>
