<svg width="423" height="384" viewBox="0 0 423 384" fill="none" xmlns="http://www.w3.org/2000/svg">
<path d="M221.6 327.4C309.745 327.4 381.2 257.691 381.2 171.7C381.2 85.7093 309.745 16 221.6 16C133.455 16 62 85.7093 62 171.7C62 257.691 133.455 327.4 221.6 327.4Z" fill="#6FC660" stroke="black" stroke-width="13.6542" stroke-miterlimit="10"/>
<path d="M76.2002 215.9L160.5 147.6L285 172.5L368.4 215.9C368.4 215.9 339.7 324.2 219.7 320.9C219.7 320.9 110.1 326.3 76.2002 215.9Z" fill="url(#paint0_linear_488_27)"/>
<path d="M171.6 154V96.0999C171.6 96.0999 166.8 100.9 162 98.4999C162 98.4999 157.2 93.6999 159.6 86.3999C159.6 86.3999 162 79.1999 171.7 81.5999C171.7 81.5999 183.8 83.9999 183.8 100.9V153.9H171.6V154Z" fill="#FF6700"/>
<path d="M181.5 163.6V73.1999C181.5 73.1999 175.7 78.9999 169.8 76.0999C169.8 76.0999 164 70.2999 166.9 61.4999C166.9 61.4999 169.8 52.6999 181.5 55.6999C181.5 55.6999 196.1 58.5999 196.1 79.0999V163.7H181.5V163.6Z" fill="#FF4800"/>
<path d="M195.5 182.9V32.2C195.5 32.2 186.6 41.1 177.6 36.7C177.6 36.7 168.7 27.8 173.1 14.3C173.1 14.3 177.6 0.900014 195.5 5.40001C195.5 5.40001 217.9 9.90002 217.9 41.2V182.9H195.5Z" fill="#E92700"/>
<path d="M264.2 185.3V127.4C264.2 127.4 269.1 132.2 273.9 129.8C273.9 129.8 278.8 125 276.3 117.7C276.3 117.7 273.9 110.5 264.1 112.9C264.1 112.9 251.9 115.3 251.9 132.2V185.2H264.2V185.3Z" fill="#E92700"/>
<path d="M254.1 194.9V104.5C254.1 104.5 260 110.3 265.9 107.4C265.9 107.4 271.8 101.6 268.9 92.8C268.9 92.8 265.9 84 254.1 87C254.1 87 239.3 89.9 239.3 110.4V195H254.1V194.9Z" fill="#FF6700"/>
<path d="M240.1 214.2V63.5999C240.1 63.5999 249.1 72.4999 258.2 68.0999C258.2 68.0999 267.2 59.1999 262.7 45.6999C262.7 45.6999 258.2 32.2999 240.1 36.7999C240.1 36.7999 217.5 41.2999 217.5 72.5999V214.3H240.1V214.2Z" fill="#FF4800"/>
<g opacity="0.1">
<path d="M188.5 163.6H181.3V154H176.5V76.8001L188.5 67.1001V163.6Z" fill="white"/>
</g>
<path opacity="0.1" d="M258.4 108.1L248.8 98.5V185.3H258.4V108.1Z" fill="white"/>
<path d="M32.0004 338.2V321.5H23.7004V304.7H15.3004V279.6H6.90039V257.4H29.1004V274.1H37.5004V299.3H48.8004V274.1H57.2004V257.4H79.4004V279.6H71.0004V304.7H62.6004V321.5H54.3004V338.2H32.0004Z" fill="white"/>
<path d="M76.7002 260.1V276.9H68.3002V302H59.9002V318.8H51.5002V335.6H34.8002V318.8H26.4002V302H18.0002V276.9H9.6002V260.1H26.4002V276.9H34.8002V302H51.6002V276.9H60.0002V260.1H76.7002ZM82.1002 254.6H76.6002H59.9002H54.4002V260.1V271.4H51.5002H46.0002V276.9V296.6H40.2002V276.9V271.4H34.7002H31.8002V260.1V254.6H26.3002H9.6002H4.2002V260.1V276.9V282.4H9.7002H12.6002V302V307.5H18.0002H20.9002V318.8V324.3H26.4002H29.3002V335.6V341.1H34.8002H51.6002H57.0002V335.6V324.3H59.9002H65.4002V318.8V307.5H68.3002H73.8002V302V282.3H76.7002H82.2002V276.8V260V254.6H82.1002Z" fill="black"/>
<path d="M90.6998 338.2V329.8H82.2998V290.8H90.6998V282.4H129.7V290.8H138.1V329.8H129.7V338.2H90.6998ZM115.8 324.4V296.3H104.5V324.4H115.8Z" fill="white"/>
<path d="M126.9 285.2V293.6H135.3V327.1H126.9V335.5H93.4V327.1H85V293.6H93.4V285.2H126.9ZM101.8 327.1H118.6V293.6H101.8V327.1ZM132.4 279.8H126.9H93.4H88V285.3V288.2H85H79.5V293.7V327.2V332.7H85H88V335.6V341.1H93.5H127H132.5V335.6V332.7H135.4H140.9V327.2V293.7V288.2H135.4H132.5V285.3V279.8H132.4ZM107.3 299.1H113.1V321.7H107.3V299.1Z" fill="black"/>
<path d="M163.2 257.4H141V338.3H163.2V257.4Z" fill="white"/>
<path d="M160.4 260.1V335.5H143.6V260.1H160.4ZM165.9 254.6H160.4H143.6H138.1V260.1V335.5V341H143.6H160.4H165.9V335.5V260.1V254.6Z" fill="black"/>
<path d="M174.5 338.2V329.9H166.1V290.9H174.5V282.5H213.4V290.9H221.8V304.7H199.6V296.3H188.3V324.4H199.6V316H221.8V329.9H213.4V338.2H174.5Z" fill="white"/>
<path d="M210.7 285.2V293.6H219.1V302H202.3V293.6H185.5V327.1H202.3V318.7H219.1V327.1H210.7V335.5H177.2V327.1H168.8V293.6H177.2V285.2H210.7ZM216.2 279.8H210.7H177.2H171.7V285.3V288.2H168.8H163.3V293.7V327.2V332.7H168.8H171.7V335.6V341.1H177.2H210.7H216.2V335.6V332.7H219.1H224.6V327.2V318.8V313.3H219.1H202.3H196.8V318.8V321.7H191V299.1H196.8V302V307.5H202.3H219.1H224.6V302V293.6V288.1H219.1H216.2V285.2V279.8Z" fill="black"/>
<path d="M233.1 338.2V329.8H224.7V307.6H233.1V299.2H258.2V296.3H233.1V282.5H272.1V290.9H280.5V338.3H233.1V338.2ZM258.3 324.4V313.1H247V324.4H258.3Z" fill="white"/>
<path d="M269.4 285.2V293.6H277.8V335.5H235.9V327.1H227.5V310.3H235.9V302H261V293.6H235.9V285.2H269.4ZM244.2 327.1H261V310.3H244.2V327.1ZM274.8 279.8H269.3H235.8H230.3V285.3V293.7V299.2V302.1V305H227.4H222V310.5V327.3V332.8H227.5H230.4V335.7V341.2H235.9H277.8H283.3V335.7V293.8V288.3H277.8H274.9V285.4V279.8H274.8ZM249.7 315.8H255.5V321.6H249.7V315.8Z" fill="black"/>
<path d="M333.7 338.2V296.3H330.7V338.2H308.5V296.3H305.6V338.2H283.4V282.5H347.5V290.9H355.9V338.2H333.7Z" fill="white"/>
<path d="M344.8 285.2V293.6H353.2V335.5H336.4V293.6H328V335.5H311.2V293.6H302.8V335.5H286V285.2H344.8ZM350.2 279.8H344.7H286.1H280.6V285.3V335.6V341.1H286.1H302.9H308.4H311.3H328H333.5H336.4H353.2H358.7V335.6V293.7V288.2H353.2H350.3V285.3V279.8H350.2Z" fill="black"/>
<path d="M358.8 363.4V282.5H406.2V290.9H414.6V329.9H406.2V338.3H381V363.4H358.8ZM392.3 324.4V296.3H381V324.4H392.3Z" fill="white"/>
<path d="M403.4 285.2V293.6H411.8V327.1H403.4V335.5H378.3V360.6H361.5V285.2H403.4ZM378.3 327.1H395V293.6H378.2V327.1M408.9 279.8H403.4H361.5H356V285.3V360.7V366.2H361.5H378.3H383.8V360.7V341H403.5H409V335.5V332.6H411.9H417.4V327.1V293.6V288.1H411.9H409V285.2V279.8H408.9ZM383.7 299.1H389.5V321.7H383.7V299.1Z" fill="black"/>
<defs>
<linearGradient id="paint0_linear_488_27" x1="76.1776" y1="234.282" x2="368.378" y2="234.282" gradientUnits="userSpaceOnUse">
<stop stop-color="#942900"/>
<stop offset="1"/>
</linearGradient>
</defs>
</svg>
