<svg width="414" height="113" viewBox="0 0 414 113" fill="none" xmlns="http://www.w3.org/2000/svg">
<path d="M28.0004 84.2002V67.5002H19.7004V50.7002H11.3004V25.6002H2.90039V3.40015H25.1004V20.1002H33.5004V45.3001H44.8004V20.1002H53.2004V3.40015H75.4004V25.6002H67.0004V50.7002H58.6004V67.5002H50.3004V84.2002H28.0004Z" fill="white"/>
<path d="M72.7002 6.1001V22.9001H64.3002V48.0001H55.9002V64.8001H47.5002V81.6001H30.8002V64.8001H22.4002V48.0001H14.0002V22.9001H5.6002V6.1001H22.4002V22.9001H30.8002V48.0001H47.6002V22.9001H56.0002V6.1001H72.7002ZM78.1002 0.600098H72.6002H55.9002H50.4002V6.1001V17.4001H47.5002H42.0002V22.9001V42.6001H36.2002V22.9001V17.4001H30.7002H27.8002V6.1001V0.600098H22.3002H5.6002H0.200195V6.1001V22.9001V28.4001H5.7002H8.6002V48.0001V53.5001H14.0002H16.9002V64.8001V70.3001H22.4002H25.3002V81.6001V87.1001H30.8002H47.6002H53.0002V81.6001V70.3001H55.9002H61.4002V64.8001V53.5001H64.3002H69.8002V48.0001V28.3001H72.7002H78.2002V22.8001V6.00009V0.600098H78.1002Z" fill="black"/>
<path d="M86.6998 84.2002V75.8001H78.2998V36.8001H86.6998V28.4001H125.7V36.8001H134.1V75.8001H125.7V84.2002H86.6998ZM111.8 70.4001V42.3001H100.5V70.4001H111.8Z" fill="white"/>
<path d="M122.9 31.2001V39.6001H131.3V73.1001H122.9V81.5001H89.4V73.1001H81V39.6001H89.4V31.2001H122.9ZM97.8 73.1001H114.6V39.6001H97.8V73.1001ZM128.4 25.8H122.9H89.4H84V31.3V34.2001H81H75.5V39.7001V73.2001V78.7001H81H84V81.6001V87.1001H89.5H123H128.5V81.6001V78.7001H131.4H136.9V73.2001V39.7001V34.2001H131.4H128.5V31.3V25.8H128.4ZM103.3 45.1001H109.1V67.7001H103.3V45.1001Z" fill="black"/>
<path d="M159.2 3.40015H137V84.3001H159.2V3.40015Z" fill="white"/>
<path d="M156.4 6.1001V81.5001H139.6V6.1001H156.4ZM161.9 0.600098H156.4H139.6H134.1V6.1001V81.5001V87.0001H139.6H156.4H161.9V81.5001V6.1001V0.600098Z" fill="black"/>
<path d="M170.5 84.2V75.9H162.1V36.9H170.5V28.5H209.4V36.9H217.8V50.7H195.6V42.3H184.3V70.4H195.6V62H217.8V75.9H209.4V84.2H170.5Z" fill="white"/>
<path d="M206.7 31.2001V39.6001H215.1V48.0001H198.3V39.6001H181.5V73.1001H198.3V64.7001H215.1V73.1001H206.7V81.5001H173.2V73.1001H164.8V39.6001H173.2V31.2001H206.7ZM212.2 25.8H206.7H173.2H167.7V31.3V34.2001H164.8H159.3V39.7001V73.2001V78.7001H164.8H167.7V81.6001V87.1001H173.2H206.7H212.2V81.6001V78.7001H215.1H220.6V73.2001V64.8V59.3H215.1H198.3H192.8V64.8V67.7001H187V45.1001H192.8V48.0001V53.5001H198.3H215.1H220.6V48.0001V39.6001V34.1001H215.1H212.2V31.2001V25.8Z" fill="black"/>
<path d="M229.1 84.2V75.8H220.7V53.6H229.1V45.2H254.2V42.3H229.1V28.5H268.1V36.9H276.5V84.3H229.1V84.2ZM254.3 70.4V59.1H243V70.4H254.3Z" fill="white"/>
<path d="M265.4 31.2001V39.6001H273.8V81.5001H231.9V73.1001H223.5V56.3H231.9V48.0001H257V39.6001H231.9V31.2001H265.4ZM240.2 73.1001H257V56.3H240.2V73.1001ZM270.8 25.8H265.3H231.8H226.3V31.3V39.7001V45.2001V48.1001V51.0001H223.4H218V56.5001V73.3V78.8H223.5H226.4V81.7001V87.2001H231.9H273.8H279.3V81.7001V39.8V34.3H273.8H270.9V31.4001V25.8H270.8ZM245.7 61.8H251.5V67.6001H245.7V61.8Z" fill="black"/>
<path d="M329.7 84.2V42.3H326.7V84.2H304.5V42.3H301.6V84.2H279.4V28.5H343.5V36.9H351.9V84.2H329.7Z" fill="white"/>
<path d="M340.8 31.2001V39.6001H349.2V81.5001H332.4V39.6001H324V81.5001H307.2V39.6001H298.8V81.5001H282V31.2001H340.8ZM346.2 25.8H340.7H282.1H276.6V31.3V81.6001V87.1001H282.1H298.9H304.4H307.3H324H329.5H332.4H349.2H354.7V81.6001V39.7001V34.2001H349.2H346.3V31.3V25.8H346.2Z" fill="black"/>
<path d="M354.8 109.4V28.5H402.2V36.9H410.6V75.9H402.2V84.3H377V109.4H354.8ZM388.3 70.4V42.3H377V70.4H388.3Z" fill="white"/>
<path d="M399.4 31.2001V39.6001H407.8V73.1001H399.4V81.5001H374.3V106.6H357.5V31.2001H399.4ZM374.3 73.1001H391V39.6001H374.2V73.1001M404.9 25.8H399.4H357.5H352V31.3V106.7V112.2H357.5H374.3H379.8V106.7V87.0001H399.5H405V81.5001V78.6001H407.9H413.4V73.1001V39.6001V34.1001H407.9H405V31.2001V25.8H404.9ZM379.7 45.1001H385.5V67.7001H379.7V45.1001Z" fill="black"/>
</svg>
