<?xml version="1.0" encoding="utf-8"?>
<!-- Generator: Adobe Illustrator 28.0.0, SVG Export Plug-In . SVG Version: 6.00 Build 0)  -->
<svg version="1.1" id="Calque_1" xmlns="http://www.w3.org/2000/svg" xmlns:xlink="http://www.w3.org/1999/xlink" x="0px" y="0px"
	 viewBox="0 0 137.66 200.93" style="enable-background:new 0 0 137.66 200.93;" xml:space="preserve">
<style type="text/css">
	.st0{fill:#223364;}
	.st1{fill:#517CBE;}
	.st2{fill:#64C7F2;}
	.st3{fill:#F8AB09;}
	.st4{fill:#FFD24A;}
	.st5{fill:#32A853;}
	.st6{fill:#73BB69;}
	.st7{fill:#E84436;}
	.st8{fill:#EE7CAD;}
	.st9{fill:#47A9E0;}
	.st10{fill:#204E8F;}
	.st11{fill:#5BB0E0;}
</style>
<g>
	<path class="st8" d="M7.55,200.93h122.4l-0.09-52.68l7.81-5.66v-3.03c0,0-7.55,1.1-8.72-7.43l-0.17-5.09H9.22l0.17,4.54
		c0,0-1.17,7.43-9.39,8.53v2.61l8.05,5.23L7.55,200.93z"/>
	<path class="st8" d="M124.75,42.4c-0.57-2.2-1.45-1.7-1.89-4.02c-0.44-2.33-2.7-7.42-2.89-8.68c-0.19-1.26,1.07-1.95,0.06-3.08
		c-1.01-1.13-3.02-4.02-2.96-5.03c0.02-0.32,0.03-0.49,0.03-0.57c0.27-0.07,3.09-0.92,2.49-5.59c0,0-1.89,0.31-3.71,2.26
		c0,0,0.57-2.7-0.63-3.52c0,0-5.41,1.57-6.1,4.46c0,0-7.86-2.14-14.27,8.11c0,0-3.84-2.08-6.48-2.26
		c-2.64-0.19-11.51-0.06-11.51-0.06s0.13-3.9-1.95-5.41c-2.07-1.51-4.46-3.96-4.46-4.53s1.55-0.19,1.94-1.38
		c0.39-1.19,0.14-2.89,0.83-2.96s-0.06-1.13-0.44-1.76c-0.38-0.63,0.06-2.89,0.31-3.52c0.25-0.63,0.36-1.89-0.7-3.14
		c-1.06-1.26-5.27-3.14-8.98,0c-3.71,3.14-0.44,9.18-0.31,9.81s-2.7,1.32-2.96,2.33c-0.25,1.01,0,1.38-0.5,2.64
		s-5.66,6.22-5.41,8.87c0.25,2.64-2.7,3.08-1.63,5.72c1.07,2.64-0.57,2.52-0.82,3.77s-1.89,2.26-0.57,4.34
		c1.32,2.08-2.96,5.22-1.76,6.16c1.19,0.94,1.57,2.52,1.57,2.52l-2.7,0.82c0,0-9.93-2.83-18.8,3.4c0,0-12.51-4.9-15.72,4.72
		c-3.21,9.62-0.57,10.82-1.89,13.27c-1.32,2.45,0.13,4.28-1.7,7.04s-0.19,4.02-1.26,5.22c-1.07,1.19,0.13,2.7-0.38,3.4
		s-2.83,3.52-3.14,5.22c-0.31,1.7,0.94,0.5,0.75,1.45c-0.19,0.94-1.95,4.53-1.45,6.35c0.5,1.82,0.94,0.94,1.63,0.94
		s-2.2,3.08-1.45,3.65c0.75,0.57,1.45-1.82,2.96-1.51s3.33-1.19,2.96-2.83s1.76-1.95,3.08-4.21s3.71-5.16,3.08-8.05
		s0.57-6.54,1.51-6.79s2.89,1.45,2.33-1.89c-0.57-3.33-1.95-5.47-1.13-6.73c0.82-1.26,0.75-0.82-0.25-3.84
		c-1.01-3.02,1.32-4.15,0.75-6.1s1.13-3.71,2.96-3.96c1.49-0.2,2.67-0.29,3.37-0.96c-1.02,1.48-3.55,5.87-2.49,11.9
		c1.32,7.48,5.47,12.76,4.59,15.22c-0.88,2.45-5.91,7.55-8.11,9.56c-2.2,2.01,0.94,1.19-2.14,12.07
		c-3.08,10.88-3.08,10.25-2.01,11.32c1.07,1.07,2.96,0.94,2.96,2.7c0,1.76-0.82,2.52-0.19,3.52c0.63,1.01,1.45,2.52,2.33,2.77
		c0.88,0.25,6.45,0.68,6.16,0.17c0,0-3.52-6.54-6.71-8.72c0,0-2.18-3.52,0-9.05c2.18-5.53,5.37-11.4,8.72-12.91
		c0.35-0.16,0.64-0.3,0.88-0.42c-0.69,1.24-1.4,3.45,1.13,4.95c3.69,2.18,12.24,6.37,13.08,8.89s3.02,4.02,3.86,3.19
		c0,0,0.65,0.96,0,1.15c-0.65,0.19-2.66,1.38-1.72,3.33c0.94,1.95,3.14,5.34,3.71,4.84c0.57-0.5,2.2-4.21,1.89-6.79
		s-1.63-5.22-2.01-6.6c-0.38-1.38-2.33-0.75-7.04-4.78c-4.72-4.02-5.6-4.15-4.72-6.1c0.88-1.95,3.84-3.77,5.34-4.53
		c1.51-0.75,3.21-3.58,4.72-6.1c1.51-2.52,4.34-3.21,4.9-5.47s0.63-1.32,1.13-1.26c0.5,0.06,12.89,6.16,25.78,4.4
		c0,0,0.69,0.63,0.82,1.26s-1.19,2.58-0.82,3.71c0.38,1.13,0.88,1.19,2.39,1.19s3.71,1.01,4.46,1.45c0.75,0.44,1.26,1.7,3.77,1.38
		c0,0,0.44,0.63,0,2.7c-0.44,2.07-1.45,6.67-1.26,9.24c0.19,2.58-1.32,8.8-1.89,10.88c-0.57,2.07-0.75,4.65,0.75,5.41
		c1.51,0.75,3.08,1.7,3.02,2.2c-0.06,0.5-1.7,1.01-0.44,3.08h7.23c0,0-1.95-3.08-3.21-3.71c-1.26-0.63-3.02-1.95-3.33-3.84
		s-0.38-5.03,0.82-10.31c1.19-5.28,2.45-3.84,3.71-7.36c1.26-3.52,2.01-7.8,3.71-9.37s2.52-5.03,2.26-5.91c0,0,2.7,1.7,7.48,1.32
		s7.55,2.2,6.67,4.53c-0.88,2.33-2.7,7.48-3.9,8.36s-0.25,2.52-0.57,2.71s-1.19,0.94-1.19,0.94s-2.77-1.26-3.9,0.38l-2.26,5.16
		c0,0,4.02,0.69,6.22-1.7c2.2-2.39,2.89-2.45,3.52-2.58c0.63-0.13,2.21-0.69,2.24-3.58c0.03-2.89,2.54-7.92,3.36-9.18
		c0.82-1.26,1.95-1.57,1.13-5.41c-0.82-3.84-1.82-2.58-6.41-5.47c-4.59-2.89-6.29-3.52-6.29-3.52s3.21-3.58,3.21-20.69
		c0.25-9.31-3.52-10.5-2.08-19.37c0,0,1.13,2.26,2.33,2.89c1.19,0.63,2.2,1.45,2.2,2.89c0,1.45,1.07,4.59,2.77,4.46
		c1.7-0.13,0.82-3.08,0.82-3.08h0.38c0,0,0.44,2.45,2.96,2.45c2.52,0,2.2-2.64,2.2-2.64S125.32,44.6,124.75,42.4z M84.89,42.53
		c-2.64,2.39-3.65,3.9-5.66,2.77c-2.01-1.13-2.26-2.52-2.26-2.52s0.88-3.77,0-5.66c0,0,1.26-5.66,0-7.8c0,0,3.4,0.5,5.03-0.63
		c1.63-1.13,4.78-2.64,5.91-1.26c1.13,1.38,1.38,4.15,3.65,4.53C91.55,31.97,87.53,40.14,84.89,42.53z"/>
</g>
</svg>
