<svg xmlns="http://www.w3.org/2000/svg" xml:space="preserve" viewBox="0 0 137.66 200.93"><path d="M7.55 200.93h122.4l-.09-52.68 7.81-5.66v-3.03s-7.55 1.1-8.72-7.43l-.17-5.09H9.22l.17 4.54s-1.17 7.43-9.39 8.53v2.61l8.05 5.23zM124.75 42.4c-.57-2.2-1.45-1.7-1.89-4.02-.44-2.33-2.7-7.42-2.89-8.68s1.07-1.95.06-3.08-3.02-4.02-2.96-5.03c.02-.32.03-.49.03-.57.27-.07 3.09-.92 2.49-5.59 0 0-1.89.31-3.71 2.26 0 0 .57-2.7-.63-3.52 0 0-5.41 1.57-6.1 4.46 0 0-7.86-2.14-14.27 8.11 0 0-3.84-2.08-6.48-2.26-2.64-.19-11.51-.06-11.51-.06s.13-3.9-1.95-5.41c-2.07-1.51-4.46-3.96-4.46-4.53s1.55-.19 1.94-1.38.14-2.89.83-2.96-.06-1.13-.44-1.76.06-2.89.31-3.52.36-1.89-.7-3.14c-1.06-1.26-5.27-3.14-8.98 0s-.44 9.18-.31 9.81-2.7 1.32-2.96 2.33c-.25 1.01 0 1.38-.5 2.64s-5.66 6.22-5.41 8.87c.25 2.64-2.7 3.08-1.63 5.72s-.57 2.52-.82 3.77-1.89 2.26-.57 4.34-2.96 5.22-1.76 6.16c1.19.94 1.57 2.52 1.57 2.52l-2.7.82s-9.93-2.83-18.8 3.4c0 0-12.51-4.9-15.72 4.72s-.57 10.82-1.89 13.27.13 4.28-1.7 7.04-.19 4.02-1.26 5.22c-1.07 1.19.13 2.7-.38 3.4s-2.83 3.52-3.14 5.22.94.5.75 1.45c-.19.94-1.95 4.53-1.45 6.35s.94.94 1.63.94-2.2 3.08-1.45 3.65 1.45-1.82 2.96-1.51 3.33-1.19 2.96-2.83 1.76-1.95 3.08-4.21 3.71-5.16 3.08-8.05.57-6.54 1.51-6.79 2.89 1.45 2.33-1.89c-.57-3.33-1.95-5.47-1.13-6.73s.75-.82-.25-3.84c-1.01-3.02 1.32-4.15.75-6.1s1.13-3.71 2.96-3.96c1.49-.2 2.67-.29 3.37-.96-1.02 1.48-3.55 5.87-2.49 11.9 1.32 7.48 5.47 12.76 4.59 15.22-.88 2.45-5.91 7.55-8.11 9.56s.94 1.19-2.14 12.07-3.08 10.25-2.01 11.32 2.96.94 2.96 2.7-.82 2.52-.19 3.52c.63 1.01 1.45 2.52 2.33 2.77s6.45.68 6.16.17c0 0-3.52-6.54-6.71-8.72 0 0-2.18-3.52 0-9.05s5.37-11.4 8.72-12.91c.35-.16.64-.3.88-.42-.69 1.24-1.4 3.45 1.13 4.95 3.69 2.18 12.24 6.37 13.08 8.89s3.02 4.02 3.86 3.19c0 0 .65.96 0 1.15s-2.66 1.38-1.72 3.33 3.14 5.34 3.71 4.84 2.2-4.21 1.89-6.79-1.63-5.22-2.01-6.6-2.33-.75-7.04-4.78c-4.72-4.02-5.6-4.15-4.72-6.1s3.84-3.77 5.34-4.53c1.51-.75 3.21-3.58 4.72-6.1s4.34-3.21 4.9-5.47.63-1.32 1.13-1.26 12.89 6.16 25.78 4.4c0 0 .69.63.82 1.26s-1.19 2.58-.82 3.71c.38 1.13.88 1.19 2.39 1.19s3.71 1.01 4.46 1.45 1.26 1.7 3.77 1.38c0 0 .44.63 0 2.7s-1.45 6.67-1.26 9.24c.19 2.58-1.32 8.8-1.89 10.88-.57 2.07-.75 4.65.75 5.41 1.51.75 3.08 1.7 3.02 2.2s-1.7 1.01-.44 3.08h7.23s-1.95-3.08-3.21-3.71-3.02-1.95-3.33-3.84-.38-5.03.82-10.31c1.19-5.28 2.45-3.84 3.71-7.36s2.01-7.8 3.71-9.37 2.52-5.03 2.26-5.91c0 0 2.7 1.7 7.48 1.32s7.55 2.2 6.67 4.53-2.7 7.48-3.9 8.36-.25 2.52-.57 2.71-1.19.94-1.19.94-2.77-1.26-3.9.38l-2.26 5.16s4.02.69 6.22-1.7 2.89-2.45 3.52-2.58 2.21-.69 2.24-3.58 2.54-7.92 3.36-9.18 1.95-1.57 1.13-5.41-1.82-2.58-6.41-5.47-6.29-3.52-6.29-3.52 3.21-3.58 3.21-20.69c.25-9.31-3.52-10.5-2.08-19.37 0 0 1.13 2.26 2.33 2.89 1.19.63 2.2 1.45 2.2 2.89 0 1.45 1.07 4.59 2.77 4.46s.82-3.08.82-3.08h.38s.44 2.45 2.96 2.45 2.2-2.64 2.2-2.64 1.84-.01 1.27-2.21m-39.86.13c-2.64 2.39-3.65 3.9-5.66 2.77s-2.26-2.52-2.26-2.52.88-3.77 0-5.66c0 0 1.26-5.66 0-7.8 0 0 3.4.5 5.03-.63s4.78-2.64 5.91-1.26 1.38 4.15 3.65 4.53c-.01.01-4.03 8.18-6.67 10.57" style="fill:#ee7cad"/></svg>