<svg xmlns="http://www.w3.org/2000/svg" xml:space="preserve" viewBox="0 0 90.54 276.03"><path d="m0 276.03 86.78-6.29 3.76-229.2h-4.69v-2.33h.67L44.77 0 3.94 38.29h.75v2.7H0z" style="fill:#32a853"/><path d="M22.96 45.08h2.1v3.15h-2.1zm3.47 0h2.1v3.15h-2.1zm3.6 0h2.1v3.15h-2.1zm3.67 0h2.1v3.15h-2.1zm-13.92 0h2.1v3.15h-2.1zm21.5 0h2.1v3.15h-2.1zm3.92 0h2.1v3.15h-2.1zm3.95 0h2.1v3.15h-2.1zm3.91 0h2.1v3.15h-2.1zm3.72 0h2.1v3.15h-2.1zm3.77 0h2.1v3.15h-2.1zm3.86 0h1.84v3.15h-1.84zm3.55 0h1.56v3.15h-1.56zm3.32 0h1.56v3.15h-1.56zm3.24 0h1.23v3.15h-1.23zm3.05 0h.95v3.15h-.95zm-40.13 0h2.1v3.15h-2.1zm-20.6 0h1.82v3.15h-1.82zm-2.9 0h1.82v3.15h-1.82zm-2.43 0h1.43v3.15h-1.43zm-2.18 0h1.15v3.15H9.33zm-1.93 0h.75v3.15H7.4zm-1.71 0h.56v3.15h-.56zm-1.59 0h.2v3.15h-.2zm-1.52 0h.1v3.15h-.1zm78.97 3.15H80.4v-3.15h1.15zm1.928 0h-.75v-3.15h.75zm1.706 0h-.56v-3.15h.56zm1.599 0h-.2v-3.15h.2zm1.477-3.15h.1v3.15h-.1zm-65.3 5.76h2.1v3.15h-2.1zm3.47 0h2.1v3.15h-2.1zm3.6 0h2.1v3.15h-2.1zm3.67 0h2.1v3.15h-2.1zm-13.92 0h2.1v3.15h-2.1zm21.5 0h2.1v3.15h-2.1zm3.92 0h2.1v3.15h-2.1zm3.95 0h2.1v3.15h-2.1zm3.91 0h2.1v3.15h-2.1zm3.72 0h2.1v3.15h-2.1zm3.77 0h2.1v3.15h-2.1zm3.86 0h1.84v3.15h-1.84zm3.55 0h1.56v3.15h-1.56zm3.32 0h1.56v3.15h-1.56zm3.24 0h1.23v3.15h-1.23zm3.05 0h.95v3.15h-.95zm-40.13 0h2.1v3.15h-2.1zm-20.6 0h1.82v3.15h-1.82zm-2.9 0h1.82v3.15h-1.82zm-2.43 0h1.43v3.15h-1.43zm-2.18 0h1.15v3.15H9.33zm-1.93 0h.75v3.15H7.4zm-1.71 0h.56v3.15h-.56zm-1.59 0h.2v3.15h-.2zm-1.52 0h.1v3.15h-.1zm78.97 3.151H80.4v-3.15h1.15zm1.928 0h-.75v-3.15h.75zm1.706 0h-.56v-3.15h.56zm1.599 0h-.2v-3.15h.2zm1.477-3.151h.1v3.15h-.1zm-65.3 5.76h2.1v3.15h-2.1zm3.47 0h2.1v3.15h-2.1zm3.6 0h2.1v3.15h-2.1zm3.67 0h2.1v3.15h-2.1zm-13.92 0h2.1v3.15h-2.1zm21.5 0h2.1v3.15h-2.1zm3.92 0h2.1v3.15h-2.1zm3.95 0h2.1v3.15h-2.1zm3.91 0h2.1v3.15h-2.1zm3.72 0h2.1v3.15h-2.1zm3.77 0h2.1v3.15h-2.1zm3.86 0h1.84v3.15h-1.84zm3.55 0h1.56v3.15h-1.56zm3.32 0h1.56v3.15h-1.56zm3.24 0h1.23v3.15h-1.23zm3.05 0h.95v3.15h-.95zm-40.13 0h2.1v3.15h-2.1zm-20.6 0h1.82v3.15h-1.82zm-2.9 0h1.82v3.15h-1.82zm-2.43 0h1.43v3.15h-1.43zm-2.18 0h1.15v3.15H9.33zm-1.93 0h.75v3.15H7.4zm-1.71 0h.56v3.15h-.56zm-1.59 0h.2v3.15h-.2zm-1.52 0h.1v3.15h-.1zm78.97 3.152H80.4v-3.15h1.15zm1.928 0h-.75v-3.15h.75zm1.706 0h-.56v-3.15h.56zm1.599 0h-.2v-3.15h.2zM88.26 56.6h.1v3.15h-.1zm-65.3 5.76h2.1v3.15h-2.1zm3.47 0h2.1v3.15h-2.1zm3.6 0h2.1v3.15h-2.1zm3.67 0h2.1v3.15h-2.1zm-13.92 0h2.1v3.15h-2.1zm21.5 0h2.1v3.15h-2.1zm3.92 0h2.1v3.15h-2.1zm3.95 0h2.1v3.15h-2.1zm3.91 0h2.1v3.15h-2.1zm3.72 0h2.1v3.15h-2.1zm3.77 0h2.1v3.15h-2.1zm3.86 0h1.84v3.15h-1.84zm3.55 0h1.56v3.15h-1.56zm3.32 0h1.56v3.15h-1.56zm3.24 0h1.23v3.15h-1.23zm3.05 0h.95v3.15h-.95zm-40.13 0h2.1v3.15h-2.1zm-20.6 0h1.82v3.15h-1.82zm-2.9 0h1.82v3.15h-1.82zm-2.43 0h1.43v3.15h-1.43zm-2.18 0h1.15v3.15H9.33zm-1.93 0h.75v3.15H7.4zm-1.71 0h.56v3.15h-.56zm-1.59 0h.2v3.15h-.2zm-1.52 0h.1v3.15h-.1zm78.97 3.153H80.4v-3.15h1.15zm1.929 0h-.75v-3.15h.75zm1.705 0h-.56v-3.15h.56zm1.599 0h-.2v-3.15h.2zm1.477-3.153h.1v3.15h-.1zm-65.3 5.76h2.1v3.15h-2.1zm3.47 0h2.1v3.15h-2.1zm3.6 0h2.1v3.15h-2.1zm3.67 0h2.1v3.15h-2.1zm-13.92 0h2.1v3.15h-2.1zm21.5 0h2.1v3.15h-2.1zm3.92 0h2.1v3.15h-2.1zm3.95 0h2.1v3.15h-2.1zm3.91 0h2.1v3.15h-2.1zm3.72 0h2.1v3.15h-2.1zm3.77 0h2.1v3.15h-2.1zm3.86 0h1.84v3.15h-1.84zm3.55 0h1.56v3.15h-1.56zm3.32 0h1.56v3.15h-1.56zm3.24 0h1.23v3.15h-1.23zm3.05 0h.95v3.15h-.95zm-40.13 0h2.1v3.15h-2.1zm-20.6 0h1.82v3.15h-1.82zm-2.9 0h1.82v3.15h-1.82zm-2.43 0h1.43v3.15h-1.43zm-2.18 0h1.15v3.15H9.33zm-1.93 0h.75v3.15H7.4zm-1.71 0h.56v3.15h-.56zm-1.59 0h.2v3.15h-.2zm-1.52 0h.1v3.15h-.1zm78.97 3.154H80.4v-3.15h1.15zm1.929 0h-.75v-3.15h.75zm1.705 0h-.56v-3.15h.56zm1.599 0h-.2v-3.15h.2zm1.477-3.154h.1v3.15h-.1zm-65.3 5.76h2.1v3.15h-2.1zm3.47 0h2.1v3.15h-2.1zm3.6 0h2.1v3.15h-2.1zm3.67 0h2.1v3.15h-2.1zm-13.92 0h2.1v3.15h-2.1zm21.5 0h2.1v3.15h-2.1zm3.92 0h2.1v3.15h-2.1zm3.95 0h2.1v3.15h-2.1zm3.91 0h2.1v3.15h-2.1zm3.72 0h2.1v3.15h-2.1zm3.77 0h2.1v3.15h-2.1zm3.86 0h1.84v3.15h-1.84zm3.55 0h1.56v3.15h-1.56zm3.32 0h1.56v3.15h-1.56zm3.24 0h1.23v3.15h-1.23zm3.05 0h.95v3.15h-.95zm-40.13 0h2.1v3.15h-2.1zm-20.6 0h1.82v3.15h-1.82zm-2.9 0h1.82v3.15h-1.82zm-2.43 0h1.43v3.15h-1.43zm-2.18 0h1.15v3.15H9.33zm-1.93 0h.75v3.15H7.4zm-1.71 0h.56v3.15h-.56zm-1.59 0h.2v3.15h-.2zm-1.52 0h.1v3.15h-.1zm78.97 3.155H80.4v-3.15h1.15zm1.929 0h-.75v-3.15h.75zm1.705 0h-.56v-3.15h.56zm1.599 0h-.2v-3.15h.2zm1.477-3.155h.1v3.15h-.1zm-65.3 5.76h2.1v3.15h-2.1zm3.47 0h2.1v3.15h-2.1zm3.6 0h2.1v3.15h-2.1zm3.67 0h2.1v3.15h-2.1zm-13.92 0h2.1v3.15h-2.1zm21.5 0h2.1v3.15h-2.1zm3.92 0h2.1v3.15h-2.1zm3.95 0h2.1v3.15h-2.1zm3.91 0h2.1v3.15h-2.1zm3.72 0h2.1v3.15h-2.1zm3.77 0h2.1v3.15h-2.1zm3.86 0h1.84v3.15h-1.84zm3.55 0h1.56v3.15h-1.56zm3.32 0h1.56v3.15h-1.56zm3.24 0h1.23v3.15h-1.23zm3.05 0h.95v3.15h-.95zm-40.13 0h2.1v3.15h-2.1zm-20.6 0h1.82v3.15h-1.82zm-2.9 0h1.82v3.15h-1.82zm-2.43 0h1.43v3.15h-1.43zm-2.18 0h1.15v3.15H9.33zm-1.93 0h.75v3.15H7.4zm-1.71 0h.56v3.15h-.56zm-1.59 0h.2v3.15h-.2zm-1.52 0h.1v3.15h-.1zm78.97 3.156H80.4v-3.15h1.15zm1.929 0h-.75v-3.15h.75zm1.705 0h-.56v-3.15h.56zm1.599 0h-.2v-3.15h.2zm1.477-3.156h.1v3.15h-.1zm-65.3 5.76h2.1v3.15h-2.1zm3.47 0h2.1v3.15h-2.1zm3.6 0h2.1v3.15h-2.1zm3.67 0h2.1v3.15h-2.1zm-13.92 0h2.1v3.15h-2.1zm21.5 0h2.1v3.15h-2.1zm3.92 0h2.1v3.15h-2.1zm3.95 0h2.1v3.15h-2.1zm3.91 0h2.1v3.15h-2.1zm3.72 0h2.1v3.15h-2.1zm3.77 0h2.1v3.15h-2.1zm3.86 0h1.84v3.15h-1.84zm3.55 0h1.56v3.15h-1.56zm3.32 0h1.56v3.15h-1.56zm3.24 0h1.23v3.15h-1.23zm3.05 0h.95v3.15h-.95zm-40.13 0h2.1v3.15h-2.1zm-20.6 0h1.82v3.15h-1.82zm-2.9 0h1.82v3.15h-1.82zm-2.43 0h1.43v3.15h-1.43zm-2.18 0h1.15v3.15H9.33zm-1.93 0h.75v3.15H7.4zm-1.71 0h.56v3.15h-.56zm-1.59 0h.2v3.15h-.2zm-1.52 0h.1v3.15h-.1zm78.97 3.157H80.4v-3.15h1.15zm1.929 0h-.75v-3.15h.75zm1.705 0h-.56v-3.15h.56zm1.599 0h-.2v-3.15h.2zM88.26 85.4h.1v3.15h-.1zm-65.3 5.77h2.1v3.15h-2.1zm3.47 0h2.1v3.15h-2.1zm3.6 0h2.1v3.15h-2.1zm3.67 0h2.1v3.15h-2.1zm-13.92 0h2.1v3.15h-2.1zm21.5 0h2.1v3.15h-2.1zm3.92 0h2.1v3.15h-2.1zm3.95 0h2.1v3.15h-2.1zm3.91 0h2.1v3.15h-2.1zm3.72 0h2.1v3.15h-2.1zm3.77 0h2.1v3.15h-2.1zm3.86 0h1.84v3.15h-1.84zm3.55 0h1.56v3.15h-1.56zm3.32 0h1.56v3.15h-1.56zm3.24 0h1.23v3.15h-1.23zm3.05 0h.95v3.15h-.95zm-40.13 0h2.1v3.15h-2.1zm-20.6 0h1.82v3.15h-1.82zm-2.9 0h1.82v3.15h-1.82zm-2.43 0h1.43v3.15h-1.43zm-2.18 0h1.15v3.15H9.33zm-1.93 0h.75v3.15H7.4zm-1.71 0h.56v3.15h-.56zm-1.59 0h.2v3.15h-.2zm-1.52 0h.1v3.15h-.1zm78.97 3.138H80.4v-3.15h1.15zm1.929 0h-.75v-3.15h.75zm1.705 0h-.56v-3.15h.56zm1.599 0h-.2v-3.15h.2zm1.477-3.138h.1v3.15h-.1zm-65.3 5.76h2.1v3.15h-2.1zm3.47 0h2.1v3.15h-2.1zm3.6 0h2.1v3.15h-2.1zm3.67 0h2.1v3.15h-2.1zm-13.92 0h2.1v3.15h-2.1zm21.5 0h2.1v3.15h-2.1zm3.92 0h2.1v3.15h-2.1zm3.95 0h2.1v3.15h-2.1zm3.91 0h2.1v3.15h-2.1zm3.72 0h2.1v3.15h-2.1zm3.77 0h2.1v3.15h-2.1zm3.86 0h1.84v3.15h-1.84zm3.55 0h1.56v3.15h-1.56zm3.32 0h1.56v3.15h-1.56zm3.24 0h1.23v3.15h-1.23zm3.05 0h.95v3.15h-.95zm-40.13 0h2.1v3.15h-2.1zm-20.6 0h1.82v3.15h-1.82zm-2.9 0h1.82v3.15h-1.82zm-2.43 0h1.43v3.15h-1.43zm-2.18 0h1.15v3.15H9.33zm-1.93 0h.75v3.15H7.4zm-1.71 0h.56v3.15h-.56zm-1.59 0h.2v3.15h-.2zm-1.52 0h.1v3.15h-.1zm78.97 3.139H80.4v-3.15h1.15zm1.929 0h-.75v-3.15h.75zm1.705 0h-.56v-3.15h.56zm1.599 0h-.2v-3.15h.2zm1.477-3.139h.1v3.15h-.1zm-65.3 5.76h2.1v3.15h-2.1zm3.47 0h2.1v3.15h-2.1zm3.6 0h2.1v3.15h-2.1zm3.67 0h2.1v3.15h-2.1zm-13.92 0h2.1v3.15h-2.1zm21.5 0h2.1v3.15h-2.1zm3.92 0h2.1v3.15h-2.1zm3.95 0h2.1v3.15h-2.1zm3.91 0h2.1v3.15h-2.1zm3.72 0h2.1v3.15h-2.1zm3.77 0h2.1v3.15h-2.1zm3.86 0h1.84v3.15h-1.84zm3.55 0h1.56v3.15h-1.56zm3.32 0h1.56v3.15h-1.56zm3.24 0h1.23v3.15h-1.23zm3.05 0h.95v3.15h-.95zm-40.13 0h2.1v3.15h-2.1zm-20.6 0h1.82v3.15h-1.82zm-2.9 0h1.82v3.15h-1.82zm-2.43 0h1.43v3.15h-1.43zm-2.18 0h1.15v3.15H9.33zm-1.93 0h.75v3.15H7.4zm-1.71 0h.56v3.15h-.56zm-1.59 0h.2v3.15h-.2zm-1.52 0h.1v3.15h-.1zm78.97 3.14H80.4v-3.15h1.15zm1.929 0h-.75v-3.15h.75zm1.705 0h-.56v-3.15h.56zm1.599 0h-.2v-3.15h.2zm1.477-3.14h.1v3.15h-.1zm-65.3 5.76h2.1v3.15h-2.1zm3.47 0h2.1v3.15h-2.1zm3.6 0h2.1v3.15h-2.1zm3.67 0h2.1v3.15h-2.1zm-13.92 0h2.1v3.15h-2.1zm21.5 0h2.1v3.15h-2.1zm3.92 0h2.1v3.15h-2.1zm3.95 0h2.1v3.15h-2.1zm3.91 0h2.1v3.15h-2.1zm3.72 0h2.1v3.15h-2.1zm3.77 0h2.1v3.15h-2.1zm3.86 0h1.84v3.15h-1.84zm3.55 0h1.56v3.15h-1.56zm3.32 0h1.56v3.15h-1.56zm3.24 0h1.23v3.15h-1.23zm3.05 0h.95v3.15h-.95zm-40.13 0h2.1v3.15h-2.1zm-20.6 0h1.82v3.15h-1.82zm-2.9 0h1.82v3.15h-1.82zm-2.43 0h1.43v3.15h-1.43zm-2.18 0h1.15v3.15H9.33zm-1.93 0h.75v3.15H7.4zm-1.71 0h.56v3.15h-.56zm-1.59 0h.2v3.15h-.2zm-1.52 0h.1v3.15h-.1zm78.97 3.14H80.4v-3.15h1.15zm1.929 0h-.75v-3.15h.75zm1.705 0h-.56v-3.15h.56zm1.599 0h-.2v-3.15h.2zm1.477-3.14h.1v3.15h-.1zm-65.3 5.76h2.1v3.15h-2.1zm3.47 0h2.1v3.15h-2.1zm3.6 0h2.1v3.15h-2.1zm3.67 0h2.1v3.15h-2.1zm-13.92 0h2.1v3.15h-2.1zm21.5 0h2.1v3.15h-2.1zm3.92 0h2.1v3.15h-2.1zm3.95 0h2.1v3.15h-2.1zm3.91 0h2.1v3.15h-2.1zm3.72 0h2.1v3.15h-2.1zm3.77 0h2.1v3.15h-2.1zm3.86 0h1.84v3.15h-1.84zm3.55 0h1.56v3.15h-1.56zm3.32 0h1.56v3.15h-1.56zm3.24 0h1.23v3.15h-1.23zm3.05 0h.95v3.15h-.95zm-40.13 0h2.1v3.15h-2.1zm-20.6 0h1.82v3.15h-1.82zm-2.9 0h1.82v3.15h-1.82zm-2.43 0h1.43v3.15h-1.43zm-2.18 0h1.15v3.15H9.33zm-1.93 0h.75v3.15H7.4zm-1.71 0h.56v3.15h-.56zm-1.59 0h.2v3.15h-.2zm-1.52 0h.1v3.15h-.1zm78.97 3.142H80.4v-3.15h1.15zm1.929 0h-.75v-3.15h.75zm1.705 0h-.56v-3.15h.56zm1.599 0h-.2v-3.15h.2zm1.477-3.142h.1v3.15h-.1zm-65.3 5.76h2.1v3.15h-2.1zm3.47 0h2.1v3.15h-2.1zm3.6 0h2.1v3.15h-2.1zm3.67 0h2.1v3.15h-2.1zm-13.92 0h2.1v3.15h-2.1zm21.5 0h2.1v3.15h-2.1zm3.92 0h2.1v3.15h-2.1zm3.95 0h2.1v3.15h-2.1zm3.91 0h2.1v3.15h-2.1zm3.72 0h2.1v3.15h-2.1zm3.77 0h2.1v3.15h-2.1zm3.86 0h1.84v3.15h-1.84zm3.55 0h1.56v3.15h-1.56zm3.32 0h1.56v3.15h-1.56zm3.24 0h1.23v3.15h-1.23zm3.05 0h.95v3.15h-.95zm-40.13 0h2.1v3.15h-2.1zm-20.6 0h1.82v3.15h-1.82zm-2.9 0h1.82v3.15h-1.82zm-2.43 0h1.43v3.15h-1.43zm-2.18 0h1.15v3.15H9.33zm-1.93 0h.75v3.15H7.4zm-1.71 0h.56v3.15h-.56zm-1.59 0h.2v3.15h-.2zm-1.52 0h.1v3.15h-.1zm78.97 3.143H80.4v-3.15h1.15zm1.929 0h-.75v-3.15h.75zm1.705 0h-.56v-3.15h.56zm1.599 0h-.2v-3.15h.2zm1.477-3.143h.1v3.15h-.1zm-65.3 5.76h2.1v3.15h-2.1zm3.47 0h2.1v3.15h-2.1zm3.6 0h2.1v3.15h-2.1zm3.67 0h2.1v3.15h-2.1zm-13.92 0h2.1v3.15h-2.1zm21.5 0h2.1v3.15h-2.1zm3.92 0h2.1v3.15h-2.1zm3.95 0h2.1v3.15h-2.1zm3.91 0h2.1v3.15h-2.1zm3.72 0h2.1v3.15h-2.1zm3.77 0h2.1v3.15h-2.1zm3.86 0h1.84v3.15h-1.84zm3.55 0h1.56v3.15h-1.56zm3.32 0h1.56v3.15h-1.56zm3.24 0h1.23v3.15h-1.23zm3.05 0h.95v3.15h-.95zm-40.13 0h2.1v3.15h-2.1zm-20.6 0h1.82v3.15h-1.82zm-2.9 0h1.82v3.15h-1.82zm-2.43 0h1.43v3.15h-1.43zm-2.18 0h1.15v3.15H9.33zm-1.93 0h.75v3.15H7.4zm-1.71 0h.56v3.15h-.56zm-1.59 0h.2v3.15h-.2zm-1.52 0h.1v3.15h-.1zm78.97 3.144H80.4v-3.15h1.15zm1.929 0h-.75v-3.15h.75zm1.705 0h-.56v-3.15h.56zm1.599 0h-.2v-3.15h.2zm1.477-3.144h.1v3.15h-.1zm-65.3 5.76h2.1v3.15h-2.1zm3.47 0h2.1v3.15h-2.1zm3.6 0h2.1v3.15h-2.1zm3.67 0h2.1v3.15h-2.1zm-13.92 0h2.1v3.15h-2.1zm21.5 0h2.1v3.15h-2.1zm3.92 0h2.1v3.15h-2.1zm3.95 0h2.1v3.15h-2.1zm3.91 0h2.1v3.15h-2.1zm3.72 0h2.1v3.15h-2.1zm3.77 0h2.1v3.15h-2.1zm3.86 0h1.84v3.15h-1.84zm3.55 0h1.56v3.15h-1.56zm3.32 0h1.56v3.15h-1.56zm3.24 0h1.23v3.15h-1.23zm3.05 0h.95v3.15h-.95zm-40.13 0h2.1v3.15h-2.1zm-20.6 0h1.82v3.15h-1.82zm-2.9 0h1.82v3.15h-1.82zm-2.43 0h1.43v3.15h-1.43zm-2.18 0h1.15v3.15H9.33zm-1.93 0h.75v3.15H7.4zm-1.71 0h.56v3.15h-.56zm-1.59 0h.2v3.15h-.2zm-1.52 0h.1v3.15h-.1zm78.97 3.145H80.4v-3.15h1.15zm1.929 0h-.75v-3.15h.75zm1.705 0h-.56v-3.15h.56zm1.599 0h-.2v-3.15h.2zm1.477-3.145h.1v3.15h-.1zm-65.3 5.76h2.1v3.15h-2.1zm3.47 0h2.1v3.15h-2.1zm3.6 0h2.1v3.15h-2.1zm3.67 0h2.1v3.15h-2.1zm-13.92 0h2.1v3.15h-2.1zm21.5 0h2.1v3.15h-2.1zm3.92 0h2.1v3.15h-2.1zm3.95 0h2.1v3.15h-2.1zm3.91 0h2.1v3.15h-2.1zm3.72 0h2.1v3.15h-2.1zm3.77 0h2.1v3.15h-2.1zm3.86 0h1.84v3.15h-1.84zm3.55 0h1.56v3.15h-1.56zm3.32 0h1.56v3.15h-1.56zm3.24 0h1.23v3.15h-1.23zm3.05 0h.95v3.15h-.95zm-40.13 0h2.1v3.15h-2.1zm-20.6 0h1.82v3.15h-1.82zm-2.9 0h1.82v3.15h-1.82zm-2.43 0h1.43v3.15h-1.43zm-2.18 0h1.15v3.15H9.33zm-1.93 0h.75v3.15H7.4zm-1.71 0h.56v3.15h-.56zm-1.59 0h.2v3.15h-.2zm-1.52 0h.1v3.15h-.1zm78.97 3.146H80.4v-3.15h1.15zm1.929 0h-.75v-3.15h.75zm1.705 0h-.56v-3.15h.56zm1.599 0h-.2v-3.15h.2zm1.477-3.146h.1v3.15h-.1zm-65.3 5.76h2.1v3.15h-2.1zm3.47 0h2.1v3.15h-2.1zm3.6 0h2.1v3.15h-2.1zm3.67 0h2.1v3.15h-2.1zm-13.92 0h2.1v3.15h-2.1zm21.5 0h2.1v3.15h-2.1zm3.92 0h2.1v3.15h-2.1zm3.95 0h2.1v3.15h-2.1zm3.91 0h2.1v3.15h-2.1zm3.72 0h2.1v3.15h-2.1zm3.77 0h2.1v3.15h-2.1zm3.86 0h1.84v3.15h-1.84zm3.55 0h1.56v3.15h-1.56zm3.32 0h1.56v3.15h-1.56zm3.24 0h1.23v3.15h-1.23zm3.05 0h.95v3.15h-.95zm-40.13 0h2.1v3.15h-2.1zm-20.6 0h1.82v3.15h-1.82zm-2.9 0h1.82v3.15h-1.82zm-2.43 0h1.43v3.15h-1.43zm-2.18 0h1.15v3.15H9.33zm-1.93 0h.75v3.15H7.4zm-1.71 0h.56v3.15h-.56zm-1.59 0h.2v3.15h-.2zm-1.52 0h.1v3.15h-.1zm78.97 3.147H80.4v-3.15h1.15zm1.929 0h-.75v-3.15h.75zm1.705 0h-.56v-3.15h.56zm1.599 0h-.2v-3.15h.2zm1.477-3.147h.1v3.15h-.1zm-65.3 5.76h2.1v3.15h-2.1zm3.47 0h2.1v3.15h-2.1zm3.6 0h2.1v3.15h-2.1zm3.67 0h2.1v3.15h-2.1zm-13.92 0h2.1v3.15h-2.1zm21.5 0h2.1v3.15h-2.1zm3.92 0h2.1v3.15h-2.1zm3.95 0h2.1v3.15h-2.1zm3.91 0h2.1v3.15h-2.1zm3.72 0h2.1v3.15h-2.1zm3.77 0h2.1v3.15h-2.1zm3.86 0h1.84v3.15h-1.84zm3.55 0h1.56v3.15h-1.56zm3.32 0h1.56v3.15h-1.56zm3.24 0h1.23v3.15h-1.23zm3.05 0h.95v3.15h-.95zm-40.13 0h2.1v3.15h-2.1zm-20.6 0h1.82v3.15h-1.82zm-2.9 0h1.82v3.15h-1.82zm-2.43 0h1.43v3.15h-1.43zm-2.18 0h1.15v3.15H9.33zm-1.93 0h.75v3.15H7.4zm-1.71 0h.56v3.15h-.56zm-1.59 0h.2v3.15h-.2zm-1.52 0h.1v3.15h-.1zm78.97 3.148H80.4v-3.15h1.15zm1.929 0h-.75v-3.15h.75zm1.705 0h-.56v-3.15h.56zm1.599 0h-.2v-3.15h.2zm1.477-3.148h.1v3.15h-.1zm-65.3 5.76h2.1v3.15h-2.1zm3.47 0h2.1v3.15h-2.1zm3.6 0h2.1v3.15h-2.1zm3.67 0h2.1v3.15h-2.1zm-13.92 0h2.1v3.15h-2.1zm21.5 0h2.1v3.15h-2.1zm3.92 0h2.1v3.15h-2.1zm3.95 0h2.1v3.15h-2.1zm3.91 0h2.1v3.15h-2.1zm3.72 0h2.1v3.15h-2.1zm3.77 0h2.1v3.15h-2.1zm3.86 0h1.84v3.15h-1.84zm3.55 0h1.56v3.15h-1.56zm3.32 0h1.56v3.15h-1.56zm3.24 0h1.23v3.15h-1.23zm3.05 0h.95v3.15h-.95zm-40.13 0h2.1v3.15h-2.1zm-20.6 0h1.82v3.15h-1.82zm-2.9 0h1.82v3.15h-1.82zm-2.43 0h1.43v3.15h-1.43zm-2.18 0h1.15v3.15H9.33zm-1.93 0h.75v3.15H7.4zm-1.71 0h.56v3.15h-.56zm-1.59 0h.2v3.15h-.2zm-1.52 0h.1v3.15h-.1zm78.97 3.149H80.4v-3.15h1.15zm1.929 0h-.75v-3.15h.75zm1.705 0h-.56v-3.15h.56zm1.599 0h-.2v-3.15h.2zm1.477-3.149h.1v3.15h-.1zm-65.3 5.76h2.1v3.15h-2.1zm3.47 0h2.1v3.15h-2.1zm3.6 0h2.1v3.15h-2.1zm3.67 0h2.1v3.15h-2.1zm-13.92 0h2.1v3.15h-2.1zm21.5 0h2.1v3.15h-2.1zm3.92 0h2.1v3.15h-2.1zm3.95 0h2.1v3.15h-2.1zm3.91 0h2.1v3.15h-2.1zm3.72 0h2.1v3.15h-2.1zm3.77 0h2.1v3.15h-2.1zm3.86 0h1.84v3.15h-1.84zm3.55 0h1.56v3.15h-1.56zm3.32 0h1.56v3.15h-1.56zm3.24 0h1.23v3.15h-1.23zm3.05 0h.95v3.15h-.95zm-40.13 0h2.1v3.15h-2.1zm-20.6 0h1.82v3.15h-1.82zm-2.9 0h1.82v3.15h-1.82zm-2.43 0h1.43v3.15h-1.43zm-2.18 0h1.15v3.15H9.33zm-1.93 0h.75v3.15H7.4zm-1.71 0h.56v3.15h-.56zm-1.59 0h.2v3.15h-.2zm-1.52 0h.1v3.15h-.1zm78.97 3.15H80.4v-3.15h1.15zm1.929 0h-.75v-3.15h.75zm1.705 0h-.56v-3.15h.56zm1.599 0h-.2v-3.15h.2zm1.477-3.15h.1v3.15h-.1zm-65.3 5.76h2.1v3.15h-2.1zm3.47 0h2.1v3.15h-2.1zm3.6 0h2.1v3.15h-2.1zm3.67 0h2.1v3.15h-2.1zm-13.92 0h2.1v3.15h-2.1zm21.5 0h2.1v3.15h-2.1zm3.92 0h2.1v3.15h-2.1zm3.95 0h2.1v3.15h-2.1zm3.91 0h2.1v3.15h-2.1zm3.72 0h2.1v3.15h-2.1zm3.77 0h2.1v3.15h-2.1zm3.86 0h1.84v3.15h-1.84zm3.55 0h1.56v3.15h-1.56zm3.32 0h1.56v3.15h-1.56zm3.24 0h1.23v3.15h-1.23zm3.05 0h.95v3.15h-.95zm-40.13 0h2.1v3.15h-2.1zm-20.6 0h1.82v3.15h-1.82zm-2.9 0h1.82v3.15h-1.82zm-2.43 0h1.43v3.15h-1.43zm-2.18 0h1.15v3.15H9.33zm-1.93 0h.75v3.15H7.4zm-1.71 0h.56v3.15h-.56zm-1.59 0h.2v3.15h-.2zm-1.52 0h.1v3.15h-.1zm78.97 3.15H80.4v-3.15h1.15zm1.929 0h-.75v-3.15h.75zm1.705 0h-.56v-3.15h.56zm1.599 0h-.2v-3.15h.2zm1.477-3.15h.1v3.15h-.1zm-65.3 5.76h2.1v3.15h-2.1zm3.47 0h2.1v3.15h-2.1zm3.6 0h2.1v3.15h-2.1zm3.67 0h2.1v3.15h-2.1zm-13.92 0h2.1v3.15h-2.1zm21.5 0h2.1v3.15h-2.1zm3.92 0h2.1v3.15h-2.1zm3.95 0h2.1v3.15h-2.1zm3.91 0h2.1v3.15h-2.1zm3.72 0h2.1v3.15h-2.1zm3.77 0h2.1v3.15h-2.1zm3.86 0h1.84v3.15h-1.84zm3.55 0h1.56v3.15h-1.56zm3.32 0h1.56v3.15h-1.56zm3.24 0h1.23v3.15h-1.23zm3.05 0h.95v3.15h-.95zm-40.13 0h2.1v3.15h-2.1zm-20.6 0h1.82v3.15h-1.82zm-2.9 0h1.82v3.15h-1.82zm-2.43 0h1.43v3.15h-1.43zm-2.18 0h1.15v3.15H9.33zm-1.93 0h.75v3.15H7.4zm-1.71 0h.56v3.15h-.56zm-1.59 0h.2v3.15h-.2zm-1.52 0h.1v3.15h-.1zm78.97 3.151H80.4v-3.15h1.15zm1.929 0h-.75v-3.15h.75zm1.705 0h-.56v-3.15h.56zm1.599 0h-.2v-3.15h.2zm1.477-3.151h.1v3.15h-.1zm-65.3 5.76h2.1v3.15h-2.1zm3.47 0h2.1v3.15h-2.1zm3.6 0h2.1v3.15h-2.1zm3.67 0h2.1v3.15h-2.1zm-13.92 0h2.1v3.15h-2.1zm21.5 0h2.1v3.15h-2.1zm3.92 0h2.1v3.15h-2.1zm3.95 0h2.1v3.15h-2.1zm3.91 0h2.1v3.15h-2.1zm3.72 0h2.1v3.15h-2.1zm3.77 0h2.1v3.15h-2.1zm3.86 0h1.84v3.15h-1.84zm3.55 0h1.56v3.15h-1.56zm3.32 0h1.56v3.15h-1.56zm3.24 0h1.23v3.15h-1.23zm3.05 0h.95v3.15h-.95zm-40.13 0h2.1v3.15h-2.1zm-20.6 0h1.82v3.15h-1.82zm-2.9 0h1.82v3.15h-1.82zm-2.43 0h1.43v3.15h-1.43zm-2.18 0h1.15v3.15H9.33zm-1.93 0h.75v3.15H7.4zm-1.71 0h.56v3.15h-.56zm-1.59 0h.2v3.15h-.2zm-1.52 0h.1v3.15h-.1zm78.97 3.152H80.4v-3.15h1.15zm1.929 0h-.75v-3.15h.75zm1.705 0h-.56v-3.15h.56zm1.599 0h-.2v-3.15h.2zm1.477-3.152h.1v3.15h-.1zm-65.3 5.76h2.1v3.15h-2.1zm3.47 0h2.1v3.15h-2.1zm3.6 0h2.1v3.15h-2.1zm3.67 0h2.1v3.15h-2.1zm-13.92 0h2.1v3.15h-2.1zm21.5 0h2.1v3.15h-2.1zm3.92 0h2.1v3.15h-2.1zm3.95 0h2.1v3.15h-2.1zm3.91 0h2.1v3.15h-2.1zm3.72 0h2.1v3.15h-2.1zm3.77 0h2.1v3.15h-2.1zm3.86 0h1.84v3.15h-1.84zm3.55 0h1.56v3.15h-1.56zm3.32 0h1.56v3.15h-1.56zm3.24 0h1.23v3.15h-1.23zm3.05 0h.95v3.15h-.95zm-40.13 0h2.1v3.15h-2.1zm-20.6 0h1.82v3.15h-1.82zm-2.9 0h1.82v3.15h-1.82zm-2.43 0h1.43v3.15h-1.43zm-2.18 0h1.15v3.15H9.33zm-1.93 0h.75v3.15H7.4zm-1.71 0h.56v3.15h-.56zm-1.59 0h.2v3.15h-.2zm-1.52 0h.1v3.15h-.1zm78.97 3.153H80.4v-3.15h1.15zm1.929 0h-.75v-3.15h.75zm1.705 0h-.56v-3.15h.56zm1.599 0h-.2v-3.15h.2zm1.477-3.153h.1v3.15h-.1zm-65.3 5.76h2.1v3.15h-2.1zm3.47 0h2.1v3.15h-2.1zm3.6 0h2.1v3.15h-2.1zm3.67 0h2.1v3.15h-2.1zm-13.92 0h2.1v3.15h-2.1zm21.5 0h2.1v3.15h-2.1zm3.92 0h2.1v3.15h-2.1zm3.95 0h2.1v3.15h-2.1zm3.91 0h2.1v3.15h-2.1zm3.72 0h2.1v3.15h-2.1zm3.77 0h2.1v3.15h-2.1zm3.86 0h1.84v3.15h-1.84zm3.55 0h1.56v3.15h-1.56zm3.32 0h1.56v3.15h-1.56zm3.24 0h1.23v3.15h-1.23zm3.05 0h.95v3.15h-.95zm-40.13 0h2.1v3.15h-2.1zm-20.6 0h1.82v3.15h-1.82zm-2.9 0h1.82v3.15h-1.82zm-2.43 0h1.43v3.15h-1.43zm-2.18 0h1.15v3.15H9.33zm-1.93 0h.75v3.15H7.4zm-1.71 0h.56v3.15h-.56zm-1.59 0h.2v3.15h-.2zm-1.52 0h.1v3.15h-.1zm78.97 3.154H80.4v-3.15h1.15zm1.929 0h-.75v-3.15h.75zm1.705 0h-.56v-3.15h.56zm1.599 0h-.2v-3.15h.2zm1.477-3.154h.1v3.15h-.1zm-65.3 5.76h2.1V198h-2.1zm3.47 0h2.1V198h-2.1zm3.6 0h2.1V198h-2.1zm3.67 0h2.1V198h-2.1zm-13.92 0h2.1V198h-2.1zm21.5 0h2.1V198h-2.1zm3.92 0h2.1V198h-2.1zm3.95 0h2.1V198h-2.1zm3.91 0h2.1V198h-2.1zm3.72 0h2.1V198h-2.1zm3.77 0h2.1V198h-2.1zm3.86 0h1.84V198h-1.84zm3.55 0h1.56V198h-1.56zm3.32 0h1.56V198h-1.56zm3.24 0h1.23V198h-1.23zm3.05 0h.95V198h-.95zm-40.13 0h2.1V198h-2.1zm-20.6 0h1.82V198h-1.82zm-2.9 0h1.82V198h-1.82zm-2.43 0h1.43V198h-1.43zm-2.18 0h1.15V198H9.33zm-1.93 0h.75V198H7.4zm-1.71 0h.56V198h-.56zm-1.59 0h.2V198h-.2zm-1.52 0h.1V198h-.1zm78.97 3.155H80.4v-3.15h1.15zm1.929 0h-.75v-3.15h.75zm1.705 0h-.56v-3.15h.56zm1.599 0h-.2v-3.15h.2zm1.477-3.155h.1V198h-.1zm-65.3 5.76h2.1v3.15h-2.1zm3.47 0h2.1v3.15h-2.1zm3.6 0h2.1v3.15h-2.1zm3.67 0h2.1v3.15h-2.1zm-13.92 0h2.1v3.15h-2.1zm21.5 0h2.1v3.15h-2.1zm3.92 0h2.1v3.15h-2.1zm3.95 0h2.1v3.15h-2.1zm3.91 0h2.1v3.15h-2.1zm3.72 0h2.1v3.15h-2.1zm3.77 0h2.1v3.15h-2.1zm3.86 0h1.84v3.15h-1.84zm3.55 0h1.56v3.15h-1.56zm3.32 0h1.56v3.15h-1.56zm3.24 0h1.23v3.15h-1.23zm3.05 0h.95v3.15h-.95zm-40.13 0h2.1v3.15h-2.1zm-20.6 0h1.82v3.15h-1.82zm-2.9 0h1.82v3.15h-1.82zm-2.43 0h1.43v3.15h-1.43zm-2.18 0h1.15v3.15H9.33zm-1.93 0h.75v3.15H7.4zm-1.71 0h.56v3.15h-.56zm-1.59 0h.2v3.15h-.2zm-1.52 0h.1v3.15h-.1zm78.97 3.156H80.4v-3.15h1.15zm1.929 0h-.75v-3.15h.75zm1.705 0h-.56v-3.15h.56zm1.599 0h-.2v-3.15h.2zm1.477-3.156h.1v3.15h-.1zm-65.3 5.77h2.1v3.15h-2.1zm3.47 0h2.1v3.15h-2.1zm3.6 0h2.1v3.15h-2.1zm3.67 0h2.1v3.15h-2.1zm-13.92 0h2.1v3.15h-2.1zm21.5 0h2.1v3.15h-2.1zm3.92 0h2.1v3.15h-2.1zm3.95 0h2.1v3.15h-2.1zm3.91 0h2.1v3.15h-2.1zm3.72 0h2.1v3.15h-2.1zm3.77 0h2.1v3.15h-2.1zm3.86 0h1.84v3.15h-1.84zm3.55 0h1.56v3.15h-1.56zm3.32 0h1.56v3.15h-1.56zm3.24 0h1.23v3.15h-1.23zm3.05 0h.95v3.15h-.95zm-40.13 0h2.1v3.15h-2.1zm-20.6 0h1.82v3.15h-1.82zm-2.9 0h1.82v3.15h-1.82zm-2.43 0h1.43v3.15h-1.43zm-2.18 0h1.15v3.15H9.33zm-1.93 0h.75v3.15H7.4zm-1.71 0h.56v3.15h-.56zm-1.59 0h.2v3.15h-.2zm-1.52 0h.1v3.15h-.1zm78.97 3.137H80.4v-3.15h1.15zm1.929 0h-.75v-3.15h.75zm1.705 0h-.56v-3.15h.56zm1.599 0h-.2v-3.15h.2zm1.477-3.137h.1v3.15h-.1zm-65.3 5.76h2.1v3.15h-2.1zm3.47 0h2.1v3.15h-2.1zm3.6 0h2.1v3.15h-2.1zm3.67 0h2.1v3.15h-2.1zm-13.92 0h2.1v3.15h-2.1zm21.5 0h2.1v3.15h-2.1zm3.92 0h2.1v3.15h-2.1zm3.95 0h2.1v3.15h-2.1zm3.91 0h2.1v3.15h-2.1zm3.72 0h2.1v3.15h-2.1zm3.77 0h2.1v3.15h-2.1zm3.86 0h1.84v3.15h-1.84zm3.55 0h1.56v3.15h-1.56zm3.32 0h1.56v3.15h-1.56zm3.24 0h1.23v3.15h-1.23zm3.05 0h.95v3.15h-.95zm-40.13 0h2.1v3.15h-2.1zm-20.6 0h1.82v3.15h-1.82zm-2.9 0h1.82v3.15h-1.82zm-2.43 0h1.43v3.15h-1.43zm-2.18 0h1.15v3.15H9.33zm-1.93 0h.75v3.15H7.4zm-1.71 0h.56v3.15h-.56zm-1.59 0h.2v3.15h-.2zm-1.52 0h.1v3.15h-.1zm78.97 3.138H80.4v-3.15h1.15zm1.929 0h-.75v-3.15h.75zm1.705 0h-.56v-3.15h.56zm1.599 0h-.2v-3.15h.2zm1.477-3.138h.1v3.15h-.1zm-65.3 5.76h2.1v3.15h-2.1zm3.47 0h2.1v3.15h-2.1zm3.6 0h2.1v3.15h-2.1zm3.67 0h2.1v3.15h-2.1zm-13.92 0h2.1v3.15h-2.1zm21.5 0h2.1v3.15h-2.1zm3.92 0h2.1v3.15h-2.1zm3.95 0h2.1v3.15h-2.1zm3.91 0h2.1v3.15h-2.1zm3.72 0h2.1v3.15h-2.1zm3.77 0h2.1v3.15h-2.1zm3.86 0h1.84v3.15h-1.84zm3.55 0h1.56v3.15h-1.56zm3.32 0h1.56v3.15h-1.56zm3.24 0h1.23v3.15h-1.23zm3.05 0h.95v3.15h-.95zm-40.13 0h2.1v3.15h-2.1zm-20.6 0h1.82v3.15h-1.82zm-2.9 0h1.82v3.15h-1.82zm-2.43 0h1.43v3.15h-1.43zm-2.18 0h1.15v3.15H9.33zm-1.93 0h.75v3.15H7.4zm-1.71 0h.56v3.15h-.56zm-1.59 0h.2v3.15h-.2zm-1.52 0h.1v3.15h-.1zm78.97 3.14H80.4v-3.15h1.15zm1.929 0h-.75v-3.15h.75zm1.705 0h-.56v-3.15h.56zm1.599 0h-.2v-3.15h.2zm1.477-3.14h.1v3.15h-.1zm-65.3 5.76h2.1v3.15h-2.1zm3.47 0h2.1v3.15h-2.1zm3.6 0h2.1v3.15h-2.1zm3.67 0h2.1v3.15h-2.1zm-13.92 0h2.1v3.15h-2.1zm21.5 0h2.1v3.15h-2.1zm3.92 0h2.1v3.15h-2.1zm3.95 0h2.1v3.15h-2.1zm3.91 0h2.1v3.15h-2.1zm3.72 0h2.1v3.15h-2.1zm3.77 0h2.1v3.15h-2.1zm3.86 0h1.84v3.15h-1.84zm3.55 0h1.56v3.15h-1.56zm3.32 0h1.56v3.15h-1.56zm3.24 0h1.23v3.15h-1.23zm3.05 0h.95v3.15h-.95zm-40.13 0h2.1v3.15h-2.1zm-20.6 0h1.82v3.15h-1.82zm-2.9 0h1.82v3.15h-1.82zm-2.43 0h1.43v3.15h-1.43zm-2.18 0h1.15v3.15H9.33zm-1.93 0h.75v3.15H7.4zm-1.71 0h.56v3.15h-.56zm-1.59 0h.2v3.15h-.2zm-1.52 0h.1v3.15h-.1zm78.97 3.14H80.4v-3.15h1.15zm1.929 0h-.75v-3.15h.75zm1.705 0h-.56v-3.15h.56zm1.599 0h-.2v-3.15h.2zm1.477-3.14h.1v3.15h-.1zm-65.3 5.76h2.1v3.15h-2.1zm3.47 0h2.1v3.15h-2.1zm3.6 0h2.1v3.15h-2.1zm3.67 0h2.1v3.15h-2.1zm-13.92 0h2.1v3.15h-2.1zm21.5 0h2.1v3.15h-2.1zm3.92 0h2.1v3.15h-2.1zm3.95 0h2.1v3.15h-2.1zm3.91 0h2.1v3.15h-2.1zm3.72 0h2.1v3.15h-2.1zm3.77 0h2.1v3.15h-2.1zm3.86 0h1.84v3.15h-1.84zm3.55 0h1.56v3.15h-1.56zm3.32 0h1.56v3.15h-1.56zm3.24 0h1.23v3.15h-1.23zm3.05 0h.95v3.15h-.95zm-40.13 0h2.1v3.15h-2.1zm-20.6 0h1.82v3.15h-1.82zm-2.9 0h1.82v3.15h-1.82zm-2.43 0h1.43v3.15h-1.43zm-2.18 0h1.15v3.15H9.33zm-1.93 0h.75v3.15H7.4zm-1.71 0h.56v3.15h-.56zm-1.59 0h.2v3.15h-.2zm-1.52 0h.1v3.15h-.1zm78.97 3.141H80.4v-3.15h1.15zm1.929 0h-.75v-3.15h.75zm1.705 0h-.56v-3.15h.56zm1.599 0h-.2v-3.15h.2zm1.477-3.141h.1v3.15h-.1zm-65.3 5.76h2.1v3.15h-2.1zm3.47 0h2.1v3.15h-2.1zm3.6 0h2.1v3.15h-2.1zm3.67 0h2.1v3.15h-2.1zm-13.92 0h2.1v3.15h-2.1zm21.5 0h2.1v3.15h-2.1zm3.92 0h2.1v3.15h-2.1zm3.95 0h2.1v3.15h-2.1zm3.91 0h2.1v3.15h-2.1zm3.72 0h2.1v3.15h-2.1zm3.77 0h2.1v3.15h-2.1zm3.86 0h1.84v3.15h-1.84zm3.55 0h1.56v3.15h-1.56zm3.32 0h1.56v3.15h-1.56zm3.24 0h1.23v3.15h-1.23zm3.05 0h.95v3.15h-.95zm-40.13 0h2.1v3.15h-2.1zm-20.6 0h1.82v3.15h-1.82zm-2.9 0h1.82v3.15h-1.82zm-2.43 0h1.43v3.15h-1.43zm-2.18 0h1.15v3.15H9.33zm-1.93 0h.75v3.15H7.4zm-1.71 0h.56v3.15h-.56zm-1.59 0h.2v3.15h-.2zm-1.52 0h.1v3.15h-.1zm78.97 3.142H80.4v-3.15h1.15zm1.929 0h-.75v-3.15h.75zm1.705 0h-.56v-3.15h.56zm1.599 0h-.2v-3.15h.2zm1.477-3.142h.1v3.15h-.1zm-65.3 5.76h2.1v3.15h-2.1zm3.47 0h2.1v3.15h-2.1zm3.6 0h2.1v3.15h-2.1zm3.67 0h2.1v3.15h-2.1zm-13.92 0h2.1v3.15h-2.1zm21.5 0h2.1v3.15h-2.1zm3.92 0h2.1v3.15h-2.1zm3.95 0h2.1v3.15h-2.1zm3.91 0h2.1v3.15h-2.1zm3.72 0h2.1v3.15h-2.1zm3.77 0h2.1v3.15h-2.1zm3.86 0h1.84v3.15h-1.84zm3.55 0h1.56v3.15h-1.56zm3.32 0h1.56v3.15h-1.56zm3.24 0h1.23v3.15h-1.23zm3.05 0h.95v3.15h-.95zm-40.13 0h2.1v3.15h-2.1zm-20.6 0h1.82v3.15h-1.82zm-2.9 0h1.82v3.15h-1.82zm-2.43 0h1.43v3.15h-1.43zm-2.18 0h1.15v3.15H9.33zm-1.93 0h.75v3.15H7.4zm-1.71 0h.56v3.15h-.56zm-1.59 0h.2v3.15h-.2zm-1.52 0h.1v3.15h-.1zm78.97 3.143H80.4v-3.15h1.15zm1.929 0h-.75v-3.15h.75zm1.705 0h-.56v-3.15h.56zm1.599 0h-.2v-3.15h.2zm1.477-3.143h.1v3.15h-.1zm-65.3 5.76h2.1v3.15h-2.1zm3.47 0h2.1v3.15h-2.1zm3.6 0h2.1v3.15h-2.1zm3.67 0h2.1v3.15h-2.1zm-13.92 0h2.1v3.15h-2.1zm21.5 0h2.1v3.15h-2.1zm3.92 0h2.1v3.15h-2.1zm3.95 0h2.1v3.15h-2.1zm3.91 0h2.1v3.15h-2.1zm3.72 0h2.1v3.15h-2.1zm3.77 0h2.1v3.15h-2.1zm3.86 0h1.84v3.15h-1.84zm3.55 0h1.56v3.15h-1.56zm3.32 0h1.56v3.15h-1.56zm3.24 0h1.23v3.15h-1.23zm3.05 0h.95v3.15h-.95zm-40.13 0h2.1v3.15h-2.1zm-20.6 0h1.82v3.15h-1.82zm-2.9 0h1.82v3.15h-1.82zm-2.43 0h1.43v3.15h-1.43zm-2.18 0h1.15v3.15H9.33zm-1.93 0h.75v3.15H7.4zm-1.71 0h.56v3.15h-.56zm-1.59 0h.2v3.15h-.2zm-1.52 0h.1v3.15h-.1zm78.97 3.144H80.4v-3.15h1.15zm1.929 0h-.75v-3.15h.75zm1.705 0h-.56v-3.15h.56zm1.599 0h-.2v-3.15h.2zm1.477-3.144h.1v3.15h-.1zm-65.3 5.76h2.1v3.15h-2.1zm3.47 0h2.1v3.15h-2.1zm3.6 0h2.1v3.15h-2.1zm3.67 0h2.1v3.15h-2.1zm-13.92 0h2.1v3.15h-2.1zm21.5 0h2.1v3.15h-2.1zm3.92 0h2.1v3.15h-2.1zm3.95 0h2.1v3.15h-2.1zm3.91 0h2.1v3.15h-2.1zm3.72 0h2.1v3.15h-2.1zm3.77 0h2.1v3.15h-2.1zm3.86 0h1.84v3.15h-1.84zm3.55 0h1.56v3.15h-1.56zm3.32 0h1.56v3.15h-1.56zm3.24 0h1.23v3.15h-1.23zm3.05 0h.95v3.15h-.95zm-40.13 0h2.1v3.15h-2.1zm-20.6 0h1.82v3.15h-1.82zm-2.9 0h1.82v3.15h-1.82zm-2.43 0h1.43v3.15h-1.43zm-2.18 0h1.15v3.15H9.33zm-1.93 0h.75v3.15H7.4zm-1.71 0h.56v3.15h-.56zm-1.59 0h.2v3.15h-.2zm-1.52 0h.1v3.15h-.1zm78.97 3.145H80.4v-3.15h1.15zm1.929 0h-.75v-3.15h.75zm1.705 0h-.56v-3.15h.56zm1.599 0h-.2v-3.15h.2zm1.477-3.145h.1v3.15h-.1zm-65.3 5.76h2.1v3.15h-2.1zm3.47 0h2.1v3.15h-2.1zm3.6 0h2.1v3.15h-2.1zm3.67 0h2.1v3.15h-2.1zm-13.92 0h2.1v3.15h-2.1zm21.5 0h2.1v3.15h-2.1zm3.92 0h2.1v3.15h-2.1zm3.95 0h2.1v3.15h-2.1zm3.91 0h2.1v3.15h-2.1zm3.72 0h2.1v3.15h-2.1zm3.77 0h2.1v3.15h-2.1zm3.86 0h1.84v3.15h-1.84zm3.55 0h1.56v3.15h-1.56zm3.32 0h1.56v3.15h-1.56zm3.24 0h1.23v3.15h-1.23zm3.05 0h.95v3.15h-.95zm-40.13 0h2.1v3.15h-2.1zm-20.6 0h1.82v3.15h-1.82zm-2.9 0h1.82v3.15h-1.82zm-2.43 0h1.43v3.15h-1.43zm-2.18 0h1.15v3.15H9.33zm-1.93 0h.75v3.15H7.4zm-1.71 0h.56v3.15h-.56zm-1.59 0h.2v3.15h-.2zm-1.52 0h.1v3.15h-.1zm78.97 3.146H80.4v-3.15h1.15zm1.929 0h-.75v-3.15h.75zm1.705 0h-.56v-3.15h.56zm1.599 0h-.2v-3.15h.2zm1.477-3.146h.1v3.15h-.1zm-65.3 5.76h2.1v3.15h-2.1zm3.47 0h2.1v3.15h-2.1zm3.6 0h2.1v3.15h-2.1zm3.67 0h2.1v3.15h-2.1zm-13.92 0h2.1v3.15h-2.1zm21.5 0h2.1v3.15h-2.1zm3.92 0h2.1v3.15h-2.1zm3.95 0h2.1v3.15h-2.1zm3.91 0h2.1v3.15h-2.1zm3.72 0h2.1v3.15h-2.1zm3.77 0h2.1v3.15h-2.1zm3.86 0h1.84v3.15h-1.84zm3.55 0h1.56v3.15h-1.56zm3.32 0h1.56v3.15h-1.56zm3.24 0h1.23v3.15h-1.23zm3.05 0h.95v3.15h-.95zm-40.13 0h2.1v3.15h-2.1zm-20.6 0h1.82v3.15h-1.82zm-2.9 0h1.82v3.15h-1.82zm-2.43 0h1.43v3.15h-1.43zm-2.18 0h1.15v3.15H9.33zm-1.93 0h.75v3.15H7.4zm-1.71 0h.56v3.15h-.56zm-1.59 0h.2v3.15h-.2zm-1.52 0h.1v3.15h-.1zm78.97 3.147H80.4v-3.15h1.15zm1.929 0h-.75v-3.15h.75zm1.705 0h-.56v-3.15h.56zm1.599 0h-.2v-3.15h.2zm1.477-3.147h.1v3.15h-.1zm-65.3 5.76h2.1v3.15h-2.1zm3.47 0h2.1v3.15h-2.1zm3.6 0h2.1v3.15h-2.1zm3.67 0h2.1v3.15h-2.1zm-13.92 0h2.1v3.15h-2.1zm21.5 0h2.1v3.15h-2.1zm3.92 0h2.1v3.15h-2.1zm3.95 0h2.1v3.15h-2.1zm3.91 0h2.1v3.15h-2.1zm3.72 0h2.1v3.15h-2.1zm3.77 0h2.1v3.15h-2.1zm3.86 0h1.84v3.15h-1.84zm3.55 0h1.56v3.15h-1.56zm3.32 0h1.56v3.15h-1.56zm3.24 0h1.23v3.15h-1.23zm3.05 0h.95v3.15h-.95zm-40.13 0h2.1v3.15h-2.1zm-20.6 0h1.82v3.15h-1.82zm-2.9 0h1.82v3.15h-1.82zm-2.43 0h1.43v3.15h-1.43zm-2.18 0h1.15v3.15H9.33zm-1.93 0h.75v3.15H7.4zm-1.71 0h.56v3.15h-.56zm-1.59 0h.2v3.15h-.2zm-1.52 0h.1v3.15h-.1zm78.97 3.148H80.4v-3.15h1.15zm1.929 0h-.75v-3.15h.75zm1.705 0h-.56v-3.15h.56zm1.599 0h-.2v-3.15h.2zm1.477-3.148h.1v3.15h-.1z" style="fill:#73bb69"/></svg>