<svg xmlns="http://www.w3.org/2000/svg" xml:space="preserve" id="Calque_1" x="0" y="0" viewBox="0 0 211.36 344.56"><style>.st4{fill:#ffd24a}</style><path d="M207.67 344.56V303.5l2.01-7.21-2.01-3.19-.5-106.14 2.52-10.4-2.52-4.02-.84-39.82 1.26-3.19v-2.43l.42-2.52v-9.73l3.35-27.67s-14.34-4.44-22.47-3.44l-1.09-9.39 1.51-3.19-3.02-3.44-2.1-60.36V5.54s2.35-.84 3.77.84c0 0 1.84-1.68.08-3.35 0 0-.92 1.76-3.86 1.51 0 0-.42-3.27 1.26-3.61 0 0-1.51-2.1-3.61 0 0 0 1.68.92 1.59 3.52 0 0-3.19.5-3.86-1.26 0 0-2.01 1.51 0 4.02 0 0 .59-2.56 3.69-1.55l-2.77 61.96-3.06 3.1 1.17 3.23-.92 10.52s-12.03-1.97-21.25 4.07l-1.26 4.53 3.44 21.29.5 12.41-.75 2.1 1.09 2.18-.59 2.6 1.76 2.93-.34 17.77s-1.01-.17-3.69.84c0 0-7.13-5.87-16.6-5.37l-23.14-13.92-.75-2.26 1.17-3.61s-1.84-2.85-9.14-2.18c0 0-.42-44.27-2.01-45.69-1.59-1.43-1.26 45.69-1.26 45.69s-7.71-1.26-9.64 2.68l.84 2.6-.25 2.68-21.18 12.59s-20.2 3.35-21.97 9.89l.59 4.36-.59 3.02-2.6-.75s-.84-5.78-.67-10.23-.02-23.39-.02-23.39l1.28-2.6-.34-2.26 1.09-2.43-.59-2.1s-.5-4.02 1.59-17.35 2.1-17.52 2.1-17.52-11.74-4.78-21.8-3.44l-1.01-10.4.92-2.35-3.1-5.45-1.33-59.1s3.1-.92 3.86 1.17c0 0 1.68-3.02-.25-3.61 0 0 .25 1.59-3.61 1.09 0 0-.25-3.19 1.43-3.52 0 0-1.68-2.1-3.69.08 0 0 1.59 0 1.59 3.27 0 0-2.26.34-4.11-.59 0 0-1.51 1.17 0 2.93 0 0 1.26-1.84 3.61-.84l-1.93 59.19L21.05 71l1.26 2.6L21.05 84S6.88 83.5.01 88.36c0 0 .84 13.92 2.85 25.49l-.08 9.73.5 2.52-.42 2.18 1.26 2.43.25 31.86-3.1 12.49 1.09 5.62 1.51 7.21-.26 103.62-2.85 3.98 2.14 6.92.25 35.84z" style="fill:#f8ab09"/><path d="m200.71 164.58-5.41-1.38s-2.26-44.52 1.26-46.28 4.15 11.19 4.15 47.66m-33.83 0 5.41-1.38s2.26-44.52-1.26-46.28-4.15 11.19-4.15 47.66m20.75-1.88h-7.04v-44.14s.75-3.02 3.52-3.14c2.77-.13 3.52 3.4 3.52 3.4zm-144.27.25-5.41-1.38s-2.26-44.52 1.26-46.28 4.15 11.19 4.15 47.66m-33.83 0 5.41-1.38s2.26-44.52-1.26-46.28-4.15 11.19-4.15 47.66m20.75-1.89h-7.04v-44.14s.75-3.02 3.52-3.14 3.52 3.4 3.52 3.4zm71.46 113.06h11.32l-.63-60.99s-1.38-4.78-5.03-5.41-5.78 3.9-5.66 5.16 0 61.24 0 61.24m23.39.88 9.05 1.63-.63-60.36s.15-6.02-4.65-6.04c-6.04-.02-5.28 7.17-5.28 7.17zm-36.25 0-9.05 1.63.63-60.36s-.15-6.02 4.65-6.04c6.04-.02 5.28 7.17 5.28 7.17z" class="st4"/><circle cx="26.79" cy="192.88" r="4.65" class="st4"/><circle cx="26.76" cy="236.01" r="4.65" class="st4"/><circle cx="26.72" cy="279.04" r="4.65" class="st4"/><circle cx="184.46" cy="193.28" r="4.65" class="st4"/><circle cx="184.44" cy="236.41" r="4.65" class="st4"/><circle cx="184.4" cy="279.44" r="4.65" class="st4"/><path d="M22.11 309.04h4.62v13.08h-4.62zm6.2 0h4.62v13.08h-4.62zm151.08 1.17h4.62v13.08h-4.62zm6.2 0h4.62v13.08h-4.62z" class="st4"/></svg>