<svg xmlns="http://www.w3.org/2000/svg" xml:space="preserve" id="Calque_1" x="0" y="0" viewBox="0 0 751.58 123.91"><style>.st0{fill:#223364}</style><path d="M0 82.75v41.16h751.58V37.06L523.07 78.93l-192.51-19.3L9.88 69.25z" class="st0"/><path d="M483.09 71.02c24.97 13.17 58.19 25.57 111.54 4.76 33.34-13 56.55-27.64 80.28-35.53-85.71-28.41-108.05 28.86-191.82 30.77M356.61 53.09c-116.94 44.63-176.99-67.62-229.13-5.41-2.94 3.5-6.37 6.65-10.02 9.63 16.62 3.11 34.11 8.12 52.69 16.07 161.18 68.97 145.71-31.72 250.17 8.13 38.45 14.67 47.93-8.89 62.78-10.48-33.47-17.66-59.53-43.49-126.49-17.94" style="fill:#47a9e0"/><path d="M609.98 59.59c-53.89-31.11-66.59 28.41-128.41.01-18.96-8.71-34.6-7.26-48.64-3.61 71.03 21.13 129.12 58.49 191.32 21.18C668.95 50.35 711.99 49.1 746.28 56c2.74.55 5.29-1.52 5.29-4.3v-7.63C639.7 10.29 661.18 89.14 609.98 59.59M279.18 25.2c-49.67 32.21-94.24 36.14-136.35 32.76 103.31 73.02 153.44-38.73 201.14-2.71 33.96 25.65 58.6-20.23 90.25-34.36-44.68-22.8-95.75-34.14-155.04 4.31" style="fill:#204e8f"/><path d="M624.47 56.56c-62.09 63.78-120.08.12-190.98-36.01-31.69 14.12-55.07 59.34-89.08 33.7-47.77-36.01-104.32 65.12-202.13 3.44C81.83 32.86 50.4 39.01 9.99 43.15c-1.92.2-3.77.84-5.37 1.92-.51.34-1.02.69-1.53 1.04A7.16 7.16 0 0 0 0 51.99v30.57c0 4.15 4.27 6.89 8.07 5.22 43.88-19.39 100.73-26.84 160.71 12.7C298.52 186.01 361.81 3.39 478.9 88.92c105.9 77.36 193.65-77.19 272.68-40.85V27.12c0-2.92-1.83-5.54-4.58-6.51-34.35-12.05-77.6-10.21-122.53 35.95" class="st0"/><path d="M124.8 51.13C77.44 42.28 30.73 56.97 0 71.44v11.3c0 4.09 3.35 7.39 7.44 7.3 41.33-.95 88.33 5.52 117.36-38.91" style="fill:#5bb0e0"/></svg>