<?xml version="1.0" encoding="utf-8"?>
<!-- Generator: Adobe Illustrator 28.0.0, SVG Export Plug-In . SVG Version: 6.00 Build 0)  -->
<svg version="1.1" id="Calque_1" xmlns="http://www.w3.org/2000/svg" xmlns:xlink="http://www.w3.org/1999/xlink" x="0px" y="0px"
	 viewBox="0 0 751.58 123.91" style="enable-background:new 0 0 751.58 123.91;" xml:space="preserve">
<style type="text/css">
	.st0{fill:#223364;}
	.st1{fill:#517CBE;}
	.st2{fill:#64C7F2;}
	.st3{fill:#F8AB09;}
	.st4{fill:#FFD24A;}
	.st5{fill:#32A853;}
	.st6{fill:#73BB69;}
	.st7{fill:#E84436;}
	.st8{fill:#EE7CAD;}
	.st9{fill:#47A9E0;}
	.st10{fill:#204E8F;}
	.st11{fill:#5BB0E0;}
</style>
<polygon class="st0" points="0,82.75 0,123.91 751.58,123.91 751.58,37.06 523.07,78.93 330.56,59.63 9.88,69.25 "/>
<g>
	<path class="st9" d="M483.09,71.02c24.97,13.17,58.19,25.57,111.54,4.76c33.34-13,56.55-27.64,80.28-35.53
		C589.2,11.84,566.86,69.11,483.09,71.02z"/>
	<path class="st9" d="M356.61,53.09c-116.94,44.63-176.99-67.62-229.13-5.41c-2.94,3.5-6.37,6.65-10.02,9.63
		c16.62,3.11,34.11,8.12,52.69,16.07c161.18,68.97,145.71-31.72,250.17,8.13c38.45,14.67,47.93-8.89,62.78-10.48
		C449.63,53.37,423.57,27.54,356.61,53.09z"/>
	<path class="st10" d="M609.98,59.59C556.09,28.48,543.39,88,481.57,59.6c-18.96-8.71-34.6-7.26-48.64-3.61
		c71.03,21.13,129.12,58.49,191.32,21.18C668.95,50.35,711.99,49.1,746.28,56c2.74,0.55,5.29-1.52,5.29-4.3v-7.63
		C639.7,10.29,661.18,89.14,609.98,59.59z"/>
	<path class="st10" d="M279.18,25.2c-49.67,32.21-94.24,36.14-136.35,32.76c103.31,73.02,153.44-38.73,201.14-2.71
		c33.96,25.65,58.6-20.23,90.25-34.36C389.54-1.91,338.47-13.25,279.18,25.2z"/>
	<path class="st0" d="M624.47,56.56c-62.09,63.78-120.08,0.12-190.98-36.01c-31.69,14.12-55.07,59.34-89.08,33.7
		c-47.77-36.01-104.32,65.12-202.13,3.44C81.83,32.86,50.4,39.01,9.99,43.15c-1.92,0.2-3.77,0.84-5.37,1.92
		c-0.51,0.34-1.02,0.69-1.53,1.04C1.16,47.45,0,49.64,0,51.99l0,30.57c0,4.15,4.27,6.89,8.07,5.22
		c43.88-19.39,100.73-26.84,160.71,12.7C298.52,186.01,361.81,3.39,478.9,88.92c105.9,77.36,193.65-77.19,272.68-40.85V27.12
		c0-2.92-1.83-5.54-4.58-6.51C712.65,8.56,669.4,10.4,624.47,56.56z"/>
	<g>
		<path class="st11" d="M124.8,51.13C77.44,42.28,30.73,56.97,0,71.44v11.3c0,4.09,3.35,7.39,7.44,7.3
			C48.77,89.09,95.77,95.56,124.8,51.13z"/>
	</g>
</g>
</svg>
