<?xml version="1.0" encoding="utf-8"?>
<!-- Generator: Adobe Illustrator 28.0.0, SVG Export Plug-In . SVG Version: 6.00 Build 0)  -->
<svg version="1.1" id="Calque_1" xmlns="http://www.w3.org/2000/svg" xmlns:xlink="http://www.w3.org/1999/xlink" x="0px" y="0px"
	 viewBox="0 0 237.43 300.18" style="enable-background:new 0 0 237.43 300.18;" xml:space="preserve">
<style type="text/css">
	.st0{fill:#223364;}
	.st1{fill:#517CBE;}
	.st2{fill:#64C7F2;}
	.st3{fill:#F8AB09;}
	.st4{fill:#FFD24A;}
	.st5{fill:#32A853;}
	.st6{fill:#73BB69;}
	.st7{fill:#E84436;}
	.st8{fill:#EE7CAD;}
	.st9{fill:#47A9E0;}
	.st10{fill:#204E8F;}
	.st11{fill:#5BB0E0;}
</style>
<g>
	<g>
		<path class="st1" d="M4.4,299.18V178.83c0-0.17-0.04-0.34-0.13-0.49L1,172.53v-6.54l1.71-0.86c0.34-0.17,0.55-0.52,0.55-0.89
			v-9.98l1.49-9.63l1.54,9.51v10.11c0,0.55,0.45,1,1,1h4.9c0.55,0,1-0.44,1-0.99l0.75-112.43l0.63-31.21
			c0.04,0.01,0.09,0.01,0.13,0.01c0.06,0,0.12-0.01,0.18-0.02l1.38-0.25c0.43-0.08,0.76-0.43,0.81-0.86l0.06-0.48
			c0.12,0.42,0.51,0.72,0.96,0.72h4.4c0.49,0,0.91-0.36,0.99-0.85l0.46-3.04l0.32,3.98c0.03,0.39,0.28,0.72,0.65,0.86l4.4,1.63
			c0.11,0.04,0.23,0.06,0.35,0.06c0.18,0,0.36-0.05,0.52-0.14c0.26-0.16,0.44-0.43,0.47-0.73l0.92-7.15l0.86,10.62
			c0.04,0.52,0.47,0.92,0.99,0.92c0,0,40.87,0.13,40.87,0.13c0.51,0,0.94-0.39,1-0.9l1.1-10.93l0.93,16.67l0,11.39
			c0,0.55,0.45,1,1,1h1.63c0.52,0,0.96-0.4,1-0.92l0.34-4.31l0.56,4.6l1.12,27.59c0.02,0.45,0.34,0.83,0.78,0.93
			c0.07,0.02,0.15,0.02,0.22,0.02c0.37,0,0.71-0.2,0.88-0.53l36.05-68.43l33.97,69.53c0.17,0.35,0.52,0.56,0.9,0.56
			c0.07,0,0.14-0.01,0.21-0.02c0.45-0.1,0.78-0.49,0.79-0.95l0.75-27.29l0.76-6.04l0.38,5.08c0.04,0.48,0.42,0.87,0.9,0.92
			l1.26,0.13c0.03,0,0.07,0,0.1,0c0.23,0,0.46-0.08,0.64-0.23c0.21-0.17,0.33-0.42,0.35-0.69l0.88-11.44c0-0.03,0-0.07,0-0.1
			c-0.1-3.8,0.09-8.2,0.35-12.17l0.42,4.98c0.04,0.51,0.47,0.91,0.98,0.92c0,0,41.76,0.5,41.76,0.5c0.51,0,0.95-0.39,1-0.9l0.7-7.14
			l0.2,2.35c0.03,0.3,0.18,0.57,0.43,0.74c0.17,0.12,0.37,0.18,0.57,0.18c0.09,0,0.18-0.01,0.27-0.04l4.53-1.26
			c0.4-0.11,0.69-0.46,0.73-0.87l0.31-3.42l0.48,2.86c0.08,0.47,0.47,0.81,0.94,0.83c0,0,2.92,0.13,2.94,0.13
			c0.51,0,0.94-0.39,0.99-0.9l0.1-0.95l0.17,2.31c0.04,0.49,0.42,0.88,0.91,0.92c0.03,0,0.06,0,0.09,0c0.45,0,0.85-0.3,0.97-0.75
			l0.43-1.65l0.37,9.61L224.23,165c0,0.55,0.45,0.99,1,0.99h5.28c0.55,0,1-0.45,1-1v-8.83l1.72-9.08l2.07,9.35v8.57
			c0,0.36,0.2,0.7,0.51,0.87l0.62,0.34v7.74l-2.17,4.58c-0.06,0.13-0.1,0.28-0.1,0.43v120.23H4.4z"/>
		<path class="st1" d="M120.91,4.42l33.1,67.76c0.34,0.7,1.04,1.12,1.8,1.12c0.14,0,0.28-0.01,0.42-0.05
			c0.9-0.19,1.55-0.98,1.58-1.9l0.74-26.72c0.28,0.2,0.6,0.33,0.96,0.36l1.26,0.13c0.07,0.01,0.13,0.01,0.2,0.01
			c0.47,0,0.92-0.16,1.28-0.47c0.41-0.35,0.67-0.84,0.71-1.38l0.88-11.44c0.01-0.07,0.01-0.14,0.01-0.2
			c-0.04-1.7-0.03-3.53,0.02-5.39c0.22,0.09,0.47,0.14,0.72,0.14l41.75,0.5c0.01,0,0.02,0,0.02,0c1.03,0,1.89-0.78,1.99-1.81
			l0.3-3.07c0.19,0.06,0.4,0.09,0.6,0.09c0.18,0,0.36-0.02,0.54-0.07l4.53-1.26c0.49-0.14,0.9-0.45,1.16-0.87
			c0.29,0.18,0.62,0.29,0.98,0.31l2.89,0.13c0.03,0,0.06,0,0.09,0c0.12,0,0.24-0.01,0.35-0.03c0.23,0.76,0.91,1.33,1.73,1.41
			c0.06,0.01,0.12,0.01,0.18,0.01c0.18,0,0.36-0.02,0.52-0.07l0.24,6.29L223.23,165c0.01,1.1,0.9,1.99,2,1.99h5.28c1.1,0,2-0.9,2-2
			v-8.74l0.79-4.2l0.99,4.48v8.46c0,0.73,0.39,1.4,1.03,1.75l0.1,0.06v6.92l-2.07,4.37c-0.13,0.27-0.19,0.56-0.19,0.86v119.23H5.4
			V178.83c0-0.34-0.09-0.68-0.26-0.98L2,172.27v-5.66l1.16-0.58c0.68-0.34,1.11-1.03,1.11-1.79v-9.91l0.5-3.21l0.53,3.1v10.02
			c0,1.1,0.9,2,2,2h4.9c1.1,0,1.99-0.89,2-1.99l0.75-112.4l0.61-30.36l0.89-0.16c0.46-0.08,0.86-0.32,1.15-0.66
			c0.16,0.04,0.33,0.06,0.5,0.06h4.4c0.33,0,0.64-0.08,0.92-0.22c0.21,0.5,0.62,0.91,1.15,1.11l4.4,1.63
			c0.23,0.08,0.46,0.13,0.7,0.13c0.36,0,0.72-0.1,1.03-0.29c0.21-0.13,0.4-0.29,0.55-0.49l0.2,2.46c0.08,1.04,0.95,1.83,1.99,1.84
			l40.87,0.13c0,0,0,0,0.01,0c0.75,0,1.41-0.41,1.75-1.04l0.27,4.88v11.39c0,1.1,0.9,2,2,2h1.63c0.34,0,0.67-0.09,0.95-0.24
			l1.07,26.24c0.04,0.9,0.68,1.67,1.56,1.87c0.15,0.03,0.29,0.05,0.44,0.05c0.73,0,1.42-0.4,1.77-1.07L120.91,4.42 M234.7,144.68
			L234.7,144.68L234.7,144.68 M5.74,144.77L5.74,144.77L5.74,144.77 M120.98,0L84.01,70.17l-1.13-27.67l-1.76-14.46l-1.13,14.21
			h-1.63V30.81L76.71,1.38l-2.39,23.64L33.45,24.9L31.82,4.78l-2.14,16.6l-4.4-1.63L24.27,7.17l-1.76,11.57h-4.4L17.48,8.17
			L16.1,19.37l-1.38,0.25L13.83,8.3l-0.88,43.51L12.2,164.24h-4.9v-10.19l-1.65-9.6c-0.09-0.53-0.51-0.79-0.94-0.79
			c-0.43,0-0.86,0.27-0.94,0.81l-1.5,9.71v10.06L0,165.37v7.42l3.4,6.04v121.36h231.77V178.95l2.26-4.78v-8.55l-1.13-0.63v-8.68
			l-2.66-12.02c-0.05-0.24-0.25-0.36-0.45-0.36c-0.2,0-0.41,0.13-0.45,0.37l-2.22,11.76v8.93h-5.28l-0.75-137.07l-0.63-16.35
			l-2.14,8.17L220.7,6.29l-1.26,12.07l-2.89-0.13l-1.76-10.56l-1.01,11.19l-4.53,1.26l-1.13-13.2l-1.76,17.98l-41.75-0.5
			l-1.38-16.47c0,0-1.63,13.83-1.38,23.77l-0.88,11.44l-1.26-0.13l-1.13-14.97l-2.01,15.97l-0.75,27.29L120.98,0L120.98,0z"/>
	</g>
	<polygon class="st2" points="30.56,300.18 30.56,253.78 51.56,204.35 72.56,253.4 72.56,300.18 	"/>
	<polygon class="st2" points="165.94,300.18 165.94,253.78 186.94,204.35 207.94,253.4 207.94,300.18 	"/>
	<polygon class="st2" points="85.89,300.18 85.89,254.66 119.59,161.72 153.42,256.8 153.42,300.18 	"/>
	<polygon class="st2" points="35.3,153.57 62.29,153.57 62.29,117.29 54.41,87.78 48.79,112.93 42.84,85.43 35.3,116.62 	"/>
	<polygon class="st2" points="176.31,153.57 203.31,153.57 203.31,117.29 195.43,87.78 189.81,112.93 183.86,85.43 176.31,116.62 	
		"/>
	<circle class="st2" cx="120.48" cy="117.04" r="28.67"/>
	<path class="st2" d="M114.61,69.04h10.9c0,0,5.03-35.21-5.45-35.04C109.58,34.16,114.61,69.04,114.61,69.04z"/>
	<path class="st2" d="M180.92,71.89h10.9c0,0,5.03-31.5-5.45-31.35C175.89,40.69,180.92,71.89,180.92,71.89z"/>
	<path class="st2" d="M47.79,71.89h10.9c0,0,5.03-31.5-5.45-31.35C42.76,40.69,47.79,71.89,47.79,71.89z"/>
</g>
</svg>
