<svg xmlns="http://www.w3.org/2000/svg" xml:space="preserve" id="Calque_1" x="0" y="0" viewBox="0 0 237.43 300.18"><style>.st1{fill:#517cbe}.st2{fill:#64c7f2}</style><path d="M4.4 299.18V178.83c0-.17-.04-.34-.13-.49L1 172.53v-6.54l1.71-.86a1 1 0 0 0 .55-.89v-9.98l1.49-9.63 1.54 9.51v10.11c0 .55.45 1 1 1h4.9c.55 0 1-.44 1-.99l.75-112.43.63-31.21c.04.01.09.01.13.01.06 0 .12-.01.18-.02l1.38-.25c.43-.08.76-.43.81-.86l.06-.48c.12.42.51.72.96.72h4.4c.49 0 .91-.36.99-.85l.46-3.04.32 3.98c.03.39.28.72.65.86l4.4 1.63c.11.04.23.06.35.06.18 0 .36-.05.52-.14.26-.16.44-.43.47-.73l.92-7.15.86 10.62c.04.52.47.92.99.92l40.87.13c.51 0 .94-.39 1-.9l1.1-10.93.93 16.67v11.39c0 .55.45 1 1 1h1.63c.52 0 .96-.4 1-.92l.34-4.31.56 4.6 1.12 27.59a1 1 0 0 0 .78.93c.07.02.15.02.22.02.37 0 .71-.2.88-.53L120.9 2.21l33.97 69.53c.17.35.52.56.9.56.07 0 .14-.01.21-.02.45-.1.78-.49.79-.95l.75-27.29.76-6.04.38 5.08c.04.48.42.87.9.92l1.26.13h.1c.23 0 .46-.08.64-.23a.97.97 0 0 0 .35-.69l.88-11.44v-.1c-.1-3.8.09-8.2.35-12.17l.42 4.98c.04.51.47.91.98.92l41.76.5c.51 0 .95-.39 1-.9l.7-7.14.2 2.35c.03.3.18.57.43.74a.99.99 0 0 0 .84.14l4.53-1.26c.4-.11.69-.46.73-.87l.31-3.42.48 2.86c.08.47.47.81.94.83l2.94.13c.51 0 .94-.39.99-.9l.1-.95.17 2.31c.04.49.42.88.91.92h.09c.45 0 .85-.3.97-.75l.43-1.65.37 9.61.8 137.05c0 .55.45.99 1 .99h5.28c.55 0 1-.45 1-1v-8.83l1.72-9.08 2.07 9.35V165c0 .36.2.7.51.87l.62.34v7.74l-2.17 4.58c-.06.13-.1.28-.1.43v120.23H4.4z" class="st1"/><path d="m120.91 4.42 33.1 67.76c.34.7 1.04 1.12 1.8 1.12.14 0 .28-.01.42-.05.9-.19 1.55-.98 1.58-1.9l.74-26.72c.28.2.6.33.96.36l1.26.13c.07.01.13.01.2.01.47 0 .92-.16 1.28-.47.41-.35.67-.84.71-1.38l.88-11.44c.01-.07.01-.14.01-.2-.04-1.7-.03-3.53.02-5.39.22.09.47.14.72.14l41.75.5h.02c1.03 0 1.89-.78 1.99-1.81l.3-3.07c.19.06.4.09.6.09.18 0 .36-.02.54-.07l4.53-1.26c.49-.14.9-.45 1.16-.87.29.18.62.29.98.31l2.89.13h.09c.12 0 .24-.01.35-.03.23.76.91 1.33 1.73 1.41.06.01.12.01.18.01.18 0 .36-.02.52-.07l.24 6.29.77 137.05c.01 1.1.9 1.99 2 1.99h5.28c1.1 0 2-.9 2-2v-8.74l.79-4.2.99 4.48v8.46c0 .73.39 1.4 1.03 1.75l.1.06v6.92l-2.07 4.37c-.13.27-.19.56-.19.86v119.23H5.4V178.83c0-.34-.09-.68-.26-.98L2 172.27v-5.66l1.16-.58a2 2 0 0 0 1.11-1.79v-9.91l.5-3.21.53 3.1v10.02c0 1.1.9 2 2 2h4.9c1.1 0 1.99-.89 2-1.99l.75-112.4.61-30.36.89-.16c.46-.08.86-.32 1.15-.66.16.04.33.06.5.06h4.4c.33 0 .64-.08.92-.22.21.5.62.91 1.15 1.11l4.4 1.63c.23.08.46.13.7.13.36 0 .72-.1 1.03-.29.21-.13.4-.29.55-.49l.2 2.46c.08 1.04.95 1.83 1.99 1.84l40.87.13h.01c.75 0 1.41-.41 1.75-1.04l.27 4.88v11.39c0 1.1.9 2 2 2h1.63c.34 0 .67-.09.95-.24l1.07 26.24a2.013 2.013 0 0 0 2 1.92c.73 0 1.42-.4 1.77-1.07zm.07-4.42L84.01 70.17 82.88 42.5l-1.76-14.46-1.13 14.21h-1.63V30.81L76.71 1.38l-2.39 23.64-40.87-.12-1.63-20.12-2.14 16.6-4.4-1.63-1.01-12.58-1.76 11.57h-4.4l-.63-10.57-1.38 11.2-1.38.25-.89-11.32-.88 43.51-.75 112.43H7.3v-10.19l-1.65-9.6c-.09-.53-.51-.79-.94-.79s-.86.27-.94.81l-1.5 9.71v10.06L0 165.37v7.42l3.4 6.04v121.36h231.77V178.95l2.26-4.78v-8.55l-1.13-.63v-8.68l-2.66-12.02a.446.446 0 0 0-.45-.36c-.2 0-.41.13-.45.37l-2.22 11.76v8.93h-5.28l-.75-137.07-.63-16.35-2.14 8.17-1.02-13.45-1.26 12.07-2.89-.13-1.76-10.56-1.01 11.19-4.53 1.26-1.13-13.2-1.76 17.98-41.75-.5-1.38-16.47s-1.63 13.83-1.38 23.77l-.88 11.44-1.26-.13-1.13-14.97-2.01 15.97-.75 27.29z" class="st1"/><path d="M30.56 300.18v-46.4l21-49.43 21 49.05v46.78zm135.38 0v-46.4l21-49.43 21 49.05v46.78zm-80.05 0v-45.52l33.7-92.94 33.83 95.08v43.38zM35.3 153.57h26.99v-36.28l-7.88-29.51-5.62 25.15-5.95-27.5-7.54 31.19zm141.01 0h27v-36.28l-7.88-29.51-5.62 25.15-5.95-27.5-7.55 31.19z" class="st2"/><circle cx="120.48" cy="117.04" r="28.67" class="st2"/><path d="M114.61 69.04h10.9s5.03-35.21-5.45-35.04c-10.48.16-5.45 35.04-5.45 35.04m66.31 2.85h10.9s5.03-31.5-5.45-31.35-5.45 31.35-5.45 31.35m-133.13 0h10.9s5.03-31.5-5.45-31.35-5.45 31.35-5.45 31.35" class="st2"/></svg>