<svg width="246" height="62" viewBox="0 0 246 62" fill="none" xmlns="http://www.w3.org/2000/svg">
<path d="M160.478 60.9028H142.226L132.984 46.9127L142.084 33.0547L160.478 60.9028Z" fill="#FF8D4E"/>
<path d="M161.422 0.234375H143.183L134.148 12.733L143.313 25.5088L161.422 0.234375Z" fill="#92929A"/>
<path d="M140.588 29.3718L119.683 0.335938H101.432L122.272 29.3718L101.367 61.0077H119.605L140.588 29.3718Z" fill="#2C233D"/>
<path d="M31.6703 22.6494L55.9016 0.09375H63.0208V60.9371H47.2679V29.7104L31.7351 44.2283L15.9951 29.7895V60.9371H0.242188V0.09375H7.32258L31.6703 22.6494Z" fill="#2C233D"/>
<path d="M74.5234 0.09375H90.1987V60.9371H74.5234V0.09375Z" fill="#2C233D"/>
<path d="M173.086 0.09375H188.761V60.9371H173.086V0.09375Z" fill="#FF8D4E"/>
<path d="M198.437 0.09375H245.398V15.9315H229.594V60.9371H213.931V15.9315H198.398L198.437 0.09375Z" fill="#FF8D4E"/>
</svg>
