<svg version="1.2" xmlns="http://www.w3.org/2000/svg" viewBox="0 0 1384 4931" width="1384" height="4931">
	<title>curtain_flat_design-ai</title>
	<style>
		.s0 { opacity: .1;fill: #000000 } 
		.s1 { fill: #ef7918 }
		.s2 { opacity: .2;fill: #000000 } 
		.s3 { fill: #ffffff }
	</style>
	<g id="Layer 1">
		<g id="&lt;Group&gt;">
			<g id="&lt;Group&gt;">
				<path id="&lt;Path&gt;" class="s0" d="m802 3550.1c-128.8 643.1-151.1 1282.2-153.8 1373.9 23.6-1.7 32.5-27.4 32.5-27.4l64.6-46.9 204-1173.9-261.5-3675.3h-687.6c151.3 2487.3 801.8 3549.6 801.8 3549.6z"/>
				<path id="&lt;Path&gt;" class="s1" d="m815.3 3550.5c-132 859.4-134.6 1346.1-134.6 1346.1 30.1 35.1 53.9 31.1 69.2 20.7 5.5-3.8 9.9-8.4 13.1-12.3 3.8-4.7 5.7-8.4 5.7-8.4l91.2-23.7 12.4-3.2 16.7-4.4v-4864.8h-848.1c131.4 2283.4 774.4 3550 774.4 3550z"/>
				<path id="&lt;Path&gt;" class="s0" d="m851.8 3550.5c-66.2 612.5-96.9 1256-101.9 1366.8 5.5-3.8 9.9-8.4 13.1-12.3 3.8-4.7 5.7-8.4 5.7-8.4l91.2-23.7 7.8-3.2 12.3-20.8 4.5-173.8 4.5-178.1 46.5-1810.8 68.9-2685.7h-761.6c200.4 2548 609 3550 609 3550z"/>
				<path id="&lt;Path&gt;" class="s1" d="m869.7 3550.5c-72.8 673.1-101 1346.1-101 1346.1 32.9 39.9 63.9 30.2 82.6 17.2 11.5-8 18.4-17.2 18.4-17.2l28.2-47.7 55.5-2162.7 68.9-2685.7h-721.6c200.4 2548 569 3550 569 3550z"/>
				<path id="&lt;Path&gt;" class="s0" d="m906.5 3544.3c0 0-62.2 808-55.2 1369.5 11.5-8 18.4-17.2 18.4-17.2l28.2-47.7 55.5-2162.7-53.5-2685.7h-408.2c0 0 140.9 2704.8 414.8 3543.8z"/>
				<path id="&lt;Path&gt;" class="s1" d="m920.2 3545.9c-25.1 262.9-50.5 1350.7-50.5 1350.7 36.7 35.4 61.6 36.2 77.5 27.8 2.4-1.3 4.6-2.8 6.6-4.4 4.5-3.6 8-7.8 10.6-11.6 4.3-6.4 6.2-11.8 6.2-11.8l51.7-4896.1h-471.1c137.7 2704.6 369 3545.4 369 3545.4z"/>
				<path id="&lt;Path&gt;" class="s1" d="m1384 4896.6c0 0-84.7 75.9-173.9 0v-4896.1h173.9z"/>
				<path id="&lt;Path&gt;" class="s1" d="m1210.1 4896.6c0 0-48.5 65.8-126.8 0v-4896.1h126.8z"/>
				<path id="&lt;Path&gt;" class="s0" d="m1210.1 0.5v4896.1c0 0-14 19-39.1 26.4v-4922.5z"/>
				<path id="&lt;Path&gt;" class="s0" d="m949.3 3528.6l-2.1 1395.8c2.4-1.3 4.6-2.8 6.6-4.4 4.5-3.6 8-7.8 10.6-11.6 4.3-6.4 6.2-11.8 6.2-11.8l51.7-4896.1h-250.4c0 2265.8 177.4 3528.1 177.4 3528.1z"/>
				<path id="&lt;Path&gt;" class="s1" d="m1083.3 4896.6c0 0-63.3 66.6-112.6 0v-1369.5c0 0-155.4-1260.8-155.4-3526.6h268z"/>
				<path id="&lt;Path&gt;" class="s0" d="m1083.3 0.5v4896.1c0 0-15.7 16.5-37.5 24.9v-4921z"/>
				<path id="&lt;Path&gt;" class="s2" d="m801 3589.4q1.6 0.6 3.3 0.8c43.2 3.5 267.6 15.5 579.7-81.2v-106c0 0-287.5 115.9-564.1 131.9q1.2 1.2 1.2 1.2-10.4 26.8-20.1 53.3z"/>
				<path id="&lt;Path&gt;" class="s3" d="m805.7 3508.5c278.9-10 578.3-130.7 578.3-130.7v104.1c-306.5 95-526.8 83.2-569.2 79.7-4.5-0.4-8.3-3.4-9.6-7.7l-9.7-31.1c-2.2-7 2.9-14 10.2-14.3z"/>
			</g>
		</g>
	</g>
</svg>