<?xml version="1.0" encoding="UTF-8"?><svg id="a" xmlns="http://www.w3.org/2000/svg" width="415.31" height="135.6" viewBox="0 0 415.31 135.6"><defs><style>.b{fill:#e6147c;}.c{fill:#ef7918;}.d{fill:#f07f25;}.e{fill:#03b7d5;}</style></defs><g><g><path class="e" d="M133.74,26.97h9.03c12.31,0,17.26,4.85,17.26,16.97s-4.94,16.97-17.26,16.97h-9.03V26.97Zm9.04,30.62c9.75,0,13.65-3.9,13.65-13.65s-3.9-13.65-13.65-13.65h-5.56v27.29h5.56Z"/><path class="e" d="M185.28,51.98h-18.21c.67,3.47,3.66,6.32,7.37,6.32,2.42,0,4.47-1.19,5.8-2.9h3.95c-1.76,3.61-5.52,6.04-9.75,6.04-5.94,0-10.84-5.09-10.84-10.94s4.9-10.84,10.84-10.84,10.84,4.9,10.84,10.84v1.48Zm-18.21-3.04h14.74c-.71-3.47-3.71-6.13-7.37-6.13-3.71,0-6.66,2.66-7.37,6.13Z"/><path class="e" d="M186.23,40h3.47l6.89,16.69,6.85-16.69h3.47l-8.61,20.92h-3.47l-8.6-20.92Z"/><path class="e" d="M211.9,60.92v-18.02h-2.81v-2.9h2.81v-2.85c0-5.13,.14-11.22,7.66-10.17v2.95c-4.9-.62-4.47,4.14-4.47,7.23v2.84h4.23v2.9h-4.23v18.02h-3.19Z"/><path class="e" d="M242.33,51.98h-18.21c.67,3.47,3.66,6.32,7.37,6.32,2.42,0,4.47-1.19,5.8-2.9h3.95c-1.76,3.61-5.52,6.04-9.75,6.04-5.94,0-10.84-5.09-10.84-10.94s4.9-10.84,10.84-10.84,10.84,4.9,10.84,10.84v1.48h0Zm-18.21-3.04h14.74c-.71-3.47-3.71-6.13-7.37-6.13-3.71,0-6.66,2.66-7.37,6.13Z"/><path class="e" d="M258.25,45.14c-.29-1.43-1.85-2.47-4.33-2.47s-4.28,1.19-4.28,2.76,1.38,2.47,4.8,3.14c5.37,1.09,7.51,2.95,7.51,6.42,0,3.66-2.81,6.28-8.04,6.28-4.71,0-7.85-2.62-8.04-6.28h2.9c.29,1.76,2.43,3.28,5.14,3.28,3.09,0,5.13-1.38,5.13-3.28,0-2-1.33-2.66-5.13-3.42-4.99-1-7.23-2.81-7.23-6.13s2.47-5.75,7.23-5.75c4.14,0,6.89,2.28,7.23,5.47h-2.89v-.02Z"/><path class="e" d="M271.61,42.9v18.02h-3.19v-18.02h-3.14v-2.9h3.14v-8.23h3.19v8.23h4.71v2.9h-4.71Z"/></g><g><path class="c" d="M133.74,72.71h4.77v42.06h21.49v4.57h-26.25v-46.63h0Z"/><path class="c" d="M167.18,72.71h4.77v46.63h-4.77v-46.63Z"/><path class="c" d="M182.4,72.71h4.77v42.06h21.49v4.57h-26.26v-46.63Z"/><path class="c" d="M215.84,72.71h4.77v42.06h21.49v4.57h-26.25v-46.63h-.01Z"/><path class="c" d="M249.28,72.71h27.04v4.57h-22.27v13.06h20.96v4.57h-20.96v19.85h22.27v4.57h-27.04v-46.62Z"/></g></g><g><path class="b" d="M60.93,74.89C65.7,52.16,82.46,12.63,55.81,.23l-.12-.23c-18.84,19.22-13.01,58.73,5.24,74.89"/><path class="e" d="M68.93,77.65c-3.33-34.14,56.24-56.69,40-13.65-11.04-13.51-30.95,5.52-40,13.65"/><path class="e" d="M47.01,74.95C48.15,46.6,4.58,34.03,0,66.9c15.13-9.82,33.46,.74,46.81,9.25"/><path class="e" d="M55.75,94.37c-2.62,7.24-17.05,35.73-21.27,22.04"/><path class="e" d="M65.43,95.87c-3.42,7.16,7.51,27.52,12.92,15.18"/><path class="d" d="M39.67,83.65c-.94,2.51-1.88,5.02-2.81,7.53,6.63-.14,13.28-.43,19.91-.88,7.22-.49,14.56-1.15,21.58-.46,.58,.06,1.23,.12,1.76-.07,.48-.17,.71-.49,.9-.79,1.51-2.43,2.31-4.99,2.35-7.51,0-.19-.01-.41-.25-.54s-.63-.13-.98-.12l-38.64,1.17c-.83,.03-1.69,.06-2.44,.29s-1.32,.75-1.07,1.18"/><path class="b" d="M59.75,95.84s-6.78,33.71-1.01,38.51c11.48,9.54,1.01-38.51,1.01-38.51Z"/></g><g><path class="b" d="M298.27,106.51c0-30.46,45.69-30.46,45.69-52.17,0-10.28-5.84-18.4-17.39-18.4s-18.15,7.87-18.15,18.4h-9.65c-.38-15.74,10.41-27.67,27.8-27.67,14.85,0,27.42,8.89,27.42,27.67,0,29.45-45.31,29.45-45.31,52.17v3.93h44.81v8.88h-55.21v-12.82Z"/><path class="b" d="M392.97,94.07h-41.63v-8.88l40.87-56.48h10.03v56.48h13.07v8.88h-13.07v25.26h-9.27v-25.26Zm0-8.88V42.54l-30.59,42.65h30.59Z"/></g></svg>