<?xml version="1.0" encoding="UTF-8"?>
<svg id="Calque_2" data-name="Calque 2" xmlns="http://www.w3.org/2000/svg" viewBox="0 0 144.48 73.86">
  <g id="Layer_2" data-name="Layer 2">
    <g id="feuilles">
      <g>
        <path fill="#fff" d="M62.69,17.43c-2.22-1.53-3.52-3.68-3.99-6.31-.6-3.29,2.47-6.23,5.72-5.5,1.92.43,3.62,2.56,3.16,4.17-.17.59-.76,1.21-1.32,1.51-.56.3-1.2.04-1.32-.55.69-.42,1.59-.67,1.69-1.11.13-.56-.24-1.39-.65-1.89-.92-1.13-2.45-1.42-3.68-.89-1.8.78-2.64,2.13-2.42,3.97.24,2.01,1.25,3.63,2.75,4.9,2.73,2.33,5.81,3.92,9.47,4.21,1.43.11,2.87.2,4.28.47,1.94.37,4.04.55,5.75,1.44,6.03,3.14,11.43,7.24,16.53,11.74.28.25.65.4.98.6-.2-.94-.57-1.66-1.09-2.23-2.61-2.83-5.39-5.41-8.82-7.29-2.08-1.14-4.09-2.52-5.83-4.12-2.13-1.95-3.31-4.45-2.81-7.52.1-.59-.23-1.39-.61-1.88-.84-1.07-1.23-2.22-1.13-3.55.18-2.3.35-4.61.55-6.91.02-.2.25-.38.44-.67,1.55,1.16,3.13,2.23,4.57,3.46,1.01.86,2.09,1.81,2.66,2.95.54,1.08,1.21,1.49,2.24,1.86,2.31.82,4.15,2.36,5.62,4.31,3.67,4.85,6.15,10.26,7.42,16.21.62,2.88,1.08,5.8,1.6,8.7.21,1.19.53,2.31,2.06,3.06-.26-1.12-.51-2-.67-2.88-.3-1.71-.78-3.44-.75-5.16.02-1.2-.13-2.05-.9-3.01-1.53-1.9-1.55-4.91-.13-6.92.47-.66.53-1.17.42-1.95-.18-1.24-.17-2.54-.06-3.8.13-1.43.44-2.84.72-4.25.08-.41.32-.8.62-1.52.51.66.96,1.02,1.12,1.47.7,1.97,1.93,3.39,3.7,4.54,1.02.66,1.89,1.75,2.46,2.84.73,1.38,1.09,2.96,1.7,4.7,2.66.89,4.18,3.1,4.82,6.02.36,1.64.61,3.3,1.01,4.92,1.74,7.08,5.09,13.22,10.58,18.11,1.77,1.58,3.71,2.67,6.22,2.58,1.83-.06,3.67.18,5.5.3.38.03.75.16,1.62.35-.8.34-1.08.56-1.35.56-3.66-.05-7.36.14-10.98-.28-3.46-.4-6.84-1.47-10.26-2.21-2.02-.44-4.03-.77-6.15-.46-3.97.58-7.8,1.59-11.54,3.06-1.92.76-3.9,1.44-5.91,1.91-4.18.97-8.11.54-10.99-2.47-1.46-.14-2.56-.26-3.66-.34-2.4-.18-4.26-1.17-5.43-3.36-.21-.39-.6-.81-.99-.93-3.67-1.19-5.49-4.45-7.89-7.04-.11-.12-.01-.44-.01-.93.75.15,1.43.26,2.09.44,2.26.61,4.43.6,6.36-.94,1.93-1.54,4.07-1.61,6.35-1.04.57.14,1.33.26,1.8,0,3.24-1.74,6.68-1.38,10.07-.91,4.41.6,8.44,2.33,12.26,4.58,1.31.77,2.63,1.5,3.95,2.24-5-4.84-10.07-9.46-15.15-14.07-1.78-1.62-3.66-3.09-6.09-3.65-1.6-.37-3.18-.4-4.67.36-2.25,1.15-2.92,4.12-1.21,5.59.52.45,1.45.67,2.16.62.73-.06,1.16-.75,1-1.57-.46-.24-.87-.46-1.78-.94.98-.18,1.46-.42,1.8-.3,1,.37,1.48,1.43,1.17,2.3-.38,1.06-1.8,1.85-2.93,1.51-1.51-.46-2.81-1.27-3.2-2.93-.39-1.67-.03-3.29,1.35-4.33.98-.73,2.25-1.1,3.44-1.5.67-.23,1.44-.2,2.68-.35-2.19-1.46-3.86-2.68-5.63-3.72-1.44-.84-3-1.49-4.52-2.18-1.19-.54-2.21-.24-2.94.83-.58.85-1.2,1.71-1.6,2.66-.77,1.84-1.49,3.71-2.06,5.61-1.48,4.92-4.43,8.61-8.91,11.1-.4.22-.96.49-1.07.84-.62,2.17-2.37,3.2-4.16,4.06-2.73,1.3-5.56,2.39-8.36,3.55-.28.12-.63.06-.97.09,0-.28-.03-.38,0-.43.08-.14.18-.27.28-.39,3.47-4.45,5.71-9.31,5.88-15.11.11-3.63,1.81-6.57,5.31-8.22.51-.24,1.06-.77,1.22-1.28.72-2.32,2.54-3.39,4.55-4.28.69-.3,1.41-.51,2.12-.77-6.88-.76-12.65,1.55-17.26,6.45-2.79,2.96-4.66,6.5-4.07,10.85.26,1.89.56,3.79.65,5.69.12,2.7.54,5.52-.02,8.1-.98,4.53-2.95,8.77-5.9,12.44-.46.58-1.01,1.09-1.66,1.79.27-2.4.71-4.43.69-6.45-.03-3.26-.36-6.52-.58-9.78,0-.08-.23-.15-.33-.21-2.59,2.07-4.58,4.48-5.98,7.6-1.38,3.09-3.33,6.03-6.18,8.13-3.23,2.39-6.54,4.6-10.86,4.24-.36-.03-.8.12-1.09.34-4.02,2.97-8.65,2.99-13.31,2.66-1.35-.1-2.77-.44-4-1.61.84-.47,1.54-.82,2.2-1.24,2.22-1.41,4.64-2.61,6.56-4.35,2.08-1.89,4.21-3.39,7-3.84,1.14-.19,2-.74,2.72-1.74,1.78-2.49,4.19-4.13,7.19-4.86,2.79-.69,5.57-1.42,8.37-2.07,1.84-.42,3.45-1.25,4.85-2.47,3.89-3.38,5.72-7.92,7.09-12.73-.61.39-1.09.87-1.5,1.4-3.02,3.96-6.76,6.97-11.38,8.89-7.1,2.94-12.17,1.6-17.22-3.98-1.1-1.21-2.19-2.05-3.61-2.78-2.17-1.12-4.2-2.57-3.94-5.63,1.68,0,3.26-.03,4.84.01.71.02,1.5,0,2.1.31,1.15.58,2.11.44,3.13-.22,1.95-1.27,3.93-1.14,5.88-.01,1.45.84,2.89,1.71,4.29,2.61,2.54,1.63,5.37,2.46,8.23,1.61,4.02-1.19,7.66-3.22,10.09-6.85.66-.99,1.12-2.11,1.86-3.54-5.9,2.72-13.56,1.78-18.29-3.5-1.12-1.25-2.29-2.45-3.48-3.63-.81-.8-1.7-1.53-2.56-2.29.66-.3,1.15-.34,1.55-.18,1.11.45,2.21.92,3.25,1.49,3.4,1.88,6.86,2.69,10.8,1.65,4.04-1.07,8.18-1.39,12.21.47.74.34,2.03.3,2.71-.13,3.48-2.24,7.23-3.7,11.69-4.5-1.55-1-2.77-1.74-3.94-2.55Z"/>
        <path fill="#000" d="M125.39,52.28c-8.2-6.9-13.8-16.84-15.69-27.37-.11-.7-.22-1.41-.31-2.11.33,1.18.81,2.9,1.19,4.09,2.97,9.44,8.11,18.12,14.8,25.4h0Z"/>
        <path fill="#000" d="M101.45,33.56c-2.46-8.4-7.23-16.07-13.79-21.87-.82-.74-2.04-1.73-2.89-2.41.55.31,1.09.63,1.63.97,7.98,5.17,13.72,13.89,15.05,23.32h0Z"/>
        <path fill="#000" d="M74.94,22.38c-7.95,6.59-10.94,17.01-17.7,24.6.58-.92,1.44-2.29,1.99-3.25,4.47-7.55,7.93-16.51,15.7-21.35h0Z"/>
        <path fill="#000" d="M50.42,25.97c-4.41,3.94-11.47,4.91-16.77,2.29,5.77,1.19,11.53.41,16.77-2.29h0Z"/>
        <path fill="#000" d="M46.98,39.79c1.25,7.73,1.02,16.65-4.08,23.04,3.84-7.13,3.91-15.14,4.08-23.04h0Z"/>
        <path fill="#000" d="M43.04,39.55c-5.55,6.13-15.55,9.99-21.78,2.63,7.11,5.96,15.27,2.2,21.78-2.63h0Z"/>
        <path fill="#000" d="M35.92,55.29c-6.33,7.04-15.09,11.94-24.39,13.67.95-.35,2.35-.86,3.31-1.24,7.67-2.95,14.74-7.22,21.08-12.43h0Z"/>
        <path fill="#000" d="M113.77,52.28c-10.47-1.6-22.3,1.54-32.09-3.47,10.33,3.72,21.62.5,32.09,3.47h0Z"/>
      </g>
    </g>
  </g>
</svg>