<svg width="1200" height="136" viewBox="0 0 1200 136" fill="none" xmlns="http://www.w3.org/2000/svg">
<path d="M167.44 120.173C165.824 120.173 164.516 119.449 164.516 118.559C164.516 117.672 165.824 116.951 167.44 116.951C169.052 116.951 170.361 117.672 170.361 118.559C170.361 119.449 169.052 120.173 167.44 120.173Z" fill="#5E9634"/>
<path d="M170.768 117.322C170.768 118.36 169.274 119.195 167.431 119.195C165.588 119.195 164.095 118.36 164.095 117.322C164.095 116.293 165.588 115.453 167.431 115.453C169.274 115.453 170.768 116.293 170.768 117.322Z" fill="#FDFF52"/>
<path d="M157.929 110.305C156.322 110.305 155.02 109.586 155.02 108.702C155.02 107.819 156.322 107.1 157.929 107.1C159.536 107.1 160.838 107.819 160.838 108.702C160.838 109.586 159.536 110.305 157.929 110.305Z" fill="#5E9634"/>
<path d="M161.243 107.47C161.243 108.501 159.757 109.336 157.923 109.336C156.089 109.336 154.6 108.501 154.6 107.47C154.6 106.445 156.089 105.612 157.923 105.612C159.757 105.612 161.243 106.445 161.243 107.47Z" fill="#FDFF52"/>
<path d="M239.032 77.1924C236.72 77.1924 234.848 76.16 234.848 74.8855C234.848 73.6158 236.72 72.5862 239.032 72.5862C241.34 72.5862 243.214 73.6158 243.214 74.8855C243.214 76.16 241.34 77.1924 239.032 77.1924Z" fill="#5E9634"/>
<path d="M243.795 73.1183C243.795 74.5991 241.659 75.7969 239.021 75.7969C236.384 75.7969 234.246 74.5991 234.246 73.1183C234.246 71.6426 236.384 70.4417 239.021 70.4417C241.659 70.4417 243.795 71.6426 243.795 73.1183Z" fill="#FDFF52"/>
<path d="M368.617 45.5557C367.189 45.5557 366.031 44.9184 366.031 44.1307C366.031 43.3451 367.189 42.7078 368.617 42.7078C370.043 42.7078 371.201 43.3451 371.201 44.1307C371.201 44.9184 370.043 45.5557 368.617 45.5557Z" fill="#5E9634"/>
<path d="M371.559 43.0395C371.559 43.9516 370.237 44.6934 368.609 44.6934C366.981 44.6934 365.662 43.9516 365.662 43.0395C365.662 42.1244 366.981 41.3846 368.609 41.3846C370.237 41.3846 371.559 42.1244 371.559 43.0395Z" fill="#FDFF52"/>
<path d="M357.808 46.1885C356.243 46.1885 354.976 45.4923 354.976 44.6251C354.976 43.7686 356.243 43.0676 357.808 43.0676C359.371 43.0676 360.64 43.7686 360.64 44.6251C360.64 45.4923 359.371 46.1885 357.808 46.1885Z" fill="#5E9634"/>
<path d="M361.032 43.43C361.032 44.4338 359.587 45.2441 357.8 45.2441C356.016 45.2441 354.568 44.4338 354.568 43.43C354.568 42.4302 356.016 41.6168 357.8 41.6168C359.587 41.6168 361.032 42.4302 361.032 43.43Z" fill="#FDFF52"/>
<path d="M476.373 25.8965C474.572 25.8965 473.114 25.091 473.114 24.0971C473.114 23.1075 474.572 22.3048 476.373 22.3048C478.171 22.3048 479.632 23.1075 479.632 24.0971C479.632 25.091 478.171 25.8965 476.373 25.8965Z" fill="#5E9634"/>
<path d="M480.086 22.7206C480.086 23.8756 478.42 24.8086 476.364 24.8086C474.309 24.8086 472.643 23.8756 472.643 22.7206C472.643 21.5715 474.309 20.6385 476.364 20.6385C478.42 20.6385 480.086 21.5715 480.086 22.7206Z" fill="#FDFF52"/>
<path d="M311.364 89.5117C308.951 89.5117 306.999 88.4362 306.999 87.1059C306.999 85.7826 308.951 84.7072 311.364 84.7072C313.775 84.7072 315.729 85.7826 315.729 87.1059C315.729 88.4362 313.775 89.5117 311.364 89.5117Z" fill="#5E9634"/>
<path d="M316.336 85.2627C316.336 86.807 314.106 88.0586 311.353 88.0586C308.603 88.0586 306.373 86.807 306.373 85.2627C306.373 83.7234 308.603 82.4715 311.353 82.4715C314.106 82.4715 316.336 83.7234 316.336 85.2627Z" fill="#FDFF52"/>
<path d="M163.893 14.3975C161.511 14.3975 159.58 13.3345 159.58 12.0217C159.58 10.714 161.511 9.65105 163.893 9.65105C166.272 9.65105 168.204 10.714 168.204 12.0217C168.204 13.3345 166.272 14.3975 163.893 14.3975Z" fill="#5E9634"/>
<path d="M168.803 10.2022C168.803 11.7291 166.601 12.9629 163.882 12.9629C161.165 12.9629 158.963 11.7291 158.963 10.2022C158.963 8.67788 161.165 7.4441 163.882 7.4441C166.601 7.4441 168.803 8.67788 168.803 10.2022Z" fill="#FDFF52"/>
<path d="M153.619 21.5127C152.138 21.5127 150.938 20.8525 150.938 20.0309C150.938 19.2185 152.138 18.5552 153.619 18.5552C155.1 18.5552 156.301 19.2185 156.301 20.0309C156.301 20.8525 155.1 21.5127 153.619 21.5127Z" fill="#5E9634"/>
<path d="M156.673 18.8996C156.673 19.8504 155.304 20.6172 153.612 20.6172C151.922 20.6172 150.552 19.8504 150.552 18.8996C150.552 17.9536 151.922 17.1838 153.612 17.1838C155.304 17.1838 156.673 17.9536 156.673 18.8996Z" fill="#FDFF52"/>
<path d="M67.7271 56.5166C65.7101 56.5166 64.0769 55.6135 64.0769 54.5051C64.0769 53.396 65.7101 52.4987 67.7271 52.4987C69.7401 52.4987 71.3754 53.396 71.3754 54.5051C71.3754 55.6135 69.7401 56.5166 67.7271 56.5166Z" fill="#5E9634"/>
<path d="M71.8801 52.9628C71.8801 54.2552 70.0182 55.2998 67.7165 55.2998C65.4162 55.2998 63.5532 54.2552 63.5532 52.9628C63.5532 51.6752 65.4162 50.6278 67.7165 50.6278C70.0182 50.6278 71.8801 51.6752 71.8801 52.9628Z" fill="#FDFF52"/>
<path d="M144.87 44.7803C143.245 44.7803 141.93 44.0563 141.93 43.1621C141.93 42.2699 143.245 41.5432 144.87 41.5432C146.494 41.5432 147.81 42.2699 147.81 43.1621C147.81 44.0563 146.494 44.7803 144.87 44.7803Z" fill="#5E9634"/>
<path d="M148.218 41.9169C148.218 42.9602 146.716 43.8037 144.862 43.8037C143.008 43.8037 141.507 42.9602 141.507 41.9169C141.507 40.8802 143.008 40.0387 144.862 40.0387C146.716 40.0387 148.218 40.8802 148.218 41.9169Z" fill="#FDFF52"/>
<path d="M125.548 32.1826C123.401 32.1826 121.664 31.2237 121.664 30.0388C121.664 28.8609 123.401 27.9029 125.548 27.9029C127.693 27.9029 129.43 28.8609 129.43 30.0388C129.43 31.2237 127.693 32.1826 125.548 32.1826Z" fill="#5E9634"/>
<path d="M129.97 28.4023C129.97 29.7765 127.987 30.8877 125.539 30.8877C123.088 30.8877 121.106 29.7765 121.106 28.4023C121.106 27.0312 123.088 25.917 125.539 25.917C127.987 25.917 129.97 27.0312 129.97 28.4023Z" fill="#FDFF52"/>
<path d="M131.854 83.0244C129.745 83.0244 128.037 82.0835 128.037 80.9214C128.037 79.7644 129.745 78.8235 131.854 78.8235C133.961 78.8235 135.668 79.7644 135.668 80.9214C135.668 82.0835 133.961 83.0244 131.854 83.0244Z" fill="#5E9634"/>
<path d="M136.196 79.3104C136.196 80.6617 134.248 81.7529 131.843 81.7529C129.438 81.7529 127.49 80.6617 127.49 79.3104C127.49 77.9622 129.438 76.8689 131.843 76.8689C134.248 76.8689 136.196 77.9622 136.196 79.3104Z" fill="#FDFF52"/>
<path d="M127.835 91.3809C126.212 91.3809 124.897 90.6569 124.897 89.7617C124.897 88.8695 126.212 88.1455 127.835 88.1455C129.456 88.1455 130.771 88.8695 130.771 89.7617C130.771 90.6569 129.456 91.3809 127.835 91.3809Z" fill="#5E9634"/>
<path d="M131.178 88.5233C131.178 89.5628 129.678 90.4043 127.827 90.4043C125.975 90.4043 124.475 89.5628 124.475 88.5233C124.475 87.4828 125.975 86.6444 127.827 86.6444C129.678 86.6444 131.178 87.4828 131.178 88.5233Z" fill="#FDFF52"/>
<path d="M5.05811 94.2256C2.61236 94.2256 0.634827 93.1312 0.634827 91.7858C0.634827 90.4448 2.61236 89.3543 5.05811 89.3543C7.49853 89.3543 9.47822 90.4448 9.47822 91.7858C9.47822 93.1312 7.49853 94.2256 5.05811 94.2256Z" fill="#5E9634"/>
<path d="M10.093 89.9169C10.093 91.4853 7.8354 92.752 5.04759 92.752C2.25762 92.752 0 91.4853 0 89.9169C0 88.3576 2.25762 87.0902 5.04759 87.0902C7.8354 87.0902 10.093 88.3576 10.093 89.9169Z" fill="#FDFF52"/>
<path d="M37.459 107.794C35.8609 107.794 34.5665 107.077 34.5665 106.195C34.5665 105.319 35.8609 104.608 37.459 104.608C39.056 104.608 40.3526 105.319 40.3526 106.195C40.3526 107.077 39.056 107.794 37.459 107.794Z" fill="#5E9634"/>
<path d="M40.7525 104.977C40.7525 105.999 39.2764 106.827 37.4528 106.827C35.6292 106.827 34.1506 105.999 34.1506 104.977C34.1506 103.955 35.6292 103.124 37.4528 103.124C39.2764 103.124 40.7525 103.955 40.7525 104.977Z" fill="#FDFF52"/>
<path d="M457.88 117.798C425.206 117.798 389.09 114.142 360.751 108.231C314.528 98.5851 315.188 77.8309 357.18 63.3618C366.954 59.9972 377.131 56.8797 387.549 54.2289C402.285 71.3047 424.968 82.1315 450.141 82.1315C451.469 82.1315 452.809 82.1006 454.153 82.039C476.625 81.0142 496.487 71.527 510.303 57.0757C511.004 57.3745 511.704 57.6832 512.402 57.9967C565.411 81.8179 538.782 112.534 486.66 116.727C477.605 117.454 467.907 117.798 457.88 117.798ZM524.818 100.314C522.962 100.314 521.457 101.145 521.457 102.162C521.457 103.184 522.962 104.015 524.818 104.015C526.67 104.015 528.175 103.184 528.175 102.162C528.175 101.145 526.67 100.314 524.818 100.314Z" fill="#427741"/>
<mask id="mask0_386_3999" style="mask-type:luminance" maskUnits="userSpaceOnUse" x="387" y="45" width="124" height="38">
<path d="M450.141 82.1318C424.968 82.1318 402.285 71.3051 387.549 54.2292C407.914 49.0495 429.196 45.649 450.21 45.649C470.887 45.649 491.304 48.945 510.303 57.0761C496.487 71.5274 476.625 81.0146 454.153 82.0393C452.809 82.101 451.468 82.1318 450.141 82.1318Z" fill="white"/>
</mask>
<g mask="url(#mask0_386_3999)">
<path d="M450.141 82.1318C424.968 82.1318 402.285 71.3051 387.549 54.2292C407.914 49.0495 429.196 45.649 450.21 45.649C470.887 45.649 491.304 48.945 510.303 57.0761C496.487 71.5274 476.625 81.0146 454.153 82.0393C452.809 82.101 451.468 82.1318 450.141 82.1318Z" fill="url(#paint0_radial_386_3999)"/>
</g>
<path d="M524.818 104.016C522.962 104.016 521.457 103.185 521.457 102.162C521.457 101.146 522.962 100.314 524.818 100.314C526.67 100.314 528.176 101.146 528.176 102.162C528.176 103.185 526.67 104.016 524.818 104.016Z" fill="#3C6F3E"/>
<path d="M528.643 100.743C528.643 101.934 526.927 102.896 524.809 102.896C522.691 102.896 520.976 101.934 520.976 100.743C520.976 99.5577 522.691 98.5969 524.809 98.5969C526.927 98.5969 528.643 99.5577 528.643 100.743Z" fill="#FDFF52"/>
<path d="M868.443 43.4189C866.875 43.4189 865.608 42.723 865.608 41.8597C865.608 41.0004 866.875 40.3045 868.443 40.3045C870.002 40.3045 871.269 41.0004 871.269 41.8597C871.269 42.723 870.002 43.4189 868.443 43.4189Z" fill="#5E9634"/>
<path d="M871.663 40.6633C871.663 41.6679 870.216 42.4785 868.432 42.4785C866.645 42.4785 865.203 41.6679 865.203 40.6633C865.203 39.6666 866.645 38.8529 868.432 38.8529C870.216 38.8529 871.663 39.6666 871.663 40.6633Z" fill="#FDFF52"/>
<path d="M852.242 52.126C850.811 52.126 849.648 51.4839 849.648 50.6993C849.648 49.9116 850.811 49.2692 852.242 49.2692C853.674 49.2692 854.834 49.9116 854.834 50.6993C854.834 51.4839 853.674 52.126 852.242 52.126Z" fill="#5E9634"/>
<path d="M855.195 49.6038C855.195 50.519 853.871 51.2607 852.237 51.2607C850.603 51.2607 849.281 50.519 849.281 49.6038C849.281 48.6887 850.603 47.9469 852.237 47.9469C853.871 47.9469 855.195 48.6887 855.195 49.6038Z" fill="#FDFF52"/>
<path d="M945.74 51.3672C943.535 51.3672 941.748 50.3835 941.748 49.1655C941.748 47.9547 943.535 46.97 945.74 46.97C947.943 46.97 949.73 47.9547 949.73 49.1655C949.73 50.3835 947.943 51.3672 945.74 51.3672Z" fill="#5E9634"/>
<path d="M950.286 47.4792C950.286 48.8942 948.247 50.0361 945.729 50.0361C943.212 50.0361 941.173 48.8942 941.173 47.4792C941.173 46.0703 943.212 44.925 945.729 44.925C948.247 44.925 950.286 46.0703 950.286 47.4792Z" fill="#FDFF52"/>
<path d="M901.141 34.5146C898.944 34.5146 897.168 33.5338 897.168 32.3229C897.168 31.119 898.944 30.1384 901.141 30.1384C903.336 30.1384 905.112 31.119 905.112 32.3229C905.112 33.5338 903.336 34.5146 901.141 34.5146Z" fill="#5E9634"/>
<path d="M905.664 30.6453C905.664 32.0504 903.634 33.1924 901.13 33.1924C898.626 33.1924 896.596 32.0504 896.596 30.6453C896.596 29.2433 898.626 28.1041 901.13 28.1041C903.634 28.1041 905.664 29.2433 905.664 30.6453Z" fill="#FDFF52"/>
<path d="M981.92 95.6113C980.149 95.6113 978.713 94.8188 978.713 93.843C978.713 92.8711 980.149 92.0816 981.92 92.0816C983.69 92.0816 985.122 92.8711 985.122 93.843C985.122 94.8188 983.69 95.6113 981.92 95.6113Z" fill="#5E9634"/>
<path d="M985.565 92.4887C985.565 93.6259 983.931 94.541 981.909 94.541C979.889 94.541 978.253 93.6259 978.253 92.4887C978.253 91.3597 979.889 90.4395 981.909 90.4395C983.931 90.4395 985.565 91.3597 985.565 92.4887Z" fill="#FDFF52"/>
<path d="M966.886 93.1113C964.874 93.1113 963.243 92.2141 963.243 91.1029C963.243 89.9986 964.874 89.0993 966.886 89.0993C968.897 89.0993 970.528 89.9986 970.528 91.1029C970.528 92.2141 968.897 93.1113 966.886 93.1113Z" fill="#5E9634"/>
<path d="M971.034 89.5656C971.034 90.8549 969.173 91.8975 966.877 91.8975C964.579 91.8975 962.72 90.8549 962.72 89.5656C962.72 88.278 964.579 87.2354 966.877 87.2354C969.173 87.2354 971.034 88.278 971.034 89.5656Z" fill="#FDFF52"/>
<path d="M945.267 74.0371C943.415 74.0371 941.915 73.2104 941.915 72.188C941.915 71.1712 943.415 70.3458 945.267 70.3458C947.12 70.3458 948.617 71.1712 948.617 72.188C948.617 73.2104 947.12 74.0371 945.267 74.0371Z" fill="#5E9634"/>
<path d="M949.082 70.7742C949.082 71.9621 947.372 72.918 945.259 72.918C943.144 72.918 941.433 71.9621 941.433 70.7742C941.433 69.5912 943.144 68.6304 945.259 68.6304C947.372 68.6304 949.082 69.5912 949.082 70.7742Z" fill="#FDFF52"/>
<path d="M1080.31 72.4941C1078.69 72.4941 1077.37 71.7671 1077.37 70.8729C1077.37 69.9828 1078.69 69.2588 1080.31 69.2588C1081.93 69.2588 1083.25 69.9828 1083.25 70.8729C1083.25 71.7671 1081.93 72.4941 1080.31 72.4941Z" fill="#5E9634"/>
<path d="M1083.65 69.6316C1083.65 70.6742 1082.16 71.5156 1080.3 71.5156C1078.45 71.5156 1076.95 70.6742 1076.95 69.6316C1076.95 68.5962 1078.45 67.7557 1080.3 67.7557C1082.16 67.7557 1083.65 68.5962 1083.65 69.6316Z" fill="#FDFF52"/>
<path d="M966.565 96.4854C965.315 96.4854 964.299 95.9248 964.299 95.2368C964.299 94.5506 965.315 93.99 966.565 93.99C967.816 93.99 968.828 94.5506 968.828 95.2368C968.828 95.9248 967.816 96.4854 966.565 96.4854Z" fill="#5E9634"/>
<path d="M969.14 94.2817C969.14 95.0822 967.985 95.7324 966.56 95.7324C965.134 95.7324 963.976 95.0822 963.976 94.2817C963.976 93.4811 965.134 92.8339 966.56 92.8339C967.985 92.8339 969.14 93.4811 969.14 94.2817Z" fill="#FDFF52"/>
<path d="M836.937 92.5557C834.972 92.5557 833.38 91.6765 833.38 90.5931C833.38 89.5146 834.972 88.6375 836.937 88.6375C838.902 88.6375 840.492 89.5146 840.492 90.5931C840.492 91.6765 838.902 92.5557 836.937 92.5557Z" fill="#5E9634"/>
<path d="M840.984 89.0908C840.984 90.3475 839.17 91.3672 836.929 91.3672C834.688 91.3672 832.871 90.3475 832.871 89.0908C832.871 87.8341 834.688 86.8165 836.929 86.8165C839.17 86.8165 840.984 87.8341 840.984 89.0908Z" fill="#FDFF52"/>
<path d="M974.931 135.967C972.361 135.967 970.279 134.82 970.279 133.402C970.279 131.993 972.361 130.848 974.931 130.848C977.495 130.848 979.577 131.993 979.577 133.402C979.577 134.82 977.495 135.967 974.931 135.967Z" fill="#5E9634"/>
<path d="M980.22 131.439C980.22 133.086 977.848 134.416 974.92 134.416C971.986 134.416 969.614 133.086 969.614 131.439C969.614 129.8 971.986 128.466 974.92 128.466C977.848 128.466 980.22 129.8 980.22 131.439Z" fill="#FDFF52"/>
<path d="M1125.69 89.29C1123.82 89.29 1122.32 88.4588 1122.32 87.434C1122.32 86.4096 1123.82 85.5781 1125.69 85.5781C1127.55 85.5781 1129.06 86.4096 1129.06 87.434C1129.06 88.4588 1127.55 89.29 1125.69 89.29Z" fill="#5E9634"/>
<path d="M1129.52 86.0091C1129.52 87.2021 1127.8 88.168 1125.68 88.168C1123.55 88.168 1121.83 87.2021 1121.83 86.0091C1121.83 84.8182 1123.55 83.8554 1125.68 83.8554C1127.8 83.8554 1129.52 84.8182 1129.52 86.0091Z" fill="#FDFF52"/>
<path d="M1114.34 3.7041C1113.07 3.7041 1112.04 3.13566 1112.04 2.43976C1112.04 1.74386 1113.07 1.17542 1114.34 1.17542C1115.61 1.17542 1116.64 1.74386 1116.64 2.43976C1116.64 3.13566 1115.61 3.7041 1114.34 3.7041Z" fill="#5E9634"/>
<path d="M1116.96 1.46865C1116.96 2.28181 1115.78 2.93945 1114.33 2.93945C1112.88 2.93945 1111.71 2.28181 1111.71 1.46865C1111.71 0.658043 1112.88 0.000374872 1114.33 0.000374872C1115.78 0.000374872 1116.96 0.658043 1116.96 1.46865Z" fill="#FDFF52"/>
<path d="M1053.72 118.406C1052.08 118.406 1050.74 117.672 1050.74 116.762C1050.74 115.857 1052.08 115.123 1053.72 115.123C1055.37 115.123 1056.7 115.857 1056.7 116.762C1056.7 117.672 1055.37 118.406 1053.72 118.406Z" fill="#5E9634"/>
<path d="M1057.12 115.502C1057.12 116.558 1055.59 117.414 1053.71 117.414C1051.83 117.414 1050.31 116.558 1050.31 115.502C1050.31 114.45 1051.83 113.595 1053.71 113.595C1055.59 113.595 1057.12 114.45 1057.12 115.502Z" fill="#FDFF52"/>
<path d="M1147.64 36.9473C1146.15 36.9473 1144.94 36.2789 1144.94 35.4525C1144.94 34.635 1146.15 33.9669 1147.64 33.9669C1149.14 33.9669 1150.35 34.635 1150.35 35.4525C1150.35 36.2789 1149.14 36.9473 1147.64 36.9473Z" fill="#5E9634"/>
<path d="M1150.72 34.3135C1150.72 35.2694 1149.34 36.0469 1147.63 36.0469C1145.93 36.0469 1144.55 35.2694 1144.55 34.3135C1144.55 33.3576 1145.93 32.5799 1147.63 32.5799C1149.34 32.5799 1150.72 33.3576 1150.72 34.3135Z" fill="#FDFF52"/>
<path d="M1175.11 116.548C1173.54 116.548 1172.26 115.844 1172.26 114.978C1172.26 114.115 1173.54 113.412 1175.11 113.412C1176.68 113.412 1177.95 114.115 1177.95 114.978C1177.95 115.844 1176.68 116.548 1175.11 116.548Z" fill="#5E9634"/>
<path d="M1178.35 113.777C1178.35 114.783 1176.9 115.599 1175.1 115.599C1173.31 115.599 1171.85 114.783 1171.85 113.777C1171.85 112.772 1173.31 111.956 1175.1 111.956C1176.9 111.956 1178.35 112.772 1178.35 113.777Z" fill="#FDFF52"/>
<path d="M1196.28 54.0088C1194.47 54.0088 1193.01 53.2033 1193.01 52.2035C1193.01 51.2147 1194.47 50.4062 1196.28 50.4062C1198.08 50.4062 1199.55 51.2147 1199.55 52.2035C1199.55 53.2033 1198.08 54.0088 1196.28 54.0088Z" fill="#5E9634"/>
<path d="M1200 50.8238C1200 51.9839 1198.33 52.9189 1196.27 52.9189C1194.2 52.9189 1192.53 51.9839 1192.53 50.8238C1192.53 49.6689 1194.2 48.7308 1196.27 48.7308C1198.33 48.7308 1200 49.6689 1200 50.8238Z" fill="#FDFF52"/>
<path d="M949.654 133.073C947.651 133.073 946.028 132.179 946.028 131.073C946.028 129.974 947.651 129.079 949.654 129.079C951.66 129.079 953.283 129.974 953.283 131.073C953.283 132.179 951.66 133.073 949.654 133.073Z" fill="#5E9634"/>
<path d="M953.786 129.54C953.786 130.825 951.933 131.865 949.645 131.865C947.358 131.865 945.508 130.825 945.508 129.54C945.508 128.258 947.358 127.22 949.645 127.22C951.933 127.22 953.786 128.258 953.786 129.54Z" fill="#FDFF52"/>
<path d="M235.817 127.827C233.455 127.827 231.541 126.772 231.541 125.471C231.541 124.174 233.455 123.118 235.817 123.118C238.176 123.118 240.091 124.174 240.091 125.471C240.091 126.772 238.176 127.827 235.817 127.827Z" fill="#5E9634"/>
<path d="M240.684 123.667C240.684 125.179 238.5 126.402 235.806 126.402C233.111 126.402 230.927 125.179 230.927 123.667C230.927 122.156 233.111 120.929 235.806 120.929C238.5 120.929 240.684 122.156 240.684 123.667Z" fill="#FDFF52"/>
<defs>
<radialGradient id="paint0_radial_386_3999" cx="0" cy="0" r="1" gradientUnits="userSpaceOnUse" gradientTransform="translate(450.264 8.05756) rotate(-2.6094) scale(80.1252 74.0893)">
<stop stop-color="#768E4A"/>
<stop offset="1" stop-color="#427741"/>
</radialGradient>
</defs>
</svg>
