<svg width="256" height="109" viewBox="0 0 256 109" fill="none" xmlns="http://www.w3.org/2000/svg">
<path d="M219.079 73.6328H184.617V107.996H219.079V73.6328Z" fill="white"/>
<path d="M219.079 36.8203H184.617V71.1839H219.079V36.8203Z" fill="white"/>
<path d="M219.079 0H184.617V34.3636H219.079V0Z" fill="white"/>
<path d="M182.157 0H147.695V34.3636H182.157V0Z" fill="white"/>
<path d="M256.001 0H221.539V34.3636H256.001V0Z" fill="white"/>
<path fill-rule="evenodd" clip-rule="evenodd" d="M147.695 0L182.157 34.3636H147.695V0Z" fill="#6ABFAD"/>
<path d="M108.305 36.8203H73.8438V71.1839H108.305V36.8203Z" fill="#6ABFAD"/>
<path d="M108.305 73.6406H73.8438V108.004H108.305V73.6406Z" fill="#6ABFAD"/>
<path fill-rule="evenodd" clip-rule="evenodd" d="M110.766 73.6406H145.227V108.004L110.766 73.6406Z" fill="#6ABFAD"/>
<path fill-rule="evenodd" clip-rule="evenodd" d="M110.766 36.8203L145.227 71.1839H110.766V36.8203Z" fill="#6ABFAD"/>
<path d="M182.149 36.8203H147.688V71.1839H182.149V36.8203Z" fill="#6ABFAD"/>
<path d="M182.149 73.6406H147.688V108.004H182.149V73.6406Z" fill="#6ABFAD"/>
<path d="M71.3834 73.6328H36.9219V107.996H71.3834V73.6328Z" fill="white"/>
<path d="M71.3834 36.8203H36.9219V71.1839H71.3834V36.8203Z" fill="white"/>
<path d="M71.3834 0H36.9219V34.3636H71.3834V0Z" fill="white"/>
<path d="M34.4615 0H0V34.3636H34.4615V0Z" fill="white"/>
<path d="M108.305 0H73.8438V34.3636H108.305V0Z" fill="white"/>
<path fill-rule="evenodd" clip-rule="evenodd" d="M73.8438 0L108.305 34.3636H73.8438V0Z" fill="#6ABFAD"/>
</svg>
